<svg width="197" height="166" viewBox="0 0 197 166" fill="none" xmlns="http://www.w3.org/2000/svg">
<g clip-path="url(#clip0_1179_831)">
<path d="M126.188 0.0787507C126.398 0.0918759 126.601 0.111564 126.81 0.124689C126.882 0.0853133 126.948 0.0393754 127.02 0L126.188 0.0787507Z" fill="black"/>
<path d="M41.8075 10.3492C41.8795 10.3885 41.945 10.4345 42.017 10.4738C42.2265 10.4607 42.4294 10.4345 42.6388 10.4279L41.8075 10.3492Z" fill="black"/>
<path d="M72.8277 165.921C72.6182 165.908 72.4153 165.888 72.2058 165.875C72.1338 165.915 72.0684 165.961 71.9964 166L72.8277 165.921Z" fill="black"/>
<path d="M196.213 133.636C194.387 129.14 191.422 125.184 187.855 122.482C186.841 121.713 185.748 121.036 184.609 120.832C183.012 120.55 181.52 121.214 179.975 121.483C177.109 121.989 173.784 120.97 171.637 118.243C169.491 115.515 168.98 111.019 170.95 108.68C171.5 108.029 172.207 107.542 172.599 106.741C173.516 104.841 172.377 101.785 173.673 100.26C174.177 99.6683 174.962 99.4515 175.381 98.7679C176.664 96.6778 173.359 93.2008 174.373 90.8872C174.916 89.6384 176.369 89.5727 177.56 89.2835C178.752 88.9943 180.008 87.7323 179.393 86.3652C179.236 86.0103 178.974 85.7342 178.712 85.4779C175.558 82.369 171.219 81.1794 167.639 82.4479C167.285 82.5728 166.912 82.7437 166.748 83.1314C166.572 83.5455 166.69 84.0779 166.814 84.5577C167.553 87.5154 168.286 90.4797 169.026 93.4374C169.275 94.4431 169.523 95.521 169.255 96.4412C168.987 97.3482 168.273 97.8937 167.697 98.5444C165.97 100.49 164.805 103.908 162.265 103.592C160.007 103.316 158.633 100.214 156.67 98.6233C154.916 97.2036 152.769 97.0656 150.76 96.5069C148.75 95.9482 146.506 94.5219 146.008 92.1426C145.746 90.8872 146.041 89.6384 145.943 88.3699C145.773 86.1878 144.418 84.1699 142.821 82.8817C142.579 82.6845 142.33 82.5136 142.075 82.3427C145.007 82.4545 148.122 81.2057 150.544 78.8263C150.806 78.57 151.067 78.2874 151.224 77.939C151.84 76.5719 150.576 75.3099 149.392 75.0207C148.207 74.7315 146.754 74.6658 146.205 73.417C145.19 71.1034 148.502 67.6265 147.212 65.5363C146.794 64.8528 146.008 64.6359 145.504 64.0443C144.208 62.5129 145.347 59.4632 144.431 57.5637C144.045 56.7552 143.331 56.2754 142.782 55.6247C140.812 53.2783 141.322 48.7825 143.469 46.0614C145.616 43.3403 148.94 42.315 151.807 42.8211C153.345 43.0972 154.844 43.761 156.441 43.4718C157.586 43.2681 158.672 42.5845 159.687 41.8221C163.26 39.1207 166.225 35.1639 168.044 30.6682C168.699 29.0513 169.196 27.0861 168.457 25.719C167.488 23.9312 164.909 24.411 163.456 26.0607C162.004 27.7105 161.369 30.0504 160.734 32.2522C160.099 34.4541 159.294 36.794 157.677 38.2005C156.82 36.6296 155.714 34.8944 154.045 34.993C153.188 35.0456 152.357 35.5911 151.499 35.7949C150.315 36.0775 149.163 35.6832 148.07 35.2888C145.406 34.3423 142.736 33.3893 140.072 32.4428C138.626 31.9302 137.022 31.24 136.551 29.5377C135.929 27.2964 137.768 24.6805 139.751 23.7274C141.741 22.7744 143.862 22.8993 145.923 22.4523C147.985 22.012 150.282 20.6646 150.982 18.2721C151.722 15.7482 150.354 13.3754 148.914 11.6402C143.246 4.77178 135.308 0.611261 126.819 0C121.465 3.10888 117.414 9.74073 116.753 16.5238C116.472 19.3763 116.721 22.3274 115.647 25.0091C113.841 29.5114 109.057 31.3518 105.084 31.148C102.139 30.9968 98.7422 29.1236 99.1283 25.5809C99.2657 24.3453 99.8613 23.1885 100.215 21.9857C101.236 18.5219 100.254 14.6571 101.818 11.4233C102.401 10.2205 103.31 9.18863 103.683 7.89381C104.056 6.59899 103.454 4.89666 102.342 5.15299C101.903 5.25158 101.524 5.62623 101.177 5.98115C99.2003 7.99897 97.25 10.0562 95.3258 12.1463C94.4554 13.0994 93.4933 14.3811 93.7682 15.6167C93.9514 16.4317 94.619 16.8918 95.0378 17.5491C96.602 20.0401 94.1608 24.2204 95.1687 27.1387C95.8625 29.1433 98.0746 30.1424 98.1139 32.3902C98.1597 34.8813 95.6138 36.4916 93.5456 37.3395C91.3728 38.2399 88.4015 38.7789 87.6488 36.4127C87.3936 35.6109 87.4983 34.6775 87.4198 33.8034C87.1972 31.4043 85.3582 29.5837 83.29 29.7086C81.7455 33.4747 81.4902 37.793 82.557 41.4277C81.9418 42.1441 81.5164 43.0972 81.4183 44.1685C81.3397 45.0427 81.4444 45.976 81.1892 46.7779C80.4365 49.144 77.4652 48.6051 75.2924 47.7046C73.2242 46.8502 70.6783 45.2464 70.7242 42.7554C70.7634 40.5075 72.9755 39.5085 73.6693 37.5038C74.6772 34.5855 72.236 30.4053 73.8002 27.9142C74.2125 27.2504 74.8866 26.7969 75.0699 25.9819C75.3447 24.7396 74.3827 23.4579 73.5122 22.5115C71.5881 20.4148 69.6377 18.3641 67.6612 16.3463C67.3078 15.9848 66.9348 15.6167 66.4963 15.5181C65.3837 15.2618 64.7815 16.9641 65.1546 18.2589C65.5276 19.5538 66.4374 20.5857 67.0198 21.7885C68.5906 25.0223 67.6089 28.8804 68.6233 32.3508C68.9767 33.5536 69.5723 34.7104 69.7097 35.9461C70.0959 39.4822 66.6991 41.362 63.754 41.5131C59.7814 41.7169 54.9906 39.8765 53.1908 35.3742C52.1175 32.6926 52.3662 29.7414 52.0848 26.8889C51.4172 20.0993 47.366 13.474 42.019 10.3651C33.5239 10.9764 25.5917 15.1369 19.9109 21.9988C18.4776 23.734 17.1097 26.1067 17.8427 28.6307C18.543 31.0231 20.8402 32.3705 22.9018 32.8109C24.9634 33.2513 27.0839 33.133 29.0735 34.086C31.0631 35.039 32.8956 37.655 32.2739 39.8963C31.8026 41.592 30.1992 42.2821 28.7528 42.8014C26.0891 43.7479 23.4188 44.7009 20.7551 45.6474C19.6622 46.0352 18.5103 46.4295 17.3257 46.1535C16.4683 45.9497 15.6371 45.4042 14.7798 45.3516C13.1109 45.253 12.0048 46.9882 11.1475 48.5591C9.53091 47.1525 8.72591 44.8126 8.09107 42.6108C7.45623 40.4089 6.82139 38.0691 5.36846 36.4193C3.91553 34.7696 1.3369 34.2898 0.368283 36.0775C-0.371272 37.4446 0.126128 39.4033 0.780601 41.0268C2.60658 45.5225 5.57135 49.4793 9.13822 52.1806C10.1527 52.9496 11.2456 53.6266 12.3844 53.8304C13.9813 54.113 15.4735 53.4492 17.0181 53.1797C19.8847 52.6736 23.2094 53.6923 25.3561 56.42C27.5027 59.1411 28.0132 63.6434 26.0433 65.9833C25.4935 66.634 24.7867 67.1204 24.394 67.9222C23.4777 69.8217 24.6165 72.878 23.3207 74.4029C22.8167 74.9945 22.0313 75.2114 21.6125 75.8949C20.3297 77.985 23.6348 81.462 22.6204 83.7756C22.0772 85.0244 20.6242 85.0901 19.4331 85.3793C18.2485 85.6685 16.9854 86.9305 17.6006 88.2976C17.7576 88.6525 18.0194 88.9286 18.2812 89.1849C21.4358 92.2938 25.7749 93.4834 29.3549 92.2149C29.7083 92.09 30.0814 91.9191 30.245 91.5314C30.4217 91.1173 30.3039 90.5849 30.1795 90.1051C29.44 87.1474 28.707 84.1831 27.9674 81.2254C27.7187 80.2197 27.47 79.1418 27.7384 78.2216C28.0067 77.3146 28.7201 76.7691 29.296 76.1184C31.0238 74.1729 32.1888 70.7551 34.7281 71.0706C36.9861 71.3466 38.3605 74.4489 40.3239 76.0395C42.0779 77.4592 44.2245 77.5972 46.2338 78.1559C48.243 78.7146 50.4878 80.1409 50.9852 82.5202C51.175 83.4206 51.0769 84.3145 51.0376 85.2084C50.1213 85.7408 49.2574 86.3981 48.459 87.1802C48.1972 87.4366 47.9354 87.7192 47.7783 88.0675C47.1631 89.4347 48.4263 90.6966 49.6108 90.9858C50.7954 91.275 52.2484 91.3407 52.7981 92.5896C53.8126 94.9031 50.5009 98.3801 51.7902 100.47C52.2091 101.154 52.9945 101.371 53.4984 101.962C54.7943 103.494 53.6555 106.543 54.5718 108.443C54.9579 109.251 55.6713 109.731 56.221 110.382C58.191 112.728 57.6805 117.224 55.5338 119.945C53.3872 122.666 50.0624 123.692 47.1958 123.185C45.6578 122.909 44.1591 122.246 42.5622 122.535C41.4168 122.739 40.3304 123.422 39.316 124.185C35.7426 126.886 32.7778 130.843 30.9584 135.338C30.3039 136.955 29.8065 138.92 30.546 140.288C31.5147 142.075 34.0933 141.596 35.5462 139.946C36.9991 138.296 37.634 135.956 38.2688 133.754C38.9037 131.552 39.7087 129.213 41.3252 127.806C42.1826 129.377 43.2886 131.112 44.9575 131.014C45.8149 130.961 46.6461 130.415 47.5034 130.212C48.688 129.929 49.8399 130.323 50.9329 130.718C53.5966 131.664 56.2668 132.617 58.9305 133.564C60.3769 134.076 61.9804 134.767 62.4516 136.469C63.0734 138.71 61.2343 141.326 59.2512 142.279C57.2616 143.232 55.1411 143.107 53.0796 143.554C51.018 144.001 48.7208 145.342 48.0205 147.734C47.2809 150.258 48.6488 152.631 50.0886 154.366C55.7694 161.228 63.7082 165.389 72.1967 166C77.5503 162.891 81.6015 156.259 82.2625 149.476C82.5439 146.624 82.2952 143.673 83.3686 140.991C85.1749 136.489 89.9591 134.648 93.9318 134.852C96.8769 135.003 100.274 136.876 99.8875 140.419C99.75 141.655 99.1545 142.812 98.8011 144.014C97.7801 147.478 98.7618 151.343 97.1976 154.577C96.6151 155.779 95.7054 156.811 95.3324 158.106C94.9593 159.401 95.5614 161.103 96.674 160.847C97.1125 160.748 97.4921 160.374 97.839 160.019C99.8155 158.001 101.766 155.944 103.69 153.854C104.56 152.901 105.522 151.619 105.248 150.383C105.064 149.568 104.397 149.108 103.978 148.451C102.414 145.96 104.855 141.78 103.847 138.861C103.153 136.857 100.941 135.858 100.902 133.61C100.856 131.119 103.402 129.508 105.47 128.661C106.956 128.049 108.814 127.602 110.084 128.135C110.156 130.317 110.608 132.532 111.452 134.583C111.779 134.602 112.093 134.569 112.408 134.497C113.18 135.654 114.404 136.37 115.732 136.291C117.009 133.183 117.401 129.692 116.897 126.531C118.16 125.847 120.143 126.301 121.708 126.952C123.776 127.806 126.322 129.41 126.276 131.901C126.237 134.149 124.024 135.148 123.331 137.152C122.323 140.071 124.764 144.251 123.2 146.742C122.788 147.406 122.113 147.859 121.93 148.674C121.655 149.917 122.617 151.198 123.488 152.145C125.412 154.241 127.362 156.292 129.339 158.31C129.692 158.671 130.065 159.04 130.504 159.138C131.616 159.394 132.218 157.692 131.845 156.397C131.472 155.102 130.563 154.071 129.98 152.868C128.409 149.634 129.391 145.776 128.377 142.305C128.023 141.103 127.428 139.946 127.29 138.71C126.904 135.174 130.301 133.294 133.246 133.143C137.219 132.939 142.009 134.78 143.809 139.282C144.883 141.964 144.634 144.915 144.915 147.767C145.583 154.557 149.634 161.182 154.981 164.291C163.476 163.68 171.408 159.519 177.089 152.657C178.522 150.922 179.89 148.549 179.157 146.026C178.457 143.633 176.16 142.286 174.098 141.845C172.037 141.405 169.916 141.523 167.927 140.57C165.937 139.617 164.104 137.001 164.726 134.76C165.197 133.064 166.801 132.374 168.247 131.855C170.911 130.908 173.581 129.955 176.245 129.009C177.338 128.621 178.49 128.227 179.674 128.503C180.532 128.707 181.363 129.252 182.22 129.305C183.889 129.403 184.995 127.668 185.853 126.097C187.469 127.504 188.274 129.844 188.909 132.045C189.544 134.247 190.179 136.587 191.632 138.237C193.084 139.887 195.663 140.366 196.632 138.579C197.371 137.212 196.874 135.253 196.219 133.629L196.213 133.636ZM159.405 126.432C156.349 129.87 151.368 130.737 147.075 128.601C144.411 127.274 141.937 124.881 139.156 124.631C135.491 124.303 132.31 127.845 128.697 126.597C127.297 126.117 126.06 124.96 124.666 124.441C122.257 123.534 119.639 124.612 117.355 123.218C115.601 122.147 113.9 119.669 112.218 120.445C111.498 120.773 111.099 121.647 110.824 122.502C110.608 123.172 110.457 123.876 110.333 124.592C110.169 124.71 110.006 124.829 109.842 124.927C107.558 126.321 104.94 125.243 102.532 126.15C101.138 126.669 99.9006 127.826 98.5 128.306C94.8873 129.548 91.7066 126.012 88.0415 126.34C85.2666 126.59 82.7861 128.983 80.1224 130.31C75.829 132.446 70.8485 131.579 67.7921 128.141C64.7357 124.704 63.7606 118.854 65.4098 113.701C67.0526 108.548 71.2477 104.361 75.7243 103.421C77.8317 102.974 79.9588 103.198 82.0531 102.613C84.1474 102.028 86.3792 100.26 86.798 97.7557C87.3543 94.4233 84.5139 91.4328 85.7181 88.2647C86.5428 86.1089 88.7353 85.2807 90.6071 84.5249C91.2943 84.2488 92.1123 83.7559 92.1909 82.9211C92.3087 81.6263 90.7118 81.5671 89.6384 81.9549C87.8321 82.6188 85.993 83.3023 84.3896 84.584C82.7861 85.8657 81.4379 87.8901 81.2677 90.0722C81.1695 91.3407 81.4641 92.5896 81.2023 93.8449C80.7049 96.2243 78.46 97.644 76.4508 98.2092C74.4416 98.7745 72.3014 98.9059 70.5409 100.326C68.5775 101.916 67.1965 105.012 64.9452 105.295C62.4058 105.61 61.2474 102.192 59.513 100.247C58.9371 99.6026 58.2237 99.0505 57.9554 98.1435C57.6805 97.2233 57.9358 96.1454 58.1845 95.1398C58.2761 94.7717 58.3677 94.4036 58.4593 94.029C58.7931 94.1539 59.1203 94.2787 59.4541 94.397C60.5275 94.7914 62.1244 94.7257 62.0066 93.4309C61.928 92.5961 61.1099 92.1032 60.4227 91.8271C60.0039 91.6628 59.5719 91.4853 59.14 91.2947C59.5588 89.6121 59.9777 87.9295 60.3966 86.2535C60.5144 85.7737 60.6322 85.2413 60.462 84.8272C60.2984 84.4394 59.9253 84.2685 59.5719 84.1436C58.3612 83.7164 57.0588 83.5784 55.7433 83.6901C56.2472 82.0404 56.9082 80.3709 56.6137 78.6029C56.1949 76.1052 53.9696 74.3372 51.8688 73.7456C49.7745 73.1541 47.6474 73.3776 45.54 72.9372C41.0634 71.9973 36.8748 67.8105 35.2255 62.6575C33.5828 57.5045 34.5514 51.6548 37.6078 48.2173C40.6642 44.7798 45.6447 43.9122 49.9381 46.0483C52.6018 47.376 55.0757 49.7684 57.8572 50.0182C61.5223 50.3468 64.703 46.8042 68.3157 48.053C69.7163 48.5328 70.9532 49.6896 72.3473 50.2088C74.7557 51.1093 77.3736 50.0379 79.6577 51.4313C81.4117 52.5027 83.1133 54.9806 84.7953 54.205C85.5153 53.8764 85.9145 53.0022 86.1894 52.1478C87.0729 49.4069 87.1645 46.2455 86.51 43.2089C87.387 42.5451 88.2771 41.6249 89.1868 41.0728C91.471 39.6794 94.0889 40.7573 96.4973 39.8503C97.8913 39.331 99.1283 38.1742 100.529 37.6944C104.142 36.4522 107.322 39.9883 110.987 39.6596C113.762 39.4099 116.243 37.0174 118.906 35.6897C123.2 33.5536 128.18 34.4212 131.237 37.8587C134.293 41.2962 135.268 47.1459 133.619 52.2989C131.976 57.4519 127.781 61.6387 123.305 62.5786C121.197 63.0256 119.07 62.8021 116.976 63.3871C114.881 63.9786 112.65 65.7401 112.231 68.2443C111.675 71.5766 114.515 74.5672 113.311 77.7353C112.486 79.8911 110.294 80.7193 108.422 81.4751C107.735 81.7512 106.917 82.2441 106.838 83.0789C106.72 84.3737 108.317 84.4328 109.39 84.0451C111.197 83.3812 113.036 82.6977 114.639 81.416C116.243 80.1277 117.591 78.1099 117.761 75.9278C117.859 74.6592 117.565 73.4104 117.827 72.155C118.324 69.7757 120.569 68.356 122.578 67.7908C124.587 67.2255 126.727 67.0941 128.488 65.6744C130.451 64.0838 131.832 60.988 134.084 60.7054C136.623 60.3899 137.781 63.8077 139.516 65.7532C140.092 66.3974 140.805 66.9495 141.073 67.8565C141.348 68.7767 141.093 69.8546 140.844 70.8602C140.105 73.8179 139.372 76.7822 138.632 79.7399C138.56 80.0226 138.501 80.3118 138.488 80.5944C138.181 80.4761 137.867 80.3643 137.559 80.246C136.486 79.8517 134.889 79.9174 135.007 81.2122C135.085 82.047 135.903 82.5399 136.59 82.816C138.462 83.5652 140.655 84.4 141.479 86.5558C142.683 89.7239 139.843 92.7144 140.399 96.0468C140.818 98.5444 143.043 100.312 145.144 100.904C147.239 101.496 149.366 101.272 151.473 101.712C155.95 102.652 160.138 106.839 161.788 111.992C163.43 117.145 162.462 122.995 159.405 126.432Z" fill="black"/>
<path d="M155.192 164.287C155.12 164.248 155.055 164.202 154.983 164.162C154.774 164.176 154.571 164.202 154.361 164.208L155.192 164.287Z" fill="black"/>
</g>
<defs>
<clipPath id="clip0_1179_831">
<rect width="197" height="166" fill="white"/>
</clipPath>
</defs>
</svg>
