<svg width="154" height="126" viewBox="0 0 154 126" fill="none" xmlns="http://www.w3.org/2000/svg">
<g clip-path="url(#clip0_1179_906)">
<path d="M1.1695 61.162C-0.377818 56.614 0.661605 51.4887 2.9885 47.2824C5.31539 43.0761 8.81163 39.6475 12.3906 36.4309C27.7102 22.7163 45.6285 11.9119 64.9287 4.74827C59.2945 4.22985 53.6722 3.71143 48.038 3.20479C57.2629 -0.61268 68.354 0.412381 76.7167 5.85581C76.8584 3.89994 77.0002 1.95586 77.1301 0C84.0281 2.60389 90.3827 6.66879 95.6271 11.8294C95.4499 9.82644 96.1822 7.77632 97.5642 6.31532C105.242 11.7705 112.187 18.2626 118.164 25.544C118.553 23.1051 119.888 20.8193 121.825 19.2759C124.258 24.4601 126.703 29.6561 129.137 34.8403C130.33 32.9433 132.267 31.5295 134.428 30.9639C136.696 39.8595 139.188 48.6963 141.905 57.4623C143.7 55.3297 146.358 53.9394 149.146 53.692C149.535 59.9955 149.264 66.3344 148.307 72.579C149.169 70.6703 152.347 71.1534 153.386 72.9796C154.425 74.8059 153.953 77.0799 153.315 79.0829C151.969 83.348 150.043 87.4247 147.586 91.1597C148.768 91.1244 149.937 91.0772 151.118 91.0419C149.772 94.8004 147.327 98.1702 144.161 100.609C146.464 99.6901 149.299 100.326 150.988 102.129C144.752 106.053 138.456 109.882 132.09 113.593C134.05 113.629 135.964 114.571 137.18 116.103C132.231 120.368 126.314 123.502 120.006 125.211C119.605 124.775 120.904 124.68 120.786 125.258C120.668 125.835 119.9 125.976 119.309 125.976C115.093 126.012 110.817 126.047 106.718 124.998C104.415 122.465 101.545 120.462 98.3674 119.19C99.4777 118.318 101.037 118.059 102.372 118.53C95.0956 116.091 88.5519 111.555 83.7446 105.593C88.3984 105.84 93.0403 106.547 97.5642 107.679C97.6941 106.312 97.8122 104.945 97.9422 103.578C105.75 105.852 113.793 107.301 121.896 107.891C120.762 106.324 119.628 104.756 118.494 103.189C118.152 102.706 117.786 102.188 117.821 101.599C117.868 100.527 119.073 99.9847 120.006 99.4427C124.306 96.9213 124.601 90.9241 124.365 85.9519C124.199 82.4055 124.034 78.859 123.869 75.3007C121.329 78.7176 118.778 82.1345 116.238 85.5513C117.798 77.9635 118.235 70.1519 117.538 62.4345C116.297 64.1075 115.069 65.7924 113.829 67.4655C112.258 59.5242 108.644 51.9835 103.411 45.786L102.714 50.2633C97.4815 44.7728 92.2372 39.2822 87.0046 33.8034L87.1463 36.9022C84.0517 34.5811 80.9689 32.2717 77.8742 29.9506C78.3467 33.285 78.8191 36.6194 79.2916 39.9538C75.0867 37.6091 70.7636 35.4883 66.3224 33.6149L66.665 36.0774C60.5702 35.3116 54.4636 34.5457 48.3688 33.7799C49.9751 33.9448 51.4634 34.9935 52.1367 36.4545C45.782 38.8581 39.8408 42.3456 34.6673 46.7286C36.0965 45.6564 38.0926 45.409 39.7345 46.1042C33.3089 50.5461 27.6512 56.0956 23.0683 62.4227C26.7653 60.9617 30.734 60.184 34.7145 60.1133C34.3129 64.732 33.8995 69.3624 33.4979 73.9811C37.384 72.4258 41.0337 70.2932 44.2938 67.6776C45.0497 71.5657 46.6206 75.3007 48.8767 78.5762C50.2941 76.7264 51.6996 74.8766 53.117 73.0385C53.9202 74.8059 55.0423 76.4318 56.4243 77.8104C60.0505 75.2654 63.3813 72.2845 66.3224 68.9736C69.2163 71.012 73.5157 69.3271 75.5001 66.4051C77.4844 63.4831 77.7797 59.7716 78.016 56.2487C82.1146 61.916 81.9847 70.2932 77.6852 75.8191C79.0436 75.937 79.8349 77.5629 79.5515 78.8943C79.268 80.2257 78.2404 81.2508 77.201 82.1227C73.2559 85.3982 68.3422 87.4954 63.2396 88.0727C63.6294 89.0271 64.0074 89.9815 64.3971 90.9359C58.9992 92.6914 52.8218 91.8431 48.0971 88.7208C48.2743 89.8048 46.8214 90.335 45.723 90.3821C38.3879 90.6413 31.0293 86.9652 26.8362 80.9444C25.2416 84.3849 20.765 85.8341 17.1152 84.7855C13.4654 83.7369 10.6661 80.7088 8.96518 77.3273C9.02424 79.6955 7.51235 82.0284 5.31539 82.9357C0.283632 75.4186 -1.31094 65.6981 1.11045 57.0028" fill="black"/>
</g>
<defs>
<clipPath id="clip0_1179_906">
<rect width="154" height="126" fill="white"/>
</clipPath>
</defs>
</svg>
