<svg width="203" height="174" viewBox="0 0 203 174" fill="none" xmlns="http://www.w3.org/2000/svg">
<g clip-path="url(#clip0_1179_909)">
<path d="M200.716 131.858C199.025 130.497 196.771 130.128 194.772 129.281C192.772 128.434 190.791 126.673 191.02 124.513C191.147 123.309 191.932 122.292 192.555 121.252C193.63 119.461 194.276 117.331 193.914 115.274C193.551 113.217 192.023 111.299 189.975 110.899C187.867 110.482 185.764 111.686 184.212 113.174C182.659 114.663 181.426 116.478 179.729 117.791C178.931 118.408 177.971 118.916 176.968 118.826C175.597 118.699 174.558 117.446 174.189 116.115C173.827 114.784 173.984 113.38 174.08 112.007C174.213 110.185 174.219 108.298 173.543 106.604C172.866 104.909 171.374 103.433 169.555 103.264C166.547 102.991 164.378 106.21 163.804 109.181C163.466 110.918 163.164 113.059 161.508 113.671C160.904 113.894 160.228 113.84 159.611 113.671C154.923 112.37 153.558 105.272 148.773 104.395C146.429 103.966 143.958 105.424 142.943 107.584C141.928 109.738 142.285 112.406 143.59 114.397C144.665 116.042 146.405 117.482 146.423 119.449C146.441 121.415 144.532 123 142.581 123.212C140.63 123.424 138.708 122.583 137.047 121.536C136.074 120.925 134.884 120.211 133.863 120.738C133.314 121.022 132.993 121.597 132.697 122.135C131.562 124.235 130.402 126.685 131.272 128.906C131.821 130.309 133.084 131.308 133.797 132.633C134.776 134.46 134.606 136.656 134.443 138.72C134.28 140.783 134.19 143.009 135.289 144.764C136.389 146.519 139.168 147.323 140.545 145.774C142.019 144.111 140.817 141.563 139.874 139.548C138.932 137.534 138.835 134.357 140.998 133.873C142.798 133.468 144.152 135.458 144.858 137.165C145.565 138.871 146.671 140.928 148.513 140.825C150.773 140.698 151.311 137.703 152.301 135.67C153.528 133.159 156.434 131.586 159.201 131.925C161.973 132.264 164.408 134.502 164.988 137.231C160.771 136.892 156.778 140.982 157.207 145.194C157.249 145.635 157.352 146.101 157.648 146.434C158.391 147.263 159.726 146.767 160.789 146.446C164.795 145.218 169.549 147.934 170.54 152.006C170.776 152.981 170.812 154.064 170.323 154.941C169.108 157.125 165.786 156.641 163.647 155.346C161.514 154.052 159.376 152.176 156.899 152.497C154.416 152.817 152.67 155.794 153.594 158.13C154.289 159.872 156.132 161.118 156.307 162.982C156.512 165.227 153.957 166.939 151.709 166.709C149.468 166.479 147.595 164.961 145.916 163.454C144.242 161.947 142.508 160.32 140.315 159.806C139.458 159.6 138.491 159.6 137.766 160.102C137.373 160.374 137.089 160.768 136.842 161.173C135.144 163.944 134.365 167.974 131.199 168.712C128.928 169.238 126.747 167.623 125.109 165.965C124.747 165.596 124.378 165.203 124.227 164.712C123.653 162.837 126.179 161.742 127.834 160.695C131.634 158.293 131.972 152.751 130.541 148.485C129.109 144.219 126.396 140.414 125.43 136.021C124.239 130.588 125.871 124.943 127.973 119.794C130.075 114.645 132.679 109.617 133.567 104.123C133.652 103.584 133.712 103.04 133.761 102.489C136.413 100.269 138.878 97.7638 140.219 94.5994C142.611 88.9664 140.696 81.9115 136.014 77.9787C132.256 74.8203 126.704 73.1081 125.14 68.4492C124.094 65.3453 125.617 61.6545 128.378 59.9785C130.601 59.7425 132.256 56.7354 134.389 57.4494C136.171 58.0484 136.34 60.7832 138.038 61.5819C139.041 62.0538 140.382 61.5758 140.853 60.5714C141.324 59.5671 140.847 58.2238 139.844 57.7519C139.421 57.5522 138.938 57.4917 138.551 57.2316C137.627 56.6084 137.73 55.132 138.406 54.2426C139.083 53.3532 140.128 52.845 141.034 52.1915C145.04 49.2812 145.843 43.0069 143.076 38.8925C140.309 34.7842 134.624 33.1143 129.9 34.5906C128.287 30.3916 130.402 25.4483 128.789 21.2493C127.701 18.4237 124.88 16.3605 121.865 16.185C118.851 16.0096 115.806 17.734 114.398 20.4143C113.601 21.9391 112.997 23.9841 111.305 24.2866C109.227 24.6557 108.019 22.1024 107.221 20.1481C106.49 18.3572 105.499 16.6751 104.285 15.1686C103.409 14.0795 102.267 13.0085 100.866 12.9722C99.6634 12.942 98.5941 13.6801 97.6517 14.4243C94.9512 16.5541 92.281 19.4826 92.5709 22.9132C92.8186 25.8537 95.2533 28.522 94.6431 31.4141C91.4473 30.3613 87.4902 29.8954 85.116 32.2793C82.7659 34.633 83.213 38.6142 84.6387 41.6213C86.0101 44.5134 88.6199 47.2785 91.8158 47.1454C93.2596 47.0849 94.6069 46.4435 96.0266 46.1894C97.4463 45.9353 99.162 46.2257 99.8628 47.4842C100.449 48.537 100.11 49.8379 100.056 51.048C99.9655 53.1777 100.884 55.3257 102.479 56.7294C103.753 57.8487 105.608 58.847 105.554 60.5472C105.493 62.3382 103.095 63.2155 101.44 62.5378C99.7843 61.8662 98.7149 60.275 97.6215 58.8652C96.5159 57.4312 95.2231 56.0638 93.5617 55.3499C91.9004 54.642 89.7799 54.7388 88.487 56.0094C87.454 57.0198 87.1277 58.5264 86.4209 59.7849C85.7201 61.0434 84.1916 62.1446 82.9109 61.4851C81.6241 60.8195 81.6483 59.0104 81.7449 57.5643C81.8899 55.483 81.8053 53.3229 80.9414 51.4231C80.0775 49.5232 78.2953 47.938 76.2171 47.8049C75.2143 47.7444 74.2114 48.0106 73.2146 47.9138C72.2178 47.817 71.1364 47.1514 71.1001 46.1471C71.0639 45.2576 71.8251 44.5739 72.4715 43.9689C74.0422 42.4926 75.329 40.6169 75.6734 38.4871C76.0178 36.3574 75.2505 33.9735 73.4562 32.7815C71.3418 31.3718 68.4117 31.8619 66.2308 30.561C65.9469 30.3916 65.675 30.1859 65.5361 29.8894C64.938 28.6248 66.9498 27.9109 68.2728 27.4571C70.2604 26.7734 71.668 24.692 71.5714 22.5925C71.4264 19.537 68.4842 16.8869 69.1005 13.8919C69.2213 13.299 69.5354 12.6879 70.1033 12.4761C71.0095 12.1373 71.8915 12.9601 72.6225 13.6015C75.5888 16.2153 80.0956 16.6025 83.799 15.217C85.3032 14.6543 86.729 13.8072 87.7439 12.5608C89.3086 10.6428 89.7013 8.04713 90.0396 5.59668C90.3477 3.358 90.0215 0.248045 87.7802 0.00602514C85.6959 -0.217843 84.5964 2.43227 84.4695 4.53179C84.3427 6.63131 84.1916 9.22697 82.2705 10.068C80.8085 10.7033 79.0988 9.85622 77.9872 8.71268C76.8696 7.56914 76.0721 6.12912 74.8337 5.12474C73.0213 3.65447 70.3389 3.35195 68.2426 4.38658C66.1463 5.42121 64.7507 7.72645 64.8051 10.068C64.8595 12.2401 66.0315 14.2005 66.6779 16.2758C67.3243 18.3511 67.2579 21.0012 65.4636 22.2234C64.4607 22.9071 63.18 22.9555 61.9838 23.1552C59.9237 23.488 57.8818 24.3653 56.5466 25.9687C55.2115 27.5721 54.7403 29.9802 55.7492 31.8074C56.7943 33.6891 59.0658 34.5241 61.1984 34.7479C63.331 34.9718 65.518 34.7479 67.6143 35.1957C68.599 35.4074 69.6079 35.8128 70.1819 36.6417C70.9672 37.7732 70.6833 39.3766 69.91 40.5141C69.1307 41.6516 67.9587 42.4381 66.8471 43.2489C65.373 44.3259 63.9291 45.536 63.0712 47.1514C62.2134 48.7609 62.0503 50.8604 63.1014 52.3549C64.8353 54.8295 68.6896 54.412 71.3237 52.9357C72.8642 52.0705 74.7008 50.9209 76.2292 51.7982C76.785 52.1189 77.1837 52.6695 77.4495 53.2503C79.4855 57.6733 74.9484 63.3002 77.371 67.5295C78.5551 69.5988 81.2616 70.5487 83.5634 69.9315C85.8651 69.3144 87.6654 67.3238 88.342 65.0367C88.8978 63.1489 88.8797 60.8921 90.3659 59.6094C91.8581 58.3267 94.2927 58.7623 95.7185 60.1177C97.1442 61.473 97.7363 63.4878 98.0142 65.436C98.1773 66.5735 98.4008 67.947 99.458 68.3887C100.026 68.6246 100.672 68.5036 101.276 68.3766C103.608 67.8865 106.23 67.1967 107.36 65.0972C108.079 63.7721 108.019 62.1567 108.574 60.759C109.336 58.8349 111.124 57.5462 112.803 56.3361C114.483 55.126 116.241 53.7586 116.863 51.7861C117.491 49.8137 116.313 47.1696 114.241 47.1151C112.024 47.0607 110.852 49.6261 109.922 51.647C108.991 53.6678 106.635 55.7915 104.865 54.4483C103.397 53.329 104.037 51.0117 104.883 49.3659C105.729 47.7202 106.587 45.5541 105.318 44.2109C103.765 42.5652 101.131 44.0899 98.9385 44.6405C96.232 45.3242 93.1569 44.1202 91.6285 41.7786C90.1 39.4371 90.2329 36.1335 91.9366 33.9251C94.4015 37.3678 100.098 37.7792 103.034 34.7358C103.343 34.4152 103.633 34.04 103.693 33.5983C103.844 32.4972 102.612 31.7953 101.675 31.1903C98.1531 28.9153 97.1563 23.5303 99.6211 20.1421C100.213 19.3313 101.017 18.6052 102.001 18.4116C104.448 17.9336 106.224 20.7895 106.617 23.2581C107.01 25.7267 106.955 28.5704 108.798 30.2585C110.647 31.9526 114.048 31.3657 115.226 29.1512C116.108 27.4995 115.866 25.2789 117.177 23.9478C118.76 22.3384 121.714 23.1915 122.989 25.0551C124.264 26.9186 124.312 29.3328 124.246 31.5896C124.179 33.8464 124.058 36.2182 125.079 38.233C125.478 39.0196 126.1 39.7638 126.952 39.9877C127.411 40.1087 127.901 40.0724 128.366 40.0058C131.574 39.5157 135.15 37.513 137.754 39.4552C139.621 40.8468 139.796 43.5635 139.59 45.8869C139.542 46.4012 139.482 46.9336 139.204 47.3693C138.147 49.0211 135.682 47.7928 133.815 47.2059C129.532 45.8506 125.085 49.1723 122.753 53.0144C120.421 56.8625 119.274 61.3943 116.543 64.9701C113.172 69.387 107.813 71.783 102.527 73.4953C100.4 74.185 98.2377 74.8022 96.093 75.4798C91.0787 73.9975 85.2307 75.498 81.5274 79.2554C78.0778 82.7525 75.9271 88.1556 71.1666 89.3355C67.9889 90.122 64.4487 88.3069 62.9987 85.4148C62.9444 83.1761 60.0868 81.2762 60.9749 79.213C61.718 77.4886 64.4487 77.537 65.3851 75.9034C65.9348 74.9414 65.5663 73.5618 64.6057 73.0112C63.6452 72.4607 62.2677 72.8297 61.718 73.7918C61.4884 74.1971 61.3857 74.6751 61.0957 75.0382C60.401 75.9155 58.939 75.6856 58.1113 74.9414C57.2837 74.1971 56.8608 73.1081 56.2808 72.1521C53.7072 67.9167 47.5269 66.6038 43.2135 69.0361C38.9 71.4684 36.7795 77.0046 37.8669 81.8389C33.5594 83.1095 28.811 80.5986 24.5035 81.8631C21.6037 82.7162 19.3201 85.3664 18.8972 88.3674C18.4803 91.3624 19.9484 94.5449 22.4978 96.1604C23.9538 97.0801 25.9353 97.8485 26.0984 99.5608C26.2978 101.666 23.6577 102.665 21.646 103.3C19.8034 103.887 18.0514 104.74 16.4565 105.823C15.3026 106.61 14.1427 107.662 13.9977 109.054C13.8708 110.252 14.5172 111.377 15.1818 112.382C17.0788 115.25 19.7792 118.154 23.2167 118.142C26.1649 118.13 29.0164 115.921 31.8437 116.768C30.5328 119.872 29.7474 123.781 31.9283 126.346C34.079 128.881 38.0783 128.76 41.1896 127.581C44.1801 126.443 47.1403 124.065 47.2732 120.865C47.3336 119.419 46.796 118.021 46.663 116.581C46.5241 115.141 46.953 113.453 48.264 112.854C49.3635 112.352 50.6261 112.799 51.8284 112.951C53.9368 113.217 56.1539 112.473 57.6763 110.99C58.8967 109.804 60.0385 108.038 61.724 108.231C63.5002 108.437 64.1768 110.899 63.3733 112.503C62.5698 114.1 60.9024 115.038 59.4042 116.018C57.8878 117.01 56.4198 118.184 55.58 119.788C54.7403 121.391 54.6678 123.515 55.8217 124.906C56.7399 126.02 58.214 126.467 59.4102 127.272C60.6064 128.077 61.579 129.692 60.8118 130.914C60.0445 132.143 58.2503 131.973 56.8185 131.755C54.7584 131.441 52.6016 131.35 50.6443 132.058C48.6869 132.766 46.9591 134.418 46.663 136.481C46.5181 137.473 46.7053 138.502 46.5301 139.488C46.3489 140.48 45.5998 141.503 44.5969 141.46C43.7088 141.424 43.0926 140.607 42.5429 139.912C41.2017 138.223 39.4376 136.783 37.3473 136.269C35.2571 135.755 32.8224 136.33 31.4873 138.018C29.9165 140.014 30.1642 142.979 28.6902 145.054C28.5029 145.321 28.2733 145.581 27.9652 145.696C26.6542 146.186 26.1105 144.123 25.7662 142.767C25.2466 140.728 23.2892 139.155 21.1929 139.083C18.136 138.98 15.2664 141.702 12.3303 140.843C11.7503 140.674 11.1643 140.311 11.0012 139.724C10.7354 138.792 11.6235 137.975 12.3243 137.304C15.1697 134.551 15.9188 130.086 14.8374 126.28C14.4025 124.737 13.6715 123.236 12.5176 122.123C10.7354 120.405 8.18596 119.806 5.76943 119.267C3.5704 118.783 0.447042 118.85 0.0181094 121.07C-0.374576 123.134 2.17486 124.446 4.25307 124.743C6.33128 125.039 8.90487 125.402 9.58754 127.393C10.1011 128.906 9.11632 130.539 7.88993 131.562C6.66355 132.584 5.1653 133.268 4.06579 134.424C2.45276 136.118 1.93925 138.768 2.79107 140.94C3.64289 143.112 5.83589 144.697 8.16783 144.831C10.3306 144.958 12.3847 143.941 14.4991 143.469C16.6136 142.991 19.2536 143.276 20.3229 145.163C20.921 146.216 20.8667 147.499 20.9633 148.709C21.1325 150.79 21.8393 152.902 23.3255 154.366C24.8116 155.83 27.1738 156.496 29.0708 155.631C31.0281 154.741 32.0431 152.539 32.4418 150.427C32.8405 148.316 32.7862 146.119 33.4084 144.056C33.6984 143.088 34.1817 142.114 35.0517 141.606C36.2418 140.916 37.8186 141.327 38.8818 142.193C39.9512 143.058 40.6338 144.298 41.3527 145.472C42.3073 147.027 43.3947 148.57 44.9292 149.556C46.4637 150.542 48.5358 150.875 50.1126 149.949C52.7164 148.419 52.6137 144.534 51.3571 141.787C50.6261 140.178 49.6293 138.254 50.6201 136.796C50.9826 136.263 51.5625 135.912 52.1667 135.694C56.7339 134.024 61.9657 139.004 66.3698 136.929C68.5265 135.912 69.6865 133.286 69.2636 130.939C68.8407 128.591 67.0041 126.631 64.7809 125.772C62.9504 125.064 60.697 124.9 59.5431 123.309C58.3892 121.718 59.0175 119.316 60.4856 118.009C61.9536 116.696 64.0016 116.266 65.965 116.151C67.1129 116.085 68.4963 115.97 69.0219 114.947C69.3059 114.397 69.2334 113.743 69.1548 113.132C68.8588 110.766 68.3815 108.092 66.3879 106.791C65.1253 105.968 63.5183 105.896 62.165 105.23C60.3104 104.316 59.1685 102.429 58.1053 100.65C57.042 98.8771 55.8217 97.0135 53.9066 96.227C51.9915 95.4404 49.2668 96.4024 49.0433 98.4657C48.8077 100.674 51.2665 102.054 53.2058 103.143C55.145 104.232 57.0662 106.761 55.5861 108.413C54.3536 109.786 52.1002 108.957 50.5295 107.983C48.9648 107.009 46.8745 105.974 45.4306 107.13C43.6666 108.546 44.9715 111.299 45.34 113.531C45.7991 116.29 44.3492 119.261 41.8965 120.598C39.4437 121.936 36.1633 121.536 34.1032 119.648C37.7279 117.47 38.6039 111.819 35.8068 108.637C35.5108 108.304 35.1664 107.983 34.7315 107.886C33.644 107.644 32.8466 108.824 32.1699 109.707C29.6205 113.035 24.1773 113.598 21.0056 110.857C20.2444 110.198 19.5919 109.338 19.4772 108.34C19.1993 105.853 22.1837 104.316 24.6727 104.123C27.1617 103.929 29.989 104.214 31.8135 102.513C33.6501 100.801 33.342 97.3645 31.2335 96.0092C29.6628 94.9927 27.4336 95.0592 26.2132 93.6374C24.7391 91.9311 25.8326 89.0511 27.79 87.9257C29.7474 86.8064 32.1518 86.9516 34.3931 87.2057C36.6345 87.4598 38.9845 87.7684 41.0688 86.9153C41.8844 86.5825 42.6758 86.0198 42.9718 85.1909C43.1349 84.7432 43.1349 84.2531 43.1047 83.7811C42.8812 80.5381 41.1775 76.8049 43.3222 74.3666C44.8627 72.6119 47.5753 72.6603 49.871 73.0536C50.3784 73.1383 50.904 73.2472 51.3149 73.5618C52.8735 74.7538 51.4538 77.1135 50.7107 78.9286C49.0131 83.0974 51.9552 87.7986 55.5921 90.4427C59.229 93.0868 63.6512 94.5934 66.986 97.6065C71.1062 101.334 73.0575 106.876 74.3383 112.291C75.619 117.706 76.4165 123.315 78.8874 128.295C81.0139 132.59 84.7474 136.42 89.2905 137.576C92.5589 141.382 97.9477 143.36 102.932 142.495C107.771 141.66 112.652 138.514 117.219 140.323C120.264 141.533 122.095 145.073 121.587 148.267C120.331 150.119 121.557 153.332 119.636 154.493C118.029 155.467 115.836 153.834 114.126 154.62C113.117 155.08 112.622 156.417 113.081 157.428C113.54 158.438 114.875 158.934 115.884 158.474C116.307 158.281 116.664 157.948 117.111 157.821C118.186 157.512 119.237 158.547 119.479 159.642C119.721 160.737 119.431 161.863 119.346 162.976C118.977 167.919 123.249 172.584 128.166 173.117C133.09 173.649 138.032 170.382 139.953 165.814C144.194 167.29 146.598 172.1 150.845 173.576C153.697 174.569 157.098 173.746 159.176 171.55C161.255 169.359 161.907 165.917 160.771 163.109C160.125 161.512 158.953 159.733 159.817 158.245C160.874 156.417 163.605 157.143 165.61 157.791C167.447 158.384 169.368 158.71 171.301 158.759C172.697 158.789 174.249 158.608 175.18 157.561C175.977 156.665 176.104 155.364 176.146 154.16C176.267 150.718 175.76 146.785 172.957 144.794C170.552 143.088 166.945 143.221 165.139 140.892C168.003 139.131 170.915 136.402 170.631 133.05C170.353 129.735 167.024 127.502 163.816 126.655C160.723 125.838 156.935 126.05 154.972 128.579C154.084 129.722 153.709 131.169 152.984 132.421C152.259 133.673 150.936 134.799 149.516 134.521C148.332 134.291 147.559 133.189 146.671 132.373C145.106 130.927 142.877 130.243 140.775 130.564C139.095 130.818 137.138 131.592 135.881 130.449C134.558 129.245 135.434 126.849 137.017 126.014C138.6 125.185 140.497 125.39 142.285 125.463C144.091 125.542 145.97 125.439 147.583 124.622C149.196 123.805 150.489 122.123 150.356 120.314C150.253 118.874 149.317 117.652 148.809 116.296C148.302 114.941 148.447 113.065 149.782 112.515C151.117 111.964 152.483 113.144 153.522 114.155C155.014 115.607 156.718 116.938 158.723 117.507C160.729 118.069 163.091 117.73 164.529 116.224C165.224 115.498 165.665 114.554 166.384 113.852C167.103 113.15 168.305 112.757 169.096 113.374C169.797 113.919 169.827 114.941 169.869 115.831C169.978 117.985 170.582 120.181 171.984 121.821C173.386 123.454 175.699 124.41 177.765 123.805C180.2 123.097 181.723 120.538 184.127 119.709C184.435 119.6 184.773 119.527 185.088 119.612C186.441 119.975 185.686 121.972 185.178 123.273C184.417 125.233 185.094 127.653 186.761 128.936C189.19 130.799 193.104 130.255 194.989 132.663C195.364 133.141 195.624 133.776 195.424 134.345C195.098 135.259 193.902 135.404 192.941 135.543C189.033 136.124 185.831 139.319 184.495 143.052C183.952 144.564 183.68 146.204 183.97 147.783C184.423 150.222 186.145 152.194 187.8 154.033C189.31 155.709 191.89 157.47 193.521 155.915C195.038 154.463 193.727 151.91 192.21 150.464C190.694 149.011 188.809 147.221 189.407 145.206C189.866 143.675 191.612 142.919 193.207 142.804C194.796 142.689 196.415 143.003 197.98 142.707C200.275 142.271 202.233 140.414 202.801 138.145C203.369 135.876 202.505 133.316 200.686 131.846L200.716 131.858ZM128.698 59.8212C129.03 59.6397 129.381 59.4824 129.743 59.3674L128.698 59.8212ZM62.8779 85.082C62.7269 84.731 62.6 84.3741 62.5094 83.9989L62.8779 85.082ZM121.533 148.624C121.454 148.993 121.352 149.362 121.201 149.719L121.533 148.624Z" fill="black"/>
</g>
<defs>
<clipPath id="clip0_1179_909">
<rect width="203" height="174" fill="white"/>
</clipPath>
</defs>
</svg>
