<svg width="193" height="157" viewBox="0 0 193 157" fill="none" xmlns="http://www.w3.org/2000/svg">
<g clip-path="url(#clip0_1179_919)">
<path d="M189.675 126.735C187.207 125.769 184.504 126.97 182.066 128.067C180.674 126.89 179.258 125.744 177.787 124.678C177.473 126.692 176.845 128.643 175.958 130.477C173.994 131.146 172.012 131.729 169.999 132.224C167.351 129.907 164.439 127.894 161.336 126.246C161.133 129.034 160.314 131.76 159.015 134.225C156.626 134.517 154.213 134.727 151.793 134.876C149.251 131.958 146.714 129.034 144.171 126.116C144.504 129.381 143.285 132.398 141.438 135.161C137.762 135.155 134.08 135.056 130.411 134.913C128.139 133.092 125.59 131.623 122.875 130.589C122.875 131.914 122.728 133.247 122.432 134.535C119.095 134.238 115.179 132.962 115.136 129.721C115.106 127.702 116.743 126.122 118.067 124.61C121.016 121.246 122.918 117.064 124.224 112.777C125.603 108.235 126.36 103.527 127.105 98.8367C128.589 89.5559 130.072 80.275 131.556 70.9942C135.078 69.9905 138.71 69.3834 142.367 69.2161C142.595 67.8655 141.573 66.6635 140.631 65.6785L133.502 58.2934C134.124 53.8637 134.647 49.4215 134.967 44.9607C137.547 42.6746 140.163 40.4318 142.811 38.22C140.36 37.1234 137.75 36.4048 135.09 36.0454C134.93 34.7691 134.628 33.5238 134.074 32.3591C133.255 30.6429 131.969 29.2428 130.497 28.0222C131.747 25.9406 133.003 23.8713 134.277 21.8082C130.029 20.185 125.178 20.346 120.979 22.0684C119.655 21.3807 118.319 20.724 116.965 20.1106C117.488 16.7774 118.319 13.5 119.458 10.3279C113.997 10.7678 108.666 12.5707 104.017 15.4888C102.583 15.1046 101.136 14.7577 99.683 14.4479C99.7754 10.3527 100.84 6.28226 102.786 2.68268C96.1306 2.9305 90.6204 7.49038 86.2245 12.707C84.9377 12.645 83.651 12.6141 82.3581 12.6079C80.074 8.64894 78.2639 4.40503 77.0079 0.00622559C72.9568 4.82632 68.8996 9.65261 64.8484 14.4727C64.7315 14.4975 64.6083 14.5223 64.4914 14.547L64.793 14.5347C64.7561 14.578 64.7192 14.6214 64.6822 14.6648C63.2108 14.9621 61.7516 15.3339 60.3171 15.7985C56.3645 12.2113 52.4119 8.61796 48.4593 5.03077C47.9114 10.9289 47.6159 16.858 47.5543 22.7809C44.439 25.3272 41.7116 28.3444 39.5752 31.7829C37.1125 35.748 35.3702 40.1654 32.5443 43.8765C28.0684 49.7436 21.2283 53.337 14.2528 55.6727C8.71789 57.5252 2.0625 59.5263 0.344788 65.1333C-1.27442 70.4056 2.96138 76.0745 8.14532 77.865C8.68711 78.0509 9.23505 78.1996 9.78915 78.3297C10.5772 82.6231 11.3714 86.9166 12.1595 91.2101C16.1244 87.9389 18.8764 83.2365 19.8923 78.1872C20.6927 78.0323 21.4869 77.8588 22.2749 77.6729C24.3744 80.9318 26.0736 84.4508 27.3049 88.1309C30.882 84.4446 33.1415 79.513 33.7017 74.3955C34.5637 74.1353 35.4195 73.8689 36.2814 73.6087C39.0458 76.756 41.2067 80.4299 42.5858 84.3951C46.2614 80.5415 48.6194 75.4611 49.2782 70.164C50.2694 69.9595 51.2606 69.7675 52.258 69.6064C54.733 72.1713 56.8817 75.0646 58.6117 78.1934C58.8826 78.6828 59.1843 79.2156 59.7015 79.4325C60.4834 79.7546 61.3268 79.197 61.961 78.6394C64.7376 76.1984 66.8863 73.0635 68.2223 69.6064C69.3736 69.9348 70.4818 70.387 71.51 71.0128C74.4221 72.7785 76.5708 76.155 76.0475 79.5316C75.4687 83.2799 72.0271 85.7952 68.8626 87.8459C61.6593 92.5235 54.302 97.102 46.2368 100.032C38.1715 102.963 29.2751 104.177 20.982 101.984C14.5236 100.274 8.61938 96.5692 2.00094 95.6461C0.474078 101.904 3.73712 108.378 7.89905 113.272C21.493 129.275 46.286 134.325 64.9901 124.901C83.6941 115.478 94.5422 92.4802 89.9616 71.9421C88.6318 65.9696 86.1445 60.1954 85.929 54.0743C85.8797 52.7423 85.9905 51.3793 86.243 50.0348L96.9125 56.1436L103.519 108.842C104.362 116.717 105.009 123.935 105.15 128.612C102.62 133.259 99.1474 137.379 94.6407 140.049C86.2676 145.012 75.0378 144.696 68.0622 151.505C69.2874 155.742 74.5268 157.62 78.8365 156.802C83.1461 155.984 86.8155 153.264 90.565 150.978C95.5642 147.936 100.957 145.563 106.572 143.94C110.143 142.911 113.893 142.18 117.562 142.726C121.281 143.283 124.667 145.099 128.195 146.4C141.924 151.461 157.137 148.537 171.452 145.557C176.352 144.535 181.315 143.494 185.797 141.263C188.635 139.851 191.381 137.8 192.532 134.833C193.683 131.865 192.618 127.881 189.669 126.723L189.675 126.735Z" fill="black"/>
</g>
<defs>
<clipPath id="clip0_1179_919">
<rect width="193" height="157" fill="white"/>
</clipPath>
</defs>
</svg>
