<svg width="174" height="227" viewBox="0 0 174 227" fill="none" xmlns="http://www.w3.org/2000/svg">
<path d="M125.597 202.343C124.897 201.377 125.445 199.857 126.798 199.632C124.666 199.095 123.841 196.545 125.372 195.224C123.782 193.404 122.192 191.584 120.601 189.764C119.367 188.352 118.522 185.839 120.568 185.345C118.285 184.577 117.585 181.769 119.314 180.336C117.387 179.197 115.691 177.796 114.325 176.207C118.615 174.929 121.419 170.983 120.641 167.321C120.555 166.919 120.41 166.494 120.034 166.226C119.499 165.85 118.707 165.915 118.008 166C115.731 166.274 113.454 166.548 111.184 166.822C112.022 165.598 112.853 164.379 113.692 163.155C110.715 163.692 107.396 162.199 106.366 159.864C105.337 157.528 106.742 154.661 109.455 153.539C106.168 152.052 105.079 148.079 107.284 145.598C104.974 145.437 104.571 142.849 104.749 140.97C104.928 139.086 104.182 136.471 101.866 136.6L103.284 135.113C102.4 133.378 102.558 131.311 103.694 129.674C101.846 129.244 99.9187 129.953 98.0115 130.146C96.1043 130.339 93.6427 129.556 93.6955 127.993C93.7153 127.37 94.1509 126.812 94.5732 126.291C96.685 123.687 98.7902 121.078 100.902 118.474C99.0212 117.588 97.1404 116.708 95.2595 115.822C93.3787 112.042 98.3151 107.978 103.298 107.537C104.895 107.398 106.657 107.537 107.851 108.412C109.039 109.293 109.237 111.092 107.904 111.816C110.431 112.396 112.959 112.976 115.487 113.556C113.731 114.485 113.711 116.702 114.886 118.109C116.061 119.516 118.034 120.31 119.928 121.046C117.79 122.452 117.209 125.191 118.634 127.097C117.981 127.666 117.473 128.353 117.163 129.094C119.017 129.228 119.182 131.483 118.239 132.788C117.295 134.092 115.764 135.36 116.081 136.852C117.981 137.614 120.166 137.899 122.258 137.647C121.287 139.257 119.875 140.691 118.146 141.802C119.525 142.205 120.905 142.608 122.284 143.01C120.891 144.868 119.09 146.527 117.004 147.885C117.664 148.336 118.324 148.787 118.991 149.238C118.021 149.985 117.044 150.731 116.074 151.477C123.69 152.739 131.879 147.386 131.998 141.061C132.038 139.145 131.424 137.212 130.131 135.612C129.167 134.425 127.768 133.185 128.171 131.8C128.468 130.758 129.748 130.001 129.867 128.938C129.999 127.768 128.712 126.839 128.243 125.728C127.814 124.702 128.118 123.585 128.21 122.506C128.56 118.297 125.65 114.442 123.228 110.71C120.806 106.979 118.773 102.512 120.865 98.6516C115.071 96.708 108.194 97.0355 102.723 99.5214C104.004 97.9751 105.277 96.4235 106.558 94.8772C100.11 94.2973 93.4513 95.3336 87.7165 97.7979C88.1916 97.2825 87.5383 96.4933 86.753 96.3966C85.9742 96.3 85.2153 96.6382 84.5356 96.9657C84.5356 96.9657 87.7495 90.8451 92.303 90.8451C96.8566 90.8451 83.1299 87.9834 83.1299 87.9834C87.2677 86.2223 91.7421 84.9928 96.3418 84.3593C95.0946 83.2694 93.8473 82.1741 92.6 81.0842C95.2661 79.3769 97.9257 77.6695 100.592 75.9622C99.7273 75.6991 98.8628 75.436 97.9983 75.1729C100.955 71.7421 103.694 68.1932 106.208 64.5369C105.013 64.5316 103.812 64.5262 102.618 64.5208C103.944 60.6551 105.271 56.7894 106.597 52.9238C106.01 52.36 104.749 52.4083 104.235 53.0204C103.733 50.5668 103.232 48.1131 102.73 45.6595C101.997 45.7669 101.331 46.1481 100.955 46.6742C99.8395 44.1938 98.7242 41.7079 97.6089 39.2274C97.081 40.0113 96.553 40.7952 96.0251 41.5791C95.4641 40.1402 94.8966 38.7013 94.3356 37.2624C94.0717 38.7657 93.3193 40.21 92.171 41.4126C90.937 38.1375 90.3826 34.6906 90.5542 31.2706C89.7887 31.9524 89.0165 32.6343 88.251 33.3161C86.8454 31.7001 87.5911 29.4988 88.0464 27.5498C88.7328 24.6398 88.6272 21.6439 88.5282 18.6802C88.3698 14.1219 88.2114 9.55829 88.053 5C86.4164 5.69797 85.0569 6.82009 84.232 8.16235C83.968 8.77978 83.7107 9.39722 83.4467 10.0147C82.7669 9.71399 82.14 9.33279 81.5923 8.89253C81.6846 14.9434 71.1851 17.5742 69.1393 23.3942C67.3442 28.4894 72.7425 33.5685 72.3663 38.857C72.241 40.5804 71.5018 42.2394 71.2709 43.9575C71.0333 45.6756 71.4358 47.6192 73.0989 48.6876C72.4389 48.94 71.779 49.1977 71.1257 49.45C72.5643 51.0607 74.003 52.6714 75.4416 54.2821C74.5243 54.7814 73.607 55.2808 72.6897 55.7747C74.8807 56.3599 74.7223 59.5223 72.4785 59.9572C71.0069 60.2417 69.1063 59.5921 68.1494 60.5424C67.5488 61.1383 67.7534 62.0189 67.562 62.7813C67.2056 64.1611 65.2258 65.1007 63.576 64.6658C61.9262 64.2309 60.9956 62.5236 61.7084 61.235C61.055 61.6967 60.4083 62.1585 59.755 62.6202C57.8411 60.5102 56.3299 58.1585 55.2938 55.6781C54.7988 56.4351 54.0069 57.0579 53.0632 57.4337C53.0038 54.3036 52.9444 51.1681 52.885 48.038C52.2251 48.4567 51.5652 48.8755 50.9052 49.2943C50.5884 46.889 50.4697 44.4676 50.5488 42.0515C49.3874 42.7119 48.2325 43.3777 47.071 44.0381C47.9091 42.0515 48.7472 40.0596 49.5853 38.0731C47.9685 37.7993 47.9949 35.9147 48.4701 34.6262C48.9452 33.3376 49.1498 31.5014 47.5791 31.0826C46.411 30.7712 45.21 31.6947 44.9592 32.6772C44.715 33.6598 45.0912 34.6638 45.2892 35.6517C46.3385 40.967 42.0357 46.3467 43.4413 51.6084C42.359 51.3077 41.2767 51.0017 40.1944 50.701C40.2736 52.1614 40.3594 53.6217 40.4386 55.0821C39.2837 55.1734 38.1288 55.2593 36.974 55.3506C37.5349 57.8794 41.2503 59.4042 41.6001 61.9598C41.9301 64.3705 39.1188 66.9637 40.729 69.0039C37.6933 68.655 34.4926 68.3328 31.5295 68.7784L32.9747 67.6724C31.9056 67.1463 30.4406 67.5919 29.6553 68.3865C29.3517 68.6925 29.1273 69.0362 28.9491 69.4012C28.6852 69.4925 28.4278 69.5892 28.177 69.7019L28.7446 69.8898C28.5862 70.3247 28.4674 70.7703 28.3552 71.2106L28.7973 70.8724L34.354 72.6871C32.3808 74.6038 31.0015 76.934 30.4274 79.393C31.1797 78.4427 32.5458 77.836 33.9382 77.836C33.8327 81.6748 33.7337 85.5136 33.6281 89.3471C36.4526 87.876 39.6269 86.8505 42.92 86.3566C42.4844 89.5995 42.6824 92.9014 43.5205 96.096C44.4048 94.7591 46.0547 93.7712 47.8893 93.492C48.1401 95.5054 50.4829 96.8261 52.2449 98.2543C54.0135 99.6825 55.2542 102.238 53.38 103.575C50.4037 103.258 47.4339 102.936 44.4576 102.619C45.144 103.87 45.5003 105.245 45.4937 106.619C40.8544 106.34 36.2876 105.191 32.2686 103.285C32.6646 104.831 33.0671 106.383 33.4697 107.929C29.8136 107.709 26.1642 107.489 22.5082 107.269C23.9864 108.772 25.2205 110.426 26.1708 112.187C24.0524 113.159 22.4884 114.904 22 116.847C22.9305 116.595 23.8544 116.337 24.7849 116.085C25.2403 119.188 25.3723 122.324 25.1809 125.448C26.5008 125.185 27.8272 124.922 29.1471 124.659C29.1207 130.35 28.7841 136.041 28.1308 141.706C29.3451 141.12 30.5594 140.535 31.7803 139.95C32.2026 142.189 32.3148 144.465 32.1234 146.726C33.3311 145.867 35.4561 145.738 36.3866 146.801C37.3171 147.864 35.6277 149.706 34.288 148.986C35.7465 151.128 37.2049 153.271 38.6568 155.413C36.116 156.132 33.3971 156.422 30.7112 156.261C32.4534 156.39 34.0174 157.491 34.4266 158.876C37.9903 159.096 41.5803 159.015 45.1308 158.64C43.6195 156.352 42.2205 153.254 44.4774 151.418C44.9856 150.999 45.6587 150.693 46.0217 150.183C47.1304 148.626 44.7282 147.032 43.8175 145.394C42.9596 143.848 43.6195 141.84 45.3222 140.852C43.7449 139.58 42.1149 138.248 41.3625 136.546C40.6036 134.844 40.993 132.664 42.8342 131.655C41.8839 128.992 40.7224 126.377 39.3629 123.838C40.0163 124.289 40.6762 124.745 41.3295 125.196C42.0555 122.227 43.5139 119.381 45.5927 116.874C46.7344 118.909 47.8695 120.944 49.0112 122.979C50.0803 122.522 51.3078 122.318 52.5089 122.415C53.017 128.025 52.2779 133.706 50.3443 139.102C53.0368 137.55 57.4188 140.138 56.4421 142.704C56.0197 143.81 54.8582 144.804 55.0958 145.947C55.3466 147.161 56.9832 147.778 57.9467 148.728C59.821 150.575 58.2965 153.899 55.3994 154.296C57.498 156.154 59.689 158.94 57.8213 160.954C58.2569 161.415 58.6991 161.872 59.1346 162.333C57.6168 164.685 56.0923 167.037 54.5745 169.388C49.2686 165.571 45.8831 160.041 45.3288 154.296C45.5003 157.539 45.6719 160.782 45.8435 164.025C45.9425 165.893 46.0613 167.821 47.071 169.496C48.998 172.69 53.6176 174.14 57.9401 174.709C56.4157 177.802 53.7759 180.524 50.4301 182.446C51.2616 184.191 54.5283 184.948 54.4359 186.816C54.3963 187.718 53.5252 188.432 52.6804 189.012C50.6346 190.424 48.3909 191.637 46.0019 192.625C47.6583 193.42 47.137 195.675 45.5201 196.523C43.9099 197.377 41.8245 197.248 39.9173 197.092C40.1417 198.521 40.366 199.949 40.5904 201.377C40.663 201.839 40.7092 202.365 40.3132 202.698C39.9767 202.982 39.4355 203.014 38.9472 203.025C36.6836 203.09 34.42 203.149 32.1564 203.213C32.3544 205.044 29.3451 205.785 27.0815 205.876C32.3346 207.53 37.7791 208.759 43.3291 209.543C47.5593 210.139 52.1921 210.424 55.8877 208.646C59.5834 206.869 61.4246 202.279 58.4153 199.788C60.1971 199.068 61.9723 198.349 63.7542 197.629C62.6389 196.47 61.5302 195.315 60.4215 194.156C64.1501 192.443 65.7472 188.813 67.0473 185.495C67.4894 184.373 67.7666 182.875 66.5325 182.263C67.2122 181.511 67.8854 180.76 68.5651 180.008C66.8559 178.505 65.2456 175.885 67.3244 174.73C68.0042 174.355 68.8753 174.312 69.6474 174.081C71.515 173.517 72.6105 171.643 71.9704 170.108C71.3302 168.572 69.0601 167.627 67.1528 168.105C70.5251 165.979 72.5511 162.5 72.4257 159.026C75.1645 153.378 83.3741 149.893 90.64 151.3C91.2801 151.424 91.9599 151.606 92.3558 152.041C93.0422 152.793 92.534 153.85 92.0127 154.683C90.508 157.077 89.0099 159.472 87.5053 161.866C89.8415 162.527 92.1248 163.751 92.9894 165.635C93.8539 167.52 92.633 170.065 90.1978 170.408C92.4152 171.439 94.7184 172.535 96.1175 174.274C97.5165 176.014 97.6881 178.601 95.7941 179.997C98.9354 180.883 102.077 181.769 105.218 182.655C104.928 183.262 104.637 183.868 104.347 184.47C107.237 186.07 107.402 190.048 104.644 191.799C106.076 192.083 107.508 192.368 108.94 192.647C107.884 193.662 106.828 194.676 105.772 195.691C107.343 196.282 109.046 196.641 110.768 196.743C110.372 199.809 114.226 202.204 117.935 202.805C120.924 203.294 124.039 203.079 127.062 203.358C126.475 203.143 125.966 202.821 125.636 202.37L125.597 202.343ZM29.3847 70.3891L29.6553 70.1851L29.7807 70.2281C29.6487 70.2764 29.5101 70.3355 29.3847 70.3891Z" fill="black"/>
<path d="M169.544 219.978C168.417 219.818 167.269 219.723 166.111 219.645C167.165 219.913 168.386 220.026 169.544 219.978Z" fill="black"/>
</svg>
