<svg width="172" height="235" viewBox="0 0 172 235" fill="none" xmlns="http://www.w3.org/2000/svg">
<path d="M42.7209 92.9244C45.013 89.9537 49.6771 93.5963 49.4269 97.6044C49.1767 101.613 46.0639 104.501 42.9411 106.139C38.2269 108.615 32.2516 109.216 28.238 105.385C23.1935 100.563 23.5938 91.2504 25.996 84.1537C27.4773 79.7802 29.5792 75.6188 32.5318 72.4477C40.3188 64.1014 53.3504 64.514 61.5277 72.318C69.715 80.122 72.8978 93.9264 70.4356 105.986C67.9735 118.046 60.4267 128.172 51.1885 134.125C45.9638 137.485 40.0085 139.654 34.0832 138.947C23.1134 137.627 14.6659 126.934 9.02084 115.771C2.07464 101.966 -2.3393 85.2854 1.31396 69.8189C3.42585 60.8832 8.09001 53.0084 13.655 46.4422C18.159 41.1256 23.3236 36.528 29.1388 33.4512C45.8537 24.5863 66.342 29.6317 80.945 42.6699C88.4217 49.3422 94.8274 58.4429 96.6791 69.2648C98.5007 79.8863 95.7783 90.7789 93.0959 101.141C90.7938 110.018 88.4918 118.895 86.1897 127.771C84.6784 133.595 83.157 139.572 83.4573 145.643C83.7675 151.714 86.2898 158.021 90.964 160.626C96.2787 163.608 102.644 161.086 107.729 157.596C116.527 151.549 124.204 141.611 125.104 129.657C125.665 122.125 123.513 114.733 121.631 107.495C119.569 99.5849 117.788 91.4508 117.838 83.1753C117.868 78.8017 118.448 74.3103 120.27 70.5026C122.312 66.2469 125.765 63.123 129.488 60.9657C138.707 55.6137 150.107 55.7787 159.205 61.4136C164.55 64.7144 169.214 70.0311 171.136 76.7623C173.057 83.5053 171.786 91.6866 167.212 96.3195C162.638 100.952 154.801 100.823 151.018 95.2821C147.234 89.7415 149.566 79.7802 155.452 78.2005C152.519 82.185 152.649 90.0126 157.003 91.2268C159.465 91.9106 162.067 89.8947 163.088 87.1598C164.109 84.4366 163.809 81.242 162.938 78.4363C160.016 69.0172 150.637 63.3705 142.28 65.3274C133.932 67.2843 127.276 76.1022 125.885 86.0045C124.664 94.7398 127.116 103.628 130.409 111.586C133.702 119.543 137.886 127.017 140.488 135.316C141.479 138.463 142.31 141.859 144.402 144.134C145.443 145.265 146.734 146.044 148.085 146.562C156.282 149.651 165.921 140.774 165.36 130.659C167.422 130.86 169.024 133.053 169.574 135.398C170.125 137.744 169.834 140.244 169.534 142.66C168.623 150.205 167.182 158.728 161.647 162.677C154.331 167.899 144.992 161.828 136.465 162.689C128.497 163.491 121.771 170.552 118.008 178.875C114.245 187.197 112.954 196.699 111.702 206C111.112 201.096 110.501 196.098 108.68 191.63C106.868 187.162 103.635 183.201 99.5216 182.164C95.1677 181.055 90.6637 183.366 87.1005 186.525C83.5373 189.685 80.5847 193.716 77.0115 196.852C75.8405 197.889 74.3892 198.868 72.9779 198.396C71.2564 197.819 70.5457 195.496 69.6049 193.693C66.8024 188.282 60.4968 186.655 55.2921 188.211C50.0875 189.767 45.7136 193.822 41.5098 197.772C38.6072 184.12 44.7327 168.56 55.4623 162.347C58.2247 160.756 61.2775 159.683 63.5795 157.278C66.9625 153.741 68.0135 148.154 69.1645 143.002C73.8587 122.113 83.2471 102.485 84.3981 80.9237C84.5883 77.281 84.5382 73.5794 83.8576 70.0193C82.3463 62.1563 77.8222 55.4604 72.4675 50.4385C63.5395 42.0569 51.769 37.6833 40.4589 39.5105C29.1488 41.3378 18.5393 49.6369 13.4548 61.673C10.1518 69.5006 9.22102 78.4363 9.22102 87.1834C9.22102 100.717 11.8634 115.287 20.4711 124.247C26.9869 131.037 36.4954 133.583 44.8628 130.777C53.2303 127.972 60.1765 119.908 62.6787 110.1C64.6605 102.32 63.9499 93.9146 62.3484 86.0045C61.9481 84.0123 61.4476 81.9493 60.2465 80.4757C59.0355 78.9903 57.2939 78.3184 55.5824 77.9058C50.1475 76.6091 44.3424 77.5521 39.408 80.5228C36.3252 82.3854 33.4526 85.2265 32.3917 89.0931C31.3307 92.9598 32.6519 97.9109 35.8748 99.3963C39.0977 100.882 43.3615 97.1093 42.3506 93.2073" fill="black"/>
</svg>
