<svg width="174" height="188" viewBox="0 0 174 188" fill="none" xmlns="http://www.w3.org/2000/svg">
<path d="M172.731 93.3941C170.626 88.4378 165.979 85.3026 161.349 85.2302C159.716 85.2095 158.947 87.6204 160.179 88.8931C161.166 89.9071 162.127 90.9832 163.035 92.0904C164.625 94.0149 166.188 96.2913 164.904 99.6024C164.284 101.186 163.192 102.438 161.908 103.286C160.991 103.886 159.908 104.517 158.825 104.331C157.305 104.062 156.309 102.303 155.75 100.616C154.754 97.6261 154.387 94.2012 151.819 92.318C150.553 91.3867 148.849 91.5316 147.88 92.8664C146.334 95.0083 147.88 97.802 148.578 100.306C149.758 104.517 148.089 109.577 144.822 111.74C142.997 112.94 140.734 113.261 138.76 112.433C136.786 111.605 135.161 109.608 134.672 107.197C133.72 102.489 136.961 97.3157 135.231 92.9285C135.083 92.556 134.89 92.1938 134.611 91.9455C133.834 91.2833 132.689 91.842 132.121 92.7526C131.554 93.6631 131.361 94.8117 131.003 95.8567C129.684 99.7266 126.269 101.889 123.116 103.741C122.05 104.362 120.757 104.993 119.752 104.052C119.22 103.545 118.975 102.717 118.984 101.9C119.01 100.368 119.752 99.1265 120.329 97.8124C121.954 94.077 122.181 89.5036 120.853 85.582C120.346 84.0816 119.027 83.0883 117.7 83.4504C115.9 83.9471 115.656 86.4718 115.167 88.4378C114.319 91.8006 111.821 94.4081 108.973 95.2877C108.406 95.4636 107.812 95.0911 107.611 94.4392C107.48 94.0149 107.331 93.6011 107.165 93.1975C104.3 86.1304 97.2595 82.4364 90.647 82.6227C84.0345 82.8089 77.7889 86.2235 72.0936 90.2279C66.407 94.2322 61.0262 98.9092 54.964 102.075C53.0684 103.069 51.0419 103.917 48.9717 103.793C46.9014 103.679 44.7613 102.386 43.949 100.13C43.0318 97.6054 44.0101 94.5737 45.6785 92.6698C47.3469 90.7659 49.5744 89.7415 51.732 88.7586C56.1345 86.7719 60.5457 84.7749 64.9482 82.7882C71.9101 79.6427 79.0904 76.3419 84.4363 70.1853C89.7822 64.0287 92.8657 54.2196 89.8346 46.1487C88.5943 42.8376 86.4629 40.1267 84.8119 37.0846C83.161 34.0425 81.9555 30.2761 82.8727 26.8305C84.0432 22.4433 88.437 19.008 86.987 14.4138C86.3668 12.4582 84.7945 11.1545 83.0474 10.8441C79.466 10.2129 76.531 12.5513 73.6572 14.6208C73.0282 15.0761 72.3731 15.5313 71.7092 15.9349C68.8266 17.7043 65.4112 15.045 65.7082 11.2166C65.7431 10.7095 65.8043 10.1922 65.8829 9.69551C66.1886 7.73989 64.9395 5.93948 63.2711 6.00156C59.1656 6.16712 55.0688 7.12941 52.5967 10.813C50.5702 13.8344 49.6006 18.5838 47.2246 20.5808C46.2987 21.3672 44.9972 20.7567 44.674 19.4633C43.9053 16.3902 42.5863 13.4309 39.7386 13.1722C38.1052 13.0273 36.5241 13.9482 35.4933 15.4589C32.34 20.0427 33.4843 26.0855 31.5713 31.0108C29.1254 37.3122 22.7575 39.5162 16.7128 39.4231C13.6031 39.3713 10.5982 41.2235 9.20058 44.5139C8.956 45.0933 8.76382 45.7142 8.64153 46.366C7.86411 50.7222 8.53671 55.2336 8.40568 59.6829C8.21351 66.3051 6.16075 72.8445 2.65796 78.0078C1.19046 80.1704 -0.652654 82.7365 0.229595 85.3647C0.779909 87.0099 2.21247 87.9515 3.71491 88.0136C6.02973 88.1067 7.95146 86.5546 9.76837 85.0439C15.7869 80.0566 21.8141 75.0692 27.8326 70.0818C32.4098 66.2948 37.5548 60.8935 36.3843 54.4265C35.9476 52.0053 34.6198 49.8427 34.4888 47.3697C34.253 42.848 37.9741 39.5369 41.4158 37.5606C47.2683 34.2081 53.8109 32.0351 60.2662 32.9767C66.7215 33.9183 73.037 38.378 75.7012 45.4037C78.5401 52.9055 76.7057 62.1559 72.1722 68.3745C67.6474 74.6036 60.8427 78.0388 53.9682 79.1667C51.1642 79.6323 48.2991 79.7461 45.6086 80.7912C40.088 82.9434 36.0786 88.7379 33.5978 94.9565C30.5143 102.676 29.3962 112.567 36.428 118.569C37.9916 119.904 39.8085 120.804 41.6953 121.259C48.7009 122.915 55.2872 119.272 60.6593 114.327C64.8871 110.436 68.5296 105.728 72.5041 101.475C76.138 97.5951 80.2522 93.9736 85.336 93.6321C87.1792 93.5079 89.0223 94.4599 90.053 96.2706C92.2543 100.13 89.328 104.445 86.3581 106.835C83.6327 109.029 80.3308 111.16 79.6145 114.978C79.37 116.313 79.5184 117.907 81.082 118.393C81.9468 118.662 82.864 118.434 83.6676 117.948C86.1572 116.437 88.8476 115.413 91.6079 114.916C92.5338 114.751 93.5558 114.647 94.2197 115.951C94.7001 116.903 94.7001 118.083 94.3682 119.117C93.3898 122.159 91.7214 124.891 89.5813 126.94C87.9828 128.471 86.096 129.671 85.2138 132.041C84.8556 132.993 84.7683 134.09 85.0827 135.062C86.4017 139.181 92.3329 136.542 93.1802 140.536C93.451 141.798 93.0404 143.133 92.2543 144.033C89.2319 147.469 85.9912 150.635 82.5757 153.501C81.5974 154.318 81.7896 156.098 82.8989 156.636C85.6942 157.992 89.1446 158.23 90.4112 161.468C91.3284 163.828 90.5247 166.601 88.7602 168.142C85.9737 170.595 82.3661 169.829 79.4398 168.122C77.8762 167.211 76.4349 166.052 74.9674 164.945C73.5786 163.9 71.8228 165.587 72.4517 167.397C72.6876 168.07 72.9933 168.711 73.3427 169.281C74.4171 171.06 75.8235 172.612 76.4874 174.661C76.9503 176.089 77.0377 177.755 77.885 178.914C78.4353 179.659 79.2214 180.093 80.0251 180.373C82.8291 181.366 85.8514 181.159 88.5768 179.897C95.067 176.896 99.0153 170.439 102.789 164.076C104.737 160.796 106.685 157.433 107.75 153.636C108.947 149.373 108.956 144.778 108.965 140.288C108.965 135.673 108.965 131.048 108.965 126.433C108.965 124.757 110.633 123.908 111.69 125.015C111.9 125.243 112.101 125.481 112.284 125.739C114.11 128.326 114.669 131.793 115.533 135.011C116.389 138.229 117.874 141.602 120.547 142.74C123.028 143.795 126.321 142.874 127.955 145.327C128.461 146.092 128.689 147.065 128.82 148.027C129.064 149.859 128.994 151.742 129.274 153.573C129.553 155.405 130.261 157.267 131.624 158.188C133.737 159.616 136.428 158.24 138.813 158.768C141.494 159.358 143.346 162.193 144.927 164.821C146.971 168.215 149.085 171.919 149.059 176.089C149.059 176.596 149.059 177.186 149.408 177.465C149.758 177.745 150.229 177.517 150.605 177.279C152.335 176.203 154.047 175.106 155.75 173.978C157.689 172.695 158.012 169.57 156.414 167.739C154.282 165.307 152.238 162.783 150.291 160.144C149.277 158.778 149.941 156.626 151.452 156.347L155.829 155.539C156.763 155.364 157.759 155.167 158.475 154.432C159.192 153.698 159.471 152.239 158.781 151.463C158.484 151.121 158.065 150.987 157.663 150.852C155.409 150.107 153.138 149.362 150.815 149.041C148.334 148.71 145.801 148.876 143.346 148.317C141.189 147.831 139.005 146.651 137.729 144.582C137.354 143.982 137.502 143.102 138.053 142.75C139.485 141.829 141.975 142.243 142.377 140.277C142.63 139.025 141.879 137.784 140.813 137.504C137.022 136.48 132.995 136.925 129.283 135.559C122.871 133.21 118.372 125.067 119.115 117.172C119.158 116.717 119.228 116.23 119.482 115.879C119.971 115.216 120.853 115.361 121.561 115.62C127.588 117.803 132.322 124.26 138.594 124.932C144.525 125.574 149.793 120.876 155.392 118.455C159.838 116.541 164.817 115.961 168.661 112.692C173.613 108.47 175.474 99.8197 172.731 93.3527V93.3941Z" fill="black"/>
</svg>
