<svg width="154" height="181" viewBox="0 0 154 181" fill="none" xmlns="http://www.w3.org/2000/svg">
<path d="M12.9247 87.1823L12.6893 92.1764C12.7326 91.9562 12.7698 91.736 12.807 91.5158C12.8937 90.0746 12.9309 88.6335 12.9247 87.1823Z" fill="black"/>
<path d="M152.678 63.4996C150.373 53.8517 148.074 44.2037 145.769 34.5557C145.044 31.5115 144.214 28.2665 141.475 26.6139C140.162 25.8177 138.526 25.7575 137.274 26.6607C135.298 28.0858 135.521 30.6751 135.688 32.9433C136.122 38.811 135.62 44.7523 134.201 50.4394C133.804 52.0318 133.309 53.6509 132.317 54.9088C131.443 56.0194 130.229 56.7688 128.977 57.3108C126.462 58.408 120.687 58.02 118.375 57.4713C117.812 57.3375 117.396 56.8156 117.372 56.1934C117.328 55.1296 117.452 54.0457 117.638 52.9953C118.264 49.5027 119.627 46.1641 121.598 43.3071C121.994 42.7384 121.672 41.9088 121.021 41.8218C117.229 41.32 113.301 44.3777 111.733 48.2917C110.624 51.0616 110.24 54.4471 106.305 54.969C105.159 55.1229 104.006 54.9356 102.91 54.5475C102.067 54.2464 100.877 53.8517 100.499 52.8481C100.282 52.266 100.388 51.6103 100.53 51.0014C100.89 49.496 101.484 48.0508 102.278 46.7528C102.587 46.251 102.24 45.5753 101.683 45.6288C99.5202 45.8429 97.3763 46.3447 95.4678 47.4353C93.138 48.7734 91.1924 51.1085 90.7152 53.9052C90.4488 55.4641 90.6161 57.1836 89.8354 58.5285C88.7696 60.3751 86.3654 60.7899 84.5375 61.1646C83.7506 61.3252 82.9203 61.2649 82.2077 60.8702C80.5533 59.9536 80.4914 58.1069 80.9685 56.3005C81.2349 55.2835 80.2869 54.3668 79.376 54.7616C75.9061 56.267 73.0992 59.5454 72.0768 63.4461C71.3147 66.3699 71.4572 69.6216 69.1955 71.9366C68.2599 72.8867 66.8905 73.2547 65.6946 72.7395C63.6684 71.863 63.5383 69.2871 63.8295 67.1795C64.0216 65.7945 64.3252 64.4163 64.79 63.1116C65.1307 62.1548 64.1393 61.2783 63.3462 61.8537C62.1999 62.6901 61.1155 63.6134 60.1675 64.6973C58.3768 66.758 57.1251 69.548 57.4164 72.3581C57.7138 75.2953 61.1837 79.758 58.6866 80.9623C57.5775 81.4976 56.1957 81.0828 56.1957 81.0828C53.7482 80.6077 51.5857 79.3967 50.2163 77.1152C49.1381 75.3221 48.7663 73.161 48.4131 71.0601C47.7377 67.0189 47.0562 62.9778 46.3808 58.9366C45.947 56.3473 45.2159 53.3298 42.7064 52.6273C41.2007 52.2058 39.6206 52.8481 38.5734 54.0858C36.5287 56.5012 36.5163 59.7328 36.541 62.7904C36.572 66.2361 36.5968 69.6818 36.6278 73.1275C36.665 77.5835 36.5596 82.4878 33.1269 85.4852C31.2432 87.1244 28.5354 87.3385 26.6518 85.706C24.8424 84.1404 25.0221 81.9525 25.1523 79.9052C25.5302 73.9639 25.3505 67.9824 24.607 62.0812C24.5078 61.3051 24.3839 60.4888 23.9254 59.88C23.2686 59.0102 22.1037 58.8095 21.0689 58.9165C15.7587 59.4652 12.7039 65.9484 12.4189 71.6957C12.2082 75.8841 12.9022 80.1059 12.927 84.2809L12.6915 87.6196C11.855 90.5969 10.3927 93.3669 8.39128 95.6015C5.07007 99.3015 0.106835 102.138 0.0014984 107.591C-0.0542682 110.589 1.45143 113.325 3.70688 115.065C7.57337 118.042 12.1648 118.176 16.6819 117.928C17.9026 117.861 18.8878 118.878 18.8692 120.197C18.7763 127.081 10.2626 133.431 13.0695 140.884C13.7697 142.751 15.1081 144.25 16.7253 145.26C20.3253 147.501 24.5264 147.254 28.4301 146.317C32.7861 145.273 36.9748 143.386 40.7297 140.784C46.0028 137.124 50.743 131.919 56.9331 130.855C60.5331 130.239 64.1827 131.129 67.8014 131.631C74.0472 132.501 80.6525 132.146 86.2477 129.042C95.1332 124.111 100.642 112.81 110.376 110.388C114.435 109.378 118.704 110.107 122.831 109.478C133.996 107.772 141.692 96.8928 148.118 86.8903C150.776 82.7487 153.527 78.3596 153.942 73.3416C154.221 70.0231 153.44 66.7245 152.672 63.4996H152.678Z" fill="black"/>
</svg>
