<svg width="139" height="169" viewBox="0 0 139 169" fill="none" xmlns="http://www.w3.org/2000/svg">
<g clip-path="url(#clip0_1189_929)">
<path d="M129.206 158.033C125.859 155.145 123.994 146.537 125.582 140.056C126.221 137.464 127.292 135.393 128.065 132.956C130.086 126.581 129.76 117.656 127.299 111.908C125.916 108.682 123.994 106.499 122.583 103.322C120.781 99.2504 119.937 93.587 120.334 88.2336C121.249 75.984 127.901 68.144 129.412 56.1269C130.525 47.2726 128.618 38.0872 126.441 30.0289C125.965 28.2749 125.462 26.4857 124.675 25.2601C119.129 16.6382 114.136 24.2457 114.136 24.2457C113.923 23.9499 113.739 23.5836 113.597 23.1539C112.789 20.6814 113.101 17.3637 113.796 14.7574C114.484 12.1511 115.512 9.92523 116.164 7.29077C116.406 6.31165 116.597 5.17757 116.42 4.1421C116.122 2.40927 114.987 1.93028 114.058 2.05707C111.534 2.40223 109.122 5.21983 107.754 9.43215C107.016 11.7144 105.846 14.842 104.683 13.3979C104.371 13.0105 104.172 12.3484 104.002 11.7003C103.201 8.74888 102.534 5.57203 101.371 3.1348C100.208 0.697573 98.3427 -0.845066 96.7825 0.479209C96.3641 0.83141 95.9811 1.39493 95.7542 2.16977C94.7401 5.57203 97.1016 9.03064 97.6548 12.8274C98.3072 17.3214 95.4918 22.0409 93.343 20.0475C92.648 19.4065 92.1019 18.2865 91.4707 17.4412C89.4141 14.7011 86.5773 15.166 84.386 17.4553C82.1946 19.7446 80.5351 23.5836 79.0529 27.5071C75.9963 35.6148 73.3794 45.3285 74.0461 55.345C74.4929 62.1284 76.4006 68.1792 78.4714 73.6736C80.4429 78.8932 82.7336 85.1201 81.6627 91.2695C80.84 96.0031 78.3224 98.5812 76.5708 102.209C73.4504 108.661 72.9185 119.382 75.3439 126.905C76.5566 130.66 78.4856 134.886 77.4643 138.852C76.7197 141.761 74.6347 142.444 73.1099 141.169C71.6207 139.923 70.5427 137.359 69.5357 134.851C69.5286 134.794 69.5215 134.731 69.5144 134.675C69.5073 134.696 69.5002 134.717 69.486 134.738C69.4789 134.717 69.4718 134.696 69.4577 134.675C69.4506 134.731 69.4435 134.794 69.4364 134.851C68.4293 137.359 67.3514 139.923 65.8621 141.169C64.3373 142.444 62.2594 141.761 61.5077 138.852C60.4865 134.886 62.4225 130.66 63.6282 126.905C66.0536 119.382 65.5146 108.661 62.4013 102.209C60.6496 98.5812 58.132 96.0101 57.3093 91.2695C56.2385 85.1201 58.5362 78.8932 60.5007 73.6736C62.5715 68.1863 64.4792 62.1284 64.926 55.345C65.5855 45.3285 62.9686 35.6148 59.9191 27.5071C58.4369 23.5836 56.7774 19.7446 54.5861 17.4553C52.3947 15.166 49.558 14.7011 47.5013 17.4412C46.8702 18.2865 46.3241 19.4065 45.6291 20.0475C43.4873 22.0409 40.6648 17.3214 41.3172 12.8274C41.8704 9.03064 44.232 5.57203 43.2179 2.16977C42.9909 1.40197 42.608 0.838454 42.1895 0.479209C40.6293 -0.85211 38.7642 0.697573 37.6011 3.1348C36.4381 5.57203 35.7714 8.74888 34.9701 11.7003C34.7928 12.3413 34.6013 13.0035 34.2892 13.3979C33.1262 14.842 31.956 11.7144 31.2185 9.43215C29.8568 5.22688 27.4456 2.40223 24.9209 2.05707C23.9919 1.93028 22.8572 2.40222 22.5593 4.1421C22.382 5.17757 22.5735 6.31165 22.8146 7.29077C23.4671 9.93228 24.4954 12.1582 25.1833 14.7574C25.8712 17.3637 26.1904 20.6885 25.3819 23.1539C25.2401 23.5836 25.0557 23.9428 24.8429 24.2457C24.8429 24.2457 19.8503 16.6382 14.3044 25.2601C13.5172 26.4857 13.0137 28.2749 12.5386 30.0289C10.3614 38.0872 8.45368 47.2726 9.56709 56.1269C11.0777 68.137 17.7298 75.984 18.6446 88.2336C19.0418 93.58 18.1979 99.2433 16.3965 103.322C14.9853 106.506 13.0634 108.682 11.6805 111.908C9.21959 117.656 8.89337 126.574 10.9145 132.956C11.6876 135.4 12.7584 137.464 13.3967 140.056C14.9853 146.537 13.1201 155.145 9.77276 158.033C6.42541 160.921 2.21286 158.3 -0.0139771 152.595C0.815768 157.702 2.95041 161.632 5.29781 164.337C9.56 169.24 14.9923 170.677 19.4957 166.697C23.999 162.717 27.1832 152.813 26.3818 143.212C25.6656 134.654 22.0984 126.743 23.2402 118.361C24.1054 112 27.3463 108.281 29.5732 103.364C33.6722 94.3055 34.1261 79.6328 30.6228 69.6514C29.7646 67.2072 28.6938 65.0165 28.0555 62.3257C26.5733 56.0847 27.8073 48.294 30.2894 43.4547C32.7787 38.6155 36.2608 36.298 39.7145 35.1921C41.0761 34.7554 42.4803 34.4877 43.8419 34.9667C48.4942 36.5939 51.26 46.0822 52.6926 54.9506C53.2386 58.3106 53.6854 61.8044 53.5507 65.3264C53.2741 72.4338 50.7139 78.231 48.8701 84.3664C47.0262 90.5017 45.9837 99.0391 48.4516 104.252C49.8274 107.161 51.9408 108.182 53.5577 110.57C56.0257 114.226 57.0328 121.263 55.891 126.919C54.8626 132.04 52.2954 136.147 52.3521 141.655C52.4018 146.361 54.4442 150.136 56.6427 151.996C59.6142 154.518 63.2168 154.468 65.9614 151.094C67.6776 148.981 68.9612 145.494 69.4718 141.669C69.9895 145.494 71.2732 148.981 72.9823 151.094C75.7268 154.468 79.3295 154.518 82.301 151.996C84.4923 150.129 86.5419 146.361 86.5915 141.655C86.6483 136.147 84.081 132.04 83.0527 126.919C81.918 121.263 82.925 114.226 85.3859 110.57C86.9958 108.182 89.1162 107.154 90.492 104.252C92.96 99.0391 91.9175 90.5017 90.0736 84.3664C88.2297 78.231 85.6696 72.4338 85.393 65.3264C85.2583 61.8114 85.7121 58.3106 86.2511 54.9506C87.6837 46.0822 90.4495 36.5939 95.1017 34.9667C96.4634 34.4877 97.8605 34.7554 99.2292 35.1921C102.676 36.291 106.165 38.6155 108.654 43.4547C111.143 48.294 112.37 56.0847 110.888 62.3257C110.25 65.0165 109.179 67.2072 108.321 69.6514C104.818 79.6328 105.271 94.2985 109.371 103.364C111.597 108.281 114.838 112 115.704 118.361C116.845 126.743 113.271 134.654 112.562 143.212C111.76 152.806 114.945 162.717 119.448 166.697C123.951 170.677 129.384 169.24 133.646 164.337C135.993 161.632 138.128 157.702 138.958 152.595C136.731 158.3 132.518 160.928 129.171 158.033H129.206Z" fill="black"/>
</g>
<defs>
<clipPath id="clip0_1189_929">
<rect width="139" height="169" fill="white"/>
</clipPath>
</defs>
</svg>
