<svg width="112" height="194" viewBox="0 0 112 194" fill="none" xmlns="http://www.w3.org/2000/svg">
<path d="M30.4192 38.4267L30.271 38.3328C30.1766 38.3193 30.089 38.3059 29.9947 38.2925C30.1362 38.3395 30.2845 38.3663 30.4192 38.4267Z" fill="black"/>
<path d="M29.9947 38.2925C29.8127 38.2388 29.6375 38.1851 29.4556 38.1582C29.624 38.2186 29.7993 38.2589 29.9677 38.2925C29.9745 38.2925 29.9879 38.2925 29.9947 38.2925Z" fill="black"/>
<path d="M100.461 86.8142C98.6695 85.1634 96.1411 84.0053 95.8036 81.141C95.4968 78.56 97.2457 76.4534 98.7554 74.7902C102.941 70.1765 106.874 64.0906 106.997 56.8589C107.114 49.9722 103.787 43.9787 101.265 37.9667C98.6572 31.7391 96.5952 24.6368 92.2075 20.5528C87.9977 16.6351 82.5053 16.3333 77.3688 16.5674C72.1894 16.8076 67.0161 17.4544 61.8919 18.5016C59.204 19.0498 56.4487 19.752 54.1535 21.6985C51.527 23.9284 49.7657 27.5627 47.4031 30.2792C45.0404 32.9895 41.4136 34.6835 38.8669 32.2935C35.6451 29.2751 36.6208 22.7334 35.6083 17.6638C34.5896 12.5881 31.0609 8.58422 27.1396 8.06063C23.2182 7.53089 19.1557 10.5184 17.4005 15.2184C16.9035 16.5489 16.5782 18.1012 16.9035 19.5303C17.3883 21.6369 19.0575 22.7395 20.3032 24.1933C22.8316 27.1377 23.7214 32.3181 22.3959 36.4329C21.0765 40.5476 17.6522 43.2703 14.3015 42.8761L15.8786 43.3442C11.9757 42.5496 7.6063 44.8287 5.77755 49.4917C3.9488 54.1547 5.4523 60.8874 9.17117 62.6738C11.0122 63.5608 13.0619 63.2343 14.9397 63.9735C16.8114 64.7127 18.5849 67.3861 17.7258 69.7268C17.2901 70.9157 16.3389 71.5624 15.4982 72.2585C11.9757 75.1783 9.51483 80.4634 9.5271 85.9888C9.53937 91.5142 12.2395 96.9903 16.1793 98.7335C20.1191 100.471 24.9671 97.9327 26.6363 92.8755C27.4525 90.3992 27.52 87.6088 28.1398 85.034C28.7597 82.4592 30.257 79.8844 32.2883 79.829C35.3014 79.7489 36.7067 84.8677 36.5717 88.8716C36.4367 92.8755 35.7862 97.4523 37.7868 100.44C38.4373 101.407 39.2964 102.072 40.1924 102.596C43.586 104.585 47.7099 104.573 50.8949 102.035C54.0799 99.4973 56.0804 94.3231 55.3809 89.4753C54.6813 84.6336 51.5822 79.7858 53.2698 75.4C54.5094 72.1846 57.7496 71.3838 60.4314 71.9259C63.1193 72.4679 65.7213 73.9525 68.4399 73.7923C71.7046 73.5952 74.865 70.6631 75.8653 66.5175C76.8595 62.372 75.3989 57.3147 72.4471 55.4545C69.7286 53.742 66.5497 54.7769 63.5673 55.2512C60.5848 55.7255 56.9948 55.1957 55.4913 51.7278C54.129 48.5986 55.2643 44.3667 57.363 42.0691C59.4618 39.7715 62.2602 38.9892 64.9542 38.5211C70.5509 37.5416 76.7981 37.8435 81.057 42.7713C83.5178 45.6172 84.9906 49.6704 86.1689 53.7112C87.341 57.7521 88.2984 62.0024 88.2186 66.3327C88.1388 70.6631 86.893 75.1228 84.334 77.8024C80.2776 82.0527 73.6622 81.3443 70.7779 87.036C69.4463 89.6662 69.3358 93.3005 70.5079 96.0601C71.6801 98.8197 74.0734 100.575 76.4483 100.415C78.9153 100.249 81.0693 98.2592 83.3644 97.058C85.6657 95.8569 88.7218 95.7275 90.1516 98.407C91.6061 101.136 90.3542 105.171 88.2861 107.074C86.218 108.977 83.6222 109.439 81.1797 110.24C72.9197 112.957 65.1874 121.371 63.9355 132.576C63.0825 140.239 65.126 148.918 61.8183 155.287C59.7932 159.186 56.1541 161.127 52.6009 161.508C49.0539 161.89 45.513 160.923 42.0028 160.129C32.589 157.997 23.0279 157.03 13.4853 157.258C12.1966 157.289 10.5519 157.72 10.3187 159.408C10.1653 160.529 10.7729 161.57 11.4172 162.328C16.3205 168.124 23.7889 166.498 30.3061 165.531C36.3876 164.625 42.5428 164.613 48.6304 165.482C54.5954 166.338 61.4194 167.724 65.9238 162.445C71.8703 155.478 69.434 142.284 72.9258 132.81C75.0859 126.946 79.6885 122.812 84.5856 122.35C85.6043 122.252 86.8255 122.449 87.3103 123.65C87.6049 124.365 87.5374 125.239 87.4331 126.04C86.666 131.997 84.334 137.356 82.7078 142.992C81.0815 148.634 80.204 155.201 82.2966 160.56C83.1312 162.697 84.4261 164.619 84.6593 167.003C85.0888 171.457 81.7566 174.795 78.7619 176.859C75.7671 178.922 72.2692 181.534 71.9623 186C77.3627 181.904 82.763 177.807 88.1633 173.711C91.7104 171.019 95.7913 166.892 95.0242 161.552C94.7235 159.439 93.6741 157.677 92.8641 155.811C90.5014 150.328 90.2007 143.571 91.2563 137.405C92.3056 131.239 94.6131 125.578 97.2028 120.281C99.7802 115.02 102.72 109.883 103.978 103.834C105.236 97.7787 104.346 90.3808 100.461 86.8081V86.8142ZM43.1994 56.132C42.4876 60.0805 41.2295 64.0782 38.8116 66.5545C36.3569 69.0677 33.0001 69.6467 29.9625 68.8213C27.9864 68.2854 26.0227 67.1274 24.7769 65.0145C22.7825 61.6205 23.1384 56.748 24.0835 52.6271C24.691 49.9845 25.5317 47.3543 27.0168 45.4201C28.281 43.7692 30.0975 42.7405 31.8219 43.0116C31.4537 42.8822 31.11 42.6481 30.9689 42.1985L32.5706 43.1779C34.3871 43.4612 36.2342 43.4243 38.0261 43.8924C39.9101 44.3852 41.8186 45.5618 42.8189 47.7423C43.9481 50.2001 43.7026 53.3416 43.1994 56.1444V56.132Z" fill="black"/>
</svg>
