<svg width="151" height="231" viewBox="0 0 151 231" fill="none" xmlns="http://www.w3.org/2000/svg">
<path d="M91.9575 209.768C88.9483 204.77 85.1727 199.877 84.634 189.826C84.3129 183.764 85.354 177.881 86.3432 172.482C87.1719 167.941 87.9902 163.377 88.793 158.785C89.6786 153.709 90.5591 148.555 91.0459 143.033C91.6674 136.054 91.6467 128.735 91.6105 121.521C91.538 106.638 91.3722 91.3209 89.3575 77.6678C87.3428 64.0148 83.0181 52.2597 77.9632 51.9814C75.7776 51.8589 73.1776 53.3951 71.7533 48.5194C70.9609 45.8033 70.4533 36.3413 70.474 32.64C70.6242 32.64 72.8358 32.5231 72.9808 32.5064C76.2592 32.1502 77.5281 35.0946 80.8066 34.7383C82.2257 34.5825 84.2611 34.1428 85.0846 30.7309C85.9496 27.1465 85.3643 24.3858 84.2249 21.5361C83.0855 18.6864 81.5369 17.7792 80.0504 17.3172C78.564 16.8552 77.0361 16.7161 75.6533 15.0463C73.9389 12.9703 72.6234 8.70681 71.6912 3.98696C71.4011 2.51201 71.1007 0.870079 70.5621 0.246702C69.8215 -0.610441 68.998 0.897908 68.5111 2.74021C68.0191 4.58251 67.698 6.83112 67.0972 8.37286C65.7817 11.7625 63.7825 10.4545 62.0371 10.8608C60.618 11.1948 59.2351 12.8422 58.1371 15.5139C57.179 17.8515 56.3969 21.5083 56.7232 25.0482C57.1634 29.8905 59.2299 31.3376 60.9287 31.6938C62.5239 32.0278 64.1295 32.1502 65.7299 32.1001C65.7299 32.2114 65.7195 32.3172 65.7195 32.4285C65.6263 37.1706 66.0147 42.1521 65.3984 46.538C64.2382 54.7922 60.5403 55.8441 57.6606 58.6437C50.7153 65.4062 46.805 88.3432 46.7066 109.877C46.6082 131.417 49.5033 151.978 52.3467 171.826L51.6165 166.455C53.2738 172.666 53.1858 181.894 51.8806 188.801C50.5754 195.703 48.2603 200.529 45.8054 203.712C45.3289 204.33 44.811 204.976 44.5365 206.278C43.9926 208.866 44.7281 212.195 45.5619 214.004C48.8508 221.122 54.1957 217.249 55.9877 206.456C56.4435 203.707 56.6973 200.634 57.3033 198.152C57.9144 195.67 59.0694 193.911 59.9965 195.28C61.3845 197.317 60.9857 203.323 60.5506 207.709C59.81 215.083 59.5666 222.881 59.8307 230.529C61.3327 232.182 63.0522 229.265 63.8757 225.224C64.7044 221.184 64.8701 216.308 65.0669 211.627C65.2637 206.946 65.5486 202.048 66.5482 198.358C66.7036 197.779 66.89 197.211 67.1283 196.972C67.4338 196.66 67.7757 196.939 68.0761 197.289C70.184 199.716 71.774 205.677 72.0796 212.284C72.2712 216.492 71.9864 220.95 72.5147 224.902C73.0429 228.853 75.0059 231.503 75.9122 228.202C76.5078 226.037 76.2541 222.876 76.0676 220.143C75.5497 212.685 75.7568 204.798 76.6632 197.662C78.16 196.538 79.7138 198.993 80.8221 202.154C81.9305 205.315 82.7747 209.239 83.9452 212.2C86.2189 217.95 89.6786 219.247 92.3666 215.356C92.5272 215.128 92.6877 214.866 92.7965 214.449C93.2057 212.84 92.5427 210.764 91.9471 209.779L91.9575 209.768Z" fill="black"/>
</svg>
