<svg width="180" height="185" viewBox="0 0 180 185" fill="none" xmlns="http://www.w3.org/2000/svg">
<path d="M154.462 88.1406C153.463 87.9968 152.472 87.414 152.074 86.4754C151.676 85.5369 152.074 84.2653 153.028 83.9171C151.849 83.9323 150.602 83.9323 149.565 83.3722C149.182 83.1678 148.852 82.8878 148.521 82.6077C148.093 82.0249 147.785 81.3361 147.628 80.6322C147.47 79.898 147.455 79.1109 147.718 78.3994C148.273 76.931 149.843 76.1817 151.278 75.5762C150.264 75.7351 149.235 75.1977 148.596 74.3879C147.958 73.578 147.68 72.541 147.575 71.5117C147.522 72.5335 147.402 73.5704 146.944 74.4787C146.486 75.387 145.615 76.1439 144.608 76.2195C144.225 76.2498 143.835 76.1514 143.497 75.9698C143.617 75.175 143.902 74.3954 144.188 73.6385C143.136 74.2138 142.032 74.7133 140.905 75.1296C141.454 74.3879 142.077 73.7142 142.791 73.1314C146.899 69.8087 152.78 70.3461 158 71.0575C154.77 69.7784 152.667 66.4102 152.194 62.9512C151.721 59.4922 152.66 55.9651 154.102 52.7862C152.217 55.6699 150.091 58.5083 147.199 60.3627C144.443 62.1262 140.853 62.8604 137.856 61.604C137.893 61.2709 137.969 60.9455 138.074 60.6276C138.307 59.9085 138.69 59.2273 139.275 58.7505C140.492 57.7741 142.227 57.933 143.767 58.1374C142.813 57.759 142.19 56.7674 142.054 55.7456C141.912 54.7238 142.19 53.6869 142.618 52.7483C142.062 53.6036 141.431 54.4362 140.582 54.9887C139.726 55.5337 138.599 55.7456 137.691 55.2991C136.782 54.8449 136.264 53.6188 136.759 52.7332C136.188 53.2403 135.588 53.7626 134.927 54.1334C134.882 54.0653 134.837 53.9972 134.784 53.9367C134.641 53.649 134.499 53.3538 134.378 53.0511C134.333 52.9451 134.296 52.8467 134.258 52.7408C134.258 52.7408 134.266 52.7256 134.273 52.7181C134.273 52.7181 134.266 52.7256 134.258 52.7332C134.161 52.4531 134.085 52.1655 134.1 51.8628C134.153 50.7804 135.242 50.0992 136.196 49.6148C134.453 49.91 132.696 48.8049 131.78 47.2836C131.389 46.6402 131.126 45.8985 131.149 45.1416C131.201 43.5748 132.456 42.3486 133.612 41.3117C132.711 41.7961 131.554 41.622 130.691 41.0619C129.827 40.5018 129.226 39.6087 128.798 38.6777C129.076 39.6617 129.301 40.6835 129.151 41.6901C129.008 42.6968 128.43 43.6959 127.498 44.0971C126.567 44.4982 125.305 44.0971 124.96 43.1358C124.975 44.3241 124.975 45.5806 124.419 46.6251C124.216 47.0111 123.938 47.3441 123.66 47.6772C123.082 48.1086 122.399 48.4189 121.7 48.5779C120.972 48.7368 120.19 48.7519 119.484 48.487C118.027 47.9269 117.284 46.345 116.683 44.8994C116.841 45.9212 116.307 46.9581 115.504 47.6015C114.7 48.2448 113.671 48.5249 112.649 48.6308C113.663 48.6838 114.692 48.8049 115.594 49.2666C116.495 49.7283 117.246 50.6063 117.321 51.6206C117.351 52.0066 117.254 52.4002 117.073 52.7408C116.285 52.6197 115.511 52.332 114.76 52.0444C115.444 53.3084 116.014 54.633 116.465 55.9954C116.54 56.23 116.615 56.4647 116.675 56.7069C116.082 56.8734 115.474 56.9869 114.865 56.9112C112.695 56.6463 111.493 54.3075 110.652 52.2715C110.975 55.8743 108.488 59.3182 105.281 60.953C103.922 61.6494 102.39 62.0808 100.872 61.9143C100.61 61.884 100.362 61.831 100.106 61.7705C100.106 61.1574 100.302 60.5292 100.632 60.0145C101.188 59.1441 102.067 58.5386 102.998 58.1071C102.022 58.3872 101.008 58.6142 100.009 58.4629C99.0098 58.3191 98.0184 57.7363 97.6203 56.7977C97.2222 55.8592 97.6203 54.5876 98.5742 54.2394C97.395 54.2545 96.1482 54.2545 95.1117 53.6944C94.7286 53.4901 94.3981 53.21 94.0676 52.93C93.6395 52.3472 93.3316 51.6584 93.1739 50.9545C93.0161 50.2203 93.0011 49.4331 93.264 48.7217C93.8198 47.2533 95.3896 46.504 96.8241 45.8985C95.8102 46.0574 94.7812 45.52 94.1428 44.7101C93.5043 43.9003 93.2264 42.8633 93.1213 41.834C93.0687 42.8558 92.9485 43.8927 92.4904 44.801C92.0322 45.7092 91.1609 46.4661 90.1545 46.5418C89.7714 46.5721 89.3809 46.4737 89.0429 46.292C89.1631 45.4973 89.4485 44.7177 89.7339 43.9608C88.6824 44.5361 87.5783 45.0356 86.4516 45.4519C86.9999 44.7101 87.6233 44.0365 88.3369 43.4537C92.4453 40.131 98.3263 40.6683 103.546 41.3798C100.317 40.1007 98.2136 36.7325 97.7405 33.2735C97.2673 29.8145 98.2061 26.2874 99.6482 23.1085C97.763 25.9922 95.6374 28.8306 92.7457 30.6849C89.9893 32.4485 86.3991 33.1827 83.4022 31.9262C83.4398 31.5932 83.5149 31.2678 83.6201 30.9499C83.8529 30.2308 84.2359 29.5496 84.8218 29.0728C86.0386 28.0888 87.7736 28.2478 89.3133 28.4597C88.3594 28.0812 87.736 27.0897 87.6008 26.0679C87.4581 25.0461 87.736 24.0092 88.1641 23.0706C87.6083 23.9259 86.9774 24.7585 86.1287 25.311C85.2724 25.856 84.1458 26.0679 83.237 25.6213C82.3282 25.1672 81.8099 23.941 82.3057 23.0555C81.7348 23.5626 81.134 24.0848 80.473 24.4557C80.4279 24.3876 80.3829 24.3195 80.3303 24.2589C80.1876 23.9713 80.0449 23.6761 79.9247 23.3734C79.8797 23.2674 79.8421 23.169 79.8045 23.063C79.8045 23.063 79.8121 23.0479 79.8196 23.0403C79.8196 23.0403 79.8121 23.0479 79.8045 23.0555C79.7069 22.7754 79.6318 22.4878 79.6468 22.1851C79.6994 21.1027 80.7885 20.4215 81.7423 19.9371C79.9998 20.2323 78.2423 19.1272 77.326 17.6059C76.9354 16.9625 76.6725 16.2207 76.6951 15.4639C76.7476 13.8971 78.0019 12.6709 79.1586 11.634C78.2573 12.1184 77.1006 11.9443 76.2369 11.3842C75.3731 10.8241 74.7723 9.93098 74.3442 9C74.6221 9.98396 74.8474 11.0058 74.6972 12.0124C74.5469 13.0191 73.9761 14.0182 73.0448 14.4193C72.1134 14.8205 70.8516 14.4193 70.5061 13.4581C70.5211 14.6464 70.5211 15.9029 69.9653 16.9474C69.7625 17.3334 69.4846 17.6664 69.2067 17.9994C68.6284 18.4309 67.9449 18.7412 67.2464 18.9001C66.5179 19.0591 65.7367 19.0742 65.0307 18.8093C63.5736 18.2492 62.83 16.6673 62.2292 15.2216C62.3869 16.2435 61.8536 17.2804 61.05 17.9238C60.2463 18.5671 59.2173 18.8472 58.1958 18.9531C59.2098 19.0061 60.2388 19.1272 61.1401 19.5889C62.0414 20.0506 62.7925 20.9286 62.8676 21.9428C62.8976 22.3289 62.8 22.7224 62.6197 23.063C61.8311 22.9419 61.0575 22.6543 60.3064 22.3667C60.9899 23.6307 61.5607 24.9553 62.0113 26.3177C62.0865 26.5523 62.1616 26.787 62.2217 27.0292C61.6283 27.1957 61.0199 27.3092 60.4115 27.2335C58.2409 26.9686 57.0392 24.6298 56.198 22.5938C56.5209 26.1966 54.0348 29.6404 50.8277 31.2753C49.4682 31.9717 47.936 32.4031 46.4188 32.2366C43.2718 31.8884 40.996 29.1409 39.0732 26.5977C39.9069 28.5278 39.3812 30.859 38.1193 32.5318C36.8575 34.2045 34.9723 35.302 33.0195 36.0362C35.0399 35.6199 37.1429 35.3171 39.1558 35.7713C41.1687 36.2254 43.0915 37.55 43.7525 39.5254C44.4134 41.4934 43.407 44.0214 41.4166 44.5663C42.9713 44.6647 44.5712 44.7783 46.0508 45.1946C46.0208 45.3686 45.9982 45.5427 45.9682 45.7092C45.7654 46.3299 45.5476 46.943 45.2997 47.5485C44.9843 48.3205 44.6237 49.1077 44.0078 49.6754C42.393 51.1589 39.8468 50.5609 37.7738 49.8721C40.6956 51.9763 41.6645 56.1165 40.8007 59.636C40.4402 61.1271 39.7642 62.5804 38.6526 63.6324C36.3393 65.8123 32.7866 65.7593 29.6246 65.5701C31.6149 66.1907 33.027 68.1132 33.4701 70.1644C33.9133 72.2156 33.5002 74.3727 32.7791 76.3482C33.7781 74.5317 34.9272 72.7303 36.5796 71.489C38.232 70.2477 40.4853 69.6422 42.4005 70.4217C44.3158 71.2013 45.5626 73.6158 44.6763 75.4929C46.3587 73.7521 48.1388 71.9507 50.4522 71.2543C51.2934 70.997 52.1721 70.9062 53.0509 70.838C54.5005 71.0575 55.9276 71.5949 57.1518 72.3897C58.4362 73.2223 59.5853 74.3273 60.2087 75.7276C61.3804 78.3615 60.5167 81.3588 59.4577 84.0912C59.0971 84.0761 58.7441 84.0155 58.4061 83.8869C56.949 83.3268 56.2055 81.7449 55.6046 80.2992C55.7623 81.321 55.2291 82.3579 54.4254 83.0013C53.6217 83.6446 52.5927 83.9247 51.5713 84.0307C52.5852 84.0836 53.6142 84.2047 54.5155 84.6664C55.4168 85.1282 56.1679 86.0061 56.243 87.0204C56.2731 87.4064 56.1754 87.8 55.9952 88.1406C55.2065 88.0195 54.4329 87.7319 53.6818 87.4442C54.3653 88.7083 54.9361 90.0328 55.3868 91.3952C55.4619 91.6299 55.537 91.8645 55.5971 92.1067C55.0037 92.2732 54.3953 92.3867 53.787 92.3111C51.6163 92.0461 50.4146 89.7073 49.5734 87.6713C49.8963 91.2741 47.4103 94.718 44.2031 96.3529C42.8437 97.0492 41.3114 97.4806 39.7943 97.3141C36.6472 96.9659 34.3714 94.2184 32.4486 91.6753C33.2824 93.5978 32.7566 95.9366 31.4948 97.6093C30.2329 99.282 28.3477 100.38 26.3949 101.114C28.4153 100.697 30.5184 100.395 32.5238 100.849C34.5367 101.303 36.4594 102.627 37.1204 104.595C37.7813 106.563 36.7749 109.091 34.792 109.636C36.3468 109.735 37.9466 109.848 39.4262 110.265C39.3962 110.439 39.3736 110.613 39.3436 110.779C39.1408 111.4 38.923 112.013 38.6751 112.618C38.3597 113.39 37.9992 114.178 37.3833 114.745C35.7684 116.229 33.2223 115.631 31.1493 114.942C34.071 117.046 35.0399 121.186 34.1761 124.706C33.8081 126.197 33.1396 127.65 32.028 128.702C29.7147 130.882 26.1621 130.829 23 130.64C24.9904 131.261 26.4024 133.183 26.8456 135.234C27.2887 137.286 26.8756 139.443 26.1546 141.418C27.1535 139.602 28.3027 137.8 29.955 136.559C31.6074 135.318 33.8607 134.712 35.776 135.492C37.6912 136.271 38.938 138.686 38.0517 140.563C39.7342 138.822 41.5142 137.021 43.8276 136.324C44.6688 136.067 45.5476 135.976 46.4263 135.908C47.8759 136.128 49.303 136.665 50.5273 137.46C51.8116 138.292 52.9608 139.397 53.5842 140.798C54.8836 143.712 53.6818 147.08 52.4876 150.032C53.7119 148.329 55.9801 147.61 58.0456 147.852C60.1186 148.094 62.0113 149.184 63.6262 150.508C62.2442 148.964 60.9223 147.292 60.2914 145.316C59.6529 143.341 59.8182 140.994 61.1701 139.42C61.6809 138.822 62.3794 138.398 63.1305 138.171C64.0843 139.488 64.7979 141.032 65.4663 142.531C66.285 139.723 67.3591 136.983 68.6509 134.364C69.0791 133.494 69.5522 132.623 70.1681 131.881C70.1306 132.472 69.9128 133.1 69.6799 133.652C70.8066 132.29 72.857 131.965 74.5319 132.517C75.2455 132.752 75.9289 133.138 76.3946 133.728C76.6725 134.076 76.8528 134.477 76.973 134.901C76.4547 135.159 75.929 135.393 75.3882 135.598C75.944 135.484 76.5073 135.378 77.0706 135.295C77.2433 136.241 77.1307 137.286 77.003 138.262C77.3785 137.301 78.3625 136.68 79.3764 136.536C80.3904 136.392 81.4194 136.672 82.3507 137.104C81.5396 136.567 80.7509 135.961 80.2026 135.151C80.6458 135.181 81.0814 135.242 81.5095 135.34C83.5224 135.794 85.4452 137.119 86.1061 139.087C86.7671 141.055 85.7606 143.583 83.7703 144.128C85.325 144.226 86.9248 144.34 88.4045 144.756C88.3744 144.93 88.3519 145.104 88.3218 145.271C88.1191 145.891 87.9012 146.504 87.6534 147.11C87.3379 147.882 86.9774 148.669 86.3615 149.237C84.7467 150.72 82.2005 150.122 80.1275 149.434C83.0492 151.538 84.0181 155.678 83.1544 159.198C82.7864 160.689 82.1179 162.142 81.0063 163.194C78.6929 165.374 75.1403 165.321 71.9782 165.132C73.9686 165.752 75.3807 167.675 75.8238 169.726C76.2669 171.777 75.8538 173.934 75.1328 175.91C76.1317 174.093 77.2809 172.292 78.9333 171.05C80.5857 169.809 82.8389 169.204 84.7542 169.983C86.6695 170.763 87.9163 173.177 87.03 175.054C88.7124 173.314 90.4925 171.512 92.8058 170.816C93.647 170.559 94.5258 170.468 95.4046 170.4C96.8542 170.619 98.2812 171.156 99.5055 171.951C100.79 172.784 101.939 173.889 102.562 175.289C103.862 178.203 102.66 181.571 101.466 184.523C102.69 182.82 104.958 182.101 107.024 182.343C109.097 182.586 110.99 183.675 112.604 185C111.222 183.456 109.901 181.783 109.27 179.808C108.639 177.832 108.796 175.486 110.148 173.912C110.659 173.314 111.358 172.89 112.109 172.663C113.063 173.98 113.776 175.524 114.445 177.022C115.263 174.214 116.337 171.474 117.629 168.856C118.057 167.985 118.53 167.115 119.146 166.373C119.109 166.963 118.891 167.592 118.658 168.144C119.785 166.782 121.835 166.456 123.51 167.009C124.224 167.243 124.907 167.629 125.373 168.22C126.349 169.446 126.192 171.194 125.981 172.746C126.357 171.785 127.341 171.156 128.355 171.02C129.369 170.876 130.398 171.156 131.329 171.588C130.48 171.028 129.654 170.392 129.106 169.537C128.557 168.681 128.355 167.539 128.798 166.623C128.993 166.222 129.339 165.896 129.744 165.699C129.962 165.783 130.172 165.873 130.383 165.957C130.247 165.843 130.112 165.722 129.977 165.601C130.428 165.442 130.923 165.45 131.344 165.684C130.841 165.109 130.323 164.503 129.954 163.837C130.022 163.792 130.09 163.746 130.15 163.694C130.435 163.55 130.728 163.406 131.029 163.285C131.404 163.126 131.802 162.982 132.208 162.997C133.282 163.05 133.958 164.148 134.438 165.109C134.146 163.353 135.242 161.582 136.752 160.658C137.39 160.265 138.126 160 138.877 160.023C140.432 160.076 141.649 161.34 142.678 162.505C142.197 161.597 142.37 160.431 142.926 159.561C143.482 158.69 144.36 158.085 145.292 157.654C144.315 157.934 143.301 158.161 142.302 158.009C141.303 157.865 140.312 157.283 139.914 156.344C139.516 155.406 139.914 154.134 140.868 153.786C139.689 153.801 138.442 153.801 137.405 153.241C137.022 153.036 136.692 152.756 136.361 152.476C135.933 151.894 135.625 151.205 135.467 150.501C135.31 149.767 135.295 148.98 135.558 148.268C136.113 146.8 137.683 146.05 139.118 145.445C138.104 145.604 137.075 145.066 136.436 144.257C135.798 143.447 135.52 142.41 135.415 141.38C135.362 142.402 135.242 143.439 134.784 144.347C134.326 145.256 133.455 146.013 132.448 146.088C132.065 146.118 131.674 146.02 131.336 145.838C131.457 145.044 131.742 144.264 132.027 143.507C130.976 144.082 129.872 144.582 128.745 144.998C129.294 144.257 129.917 143.583 130.63 143C134.739 139.677 140.62 140.215 145.84 140.926C142.61 139.647 140.507 136.279 140.034 132.82C139.561 129.361 140.5 125.834 141.942 122.655C140.057 125.539 137.931 128.377 135.039 130.231C132.283 131.995 128.693 132.729 125.696 131.473C125.733 131.14 125.808 130.814 125.914 130.496C126.146 129.777 126.53 129.088 127.115 128.619C128.332 127.635 130.067 127.802 131.607 128.006C130.653 127.628 130.037 126.636 129.894 125.614C129.752 124.592 130.03 123.556 130.458 122.617C129.902 123.472 129.271 124.305 128.422 124.857C127.566 125.402 126.439 125.614 125.531 125.168C124.622 124.714 124.104 123.487 124.599 122.602C124.028 123.109 123.428 123.631 122.767 124.002C122.722 123.934 122.676 123.866 122.624 123.805C122.481 123.518 122.338 123.223 122.218 122.92C122.173 122.814 122.136 122.715 122.098 122.609C122.098 122.609 122.106 122.594 122.113 122.587C122.113 122.587 122.106 122.594 122.098 122.602C122 122.322 121.925 122.034 121.94 121.731C121.993 120.649 123.082 119.968 124.036 119.483C122.293 119.779 120.536 118.674 119.62 117.152C119.229 116.509 118.966 115.767 118.989 115.01C119.019 114.11 119.447 113.33 120.025 112.626C121.708 113.05 123.247 113.981 124.599 115.086C123.217 113.542 121.895 111.869 121.264 109.894C120.626 107.918 120.791 105.572 122.143 103.997C122.654 103.4 123.352 102.976 124.104 102.749C125.057 104.066 125.771 105.61 126.439 107.108C127.258 104.3 128.332 101.56 129.624 98.9414C130.052 98.071 130.525 97.2006 131.141 96.4588C131.104 97.0492 130.886 97.6774 130.653 98.23C131.78 96.8675 133.83 96.5421 135.505 97.0946C136.219 97.3293 136.902 97.7153 137.368 98.3056C138.344 99.5318 138.186 101.28 137.976 102.832C138.352 101.871 139.336 101.242 140.35 101.106C141.363 100.962 142.392 101.242 143.324 101.674C142.475 101.114 141.649 100.478 141.101 99.6226C140.552 98.7673 140.35 97.6244 140.793 96.7086C140.988 96.3074 141.333 95.982 141.739 95.7852C141.957 95.8684 142.167 95.9593 142.377 96.0425C142.242 95.929 142.107 95.8079 141.972 95.6868C142.423 95.5278 142.918 95.5354 143.339 95.7701C142.836 95.1948 142.317 94.5893 141.949 93.9232C142.017 93.8778 142.085 93.8324 142.145 93.7794C142.43 93.6356 142.723 93.4918 143.023 93.3707C143.399 93.2118 143.797 93.0679 144.203 93.0831C145.277 93.1361 145.953 94.2336 146.433 95.1948C146.14 93.4388 147.237 91.6677 148.747 90.7443C149.385 90.3507 150.121 90.0858 150.872 90.1085C152.427 90.1615 153.644 91.4255 154.673 92.5911C154.192 91.6828 154.365 90.5172 154.921 89.6468C155.476 88.7764 156.363 88.1709 157.286 87.7394C156.31 88.0195 155.296 88.2466 154.297 88.0952L154.462 88.1406ZM98.3188 61.0363C98.2587 60.9985 98.1986 60.9682 98.1385 60.9303C98.1986 60.9606 98.2587 60.9985 98.3188 61.0363ZM87.8937 64.1471C88.1791 64.0033 88.4721 63.8595 88.7725 63.7384C89.148 63.5795 89.5461 63.4356 89.9517 63.4508C90.3423 63.4659 90.6727 63.6249 90.9657 63.8671C90.1921 64.465 89.3208 64.9494 88.427 65.3506C88.1566 65.01 87.9088 64.6618 87.6984 64.2909C87.766 64.2455 87.8336 64.2001 87.8937 64.1471ZM59.7656 58.6672C60.066 57.7362 59.6605 56.6236 58.8418 56.1014C58.0156 55.5791 56.8514 55.7002 56.1454 56.3738C57.3922 55.1401 58.6765 53.8307 59.1948 52.1504C59.7506 50.3414 59.3074 48.3432 58.3761 46.7008C57.4448 45.0583 56.0628 43.7338 54.6357 42.5076C56.4233 42.1746 58.2184 41.8415 60.006 41.5009C59.7656 41.13 59.5177 40.7667 59.2774 40.3959C61.3879 40.2672 63.491 39.9644 65.5565 39.4952C65.8719 39.427 66.2024 39.3362 66.4127 39.0789C67.0361 38.3068 65.8644 36.9293 66.5704 36.233C67.0812 36.7476 68.0275 36.5887 68.4782 36.0286C68.9288 35.4685 68.9439 34.6283 68.666 33.9623C68.4632 33.4779 68.1252 32.9329 68.3805 32.4712C68.5308 32.1987 68.8462 32.0701 69.1391 31.9641C69.8151 31.7143 70.4836 31.4645 71.1596 31.2072L69.1617 33.5233C68.7936 35.9151 70.4761 38.4431 72.8044 39.0108C72.1435 39.6617 71.4375 40.4564 71.5351 41.3798C71.6853 42.7195 73.3152 43.2342 74.6371 43.431C73.2851 44.1955 72.0158 45.1037 70.8591 46.1407C70.5587 46.4132 70.2357 46.7689 70.3108 47.17C70.3859 47.5561 70.799 47.7756 71.1671 47.8967C72.0684 48.1994 73.0373 48.3129 73.9836 48.2221C72.827 49.1304 71.6703 50.0387 70.5136 50.9469C70.1531 51.2346 69.755 51.5752 69.7325 52.0369C69.71 52.4834 70.048 52.8543 70.3709 53.1646C72.0759 54.8071 73.9461 56.2906 75.9289 57.5773C74.8699 56.9339 73.7959 56.3209 72.6993 55.7532C71.7154 55.2385 70.416 54.7919 69.5973 55.5413C68.6059 56.4571 69.3344 58.0844 69.2969 59.4468C68.7561 58.3115 67.5168 57.547 66.2625 57.5849C65.0082 57.6227 63.814 58.4402 63.3333 59.6058C63.2732 58.7959 62.6573 58.0617 61.8762 57.8573C61.095 57.653 60.2087 57.9936 59.7581 58.6672H59.7656ZM67.8623 74.3727C68.1026 75.2659 68.2754 76.1893 68.1477 77.1051C68.02 78.0058 67.5468 78.8989 66.7807 79.3606C66.4427 77.6047 66.7282 75.7124 67.8698 74.3727H67.8623ZM67.9074 74.3197C68.4181 73.7445 69.1016 73.3282 69.8377 73.1087C70.6864 74.2743 71.3398 75.6216 71.9407 76.9537C71.1746 77.1051 70.3409 76.9083 69.6799 76.4769C68.8913 75.9622 68.328 75.1675 67.9074 74.3197ZM62.8526 82.8499C62.785 82.9332 62.7249 83.0164 62.6573 83.0997C62.0789 83.5311 61.3955 83.8414 60.697 84.0004C60.4791 84.0458 60.2613 84.0761 60.0435 84.0988C60.8397 83.4403 61.8236 83.0316 62.8526 82.8575V82.8499ZM66.0973 120.838C65.1133 120.324 63.814 119.877 62.9953 120.626C62.0038 121.542 62.7324 123.17 62.6948 124.532C62.1541 123.397 60.9148 122.632 59.6605 122.67C58.4061 122.7 57.2119 123.525 56.7312 124.691C56.6711 123.881 56.0552 123.147 55.2741 122.942C54.493 122.738 53.6067 123.079 53.1561 123.752C53.4565 122.821 53.0509 121.709 52.2322 121.186C51.406 120.664 50.2418 120.785 49.5358 121.459C50.7826 120.225 52.067 118.916 52.5852 117.235C53.141 115.427 52.6979 113.428 51.7665 111.786C50.8352 110.143 49.4532 108.819 48.0261 107.593C49.8137 107.26 51.6088 106.927 53.3964 106.586C53.1561 106.215 52.9082 105.852 52.6679 105.481C54.7784 105.352 56.8814 105.05 58.9469 104.58C59.2624 104.505 59.5929 104.421 59.8032 104.164C60.4266 103.392 59.2549 102.014 59.9609 101.318C60.4716 101.833 61.418 101.674 61.8686 101.114C62.3193 100.554 62.3343 99.7135 62.0564 99.0474C61.8536 98.563 61.5156 98.018 61.771 97.5563C61.9212 97.2838 62.2367 97.1552 62.5296 97.0492C63.2056 96.7994 63.874 96.5496 64.55 96.2923L62.5521 98.6084C62.1841 101 63.8665 103.528 66.1949 104.096C65.5339 104.747 64.8279 105.542 64.9256 106.465C65.0758 107.805 66.7056 108.319 68.0275 108.516C66.6756 109.281 65.4063 110.189 64.2496 111.226C63.9491 111.498 63.6262 111.854 63.7013 112.255C63.7764 112.641 64.1895 112.861 64.5575 112.982C65.4588 113.285 66.4277 113.398 67.3741 113.307C66.2174 114.216 65.0608 115.124 63.9041 116.032C63.5436 116.32 63.1455 116.66 63.123 117.122C63.1004 117.569 63.4384 117.939 63.7614 118.25C65.4663 119.892 67.3365 121.376 69.3194 122.662C68.2604 122.019 67.1863 121.406 66.0897 120.838H66.0973ZM81.0363 91.1682C80.8936 90.1463 81.1715 89.1094 81.5996 88.1709C81.0438 89.0261 80.4129 89.8587 79.5642 90.4113C78.708 90.9562 77.5813 91.1681 76.6725 90.7216C75.7637 90.2674 75.2455 89.0413 75.7412 88.1557C75.1703 88.6628 74.5695 89.1851 73.9085 89.556C73.8635 89.4879 73.8184 89.4197 73.7658 89.3592C73.6231 89.0716 73.4804 88.7764 73.3602 88.4736C73.3152 88.3677 73.2776 88.2693 73.2401 88.1633C73.2401 88.1633 73.2476 88.1482 73.2551 88.1406C73.2551 88.1406 73.2476 88.1482 73.2401 88.1557C73.1424 87.8757 73.0673 87.5881 73.0823 87.2853C73.1349 86.2029 74.224 85.5217 75.1779 85.0373C73.4353 85.3325 71.6778 84.2275 70.7615 82.7061C70.3709 82.0627 70.108 81.321 70.1306 80.5641C70.1756 79.2395 71.0769 78.1648 72.0609 77.2262C72.0984 77.3095 72.136 77.3927 72.1735 77.4684C72.2186 77.3019 72.2787 77.1429 72.3313 76.9764C72.4214 76.8932 72.5115 76.8099 72.6016 76.7267C72.5265 76.7645 72.4514 76.7948 72.3763 76.8251C73.1725 74.2441 74.1639 71.7236 75.3581 69.3016C75.7862 68.4311 76.2594 67.5607 76.8753 66.8189C76.8378 67.4093 76.6199 68.0375 76.3871 68.5901C77.5137 67.2277 79.5642 66.9022 81.2391 67.4547C81.9527 67.6894 82.6361 68.0754 83.1018 68.6658C84.0782 69.8919 83.9205 71.6403 83.7102 73.192C84.0857 72.2307 85.0697 71.6101 86.0836 71.4663C87.0976 71.3225 88.1266 71.6025 89.0579 72.0339C88.2092 71.4738 87.383 70.838 86.8347 69.9828C86.2939 69.1199 86.0836 67.9846 86.5268 67.0687C86.722 66.6676 87.0675 66.3421 87.4731 66.1453C87.6909 66.2286 87.9012 66.3194 88.1115 66.4027C87.9763 66.2891 87.8412 66.168 87.706 66.0469C88.1566 65.888 88.6523 65.8955 89.0729 66.1302C88.9002 65.9334 88.7199 65.729 88.5547 65.5171C89.6963 65.3203 90.8605 65.1916 92.0022 65.2446C92.0622 65.3506 92.1148 65.4565 92.1674 65.5625C92.1524 65.4565 92.1524 65.3581 92.1449 65.2522C92.6406 65.2825 93.1363 65.343 93.6245 65.4565C95.6374 65.9107 97.5602 67.2352 98.2211 69.2032C98.8821 71.1711 97.8757 73.6991 95.8853 74.2441C97.44 74.3425 99.0398 74.456 100.519 74.8723C100.489 75.0464 100.467 75.2204 100.437 75.387C100.234 76.0076 100.016 76.6207 99.7684 77.2262C99.4529 77.9982 99.0924 78.7854 98.4765 79.3531C96.8617 80.8366 94.3155 80.2386 92.2425 79.5499C95.1642 81.654 96.1331 85.7942 95.2694 89.3138C94.9013 90.8048 94.2329 92.2581 93.1213 93.3102C92.5354 93.8627 91.867 94.2714 91.1459 94.5666C91.4238 92.3716 92.1298 90.2145 93.0462 88.1936C91.3037 90.8578 89.3508 93.4691 86.7821 95.3235C85.8733 95.3386 84.9645 95.3008 84.0857 95.2478C84.6566 95.4219 85.1748 95.7171 85.6405 96.0804C82.9591 97.6244 79.6168 98.1997 76.8002 97.0114C76.8378 96.6783 76.9129 96.3529 77.018 96.035C77.2509 95.3159 77.6339 94.6271 78.2198 94.1579C79.4365 93.1739 81.1715 93.3329 82.7112 93.5448C81.7574 93.1663 81.134 92.1748 80.9988 91.153L81.0363 91.1682ZM79.6994 133.092C79.7144 132.767 79.7895 132.441 79.9322 132.146C80.1275 131.745 80.473 131.42 80.8786 131.223C80.9537 131.253 81.0213 131.283 81.0964 131.314C80.9462 131.594 80.7734 131.859 80.5857 132.108C80.3153 132.464 80.0148 132.79 79.6919 133.1L79.6994 133.092ZM81.885 128.937C81.8325 129.346 81.7423 129.747 81.6072 130.148C81.4194 129.891 81.2391 129.633 81.0889 129.361C81.1565 129.315 81.2241 129.27 81.2842 129.217C81.4795 129.119 81.6823 129.028 81.885 128.937ZM81.1114 131.124C81.1114 131.124 81.1715 131.109 81.2016 131.102C81.1865 131.124 81.179 131.147 81.164 131.177C81.149 131.162 81.1265 131.147 81.1114 131.124ZM83.4849 128.551C84.3636 128.672 84.972 129.505 85.4152 130.337C84.7242 129.823 84.0857 129.21 83.4849 128.551ZM93.294 130.844C91.9346 131.541 90.4024 131.972 88.8852 131.806C87.6534 131.669 86.5568 131.162 85.5579 130.443C85.3776 128.755 86.4291 127.075 87.8862 126.19C88.5246 125.796 89.2607 125.531 90.0118 125.554C91.5665 125.607 92.7833 126.871 93.8123 128.036C93.3316 127.128 93.5043 125.962 94.0601 125.092C94.6159 124.222 95.5022 123.616 96.4261 123.185C95.4496 123.465 94.4357 123.692 93.4367 123.54C92.4378 123.397 91.4464 122.814 91.0483 121.875C90.6502 120.937 91.0483 119.665 92.0022 119.317C90.823 119.332 89.5762 119.332 88.5397 118.772C88.1566 118.568 87.8261 118.288 87.4957 118.008C87.0675 117.425 86.7596 116.736 86.6019 116.032C86.4441 115.298 86.4291 114.511 86.692 113.799C87.2478 112.331 88.8176 111.582 90.2521 110.976C89.2382 111.135 88.2092 110.598 87.5708 109.788C86.9323 108.978 86.6544 107.941 86.5493 106.911C86.4967 107.933 86.3765 108.97 85.9184 109.879C85.4602 110.787 84.589 111.544 83.5825 111.619C83.1994 111.65 82.8089 111.551 82.4709 111.37C82.5911 110.575 82.8765 109.795 83.1619 109.038C82.1104 109.614 81.0063 110.113 79.8797 110.529C80.4279 109.788 81.0513 109.114 81.7649 108.531C85.8733 105.208 91.7543 105.746 96.9743 106.457C94.4883 105.473 92.6781 103.248 91.7543 100.697C93.3166 99.774 95.2318 99.4031 96.8917 100.077C98.807 100.856 100.054 103.271 99.1675 105.148C100.85 103.407 102.63 101.606 104.943 100.909C105.785 100.652 106.663 100.561 107.542 100.493C108.992 100.713 110.419 101.25 111.643 102.045C112.927 102.877 114.077 103.982 114.7 105.383C115.902 108.07 114.97 111.15 113.874 113.935C113.461 113.754 113.115 113.436 112.957 113.004C112.972 114.193 112.972 115.449 112.417 116.494C112.214 116.88 111.936 117.213 111.658 117.546C111.08 117.977 110.404 118.288 109.698 118.447C108.969 118.605 108.188 118.621 107.482 118.356C106.025 117.796 105.281 116.214 104.68 114.768C104.838 115.79 104.305 116.827 103.501 117.47C102.698 118.113 101.669 118.394 100.647 118.5C101.661 118.552 102.69 118.674 103.591 119.135C104.493 119.597 105.244 120.475 105.319 121.489C105.349 121.875 105.251 122.269 105.071 122.609C104.282 122.488 103.509 122.201 102.758 121.913C103.441 123.177 104.012 124.502 104.463 125.864C104.538 126.099 104.613 126.333 104.673 126.576C104.08 126.742 103.471 126.856 102.863 126.78C100.692 126.515 99.4905 124.176 98.6493 122.14C98.9722 125.743 96.4861 129.187 93.279 130.822L93.294 130.844ZM116.856 112.588C116.57 113.201 116.119 113.724 115.504 113.988C115.068 114.17 114.572 114.178 114.122 114.041C114.858 113.307 115.827 112.823 116.856 112.588ZM115.106 155.315C114.122 154.8 112.822 154.353 112.004 155.103C111.012 156.019 111.741 157.646 111.703 159.008C111.162 157.873 109.923 157.109 108.669 157.146C107.414 157.184 106.22 158.002 105.74 159.167C105.679 158.357 105.064 157.623 104.282 157.419C103.501 157.215 102.615 157.555 102.164 158.229C102.465 157.298 102.059 156.185 101.241 155.663C100.422 155.141 99.2501 155.262 98.5441 155.935C99.7909 154.702 101.075 153.392 101.594 151.712C102.149 149.903 101.706 147.905 100.775 146.262C99.8435 144.62 98.4615 143.295 97.0344 142.069C98.822 141.736 100.617 141.403 102.405 141.062C102.164 140.692 101.916 140.328 101.676 139.957C103.787 139.829 105.89 139.526 107.955 139.057C108.271 138.989 108.601 138.898 108.811 138.64C109.435 137.868 108.263 136.491 108.969 135.794C109.48 136.309 110.426 136.15 110.877 135.59C111.328 135.022 111.343 134.19 111.065 133.524C110.862 133.039 110.524 132.494 110.779 132.033C110.93 131.76 111.245 131.632 111.538 131.526C112.214 131.276 112.882 131.026 113.558 130.769L111.56 133.085C111.192 135.477 112.875 138.005 115.203 138.572C114.542 139.223 113.836 140.018 113.934 140.941C114.084 142.281 115.714 142.796 117.036 142.993C115.684 143.757 114.415 144.665 113.258 145.702C112.957 145.975 112.634 146.33 112.71 146.732C112.785 147.118 113.198 147.337 113.566 147.458C114.467 147.761 115.436 147.874 116.382 147.784C115.226 148.692 114.069 149.6 112.912 150.508C112.552 150.796 112.154 151.137 112.131 151.598C112.109 152.045 112.447 152.416 112.77 152.726C114.475 154.369 116.345 155.852 118.328 157.139C117.269 156.495 116.195 155.882 115.098 155.315H115.106ZM127.123 85.4233C126.139 84.9087 124.84 84.4621 124.021 85.2114C123.029 86.1273 123.758 87.7546 123.72 89.117C123.18 87.9816 121.94 87.2172 120.686 87.255C119.432 87.2853 118.238 88.1103 117.757 89.2759C117.697 88.466 117.081 87.7319 116.3 87.5275C115.519 87.3231 114.632 87.6637 114.182 88.3374C114.482 87.4064 114.077 86.2938 113.258 85.7715C112.439 85.2493 111.267 85.3704 110.561 86.044C111.808 84.8103 113.093 83.5008 113.611 81.8205C114.167 80.0116 113.724 78.0134 112.792 76.3709C111.861 74.7285 110.479 73.4039 109.052 72.1777C110.839 71.8447 112.634 71.5117 114.422 71.1711C114.182 70.8002 113.934 70.4369 113.693 70.066C115.804 69.9373 117.907 69.6346 119.973 69.1653C120.288 69.0972 120.618 69.0064 120.829 68.749C121.452 67.977 120.281 66.5995 120.987 65.9031C121.497 66.4178 122.444 66.2588 122.894 65.6987C123.345 65.1386 123.36 64.2985 123.082 63.6324C122.879 63.148 122.541 62.6031 122.797 62.1414C122.947 61.8689 123.262 61.7402 123.555 61.6342C124.231 61.3845 124.9 61.1347 125.576 60.8773L123.578 63.1934C123.21 65.5852 124.892 68.1132 127.221 68.6809C126.56 69.3318 125.854 70.1266 125.951 71.05C126.101 72.3897 127.731 72.9044 129.053 73.1011C127.701 73.8656 126.432 74.7739 125.275 75.8108C124.975 76.0833 124.652 76.439 124.727 76.8402C124.802 77.2262 125.215 77.4457 125.583 77.5668C126.484 77.8696 127.453 77.9831 128.4 77.8923C127.243 78.8005 126.086 79.7088 124.93 80.6171C124.569 80.9047 124.171 81.2453 124.149 81.707C124.126 82.1536 124.464 82.5244 124.787 82.8348C126.492 84.4772 128.362 85.9607 130.345 87.2475C129.286 86.6041 128.212 85.991 127.115 85.4233H127.123Z" fill="black"/>
</svg>
