<svg width="152" height="199" viewBox="0 0 152 199" fill="none" xmlns="http://www.w3.org/2000/svg">
<path d="M124.095 136.307C126.783 140.015 127.181 145.013 127.199 149.688C127.199 150.663 127.271 151.795 128.026 152.339C128.995 153.042 130.292 152.238 131.154 151.39C134.461 148.138 136.78 143.766 137.684 139.072C138.112 136.838 138.213 134.428 137.291 132.372C135.597 128.582 131.202 127.278 128.264 124.482C124.642 121.034 123.482 115.574 122.828 110.455C122.614 108.778 122.441 107.02 122.977 105.432C124.154 101.945 128.383 100.224 129.084 96.5928C128.698 96.4283 128.305 96.2828 127.907 96.1499C122.989 92.8029 118.052 89.2662 114.603 84.2742C112.706 81.5283 111.279 77.903 112.527 74.7648C113.14 73.221 114.318 72.0252 115.43 70.8421C118.403 67.6597 121.169 64.1166 122.632 59.9091C124.095 55.7017 124.077 50.7161 121.74 46.9832C120.592 45.1484 117.987 43.7058 116.595 45.3382C116.167 45.8443 115.983 46.5213 115.804 47.173C114.098 53.2975 110.648 59.5675 104.903 61.4403C104.219 61.6617 103.488 61.8136 102.804 61.5984C101.739 61.2631 101.091 60.1306 100.615 59.0613C97.6774 52.5003 97.2909 45.0282 96.9459 37.7712C96.8032 34.7469 96.6723 31.6404 97.5168 28.7489C98.3257 25.9904 99.9909 23.5861 101.894 21.5299C104.463 18.7524 107.52 16.4936 110.868 14.8993C113.842 13.4883 117.315 12.6152 120.324 13.9439C123.922 15.5319 126.753 20.0937 130.553 19.1763C132.498 14.4311 129.626 8.90131 125.861 5.62395C117.47 -1.67734 104.534 -1.72796 95.4948 4.6496C86.4611 11.0272 81.5071 22.9661 82.1077 34.4875C82.3635 39.4225 83.5351 44.3006 83.3983 49.2419C83.2555 54.1833 81.4357 59.5042 77.3381 61.8389C74.5311 63.4332 71.0876 63.3573 68.0605 62.3134C65.0334 61.2694 62.3453 59.3587 59.7761 57.3657C58.1823 56.132 56.5647 54.8096 55.6012 52.9748C54.4415 50.773 54.3761 48.1347 54.3761 45.6102C54.3761 38.4039 54.721 31.2038 55.2503 24.0164C55.518 20.3088 55.8272 16.4683 54.6675 12.9569C53.2759 8.74946 49.8622 5.51639 45.9728 3.85241C42.0833 2.18842 37.7597 1.96698 33.5908 2.47946C28.7676 3.07419 23.8374 4.76349 20.4832 8.49638C19.5495 9.534 18.7229 11.0398 19.3057 12.3368C19.609 13.0012 20.2156 13.4314 20.7806 13.8553C26.5612 18.2336 29.9392 25.2691 33.0793 32.0453C36.4454 39.3086 39.8293 46.7111 41.1437 54.6894C41.7086 58.1313 41.7324 62.1109 39.419 64.5911C36.3265 67.9191 30.5934 66.4006 27.9053 62.693C25.2172 58.9854 24.8187 53.9871 24.8009 49.3115C24.8009 48.3372 24.7295 47.2046 23.9742 46.6605C23.0048 45.9582 21.7083 46.7617 20.846 47.6096C17.5394 50.8616 15.22 55.2335 14.316 59.9281C13.8878 62.1615 13.7867 64.5721 14.7085 66.6284C16.4035 70.4182 20.7984 71.7215 23.7363 74.5181C27.3581 77.9662 28.5178 83.4264 29.172 88.5449C29.3861 90.2215 29.5586 91.9804 29.0233 93.5685C27.8458 97.0546 23.6174 98.7756 22.9156 102.407C23.3022 102.572 23.6947 102.717 24.0931 102.85C29.0115 106.197 33.9476 109.734 37.397 114.726C39.2941 117.472 40.7214 121.097 39.4725 124.235C38.86 125.779 37.6824 126.975 36.5703 128.158C33.5967 131.34 30.8313 134.883 29.3683 139.091C27.9053 143.298 27.9231 148.284 30.2604 152.017C31.4082 153.852 34.013 155.294 35.4047 153.662C35.8329 153.156 36.0172 152.479 36.1956 151.827C37.9025 145.703 41.3518 139.433 47.0968 137.56C47.7807 137.338 48.5122 137.186 49.1961 137.402C50.2607 137.737 50.9089 138.869 51.3847 139.939C54.3226 146.5 54.7092 153.972 55.0541 161.229C55.1968 164.253 55.3277 167.36 54.4832 170.251C53.6743 173.01 52.0091 175.414 50.106 177.47C47.5369 180.248 44.48 182.506 41.1318 184.101C38.1582 185.512 34.685 186.385 31.6758 185.056C28.0777 183.468 25.2469 178.906 21.4467 179.824C19.5019 184.569 22.3744 190.099 26.139 193.376C34.5304 200.677 47.4655 200.728 56.5052 194.35C65.5389 187.973 70.4929 176.034 69.8923 164.513C69.6365 159.578 68.4649 154.699 68.6017 149.758C68.7445 144.817 70.5643 139.496 74.6619 137.161C77.469 135.567 80.9124 135.643 83.9395 136.687C86.9666 137.731 89.6547 139.641 92.2239 141.634C93.8177 142.868 95.4353 144.19 96.3988 146.025C97.5585 148.227 97.6239 150.865 97.6239 153.39C97.6239 160.596 97.279 167.796 96.7497 174.984C96.482 178.691 96.1728 182.532 97.3325 186.043C98.7241 190.251 102.138 193.484 106.027 195.148C109.917 196.812 114.24 197.033 118.409 196.521C123.232 195.926 128.163 194.237 131.517 190.504C132.45 189.466 133.277 187.96 132.694 186.663C132.391 185.999 131.784 185.569 131.219 185.145C125.439 180.766 122.061 173.731 118.921 166.955C115.555 159.691 112.171 152.289 110.856 144.311C110.291 140.869 110.268 136.889 112.581 134.409C115.674 131.081 121.407 132.599 124.095 136.307ZM106.122 108.937C105.748 110.493 105.254 112.454 103.761 112.714C103.286 112.796 102.798 112.663 102.34 112.499C99.3783 111.41 97.1541 108.848 94.6325 106.861C92.1109 104.881 88.6972 103.432 85.902 104.938C83.9395 105.995 82.8333 108.215 81.5011 110.075C80.163 111.936 78.0518 113.65 75.9405 112.999C74.7868 112.644 73.9244 111.664 73.0383 110.803C70.6832 108.519 67.2398 106.842 64.3495 108.272C62.1431 109.361 60.9715 111.885 59.6572 114.068C58.3429 116.244 56.2852 118.421 53.8706 118.073C52.8536 117.927 51.9437 117.339 51.129 116.681C51.129 116.681 47.0492 110.898 46.7875 110.392C44.7833 106.507 41.3756 103.521 37.6646 101.414C41.6789 99.0097 44.7298 94.8212 45.8717 90.0697C46.2463 88.5133 46.74 86.5519 48.2327 86.2925C48.7085 86.2103 49.1961 86.3431 49.6541 86.5076C52.6157 87.5959 54.84 90.1583 57.3616 92.1449C59.8832 94.1253 63.2969 95.5741 66.092 94.0683C68.0546 93.0117 69.1608 90.791 70.4929 88.9308C71.831 87.0707 73.9423 85.3561 76.0535 86.0078C77.2073 86.3621 78.0696 87.3428 78.9557 88.2032C81.3108 90.4873 84.7542 92.1639 87.6446 90.734C89.8509 89.6458 91.0225 87.1213 92.3369 84.9385C93.6512 82.7621 95.7089 80.5856 98.1235 80.9336C99.1404 81.0791 100.05 81.6675 100.865 82.3255C103.44 84.4007 104.606 87.7414 106.408 90.5948C107.401 92.1702 112.23 95.7892 114.538 97.4722C110.422 99.8575 107.288 104.103 106.128 108.937H106.122Z" fill="black"/>
</svg>
