<svg width="167" height="206" viewBox="0 0 167 206" fill="none" xmlns="http://www.w3.org/2000/svg">
<path d="M148.702 42.7794C147.173 29.7488 154.096 24.9355 152.849 21.1339C151.697 17.6248 142.815 24.3038 142.889 20.5608C142.937 18.0576 143.25 15.4375 142.087 13.215C141.429 11.9517 140.266 11.0744 138.971 11.1271C137.458 11.1856 136.784 12.4547 136.168 13.6536C134.368 17.1569 132.574 20.6602 130.774 24.1635C130.084 25.5028 129.362 26.8889 128.236 27.7603C127.339 28.4563 126.113 28.7195 125.136 28.275C125.125 26.7193 125.136 25.1577 125.162 23.6079C125.173 23.1575 125.183 22.7013 125.21 22.327C125.353 20.3034 125.709 22.6721 125.906 21.1632C126.022 20.2683 126.012 18.35 125.921 17.1862C125.831 16.0223 125.688 15.4316 125.55 14.9637C124.509 11.4721 123.341 12.1623 122.354 16.8469C122.12 17.9465 121.892 19.3209 121.738 21.4264C121.425 25.7777 121.536 31.8134 121.398 37.001C121.372 38.1006 121.324 39.2176 121.239 39.9136C121.138 40.709 121 40.785 120.873 40.7675C120.618 40.7383 120.358 40.4692 120.108 39.9604C119.959 39.668 119.811 39.2586 119.699 38.2351C119.551 36.8724 119.508 34.7376 119.46 32.7784C119.338 27.7428 119.115 22.7423 118.712 19.5022C118.452 17.385 118.128 16.1568 117.809 15.2269C117.321 13.8116 116.801 13.022 116.296 13.8876C115.802 14.7415 115.325 17.3616 115.049 21.6077C115.049 21.6077 115.049 21.6018 115.049 21.596L115.208 19.0519C115.16 19.7946 115.102 20.4555 115.043 21.093C115.022 19.0928 114.996 17.1043 114.964 15.1158C114.921 12.2149 114.868 9.24384 114.719 6.73482C114.512 3.29587 114.141 1.12022 113.753 0.359904C113.366 -0.400406 112.962 0.125963 112.58 1.17285C112.272 2.01504 111.953 3.30757 111.757 5.87508C111.348 11.2031 111.624 19.1981 111.385 25.5028C111.364 26.0116 111.343 26.5321 111.295 26.807C111.258 27.0293 111.21 27.0468 111.168 27.0585C111.008 27.1053 110.849 27.1521 110.69 27.193C110.578 27.2223 110.462 27.2457 110.366 26.7368C110.196 25.8654 110.132 23.7424 110.127 21.8241C110.117 19.9057 110.143 17.9231 110.079 16.1159C110.021 14.3438 109.883 12.9577 109.734 11.788C109.023 6.00375 108.004 4.06788 107.154 7.44249C106.639 9.47778 106.209 13.4957 105.949 18.3968C105.938 17.9582 105.917 17.5371 105.891 17.1862C105.8 16.0165 105.657 15.4316 105.519 14.9637C104.478 11.4721 103.31 12.1623 102.323 16.8469C102.089 17.9465 101.861 19.3209 101.707 21.4264C101.394 25.7777 101.505 31.8134 101.367 37.001C101.341 38.1006 101.293 39.2176 101.208 39.9136C101.107 40.709 100.969 40.785 100.842 40.7675C100.587 40.7383 100.332 40.4692 100.077 39.9604C99.9286 39.668 99.7799 39.2586 99.6684 38.2351C99.5198 36.8724 99.4773 34.7376 99.4295 32.7784C99.3074 27.7428 99.0844 22.7423 98.681 19.5022C98.4208 17.385 98.097 16.1568 97.7784 15.2269C97.29 13.8116 96.7697 13.022 96.2654 13.8876C95.761 14.7532 95.2779 17.4552 95.0018 21.8299L95.177 19.0519C95.0815 20.5491 94.9434 21.6895 94.8319 23.0523C94.8266 23.1283 94.8213 23.2102 94.816 23.2862C94.7841 22.3212 94.7417 21.3854 94.6939 20.514C94.4868 17.075 94.1152 14.8994 93.7277 14.1391C93.3401 13.3788 92.9366 13.9051 92.5544 14.952C92.2464 15.7942 91.9279 17.0867 91.7315 19.6542C91.3227 24.9823 91.5987 32.9772 91.3598 39.282C91.3386 39.7908 91.3174 40.3113 91.2696 40.5862C91.2324 40.8084 91.1846 40.826 91.1422 40.8377C90.9829 40.8845 90.8236 40.9313 90.6644 40.9722C90.5529 41.0014 90.4361 41.0248 90.3405 40.516C90.1706 39.6446 90.1069 37.5216 90.1016 35.6032C90.091 33.6849 90.1175 31.7022 90.0538 29.895C89.9954 28.1229 89.8574 26.7368 89.7087 25.5671C88.9973 19.7829 87.978 17.847 87.1286 21.2217C86.7251 22.8183 86.3747 25.6373 86.1145 29.1347C86.1039 28.6084 86.0827 28.0995 86.0508 27.6843C85.9606 26.5146 85.8172 25.9297 85.6792 25.4619C84.6386 21.9703 83.4707 22.6604 82.4832 27.3451C82.2496 28.4446 82.0213 29.819 81.8727 31.9245C81.5594 36.2758 81.6709 42.3115 81.5329 47.4992C81.5063 48.5987 81.4586 49.7158 81.3736 50.4117C81.2727 51.2071 81.1347 51.2832 81.0073 51.2656C80.7525 51.2364 80.4976 50.9674 80.2428 50.4585C80.0941 50.1661 79.9455 49.7567 79.834 48.7332C79.6853 47.3705 79.6429 45.2358 79.5951 43.2765C79.473 38.2409 79.25 33.2404 78.8465 30.0003C78.6819 28.6552 78.4908 27.6726 78.2944 26.8947C78.305 26.076 78.2785 25.1811 78.2307 24.5261C78.1404 23.3564 77.9971 22.7715 77.859 22.3036C76.8185 18.8121 75.6505 19.5022 74.663 24.1869C74.4294 25.2864 74.2011 26.6608 74.0525 28.7663C73.7393 33.1176 73.8508 39.1533 73.7127 44.341C73.6862 45.4405 73.6384 46.5576 73.5534 47.2535C73.4526 48.0489 73.3145 48.125 73.1871 48.1074C72.9323 48.0782 72.6722 47.8091 72.4226 47.3003C72.274 47.0079 72.1253 46.5985 72.0138 45.575C71.8652 44.2123 71.8227 42.0776 71.7749 40.1183C71.6528 35.0827 71.4298 30.0822 71.0264 26.8421C70.7662 24.7249 70.4424 23.4967 70.1238 22.5668C69.6354 21.1515 69.1151 20.3619 68.6108 21.2275C68.117 22.0814 67.6392 24.7015 67.3632 28.9476C67.3632 28.9476 67.3632 28.9417 67.3632 28.9359L67.5224 26.3918C67.4746 27.1345 67.4162 27.7954 67.3578 28.4329C67.3366 26.4327 67.3101 24.4442 67.2782 22.4557C67.2357 19.5548 67.1826 16.5838 67.034 14.0689C66.8269 10.6299 66.4553 8.45429 66.0678 7.69398C65.6802 6.93367 65.2767 7.46004 64.8945 8.50693C64.5865 9.34912 64.268 10.6416 64.0716 13.2092C63.6628 18.5372 63.9388 26.5321 63.6999 32.8369C63.6787 33.3457 63.6575 33.8662 63.6097 34.1411C63.5725 34.3633 63.5247 34.3809 63.4823 34.3926C63.323 34.4394 63.1637 34.4862 63.0045 34.5271C62.893 34.5563 62.7762 34.5797 62.6806 34.0709C62.5107 33.1995 62.447 31.0765 62.4417 29.1581C62.4311 27.2398 62.4576 25.2572 62.3939 23.45C62.3355 21.6778 62.1975 20.2917 62.0488 19.122C61.3374 13.3378 60.3181 11.402 59.4687 14.7766C58.9537 16.8119 58.5237 20.8298 58.2635 25.7309C58.2529 25.2922 58.2317 24.8712 58.2051 24.5202C58.1149 23.3505 57.9715 22.7657 57.8335 22.2978C56.7929 18.8062 55.6249 19.4963 54.6375 24.181C54.4039 25.2805 54.1756 26.655 54.0269 28.7604C53.7137 33.1117 53.8252 39.1474 53.6872 44.3351C53.6606 45.4346 53.6128 46.5517 53.5279 47.2477C53.427 48.0431 53.289 48.1191 53.1616 48.1016C52.9067 48.0723 52.6466 47.8033 52.3971 47.2945C52.2484 47.002 52.0998 46.5926 51.9883 45.5691C51.8396 44.2064 51.7972 42.0717 51.7494 40.1125C51.6273 35.0769 51.4043 30.0764 51.0008 26.8363C50.7407 24.7191 50.4168 23.4909 50.0983 22.561C49.6098 21.1456 49.0896 20.3561 48.5852 21.2217C48.0809 22.0872 47.5977 24.7893 47.3217 29.164L47.4969 26.3859C47.4013 27.8831 47.2633 29.0236 47.1518 30.3863C47.1465 30.4624 47.1412 30.5442 47.1359 30.6203C47.104 29.6553 47.0615 28.7195 47.0137 27.8481C46.8067 24.4091 46.4351 22.2335 46.0475 21.4731C45.6599 20.7128 45.2565 21.2392 44.8742 22.2861C44.5663 23.1283 44.2478 24.4208 44.0513 26.9883C43.6425 32.3163 43.9186 40.3113 43.6797 46.616C43.6585 47.1249 43.6372 47.6454 43.5894 47.9203C43.5523 48.1425 43.5045 48.1601 43.462 48.1718C43.3028 48.2185 43.1435 48.2653 42.9842 48.3063C42.8727 48.3355 42.7559 48.3589 42.6604 47.8501C42.4905 46.9786 42.4268 44.8556 42.4215 42.9373C42.4108 41.019 42.4374 39.0363 42.3737 37.2291C42.3153 35.457 42.1772 34.0709 42.0286 32.9012C41.3172 27.117 40.2979 25.1811 39.4484 28.5557C39.0449 30.1524 38.6945 32.9714 38.4344 36.4688C38.4238 35.9424 38.4025 35.4336 38.3707 35.0184C38.2804 33.8487 38.1371 33.2638 37.9991 32.7959C36.9585 29.3043 35.7905 29.9945 34.803 34.6792C34.5694 35.7787 34.3412 37.1531 34.1872 39.2586C33.874 43.6099 33.9855 49.6456 33.8474 54.8332C33.8209 55.9328 33.7731 57.0498 33.6881 57.7458C33.5873 58.5412 33.4492 58.6172 33.3218 58.5997C33.067 58.5705 32.8069 58.3014 32.5573 57.7926C32.4087 57.5002 32.26 57.0908 32.1485 56.0673C31.9999 54.7046 31.9574 52.5699 31.9096 50.6106C31.7875 45.575 31.5645 40.5745 31.1611 37.3344C30.9009 35.2172 30.5771 33.989 30.2585 33.0591C29.7701 31.6438 29.2498 30.8542 28.7455 31.7198C28.2411 32.5854 27.758 35.2874 27.4819 39.6621L27.6571 36.8841C27.5616 38.3813 27.4235 39.5218 27.312 40.8845C27.2005 42.2472 27.1103 44.0076 27.1475 45.7446C27.1846 47.4816 27.397 48.8209 27.5403 47.8442C27.6359 47.2067 27.6677 45.9142 27.7474 45.1188C27.9066 43.5689 28.1986 44.6919 28.3048 46.6687C28.411 48.6455 28.3951 51.0434 28.3845 53.2951C28.3845 53.5349 28.3845 53.7747 28.3845 54.0203C25.8255 54.9268 23.7656 57.6113 22.3163 60.3192C18.9291 66.6531 17.1825 73.9521 16.0463 81.2511C14.2466 92.7844 14.1776 105.792 20.6758 114.874C21.796 116.442 23.1445 117.886 24.8115 118.582C26.5051 119.29 28.3632 119.161 30.163 119.027C33.067 118.805 35.9763 118.588 38.8804 118.366C39.8572 118.29 40.9084 118.237 41.7313 118.84C42.6444 119.506 43.0267 120.781 43.3293 121.963C46.021 132.502 47.4809 143.45 47.6455 154.428C47.6668 155.797 47.9534 157.159 48.5852 158.323C50.7725 162.335 54.4304 160.464 55.7577 157.592C56.6974 155.569 56.7558 153.182 56.7929 150.896C56.8407 147.772 57.1592 144.064 59.9518 142.866C61.4277 142.234 63.0735 142.655 64.3264 143.737C66.8588 145.924 67.4959 149.439 68.0268 152.773C68.6479 156.68 69.2585 160.709 71.0901 164.09C71.7059 165.219 72.4651 166.277 73.4632 166.967C74.5993 167.751 75.9531 167.997 77.2804 168.032C77.291 168.032 77.3016 168.032 77.3122 168.032C78.8624 168.067 80.418 168.313 81.8355 169.02C82.3186 169.26 82.8177 169.447 83.3326 169.576C84.8935 169.962 86.741 169.979 87.7391 171.401C88.6098 172.635 88.4877 174.53 89.438 175.688C89.6769 175.98 89.9795 176.208 90.3087 176.354C91.8907 177.039 93.6162 175.571 94.3754 173.845C95.4106 171.5 95.3628 168.658 97.1307 166.646C97.8156 165.868 98.7871 165.453 99.7374 165.663C101.75 166.113 102.196 168.786 102.604 170.939C103.454 175.454 105.461 179.565 107.436 183.601C109.448 187.7 111.465 191.806 113.477 195.906C114.704 198.409 115.962 200.953 117.783 202.942C119.604 204.924 122.104 206.305 124.605 205.942C127.907 205.462 130.328 202.199 131.963 198.906C135.244 192.315 136.778 184.548 135.918 177.039C135.531 173.646 134.671 170.348 134.193 166.967C133.588 162.704 133.598 158.329 134.225 154.071C133.646 153.457 132.648 153.674 132.091 154.305C131.528 154.937 131.305 155.855 131.14 156.732C130.02 162.68 130.668 168.845 130.742 174.927C130.816 181.209 130.142 187.876 126.638 192.777C126.415 193.087 126.118 193.338 125.773 193.432C124.87 193.689 124.408 192.871 124.09 192.128C120.92 184.712 121.913 175.565 118.33 168.389C116.817 169.207 116.142 171.178 115.367 172.869C114.449 174.869 112.67 176.939 110.616 175.559C109.702 174.945 109.134 173.834 109.018 172.635C108.444 166.605 108.386 160.511 108.842 154.463C109.145 150.451 109.304 145.497 106.06 143.579C104.34 142.561 102.27 142.848 100.629 144.024C97.4333 146.322 96.276 150.311 94.747 153.949C94.1789 155.3 93.5418 156.633 92.6234 157.703C90.8343 159.785 88.1585 160.628 85.5996 160.592C84.6174 160.581 83.6459 160.446 82.6849 160.247C81.793 159.75 80.9595 159.107 80.2269 158.335C76.4734 154.34 75.8841 147.96 74.7958 142.24C73.7074 136.526 71.0848 130.145 66.0306 129.063C63.6362 128.554 61.1994 129.385 58.7838 129.759C56.3682 130.133 53.5916 129.888 51.9883 127.794C50.7884 126.226 50.5602 124.016 50.3796 121.945C50.0186 117.734 49.6523 113.523 49.2913 109.312C49.1957 108.201 49.0896 107.055 48.6277 106.072C47.8473 104.417 46.1749 103.517 44.5344 103.318C39.2891 102.674 33.582 107.821 29.218 103.651C27.8058 102.3 26.967 100.317 26.7758 98.2294C26.3405 93.3927 27.3067 88.7782 28.7561 84.3099C28.7614 84.4386 28.7667 84.5672 28.7773 84.6959C28.9844 88.1349 29.356 90.3105 29.7436 91.0708C30.1311 91.8311 30.5346 91.3048 30.9168 90.2579C31.2248 89.4157 31.5433 88.1231 31.7397 85.5556C32.1485 80.2276 31.8725 72.2327 32.1114 65.9279C32.1326 65.4191 32.1538 64.8986 32.2016 64.6237C32.2388 64.4015 32.2866 64.3839 32.329 64.3722C32.4883 64.3254 32.6476 64.2786 32.8069 64.2377C32.9183 64.2085 33.0351 64.1851 33.1307 64.6939C33.3006 65.5653 33.3643 67.6883 33.3696 69.6067C33.3802 71.525 33.3537 73.5018 33.4174 75.3148C33.4758 77.0869 33.6138 78.4731 33.7625 79.6428C34.4739 85.427 35.4932 87.3628 36.3426 83.9882C36.7461 82.3916 37.0965 79.5726 37.3567 76.0752C37.3673 76.6015 37.3885 77.1103 37.4204 77.5256C37.5106 78.6953 37.654 79.2802 37.792 79.748C38.8326 83.2396 40.0006 82.5495 40.988 77.8648C41.2216 76.7653 41.4499 75.3909 41.6039 73.2854C41.9171 68.9341 41.8056 62.8984 41.9436 57.7107C41.9702 56.6112 42.018 55.4941 42.1029 54.7981C42.2038 54.0027 42.3418 53.9267 42.4692 53.9443C42.7241 53.9735 42.9842 54.2425 43.2337 54.7514C43.3824 55.0438 43.531 55.4532 43.6425 56.4767C43.7912 57.8394 43.8337 59.9741 43.8814 61.9334C44.0035 66.969 44.2265 71.9695 44.63 75.2096C44.8901 77.3267 45.214 78.5549 45.5325 79.4849C46.021 80.9002 46.5412 81.6898 47.0456 80.8242C47.55 79.9586 48.0331 77.2566 48.3091 72.8818L48.1339 75.6599C48.2295 74.1627 48.3675 73.0222 48.479 71.6595C48.4843 71.5835 48.4896 71.5016 48.495 71.4256C48.5268 72.3906 48.5693 73.3263 48.6171 74.1978C48.8241 77.6367 49.1957 79.8124 49.5833 80.5727C49.9709 81.333 50.3743 80.8066 50.7566 79.7597C51.0645 78.9175 51.3831 77.625 51.5795 75.0575C51.9883 69.7295 51.7122 61.7345 51.9511 55.4298C51.9723 54.921 51.9936 54.4005 52.0414 54.1256C52.0785 53.9033 52.1263 53.8858 52.1688 53.8741C52.3281 53.8273 52.4873 53.7805 52.6466 53.7396C52.7581 53.7103 52.8749 53.6869 52.9704 54.1957C53.1403 55.0672 53.204 57.1902 53.2093 59.1085C53.22 61.0268 53.1934 63.0037 53.2571 64.8167C53.3155 66.5888 53.4536 67.9749 53.6022 69.1446C54.3136 74.9288 55.3329 76.8647 56.1824 73.4901C56.6974 71.4548 57.1274 67.4369 57.3875 62.5358C57.3982 62.9744 57.4194 63.3955 57.4459 63.7464C57.5362 64.9161 57.6795 65.501 57.8176 65.9689C58.8581 69.4605 60.0261 68.7703 61.0136 64.0856C61.2472 62.9861 61.4755 61.6117 61.6294 59.5062C61.9427 55.1549 61.8312 49.1192 61.9692 43.9316C61.9957 42.832 62.0435 41.715 62.1285 41.019C62.2293 40.2236 62.3674 40.1475 62.4948 40.1651C62.7496 40.1943 63.0045 40.4634 63.2593 40.9722C63.4079 41.2646 63.5566 41.674 63.6681 42.6975C63.8167 44.0602 63.8592 46.1949 63.907 48.1542C64.0291 53.1898 64.2521 58.1903 64.6556 61.4304C64.9157 63.5476 65.2395 64.7758 65.5581 65.7057C66.0465 67.121 66.5668 67.9106 67.0712 67.045C67.5649 66.1911 68.0427 63.571 68.3188 59.3249C68.3188 59.3249 68.3188 59.3308 68.3188 59.3366L68.1595 61.8807C68.2073 61.138 68.2657 60.4771 68.3241 59.8396C68.3453 61.8398 68.3719 63.8283 68.4037 65.8168C68.4462 68.7177 68.4993 71.6887 68.6479 74.2036C68.855 77.6426 69.2266 79.8182 69.6142 80.5785C70.0017 81.3388 70.4052 80.8125 70.7875 79.7656C71.0954 78.9234 71.4139 77.6309 71.6104 75.0634C72.0191 69.7353 71.7431 61.7404 71.982 55.4356C72.0032 54.9268 72.0245 54.4063 72.0722 54.1314C72.1094 53.9092 72.1572 53.8916 72.1996 53.8799C72.3589 53.8331 72.5182 53.7864 72.6775 53.7454C72.7889 53.7162 72.9057 53.6928 73.0013 54.2016C73.1712 55.073 73.2349 57.1961 73.2402 59.1144C73.2508 61.0327 73.2243 63.0095 73.288 64.8226C73.3464 66.5947 73.4844 67.9808 73.6331 69.1505C74.3445 74.9347 75.3638 76.8706 76.2133 73.4959C76.2398 73.379 76.2717 73.2445 76.2982 73.1158C76.3354 74.6013 76.3885 76.0401 76.4681 77.3501C76.6751 80.7891 77.0468 82.9647 77.4343 83.725C77.8219 84.4854 78.2254 83.959 78.6076 82.9121C78.9155 82.0699 79.2341 80.7774 79.4305 78.2099C79.8393 72.8818 79.5632 64.8869 79.8021 58.5822C79.8234 58.0733 79.8446 57.5528 79.8924 57.2779C79.9296 57.0557 79.9773 57.0381 80.0198 57.0264C80.1791 56.9797 80.3384 56.9329 80.4976 56.8919C80.6091 56.8627 80.7259 56.8393 80.8215 57.3481C80.9914 58.2195 81.0551 60.3426 81.0604 62.2609C81.071 64.1792 81.0444 66.156 81.1082 67.9691C81.1666 69.7412 81.3046 71.1273 81.4532 72.297C82.1646 78.0812 83.184 80.0171 84.0334 76.6425C84.4369 75.0458 84.7873 72.2268 85.0474 68.7294C85.0581 69.2557 85.0793 69.7646 85.1111 70.1798C85.2014 71.3495 85.3447 71.9344 85.4828 72.4023C86.5233 75.8938 87.6913 75.2037 88.6788 70.519C88.9124 69.4195 89.1407 68.0451 89.2893 65.9396C89.6026 61.5883 89.4911 55.5526 89.6291 50.365C89.6557 49.2654 89.7034 48.1484 89.7884 47.4524C89.8892 46.657 90.0273 46.5809 90.1547 46.5985C90.4095 46.6277 90.6697 46.8968 90.9192 47.4056C91.0678 47.698 91.2165 48.1074 91.328 49.1309C91.4766 50.4936 91.5191 52.6283 91.5669 54.5876C91.689 59.6232 91.912 64.6237 92.3155 67.8638C92.5756 69.981 92.8995 71.2092 93.218 72.1391C93.7064 73.5544 94.2267 74.344 94.7311 73.4784C95.2354 72.6128 95.7185 69.9108 95.9946 65.5361L95.8194 68.3141C95.915 66.8169 96.053 65.6764 96.1645 64.3137C96.1698 64.2377 96.1751 64.1558 96.1804 64.0798C96.2123 65.0448 96.2547 65.9806 96.3025 66.852C96.5096 70.2909 96.8812 72.4666 97.2688 73.2269C97.6563 73.9872 98.0598 73.4609 98.4421 72.414C98.75 71.5718 99.0685 70.2792 99.2649 67.7117C99.6737 62.3837 99.3977 54.3888 99.6366 48.084C99.6578 47.5752 99.679 47.0547 99.7268 46.7798C99.764 46.5576 99.8118 46.54 99.8542 46.5283C100.014 46.4815 100.173 46.4347 100.332 46.3938C100.444 46.3646 100.56 46.3412 100.656 46.85C100.826 47.7214 100.89 49.8444 100.895 51.7628C100.9 53.6811 100.879 55.6637 100.943 57.4709C101.001 59.243 101.139 60.6291 101.288 61.7989C101.999 67.5831 103.018 69.5189 103.868 66.1443C104.383 64.109 104.813 60.0911 105.073 55.19C105.084 55.6286 105.105 56.0497 105.131 56.3948C105.222 57.5645 105.365 58.1494 105.503 58.6173C106.544 62.1088 107.712 61.4187 108.699 56.734C108.933 55.6345 109.161 54.2601 109.315 52.1546C109.628 47.8033 109.517 41.7676 109.655 36.5799C109.681 35.4804 109.729 34.3633 109.814 33.6674C109.915 32.872 110.053 32.7959 110.18 32.8135C110.435 32.8427 110.695 33.1117 110.945 33.6206C111.093 33.913 111.242 34.3224 111.354 35.3459C111.502 36.7086 111.545 38.8433 111.592 40.8026C111.715 45.8382 111.938 50.8387 112.341 54.0788C112.601 56.196 112.925 57.4241 113.244 58.3541C113.732 59.7694 114.252 60.559 114.757 59.6934C115.25 58.8395 115.728 56.2193 116.004 51.9733C116.004 51.9733 116.004 51.9792 116.004 51.985L115.845 54.5291C115.893 53.7864 115.951 53.1255 116.01 52.488C116.031 54.4882 116.057 56.4767 116.089 58.4652C116.132 61.3661 116.185 64.3371 116.333 66.852C116.54 70.2909 116.912 72.4666 117.3 73.2269C117.687 73.9872 118.091 73.4609 118.473 72.414C118.781 71.5718 119.099 70.2792 119.296 67.7117C119.705 62.3837 119.429 54.3888 119.667 48.084C119.689 47.5752 119.71 47.0547 119.758 46.7798C119.795 46.5576 119.843 46.54 119.885 46.5283C120.044 46.4815 120.204 46.4347 120.363 46.3938C120.474 46.3646 120.591 46.3412 120.687 46.85C120.857 47.7214 120.92 49.8444 120.926 51.7628C120.936 53.6811 120.91 55.6637 120.973 57.4709C121.032 59.243 121.17 60.6291 121.319 61.7989C122.03 67.5831 123.049 69.5189 123.899 66.1443C124.154 65.1384 124.387 63.6353 124.589 61.793C124.849 63.3429 124.759 65.1793 125.141 66.7116C125.879 69.6944 128.645 71.5542 131.353 71.87C134.065 72.1859 136.752 71.2676 139.359 70.3611C139.465 68.3317 138.291 66.5479 137.373 64.7992C134.241 58.8512 133.758 51.1954 136.104 44.7971C136.253 44.3877 136.455 43.9374 136.821 43.7912C137.113 43.6742 137.431 43.7795 137.723 43.8965C141.949 45.5516 145.448 49.435 147.009 54.1957C149.509 51.2949 149.148 46.7506 148.676 42.7326L148.702 42.7794ZM30.9646 64.4132C30.9752 63.3897 31.0336 62.296 31.1292 62.0796C31.2407 63.1674 31.2513 64.8927 31.2566 66.4543C31.2672 68.5598 31.2726 70.6652 31.2832 72.7707L30.9646 66.8462C30.9646 66.0332 30.954 65.2203 30.9646 64.4132ZM29.51 52.7453C29.51 51.3358 29.5577 49.4701 29.6958 49.4584C29.7489 49.4584 29.802 49.7859 29.8391 50.1544C29.9506 51.1253 30.0302 52.3535 30.0886 53.7162C29.8922 53.7162 29.7011 53.7337 29.51 53.7571C29.51 53.4179 29.51 53.0845 29.51 52.7453ZM31.2619 80.561C31.2195 81.1166 31.1504 81.3681 31.0867 81.5903C30.7947 82.567 30.4974 83.3332 30.1948 83.8771C30.0727 84.0935 29.9506 84.269 29.8338 83.9999C29.7489 83.8011 29.6639 83.3098 29.6108 82.6021C29.5737 82.567 29.5471 82.3857 29.5259 82.1108C30.0886 80.5434 30.6939 78.9936 31.3044 77.4613C31.3044 77.7186 31.3044 77.9701 31.3044 78.2274C31.3044 79.0404 31.3044 79.9235 31.2619 80.5727V80.561ZM36.7037 69.9108C36.6559 70.9167 36.5656 71.6186 36.4754 72.2502C36.2152 74.0691 35.9445 75.6774 35.6631 77.0694C35.5144 77.8063 35.3552 78.4906 35.1853 78.4438C35.0048 78.3912 34.8508 77.5197 34.7075 76.3734C34.6066 75.9582 34.5217 75.1277 34.4686 74.151C34.4686 74.1393 34.4686 74.1217 34.4686 74.11C34.4686 74.0808 34.4633 74.0574 34.458 74.0282V74.075C34.3942 72.7707 34.373 71.2501 34.3677 69.7587C34.3518 64.9629 34.511 60.2899 34.6969 55.8801C34.7446 54.7163 34.8349 53.336 34.957 53.6226C35.026 55.0672 35.0313 56.7399 35.0685 58.3014C35.1057 59.863 35.2012 61.4947 35.3605 61.7755C35.5251 62.0737 35.679 60.6525 35.7321 59.0325C35.7852 57.4183 35.7587 55.6696 35.7374 53.9794C35.7056 51.4645 35.6896 48.9321 35.679 46.3938C35.6737 43.7736 35.6896 40.8786 35.8648 38.9778C35.9126 38.4573 35.9763 38.0187 36.0507 38.007C36.2099 37.9777 36.2949 39.82 36.3373 41.3523C36.5656 49.6105 36.7037 58.126 36.7461 66.6941C36.7514 67.7819 36.7568 68.9224 36.709 69.9049L36.7037 69.9108ZM38.1796 71.1507C38.1689 71.601 38.1583 72.0572 38.1318 72.4315C38.0097 74.1159 37.7442 72.759 37.5478 73.1333C37.723 69.8932 37.8186 66.2671 37.8132 62.5709C37.8026 55.4473 37.4469 48.4232 37.5903 41.4459C37.6009 40.9956 37.6115 40.5394 37.638 40.1651C37.7602 38.4807 38.0256 39.8376 38.222 39.4633C38.0468 42.7034 37.9513 46.3295 37.9566 50.0257C37.9672 57.1493 38.3229 64.1734 38.1796 71.1507ZM41.0783 56.7223C41.0305 57.8862 40.9402 59.2664 40.8181 58.9799C40.7491 57.5353 40.7438 55.8626 40.7067 54.301C40.6695 52.7395 40.5739 51.1077 40.4147 50.827C40.2501 50.5287 40.0961 51.9499 40.043 53.57C39.9899 55.1842 40.0165 56.9329 40.0377 58.6231C40.0696 61.138 40.0855 63.6704 40.0961 66.2087C40.1014 68.8288 40.0855 71.7238 39.9103 73.6246C39.8625 74.1451 39.7988 74.5838 39.7245 74.5955C39.5652 74.6247 39.4803 72.7824 39.4378 71.2501C39.2095 62.992 39.0715 54.4765 39.029 45.9084C39.0237 44.8205 39.0184 43.6801 39.0662 42.6975C39.1139 41.6916 39.2042 40.9897 39.2945 40.3581C39.5546 38.5392 39.8254 36.9308 40.1067 35.5389C40.2554 34.802 40.4147 34.1177 40.5845 34.1645C40.765 34.2171 40.919 35.0886 41.0624 36.2349C41.1632 36.6501 41.2482 37.4806 41.3013 38.4573C41.3013 38.469 41.3013 38.4866 41.3013 38.4983C41.3013 38.5275 41.3066 38.5509 41.3119 38.5801V38.5392C41.3756 39.8434 41.3968 41.364 41.4021 42.8554C41.4181 47.6512 41.2588 52.3242 41.073 56.734L41.0783 56.7223ZM46.2599 59.8513C46.2599 61.2608 46.2121 63.1265 46.0741 63.1382C46.021 63.1382 45.9679 62.8107 45.9307 62.4422C45.6599 60.0735 45.575 56.1726 45.5591 52.5465C45.5432 48.9145 45.575 45.2007 45.4741 41.715C45.4317 40.2996 45.3255 38.6913 45.1821 39.0129C45.1025 39.1884 45.0494 39.9019 45.0069 40.5745C44.9167 41.9547 44.8211 43.4403 44.8105 45.1013C44.7999 46.1248 44.8211 47.16 44.8105 48.1834C44.7999 49.2069 44.7415 50.3006 44.6459 50.517C44.5344 49.4292 44.5238 47.7039 44.5185 46.1423C44.5026 42.2238 44.4867 38.3053 44.4707 34.3867C44.4707 33.5738 44.4707 32.6907 44.5132 32.0415C44.5557 31.4859 44.6247 31.2344 44.6884 31.0121C44.9804 30.0354 45.2777 29.2693 45.5803 28.7253C45.7024 28.5089 45.8245 28.3335 45.9413 28.6025C46.0263 28.8014 46.1112 29.2926 46.1643 30.0003C46.2705 30.0997 46.3076 31.6906 46.3076 32.872C46.2917 41.8612 46.2758 50.8562 46.2652 59.8454L46.2599 59.8513ZM48.2454 64.7407C48.1499 65.3782 48.118 66.6707 48.0384 67.4661C47.8791 69.016 47.5871 67.893 47.4809 65.9162C47.3748 63.9394 47.3907 61.5415 47.4013 59.2898C47.4332 52.0669 47.3694 44.8381 47.2633 37.6795C47.3004 37.6736 47.3376 37.5742 47.3694 37.3519C47.465 36.7145 47.4969 35.4219 47.5765 34.6265C47.7358 33.0767 48.0278 34.1996 48.1339 36.1764C48.2401 38.1532 48.2242 40.5511 48.2136 42.8028C48.1817 50.0257 48.2454 57.2545 48.3516 64.4132C48.3144 64.419 48.2773 64.5184 48.2454 64.7407ZM51.107 70.0629C51.0645 70.6185 50.9955 70.8699 50.9318 71.0922C50.6398 72.0689 50.3425 72.8351 50.0399 73.379C49.9178 73.5954 49.7957 73.7708 49.6736 73.5018C49.5886 73.3029 49.5037 72.8117 49.4506 72.104C49.3444 72.0046 49.3072 70.4138 49.3072 69.2324C49.3232 60.2431 49.3391 51.2481 49.3497 42.2589C49.3497 40.8494 49.3975 38.9837 49.5355 38.972C49.5886 38.972 49.6417 39.2995 49.6789 39.668C49.9496 42.0366 50.0346 45.9376 50.0505 49.5637C50.0664 53.1956 50.0346 56.9095 50.1354 60.3952C50.1779 61.8106 50.2841 63.4189 50.4274 63.0972C50.5071 62.9218 50.5602 62.2083 50.6026 61.5357C50.6929 60.1554 50.7884 58.6699 50.7991 57.0089C50.8097 55.9854 50.7884 54.9502 50.7991 53.9267C50.8097 52.9032 50.8681 51.8095 50.9636 51.5931C51.0751 52.681 51.0857 54.4063 51.0911 55.9679C51.107 59.8864 51.1229 63.8049 51.1388 67.7234C51.1388 68.5364 51.1388 69.4195 51.0964 70.0687L51.107 70.0629ZM56.5487 59.4126C56.5009 60.4186 56.4107 61.1204 56.3204 61.7521C56.0603 63.5651 55.7895 65.1793 55.5081 66.5713C55.3595 67.3082 55.2002 67.9925 55.0303 67.9457C54.8498 67.893 54.6959 67.0216 54.5525 65.8753C54.4517 65.46 54.3667 64.6295 54.3136 63.6528C54.3136 63.6411 54.3136 63.6236 54.3136 63.6119C54.3136 63.5827 54.3136 63.5593 54.3083 63.53V63.5768C54.2446 62.2726 54.2234 60.752 54.2181 59.2606C54.2021 54.4648 54.3614 49.7918 54.5472 45.382C54.595 44.2181 54.6853 42.8379 54.8074 43.1245C54.8764 44.569 54.8817 46.2417 54.9188 47.8033C54.956 49.3649 55.0516 50.9966 55.2108 51.2773C55.3754 51.5756 55.5294 50.1544 55.5825 48.5344C55.6356 46.9202 55.609 45.1714 55.5878 43.4812C55.5559 40.9663 55.54 38.4339 55.5294 35.8957C55.5241 33.2755 55.54 30.3805 55.7152 28.4797C55.763 27.9592 55.8267 27.5205 55.901 27.5088C56.0603 27.4796 56.1452 29.3219 56.1877 30.8542C56.416 39.1124 56.554 47.6278 56.5965 56.1959C56.6018 57.2838 56.6071 58.4242 56.5593 59.4068L56.5487 59.4126ZM58.2104 57.3715C58.1998 57.8218 58.1892 58.278 58.1626 58.6523C58.0352 60.4771 57.7326 58.7459 57.5309 59.4828C57.6158 57.1142 57.6636 54.611 57.6583 52.0727C57.6477 44.9492 57.292 37.9251 57.4353 30.9478C57.4459 30.4974 57.4566 30.0413 57.4831 29.667C57.6105 27.8422 57.9131 29.5734 58.1149 28.8365C58.0299 31.2051 57.9821 33.7083 57.9875 36.2466C57.9981 43.3701 58.3538 50.3942 58.2104 57.3715ZM61.1038 42.9432C61.0561 44.107 60.9658 45.4873 60.8437 45.2007C60.7747 43.7561 60.7694 42.0834 60.7322 40.5219C60.695 38.9603 60.5995 37.3285 60.4402 37.0478C60.2756 36.7495 60.1217 38.1707 60.0686 39.7908C60.0155 41.405 60.042 43.1537 60.0633 44.8439C60.0951 47.3588 60.111 49.8912 60.1217 52.4295C60.127 55.0496 60.1111 57.9447 59.9359 59.8454C59.8881 60.366 59.8244 60.8046 59.75 60.8163C59.5908 60.8455 59.5058 59.0033 59.4634 57.4709C59.2351 49.2128 59.097 40.6973 59.0546 32.1292C59.0493 31.0414 59.0439 29.9009 59.0917 28.9183C59.1395 27.9124 59.2298 27.2106 59.32 26.5789C59.5802 24.7659 59.8509 23.1517 60.1323 21.7597C60.2809 21.0228 60.4402 20.3385 60.6101 20.3853C60.7906 20.438 60.9446 21.3094 61.0879 22.4557C61.1888 22.8709 61.2737 23.7014 61.3268 24.6781C61.3268 24.6898 61.3268 24.7074 61.3268 24.7191C61.3268 24.7483 61.3268 24.7717 61.3321 24.801V24.76C61.3958 26.0643 61.4171 27.5849 61.4224 29.0763C61.4383 33.8721 61.279 38.545 61.0932 42.9548L61.1038 42.9432ZM66.2854 46.0721C66.2854 47.4816 66.2376 49.3473 66.0996 49.359C66.0465 49.359 65.9934 49.0315 65.9563 48.663C65.6855 46.2944 65.6006 42.3934 65.5846 38.7673C65.5687 35.1353 65.6006 31.4215 65.4997 27.9358C65.4572 26.5204 65.351 24.9121 65.2077 25.2338C65.1281 25.4092 65.075 26.1227 65.0325 26.7953C64.9422 28.1756 64.8467 29.6611 64.8361 31.3221C64.8254 32.3456 64.8467 33.3808 64.8361 34.4043C64.8254 35.4278 64.767 36.5214 64.6715 36.7378C64.56 35.65 64.5494 33.9247 64.5441 32.3631C64.5281 28.4446 64.5122 24.5261 64.4963 20.6076C64.4963 19.7946 64.4963 18.9115 64.5388 18.2623C64.5812 17.7067 64.6502 17.4552 64.714 17.233C65.006 16.2562 65.3033 15.4901 65.6059 14.9462C65.728 14.7298 65.8501 14.5543 65.9669 14.8234C66.0518 15.0222 66.1368 15.5135 66.1899 16.2212C66.296 16.3206 66.3332 17.9114 66.3332 19.0928C66.3173 28.082 66.3013 37.0771 66.2907 46.0663L66.2854 46.0721ZM68.0639 53.6869C67.9047 55.2368 67.6127 54.1139 67.5065 52.1371C67.4003 50.1603 67.4162 47.7624 67.4269 45.5107C67.4375 42.7326 67.4322 39.9487 67.4215 37.1765C67.5012 36.4981 67.533 35.3576 67.6074 34.6324C67.7666 33.0825 68.0586 34.2054 68.1648 36.1822C68.271 38.159 68.2551 40.5569 68.2444 42.8086C68.2338 45.5867 68.2391 48.3706 68.2498 51.1428C68.1701 51.8212 68.1383 52.9617 68.0639 53.6869ZM71.1378 70.0629C71.0954 70.6185 71.0264 70.8699 70.9627 71.0922C70.6707 72.0689 70.3734 72.8351 70.0707 73.379C69.9486 73.5954 69.8265 73.7708 69.7044 73.5018C69.6195 73.3029 69.5345 72.8117 69.4814 72.104C69.3753 72.0046 69.3381 70.4138 69.3381 69.2324C69.354 60.2431 69.37 51.2481 69.3806 42.2589C69.3806 40.8494 69.4283 38.9837 69.5664 38.972C69.6195 38.972 69.6726 39.2995 69.7097 39.668C69.9805 42.0366 70.0654 45.9376 70.0814 49.5637C70.0973 53.1956 70.0654 56.9095 70.1663 60.3952C70.2088 61.8106 70.315 63.4189 70.4583 63.0972C70.5379 62.9218 70.591 62.2083 70.6335 61.5357C70.7237 60.1554 70.8193 58.6699 70.8299 57.0089C70.8405 55.9854 70.8193 54.9502 70.8299 53.9267C70.8405 52.9032 70.8989 51.8095 70.9945 51.5931C71.106 52.681 71.1166 54.4063 71.1219 55.9679C71.1378 59.8864 71.1538 63.8049 71.1697 67.7234C71.1697 68.5364 71.1697 69.4195 71.1272 70.0687L71.1378 70.0629ZM75.5337 66.5713C75.3851 67.3082 75.2258 67.9925 75.0559 67.9457C74.8754 67.893 74.7214 67.0216 74.5781 65.8753C74.4772 65.46 74.3923 64.6295 74.3392 63.6528C74.3392 63.6411 74.3392 63.6236 74.3392 63.6119C74.3392 63.5827 74.3392 63.5593 74.3339 63.53V63.5768C74.2702 62.2726 74.2489 60.752 74.2436 59.2606C74.2277 54.4648 74.387 49.7918 74.5728 45.382C74.6206 44.2181 74.7108 42.8379 74.8329 43.1245C74.9019 44.569 74.9072 46.2417 74.9444 47.8033C74.9816 49.3649 75.0771 50.9966 75.2364 51.2773C75.401 51.5756 75.5549 50.1544 75.608 48.5344C75.6611 46.9143 75.6346 45.1714 75.6133 43.4812C75.5868 41.3699 75.5762 39.2469 75.5656 37.118C75.7248 36.7846 75.916 37.7964 75.9956 39.3229C76.1018 41.2997 76.0858 43.6976 76.0752 45.9493C76.0487 51.675 76.0858 57.4066 76.1495 63.0972C75.9531 64.3722 75.7461 65.5302 75.5337 66.5596V66.5713ZM78.9633 73.2152C78.9208 73.7708 78.8518 74.0223 78.7881 74.2446C78.4961 75.2213 78.1988 75.9874 77.8962 76.5313C77.7741 76.7477 77.652 76.9232 77.5352 76.6542C77.4503 76.4553 77.3653 75.964 77.3122 75.2564C77.206 75.1569 77.1689 73.5661 77.1689 72.3847C77.1689 70.3787 77.1742 68.3785 77.1795 66.3724C77.5033 62.3369 77.6945 57.2838 77.6892 52.0844C77.6892 49.0022 77.6148 45.9376 77.5511 42.8847C77.8166 45.2592 77.9015 49.1192 77.9174 52.7161C77.9334 56.348 77.9015 60.0618 78.0024 63.5476C78.0449 64.9629 78.151 66.5713 78.2944 66.2496C78.374 66.0741 78.4271 65.3606 78.4696 64.688C78.5598 63.3078 78.6554 61.8223 78.666 60.1613C78.6766 59.1378 78.6554 58.1026 78.666 57.0791C78.6766 56.0556 78.735 54.9619 78.8306 54.7455C78.9421 55.8333 78.9527 57.5587 78.958 59.1202C78.9739 63.0387 78.9899 66.9573 79.0058 70.8758C79.0058 71.6887 79.0058 72.5719 78.9633 73.2211V73.2152ZM84.405 62.565C84.3573 63.571 84.267 64.2728 84.1768 64.9044C83.9166 66.7175 83.6459 68.3317 83.3645 69.7236C83.2158 70.4606 83.0566 71.1448 82.8867 71.098C82.7062 71.0454 82.5522 70.174 82.4089 69.0277C82.308 68.6124 82.223 67.7819 82.17 66.8052C82.17 66.7935 82.17 66.776 82.17 66.7643C82.17 66.735 82.17 66.7116 82.1646 66.6824V66.7233C82.1009 65.4191 82.0797 63.8985 82.0744 62.4071C82.0585 57.6113 82.2177 52.9383 82.4036 48.5285C82.4513 47.3647 82.5416 45.9844 82.6637 46.271C82.7327 47.7156 82.738 49.3882 82.7752 50.9498C82.8123 52.5114 82.9079 54.1431 83.0672 54.4238C83.2318 54.7221 83.3857 53.2951 83.4388 51.6809C83.4919 50.0667 83.4654 48.318 83.4441 46.6277C83.4123 44.1129 83.3963 41.5804 83.3857 39.0422C83.3804 36.422 83.3963 33.527 83.5715 31.6262C83.6193 31.1057 83.683 30.6671 83.7573 30.6554C83.9166 30.6261 84.0016 32.4684 84.044 34.0007C84.2723 42.2589 84.4104 50.7744 84.4528 59.3425C84.4581 60.4303 84.4634 61.5708 84.4157 62.5533L84.405 62.565ZM85.8809 63.8049C85.8703 64.2552 85.8597 64.7114 85.8332 65.0857C85.7111 66.7701 85.4456 65.4133 85.2492 65.7876C85.4244 62.5475 85.5199 58.9214 85.5146 55.2251C85.504 48.1016 85.1483 41.0775 85.2917 34.1002C85.3023 33.6498 85.3129 33.1936 85.3394 32.8193C85.4615 31.1349 85.727 32.4918 85.9234 32.1175C85.7482 35.3576 85.6527 38.9837 85.658 42.68C85.6686 49.8035 86.0243 56.8276 85.8809 63.8049ZM88.7744 49.3766C88.7266 50.5404 88.6363 51.9207 88.5142 51.6341C88.4452 50.1895 88.4399 48.5168 88.4027 46.9553C88.3656 45.3937 88.27 43.7619 88.1107 43.4812C87.9462 43.1829 87.7922 44.6041 87.7391 46.2242C87.686 47.8384 87.7126 49.5871 87.7338 51.2773C87.7656 53.7922 87.7816 56.3246 87.7922 58.8629C87.7975 61.483 87.7816 64.3781 87.6064 66.2788C87.5586 66.7994 87.4949 67.238 87.4206 67.2497C87.2613 67.2789 87.1763 65.4366 87.1339 63.9043C86.9056 55.6462 86.7676 47.1307 86.7251 38.5626C86.7198 37.4748 86.7145 36.3343 86.7622 35.3517C86.81 34.3458 86.9003 33.644 86.9905 33.0123C87.2507 31.1934 87.5214 29.5851 87.8028 28.1931C87.9515 27.4562 88.1107 26.7719 88.2806 26.8187C88.4611 26.8714 88.6151 27.7428 88.7584 28.8891C88.8593 29.3043 88.9442 30.1348 88.9973 31.1115C88.9973 31.1232 88.9973 31.1408 88.9973 31.1525C88.9973 31.1817 89.0026 31.2051 89.0026 31.2344V31.1876C89.0664 32.4918 89.0876 34.0124 89.0929 35.5038C89.1088 40.2996 88.9496 44.9726 88.7637 49.3824L88.7744 49.3766ZM93.9613 52.5114C93.9613 53.9209 93.9135 55.7866 93.7754 55.7983C93.7224 55.7983 93.6693 55.4707 93.6321 55.1023C93.3613 52.7336 93.2764 48.8326 93.2605 45.2065C93.2445 41.5804 93.2764 37.8608 93.1755 34.375C93.1331 32.9597 93.0269 31.3513 92.8835 31.673C92.8039 31.8485 92.7508 32.562 92.7083 33.2346C92.6181 34.6148 92.5225 36.1004 92.5119 37.7613C92.5013 38.7848 92.5225 39.82 92.5119 40.8435C92.5013 41.867 92.4429 42.9607 92.3473 43.1771C92.2358 42.0893 92.2252 40.3639 92.2199 38.8024C92.204 34.8839 92.188 30.9653 92.1721 27.0468C92.1721 26.2339 92.1721 25.3507 92.2146 24.7015C92.2571 24.1459 92.3261 23.8944 92.3898 23.6722C92.6818 22.6955 92.9791 21.9293 93.2817 21.3854C93.4038 21.169 93.5259 20.9936 93.6427 21.2626C93.7277 21.4614 93.8126 21.9527 93.8657 22.6604C93.9719 22.7598 94.009 24.3506 94.009 25.532C93.9931 34.5212 93.9772 43.5163 93.9666 52.5055L93.9613 52.5114ZM95.9415 57.3949C95.846 58.0324 95.8141 59.3249 95.7345 60.1203C95.5752 61.6702 95.2832 60.5473 95.177 58.5705C95.0708 56.5937 95.0868 54.1957 95.0974 51.9441C95.1292 44.7211 95.0655 37.4923 94.9593 30.3337C94.9965 30.3278 95.0337 30.2284 95.0655 30.0062C95.1611 29.3687 95.1929 28.0762 95.2726 27.2808C95.4318 25.7309 95.7238 26.8538 95.83 28.8306C95.9362 30.8074 95.9203 33.2053 95.9097 35.457C95.8778 42.68 95.9415 49.9088 96.0477 57.0674C96.0105 57.0732 95.9734 57.1727 95.9415 57.3949ZM98.8031 62.7171C98.7606 63.2727 98.6916 63.5242 98.6279 63.7464C98.3359 64.7231 98.0386 65.4893 97.736 66.0332C97.6138 66.2496 97.4917 66.4251 97.3749 66.156C97.29 65.9572 97.2051 65.4659 97.152 64.7582C97.0458 64.6588 97.0086 63.068 97.0086 61.8866C97.0245 52.8974 97.0405 43.9023 97.0511 34.9131C97.0511 33.5036 97.0989 31.6379 97.2369 31.6262C97.29 31.6262 97.3431 31.9537 97.3803 32.3222C97.651 34.6909 97.736 38.5918 97.7519 42.2179C97.7678 45.8499 97.736 49.5637 97.8368 53.0494C97.8793 54.4648 97.9855 56.0731 98.1288 55.7515C98.2085 55.576 98.2615 54.8625 98.304 54.1899C98.3943 52.8096 98.4898 51.3241 98.5005 49.6631C98.5111 48.6396 98.4898 47.6044 98.5005 46.5809C98.5111 45.5575 98.5695 44.4638 98.665 44.2474C98.7765 45.3352 98.7871 47.0605 98.7924 48.6221C98.8084 52.5406 98.8243 56.4591 98.8402 60.3777C98.8402 61.1906 98.8402 62.0737 98.7978 62.7229L98.8031 62.7171ZM104.245 52.0669C104.197 53.0728 104.107 53.7747 104.017 54.4063C103.756 56.2252 103.486 57.8335 103.204 59.2255C103.056 59.9624 102.896 60.6467 102.726 60.5999C102.546 60.5473 102.392 59.6758 102.249 58.5295C102.148 58.1143 102.063 57.2838 102.01 56.3071C102.01 56.2954 102.01 56.2778 102.01 56.2661C102.01 56.2369 102.004 56.2135 101.999 56.1843V56.2252C101.935 54.921 101.914 53.4003 101.909 51.909C101.893 47.1132 102.052 42.4402 102.238 38.0304C102.286 36.8665 102.376 35.4863 102.498 35.7728C102.567 37.2174 102.572 38.8901 102.61 40.4517C102.647 42.0132 102.742 43.645 102.902 43.9257C103.066 44.224 103.22 42.8028 103.273 41.1827C103.326 39.5685 103.3 37.8198 103.279 36.1296C103.247 33.6147 103.231 31.0823 103.22 28.544C103.215 25.9239 103.231 23.0289 103.406 21.1281C103.454 20.6076 103.517 20.1689 103.592 20.1572C103.751 20.128 103.836 21.9703 103.878 23.5026C104.107 31.7607 104.245 40.2762 104.287 48.8443C104.293 49.9322 104.298 51.0726 104.25 52.0552L104.245 52.0669ZM105.907 50.0257C105.896 50.4761 105.885 50.9323 105.859 51.3066C105.731 53.1313 105.429 51.4001 105.227 52.1371C105.312 49.7684 105.36 47.2652 105.354 44.727C105.344 37.6034 104.988 30.5793 105.131 23.602C105.142 23.1517 105.153 22.6955 105.179 22.3212C105.307 20.4964 105.609 22.2276 105.811 21.4907C105.726 23.8594 105.678 26.3625 105.684 28.9008C105.694 36.0243 106.05 43.0484 105.907 50.0257ZM108.805 35.5974C108.757 36.7612 108.667 38.1415 108.545 37.8549C108.476 36.4103 108.471 34.7376 108.434 33.1761C108.396 31.6145 108.301 29.9828 108.142 29.702C107.977 29.4038 107.823 30.8308 107.77 32.445C107.717 34.0592 107.743 35.8079 107.765 37.4982C107.797 40.013 107.812 42.5454 107.823 45.0837C107.828 47.7039 107.812 50.5989 107.637 52.4997C107.589 53.0202 107.526 53.4588 107.451 53.4705C107.292 53.4998 107.207 51.6575 107.165 50.1252C106.936 41.867 106.798 33.3515 106.756 24.7834C106.751 23.6956 106.745 22.5551 106.793 21.5726C106.841 20.5666 106.931 19.8648 107.021 19.2332C107.282 17.4143 107.552 15.8059 107.834 14.414C107.982 13.677 108.142 12.9928 108.311 13.0395C108.492 13.0922 108.646 13.9636 108.789 15.1099C108.89 15.5252 108.975 16.3557 109.028 17.3324C109.028 17.3441 109.028 17.3616 109.028 17.3733C109.028 17.4026 109.028 17.426 109.034 17.4552V17.4143C109.097 18.7185 109.118 20.2391 109.124 21.7305C109.14 26.5263 108.98 31.1993 108.795 35.6091L108.805 35.5974ZM113.987 38.7264C113.987 40.1359 113.939 42.0015 113.801 42.0132C113.748 42.0132 113.695 41.6857 113.658 41.3173C113.387 38.9486 113.302 35.0476 113.286 31.4215C113.27 27.7896 113.302 24.0757 113.201 20.59C113.159 19.1747 113.052 17.5663 112.909 17.888C112.829 18.0634 112.776 18.777 112.734 19.4495C112.644 20.8298 112.548 22.3153 112.537 23.9763C112.527 24.9998 112.548 26.035 112.537 27.0585C112.527 28.082 112.468 29.1757 112.373 29.3921C112.261 28.3042 112.251 26.5789 112.245 25.0174C112.23 21.0988 112.214 17.1803 112.203 13.2618C112.203 12.4488 112.203 11.5657 112.245 10.9165C112.288 10.3609 112.357 10.1094 112.421 9.88718C112.713 8.91048 113.01 8.14432 113.313 7.6004C113.435 7.38401 113.557 7.20855 113.674 7.47758C113.759 7.67643 113.843 8.16771 113.897 8.87538C114.003 8.97481 114.04 10.5656 114.04 11.747C114.024 20.7362 114.008 29.7313 113.997 38.7205L113.987 38.7264ZM115.765 46.347C115.606 47.8969 115.314 46.7739 115.208 44.7971C115.102 42.8203 115.118 40.4224 115.128 38.1707C115.139 35.3927 115.134 32.6088 115.123 29.8307C115.203 29.1523 115.234 28.0118 115.309 27.2866C115.468 25.7367 115.76 26.8597 115.866 28.8365C115.972 30.8133 115.956 33.2112 115.946 35.4629C115.935 38.2409 115.941 41.0248 115.951 43.797C115.872 44.4755 115.84 45.6159 115.765 46.3412V46.347ZM118.834 62.7171C118.791 63.2727 118.722 63.5242 118.659 63.7464C118.367 64.7231 118.069 65.4893 117.767 66.0332C117.645 66.2496 117.523 66.4251 117.406 66.156C117.321 65.9572 117.236 65.4659 117.183 64.7582C117.077 64.6588 117.039 63.068 117.039 61.8866C117.055 52.8974 117.071 43.9023 117.082 34.9131C117.082 33.5036 117.13 31.6379 117.268 31.6262C117.321 31.6262 117.374 31.9537 117.411 32.3222C117.682 34.6909 117.767 38.5918 117.783 42.2179C117.799 45.8499 117.767 49.5637 117.868 53.0494C117.91 54.4648 118.016 56.0731 118.16 55.7515C118.239 55.576 118.292 54.8625 118.335 54.1899C118.425 52.8096 118.521 51.3241 118.531 49.6631C118.542 48.6396 118.521 47.6044 118.531 46.5809C118.542 45.5575 118.6 44.4638 118.696 44.2474C118.807 45.3352 118.818 47.0605 118.823 48.6221C118.839 52.5406 118.855 56.4591 118.866 60.3777C118.866 61.1906 118.866 62.0737 118.823 62.7229L118.834 62.7171ZM122.757 60.5999C122.577 60.5473 122.423 59.6758 122.279 58.5295C122.179 58.1143 122.094 57.2838 122.041 56.3071C122.041 56.2954 122.041 56.2778 122.041 56.2661C122.041 56.2369 122.041 56.2135 122.035 56.1843V56.2252C121.972 54.921 121.95 53.4003 121.945 51.909C121.929 47.1132 122.088 42.4402 122.274 38.0304C122.322 36.8665 122.412 35.4863 122.534 35.7728C122.603 37.2174 122.609 38.8901 122.646 40.4517C122.683 42.0132 122.779 43.645 122.938 43.9257C123.102 44.224 123.256 42.8028 123.309 41.1827C123.363 39.5685 123.336 37.8198 123.315 36.1296C123.283 33.6147 123.267 31.0823 123.256 28.544C123.251 25.9239 123.267 23.0289 123.442 21.1281C123.49 20.6076 123.554 20.1689 123.628 20.1572C123.787 20.128 123.872 21.9703 123.915 23.5026C124.016 27.2574 124.1 31.0648 124.164 34.9014L123.193 59.1319C123.193 59.1319 123.23 59.1612 123.246 59.1787C123.246 59.1904 123.246 59.2021 123.24 59.2138C123.092 59.9507 122.932 60.635 122.763 60.5882L122.757 60.5999Z" fill="black"/>
</svg>
