<svg width="134" height="205" viewBox="0 0 134 205" fill="none" xmlns="http://www.w3.org/2000/svg">
<path d="M94.2747 36.4478C92.3274 35.3876 90.2099 34.4452 88.8612 32.6455C86.1514 29.046 87.6513 23.7777 89.6868 19.7333C90.1784 18.7581 90.7455 17.7437 91.6909 17.2398C92.8504 16.6312 94.2621 16.965 95.4658 17.4623C102.455 20.3353 106.967 27.8353 114 30.584C113.067 23.2607 110.78 15.7804 105.688 10.6168C100.01 4.86427 91.7539 2.86822 83.8701 1.99126C65.172 -0.0833278 49.2468 -2.30189 31.9036 5.2504C26.5154 7.33808 19.3122 13.2673 19.0097 17.9924C18.9467 18.9414 19.1798 20.0932 20.0369 20.4139C20.5789 20.6168 21.1776 20.4139 21.707 20.1652C26.7864 17.8485 31.8469 16.0095 37.2792 14.6482C42.5603 13.3262 48.2258 14.9689 51.8747 19.1573C52.1079 19.4257 52.3096 19.7202 52.3915 20.067C52.6057 20.9767 51.9566 21.8406 51.3138 22.495C43.159 30.8719 29.7609 33.0578 23.5976 43.1035C22.2111 45.3679 21.2532 48.038 21.9779 50.7605C22.3119 52.0236 23.0682 53.1557 24.1332 53.8495C27.4985 56.0288 31.3553 53.0641 34.6324 51.0026C41.8797 46.4411 51.4084 46.0747 58.9645 50.0537C59.5191 50.3482 60.1367 50.767 60.1682 51.4149C60.1871 51.7618 60.0169 52.0956 59.8405 52.3901C58.2902 54.9293 55.5047 56.3102 52.8137 57.4358C49.6753 58.7513 46.3226 59.9882 44.3879 63.0444C43.493 64.458 43.096 66.1923 43.4867 67.8349C44.2556 71.0941 47.2994 71.9318 49.9526 71.6373C51.8873 71.4213 53.7275 70.7014 55.637 70.3218C58.0192 69.8506 60.4959 69.9095 62.8465 70.5051C63.9557 70.7865 65.1216 71.2315 65.3043 72.8545C65.3862 73.6071 65.1846 74.3728 64.7812 75.0077C63.2057 77.4618 60.0043 77.7694 58.6935 80.5443C58.2397 81.4998 58.3028 82.6778 58.9834 83.4762C60.1177 84.7916 61.876 84.1633 63.357 83.6921C65.6824 82.9526 68.1528 82.6974 70.5728 82.9526C71.1274 83.0115 71.6693 83.2209 72.0979 83.594C74.0137 85.2824 71.9655 88.0311 71.474 90.4264C70.6736 94.2941 74.6628 97.7758 78.4755 97.8412C79.2255 97.8543 80.1519 97.7823 80.9837 97.6907C82.5655 97.5206 84.0969 98.3779 84.8217 99.8438C86.1073 102.449 86.3467 105.662 85.9308 108.613C85.3699 112.579 83.8133 116.31 82.7735 120.171C81.7337 124.032 81.2421 128.286 82.7861 131.957C84.1032 135.092 86.7186 137.396 88.6596 140.158C91.9303 144.791 93.2348 150.629 93.7201 156.349C94.4196 164.64 93.5689 172.985 92.4408 181.224C91.861 185.439 91.1993 189.693 89.5986 193.606C87.7269 198.181 84.5759 202.186 80.6308 205C85.8993 201.315 90.128 196.054 92.6677 190.013C94.3566 186.001 95.3019 181.702 96.0519 177.396C96.8522 172.795 97.432 168.155 98.0118 163.515C98.5727 159.025 99.1335 154.529 99.6944 150.04C99.9969 147.638 100.262 145.046 99.1272 142.932C98.3521 141.486 97.0161 140.465 95.762 139.444C93.6382 137.717 91.319 134.209 89.8885 131.833C88.4579 129.457 87.9727 128.135 88.584 125.406C89.5608 121.015 93.7201 118.096 95.1759 113.855C96.2724 110.662 95.7052 107.141 95.1318 103.803C94.823 102.03 93.884 99.7522 92.1698 100.053C91.8106 100.119 91.4388 100.302 91.1048 100.151C90.7645 100.007 90.6321 99.5886 90.5313 99.2221L89.7372 96.2509C89.523 95.4394 90.0901 94.641 90.8968 94.6083C92.6236 94.5428 94.3629 94.4316 95.7872 93.5677C96.2787 93.2667 96.7577 92.8347 96.6568 92.1345C96.5875 91.6698 96.2724 91.2837 95.8691 91.0546C95.1128 90.6293 94.2432 90.734 93.4113 90.6816C92.737 90.6423 92.0753 90.4853 91.4451 90.2431C90.3044 89.7916 90.6384 88.0246 91.8547 88.1096C93.5247 88.2209 95.1759 87.9722 96.6631 86.8596C98.0622 85.8191 98.7491 83.6201 98.0055 82.0102C96.7703 79.3466 93.1529 79.6477 90.4241 78.8493C87.0337 77.861 84.4561 74.4056 84.3868 70.7472C84.3742 70.1779 84.4309 69.5627 84.7775 69.1111C85.2691 68.4698 86.1514 68.3781 86.9391 68.3127C90.128 68.0509 93.2853 67.4226 96.3417 66.4541C97.8101 65.9894 99.3289 65.4004 100.205 63.9999C100.577 63.4044 100.766 62.6845 100.671 61.9842C100.457 60.4201 99.1146 59.8311 97.8794 59.4057C95.5666 58.6073 93.1907 58.0183 90.7771 57.6518C89.17 57.4031 87.4496 57.2199 86.3026 55.8652C85.7418 55.2042 85.4834 54.2814 85.7607 53.4502C86.227 52.0497 87.6828 51.8338 88.9432 51.7029C93.5247 51.212 98.0622 50.3155 102.493 49.0327C102.984 48.8888 103.526 48.7055 103.778 48.2343C104.018 47.7893 103.904 47.233 103.759 46.7487C102.348 42.0891 98.4277 38.6991 94.2621 36.4281L94.2747 36.4478Z" fill="black"/>
</svg>
