<svg width="168" height="203" viewBox="0 0 168 203" fill="none" xmlns="http://www.w3.org/2000/svg">
<g clip-path="url(#clip0_1189_949)">
<path d="M87.0425 37.4966C89.2041 37.7878 91.4371 37.4327 93.3276 36.3461C97.5795 33.8961 100.219 29.2942 103.165 24.7989C106.611 19.5437 109.872 13.6351 110.086 7.33599C110.357 -0.575227 113.346 5.99378 113.367 7.87571C113.431 13.3014 113.06 18.727 112.269 24.0958C111.883 26.6879 111.348 29.2303 110.827 31.794C110.378 33.9955 109.044 36.4598 109.13 38.6826C109.394 45.7345 119.074 38.157 121.999 37.4682C124.432 36.9001 128.199 37.0137 127.521 40.5645C127.179 42.3399 125.78 43.5614 124.389 44.6195C119.567 48.2769 113.638 51.643 112.54 57.7291C112.411 58.4393 112.418 59.1779 112.64 59.8596C113.389 62.1677 115.457 62.1534 117.262 62.4517C120.173 62.9275 123.141 63.8223 125.081 66.173C126.701 68.1259 127.685 71.0376 127.864 73.5445C128.306 79.9714 124.19 76.0513 121.051 74.7659C118.582 73.7504 112.768 71.9466 112.611 76.3567C112.219 87.3855 120.409 97.9953 128.791 104.5C130.881 106.12 133.243 107.618 135.882 107.774C137.887 107.895 140.006 107.242 141.853 108.016C140.577 110.736 137.409 112.064 134.413 112.433C128.092 113.2 121.6 110.608 117.02 106.198C112.44 101.795 109.672 95.7299 108.559 89.4876C107.988 86.2564 107.831 82.947 107.061 79.7513C105.655 73.9279 101.667 69.113 95.2467 69.4397C89.1613 69.7451 83.768 73.7149 77.5685 73.2746C73.8588 73.0118 70.3631 70.9026 68.2942 67.8418C64.1422 61.7131 63.122 80.2058 63.3146 82.5138C64.5417 97.2568 69.4999 111.375 74.3724 125.237C75.5139 128.483 76.6981 131.813 78.9454 134.434C80.0511 135.726 81.2354 136.955 82.4767 138.12C95.7817 150.647 102.231 148.005 109.151 147.38C118.782 146.514 128.463 144.333 137.181 140.087C143.587 136.962 155.23 122.78 163.191 126.395C165.731 127.545 165.567 130.443 165.303 132.857C164.04 144.476 164.682 156.3 167.208 167.719C167.814 170.467 168.535 173.308 167.436 176.042C166.495 178.386 163.955 179.834 161.486 178.847C151.656 174.934 159.089 148.381 143.323 152.877C141.176 153.487 139.164 154.503 137.031 155.178C131.202 157.024 125.452 156.939 121.2 161.924C117.519 166.242 115.379 172.57 116.342 178.222C117.348 184.131 120.287 189.564 121.036 195.529C121.928 202.602 117.576 203.739 111.569 202.609C110.906 202.482 110.214 202.311 109.743 201.828C109.144 201.21 109.087 200.266 109.065 199.399C108.766 188.122 108.723 177.562 105.163 166.739C104.785 165.596 104.343 164.424 103.472 163.586C102.495 162.649 101.089 162.258 99.734 162.251C95.211 162.215 91.0304 164.658 87.0068 166.377C84.3744 167.506 81.5992 168.678 78.6957 168.827C75.2856 169.005 72.4676 167.265 69.1574 166.768C66.8888 166.427 64.4703 166.625 62.4728 167.755C55.2817 171.838 61.6381 186.503 61.9377 193.015C62.0804 196.119 56.095 204.158 53.2627 199.321C52.8775 198.661 52.7562 197.88 52.6492 197.12C51.3722 187.746 51.7075 178.08 53.1201 168.735C53.9333 163.337 52.7205 161.136 47.7909 158.835C44.1882 157.152 40.2288 156.214 36.3479 155.384C31.7036 154.389 26.9095 154.056 22.1725 154.411C18.9122 154.652 12.62 154.837 10.3514 157.621C9.44533 158.728 9.20277 160.227 9.15997 161.654C8.89601 169.445 14.268 179.955 9.01016 186.979C7.40499 189.123 4.63698 190.487 1.99024 190.004C1.52653 189.919 1.05568 189.77 0.706108 189.45C0.0569085 188.861 0.0069701 187.874 -0.000163959 187C-0.0643705 174.608 0.0569085 162.215 0.385075 149.83C0.435014 147.799 0.791717 145.676 2.02591 144.057C4.55137 140.754 9.36686 140.818 13.1122 141.045C22.2153 141.599 31.3112 142.16 40.4143 142.714C43.9813 142.934 47.848 143.069 50.7801 141.038C53.7835 138.958 54.9892 135.123 55.403 131.501C56.4374 122.411 53.6836 113.385 52.2283 104.351C50.6017 94.2102 50.616 83.8134 52.264 73.6794C52.956 69.3971 49.3461 65.5835 45.0372 66.1943C36.9329 67.3447 31.2684 74.2475 26.1676 79.9217C25.0975 81.1148 23.4352 82.2724 21.9513 82.528C20.6387 82.7553 13.1907 85.3047 20.5887 80.1348C24.6409 77.3012 27.7228 73.3953 30.6763 69.4965C32.1245 67.5862 33.5442 65.6545 35.0352 63.7868C36.248 62.2671 38.5024 60.7047 39.0874 58.8512C39.9292 56.1881 37.3038 55.4353 35.2778 55.691C33.0163 55.975 30.4694 56.6142 28.7358 54.9169C27.0023 53.2196 27.2734 50.45 29.0069 48.7882C32.1245 45.8055 36.3479 46.5512 40.2003 47.1548C42.6829 47.5454 45.3297 47.8366 47.5412 46.331C48.8682 45.4291 49.6386 43.8383 49.2534 42.2831C48.0905 37.5392 38.8805 39.9467 37.4037 35.0465C36.9543 33.5481 37.5107 31.9289 38.6664 30.8637C40.4214 29.2516 42.6258 28.8894 44.8659 28.8468C46.2 28.8184 47.2559 27.6679 47.1488 26.347C46.8135 22.3133 43.1894 18.656 40.1789 15.51C36.4977 11.6751 33.3944 5.2126 37.3752 1.56236C39.4155 -0.312467 42.4832 -0.4545 44.9159 0.887708C48.8539 3.06081 50.2022 7.56324 50.245 11.7816C50.2807 15.2898 49.5388 18.8832 51.2581 22.1926C52.0214 23.6555 53.3269 24.8273 54.9535 25.154C58.1924 25.8073 60.3255 23.1016 61.9948 20.6728L70.1705 8.77051C71.1621 7.32178 73.0598 3.87039 73.9158 9.33864C74.6221 13.8269 73.6804 19.1176 71.7899 23.2649C71.2834 24.3799 71.369 25.7008 72.1323 26.6595C73.5377 28.4136 75.5923 27.4265 77.1547 26.4678C80.8715 24.1739 85.5087 22.9312 88.2981 19.5863C91.3372 15.9432 91.3301 19.6218 91.4014 21.1273C91.4656 22.4411 91.0091 23.8828 90.2814 25.0048C88.9758 27.0217 87.0068 28.6338 86.1151 30.8637C85.2233 33.0936 83.8607 37.2267 86.2649 37.3972L87.0211 37.4966H87.0425Z" fill="black"/>
</g>
<defs>
<clipPath id="clip0_1189_949">
<rect width="168" height="203" fill="white"/>
</clipPath>
</defs>
</svg>
