<svg width="146" height="222" viewBox="0 0 146 222" fill="none" xmlns="http://www.w3.org/2000/svg">
<path d="M135.904 167.466C135.735 166.566 135.128 165.765 134.328 165.408C133.552 165.062 132.671 165.124 131.83 165.13C130.949 165.136 130.062 165.081 129.204 165.29C128.346 165.5 127.506 166.036 127.167 166.893C126.701 168.07 127.313 169.408 128.02 170.444C128.726 171.485 129.572 172.533 129.636 173.809C129.659 174.321 129.554 174.833 129.473 175.338C129.473 175.363 129.473 175.387 129.461 175.412C127.558 178.981 125.411 182.057 124.43 185.423C121.08 196.95 108.825 205.222 102.032 202.294C96.6216 199.964 88.5971 198.362 85.8716 187.531C82.9886 176.059 94.5907 168.44 93.8787 162.406C93.5985 160.075 83.8874 163.651 83.9399 161.277C84.0975 154.454 85.2472 143.685 89.9043 141.305C92.0637 140.202 97.3336 146.681 101.611 152.943C101.611 152.974 101.606 153.011 101.6 153.042C101.419 154.743 101.442 156.457 101.471 158.165C101.477 158.608 101.489 159.083 101.722 159.459C102.207 160.248 103.31 160.168 104.179 159.971C105.265 159.724 106.344 159.441 107.412 159.12C107.967 158.954 108.533 158.769 108.959 158.362C109.957 157.4 109.747 155.711 109.379 154.343C109.052 153.116 108.533 151.766 107.407 151.304C106.531 150.946 105.516 151.242 104.635 150.909C104.103 150.712 103.672 150.305 103.292 149.867C102.936 149.461 102.621 149.011 102.347 148.542C101.687 142.754 101.985 136.17 102.522 130.98C102.872 127.596 103.421 124.138 104.745 121.456C105.924 119.071 107.617 117.511 109.333 116.248C114.667 112.309 120.643 110.687 126.473 111.557C126.52 111.661 126.566 111.772 126.596 111.883C126.689 112.235 126.695 112.605 126.771 112.956C127.144 114.756 129.484 115.582 130.961 114.602C132.437 113.622 132.863 111.359 132.105 109.701C131.83 109.103 131.381 108.536 130.768 108.413C129.992 108.253 129.28 108.826 128.539 109.109C127.448 109.529 126.298 109.307 125.201 108.844C121.08 104.868 117.427 99.5733 117.141 92.1208C116.849 84.4648 119.236 77.9307 123.637 75.0951C124.781 74.3554 126.275 71.9143 126.917 70.2007C128.276 66.5638 129.403 58.9386 129.531 57.4838C130.996 40.8342 124.985 30.4413 119.295 21.7928C112.729 11.8129 103.631 6.34523 94.6607 7.06645C94.4098 6.89385 94.188 6.68427 94.0012 6.42537C92.9099 4.93979 93.441 2.55422 92.2212 1.17959C91.4159 0.27345 90.1261 0.125508 88.9531 0.045373C88.0076 -0.0224337 87.0155 -0.0717477 86.1518 0.341257C85.6148 0.593991 85.1655 1.01316 84.7569 1.46315C83.8524 2.46176 83.1228 3.64529 82.6209 4.92129C81.9265 6.69043 81.6755 8.74313 82.3525 10.5246C83.0295 12.3061 84.7803 13.693 86.5836 13.4773C87.5757 13.3602 88.4628 12.7992 89.2974 12.2198C89.9218 11.7821 90.5346 11.3198 91.1357 10.8328C91.7135 10.3643 92.3088 9.85886 93.0208 9.71091C93.5519 9.59996 94.0946 9.69859 94.6315 9.77872C94.8883 9.81571 95.1509 9.84036 95.4136 9.87735C100.625 12.4293 105.632 16.0231 109.893 21.4538C115.443 28.5365 119.592 39.0959 119.878 50.5552C119.989 54.9873 119.464 59.6783 117.684 63.0563C115.91 66.4343 112.653 67.9877 110.319 65.6761C109.484 64.8501 108.796 63.5864 107.862 63.118C107.377 62.8776 106.788 63.0193 106.356 63.4385C105.813 63.9625 104.173 68.2281 105.568 68.6535C108.107 69.424 109.006 72.6047 109.671 77.08C110.138 80.2114 109.916 81.1854 107.926 81.2409C106.012 81.2963 105.335 78.5348 104.115 76.9197C103.409 75.9828 101.787 75.2677 101.121 76.0012C100.777 76.3834 100.141 77.7211 101.121 78.7443C102.539 80.2114 103.782 82.3443 103.426 85.1798C103.181 87.1216 102.055 88.6503 100.847 88.3852C99.5571 88.1017 98.8802 86.012 98.0515 84.4586C97.6079 83.6264 96.9193 82.936 96.2656 82.7696C95.577 82.5908 93.7736 83.2504 94.8533 85.3894C97.3161 90.2653 95.968 97.8412 93.2951 102.458C93.0966 102.797 92.7465 102.729 92.6239 102.316C91.8886 99.8507 92.0987 96.8117 91.8594 94.0378C91.6843 92.0714 90.9957 89.9448 90.0386 88.8907C89.3324 88.114 87.8209 86.8873 88.5153 90.4687C89.5367 95.7453 87.7333 101.848 85.0896 105.392C84.255 106.508 83.2571 107.427 82.1774 107.494C80.0239 107.636 72.5596 113.585 57.5785 105.639C53.4174 103.432 59.1834 93.1563 56.9657 89.8277C56.3062 88.8414 54.5671 90.0866 53.7325 91.3256C52.7929 92.731 52.5828 94.1673 52.0926 95.9426C51.8416 96.8364 51.1647 97.3049 50.5927 96.9843C49.4314 96.3309 48.6493 94.2289 48.4918 92.1762C48.2875 89.5749 48.2817 87.7873 48.9586 85.4079C49.408 83.8113 50.7445 80.9696 49.6356 80.3039C48.0949 79.3793 46.1106 81.623 45.1302 83.5278C44.068 85.5805 43.4377 88.2003 43.3385 90.8694C43.321 91.4304 43.321 92.355 42.644 91.5043C41.3076 89.8153 40.6364 86.5791 41.0508 83.7189C41.436 81.0744 41.8445 78.3005 42.7608 76.0444C43.5428 74.115 42.4398 74.0287 41.7803 74.115C40.2337 74.3246 38.7456 75.767 38.0336 78.0724C37.6134 79.4347 36.5804 80.1991 35.7225 79.5703C34.6778 78.8121 34.9288 77.006 35.3957 75.7855C36.4228 73.0917 38.337 71.3226 38.4071 67.735C38.4421 66.0337 37.6484 64.5111 36.5979 64.5604C35.5532 64.6097 35.0747 66.2186 34.4035 67.3035C32.9562 69.6336 30.4409 69.424 28.7718 67.5254C27.1026 65.6268 26.163 62.4522 25.6145 59.2715C23.496 46.9738 26.5716 33.283 32.1858 24.2832C35.384 19.1545 39.3233 15.3882 43.5078 12.8054C45.9356 11.3075 48.4567 10.5184 50.9662 9.64311C51.2405 9.85886 51.4973 10.1116 51.7191 10.389C52.2618 11.0794 52.6704 11.9732 53.4699 12.2876C53.9309 12.4663 54.4504 12.4109 54.9347 12.3184C56.4638 12.0225 57.9286 11.3938 59.2184 10.4753C60.3156 9.69859 61.3311 8.61984 61.5587 7.24521C61.7396 6.14181 61.3894 5.02609 60.9634 4.00282C60.3448 2.51724 59.4343 1.007 57.9812 0.489199C56.849 0.0885228 55.6059 0.372078 54.4504 0.692619C54.2461 0.748097 54.0418 0.80974 53.8843 0.957682C53.715 1.11179 53.6333 1.34603 53.5574 1.56794C53.1548 2.73299 52.7521 3.89186 52.3552 5.05691C52.1918 5.53155 52.0167 6.02469 51.6724 6.37606C51.5382 6.51167 51.3864 6.6103 51.223 6.6966L48.3809 6.35756C47.3245 6.1788 46.2624 6.16647 45.2119 6.37606C36.9072 8.04657 28.2232 16.5409 23.7703 27.7537C19.9301 37.4254 18.5412 49.8094 20.683 60.7509C22.1187 68.0679 25.0484 74.7191 25.3693 82.3874C25.6787 89.8523 23.461 96.5837 20.2103 102.119C20.1753 102.125 20.1402 102.131 20.1052 102.138L20.2044 102.125C19.8076 102.797 19.3991 103.451 18.9789 104.092C18.3836 104.72 17.7825 105.343 17.0938 105.855C16.1017 106.594 14.8878 107.106 13.6856 106.933C13.0319 106.841 12.4133 106.551 11.7655 106.428C11.1177 106.305 10.3649 106.397 9.933 106.921C9.68205 107.223 9.577 107.63 9.47779 108.018C9.19766 109.109 8.91753 110.225 9.02258 111.347C9.12763 112.469 9.7054 113.615 10.6975 114.035C11.7714 114.491 12.9911 113.992 13.9891 113.375C14.596 112.999 15.1854 112.561 15.6231 111.976C16.2418 111.137 16.5102 110.059 16.9946 109.134C21.6868 107.365 26.6533 107.501 31.1704 110.12C36.878 113.431 41.7394 120.908 43.5078 130.314C44.5758 135.992 44.389 142.292 43.0701 147.815C42.8308 148.172 42.5798 148.524 42.3114 148.857C40.9516 150.564 39.1774 151.988 37.1115 152.469C35.9793 152.734 34.6603 152.789 33.9308 153.739C33.1313 154.774 33.4756 156.315 33.9483 157.56C34.5903 159.243 35.6233 161.043 37.3099 161.351C38.4012 161.549 39.5451 161.025 40.2863 160.156C41.0275 159.286 41.3893 158.109 41.4593 156.944C41.5235 155.834 41.3484 154.7 41.5002 153.609C44.7217 149.023 48.1007 144.998 52.3202 143.111C54.2169 142.261 56.3646 144.079 57.0766 147.05L57.3567 148.215C58.2555 151.969 58.2905 156.106 58.2788 160.137C58.2671 164.631 49.834 158.312 48.6318 162.369C47.8148 165.13 65.5097 181.299 57.6193 188.542C52.7871 192.974 47.3012 198.232 42.4923 200.297C37.6834 202.362 29.4312 202.461 25.2935 198.016C22.3696 194.879 20.8289 185.626 20.5079 177.681C20.6188 177.249 20.7297 176.818 20.8406 176.386C21.3075 174.561 21.8385 172.638 23.1516 171.362C24.0387 170.499 25.2876 169.914 25.667 168.705C25.9938 167.682 25.5561 166.573 25.0775 165.623C24.739 164.951 24.3597 164.286 23.8345 163.762C22.7198 162.658 21.0273 162.35 19.545 162.745C18.0626 163.139 16.7787 164.156 15.7866 165.383C15.2263 166.073 14.7302 166.899 14.7652 167.805C14.7886 168.36 15.0104 168.878 15.2438 169.371C15.4831 169.883 15.7457 170.394 16.1426 170.783C16.7437 171.375 17.5841 171.627 18.191 172.213C18.5412 172.558 18.7804 172.99 18.9439 173.458C17.8117 176.774 17.0005 180.362 16.7437 184.116C16.3585 189.633 17.2631 195.514 19.5917 199.57C22.6322 204.865 27.412 206.24 31.8532 207.022C31.8532 207.022 31.8532 207.022 31.859 207.022C32.1567 207.078 32.3434 207.577 32.2325 208.027C31.8357 209.642 31.3163 211.214 30.9895 212.823C30.8202 213.655 30.8961 214.592 31.2287 215.289C31.9933 216.879 33.248 215.806 33.7091 214.345C34.2576 212.607 34.1059 210.456 34.8821 208.822C35.1681 208.218 35.5941 207.793 36.0668 207.762C37.3391 207.676 37.8702 210.215 38.197 212.182C38.5646 214.407 39.2183 216.713 40.473 217.791C41.2375 218.451 42.1538 218.365 42.9125 217.674C44.7975 215.942 43.2568 213.735 44.2898 211.904C44.8034 210.992 45.8072 210.77 46.4375 211.461C47.0619 212.151 47.0969 213.285 47.3304 214.278C47.8089 216.324 49.1921 217.711 50.5402 217.421C50.7561 217.378 50.9662 217.274 51.1413 217.082C52.1568 215.967 51.3923 213.593 51.6491 211.769C51.935 209.753 53.3649 208.872 54.5963 208.323C54.9756 208.15 55.3783 207.978 55.7635 208.107C56.6739 208.409 57.0882 210.148 57.8703 210.961C58.7048 211.824 59.8545 211.473 60.6541 210.517C61.4536 209.562 61.9672 208.113 62.4107 206.683C62.7142 205.716 62.9535 204.446 62.8017 203.478C62.6733 202.64 62.9126 201.758 63.3912 201.382C64.2958 200.673 65.2879 200.371 65.9707 201.431C66.3617 202.035 66.5135 202.929 66.8053 203.663C67.383 205.111 68.5678 205.833 69.5949 205.37C70.622 204.908 71.4041 203.287 71.4391 201.561C71.4858 199.175 70.2835 196.666 71.0656 194.614C71.5091 193.436 72.4371 193.017 73.2424 193.461C74.5147 194.164 75.0633 196.383 74.9932 198.423C74.9349 200.125 74.5205 201.74 74.0711 203.281C73.6568 204.717 73.2074 206.184 73.3358 207.824C73.4 208.619 73.6276 209.377 74.0186 209.858C75.0633 211.134 76.3997 209.79 77.0942 208.175C77.9113 206.27 78.3256 203.835 79.8663 202.985C80.5958 202.578 81.4362 203.127 81.7047 204.298C82.014 205.635 81.3837 206.782 80.5725 207.361C79.913 207.83 79.4578 208.841 79.3819 209.994C79.2827 211.43 79.2769 212.885 79.3644 214.321C79.3936 214.82 79.6504 215.215 79.9597 215.184C81.5413 215.03 83.0645 213.556 83.8699 211.337C84.4535 209.735 84.7103 207.725 86.1109 207.195C87.3073 206.745 88.5154 207.744 89.134 209.463C90.0035 211.886 89.811 214.543 89.3499 217.113C89.1165 218.414 89.7876 219.671 90.6163 219.499C92.5306 219.104 94.3864 218.038 95.0342 215.264C95.361 213.865 94.9583 212.465 95.7579 210.943C95.8396 210.795 95.9913 210.875 95.9972 211.072C96.0905 214.117 96.9484 214.777 96.3532 218.019C96.1022 219.394 96.4816 220.886 97.2753 221.502C97.7246 221.854 98.2265 222.063 98.6467 221.983C99.0961 221.897 99.563 221.755 99.9307 221.323C101.226 219.825 100.806 214.333 100.754 214.493C100.666 213.846 100.596 213.199 100.538 212.546C100.456 211.633 100.923 210.82 101.489 210.863C106.607 211.226 111.725 209.963 116.412 206.609C124.273 200.981 130.541 188.795 131.615 175.153C131.749 174.722 131.883 174.29 132.029 173.865C132.309 173.039 132.642 172.207 133.237 171.596C133.838 170.98 134.667 170.641 135.245 170C135.846 169.334 136.12 168.354 135.951 167.454L135.904 167.466Z" fill="black"/>
</svg>
