<svg width="169" height="228" viewBox="0 0 169 228" fill="none" xmlns="http://www.w3.org/2000/svg">
<g clip-path="url(#clip0_1189_955)">
<path d="M168.817 39.1042C168.288 36.9991 167.749 34.8849 167.219 32.7797C166.845 31.3125 166.415 29.7542 165.255 28.7791C161.858 25.9267 156.369 30.6837 152.387 28.7062C147.683 26.3733 150.67 18.3629 147.099 14.508C144.578 11.7741 140.03 12.5214 136.723 14.2346C133.417 15.9479 130.321 18.454 126.604 18.7274C121.133 19.1284 116.557 14.4716 114.137 9.55963C112.539 6.31537 111.242 2.52433 108.036 0.838416C103.853 -1.36695 98.7935 1.18471 94.9301 3.91864C91.0668 6.65256 86.6464 9.78746 82.0433 8.67566C77.0657 7.47273 74.1887 1.71327 69.1838 0.601476C66.0511 -0.10023 62.754 1.25762 60.3246 3.34451C57.8952 5.43141 56.1416 8.18355 54.3515 10.8355C53.2555 12.4485 51.9769 14.1526 50.0955 14.6721C47.0815 15.5014 44.2594 12.9588 42.3323 10.5074C40.4052 8.05597 38.2132 5.20358 35.0897 5.09422C32.2036 4.99398 29.8746 7.32692 28.0023 9.53229C25.3994 12.5943 22.7416 16.2669 23.3901 20.231C24.2121 25.2797 29.8746 27.9225 34.9161 28.8793C40.67 29.9729 46.5701 30.0185 52.3605 30.8569C59.804 31.9322 67.0557 34.3199 73.6773 37.8831C74.3075 38.2202 74.9377 38.5848 75.4491 39.0678C75.4491 40.4985 75.5039 41.911 75.6044 43.2962L76.1432 41.4463C76.3716 41.6741 76.472 41.9384 76.5177 42.2118C76.4446 42.7494 76.2802 43.2871 76.0245 43.7701C75.5861 44.326 74.9377 44.7543 74.2435 44.8272C72.627 44.9913 71.12 44.1164 69.5491 43.7063C66.3342 42.877 62.9184 44.1255 60.3246 46.2398C54.7077 46.7227 49.1456 47.953 43.8758 49.9305C40.6518 51.1426 37.2177 52.9561 36.14 56.2186C35.0531 59.4902 36.7154 62.9622 38.3319 66.006C38.6699 66.6348 39.0169 67.3365 38.8799 68.0382C38.7795 68.5668 38.4324 69.0042 38.0762 69.4143C31.6099 76.9599 22.3672 82.0906 12.5308 83.5942C11.453 83.7583 10.2931 83.9132 9.49855 84.6514C8.81357 85.2893 8.5213 86.2553 8.49391 87.1848C8.35691 91.2401 12.2476 94.129 15.7456 96.1976C19.0244 98.1387 22.7234 100.627 23.2896 104.281C23.0796 104.518 22.8786 104.764 22.6686 104.992C19.3076 108.683 15.5356 112.136 13.2797 116.584C10.0374 122.99 10.3662 130.517 10.0009 137.68C9.63555 144.852 8.11031 152.68 2.49342 157.164C1.72623 157.775 0.867715 158.34 0.392791 159.205C-0.502259 160.846 0.319726 162.896 1.38831 164.427C3.60766 167.599 7.2244 170.077 11.0969 169.886C15.7822 169.658 19.5542 165.612 21.052 161.174C22.5498 156.736 22.2758 151.933 22.1845 147.249C22.0384 139.904 22.422 132.358 25.2715 125.587C27.6553 119.937 31.6282 115.135 35.2358 110.177C40.6061 102.805 45.2731 94.9218 49.1456 86.6745C52.2144 80.1495 54.9908 73.1233 60.5255 68.4848C63.2289 66.2156 67.2019 64.6482 70.2432 66.4434C74.0243 68.6761 73.6864 74.1531 72.8644 78.4636C71.4671 85.7905 70.0057 93.2814 66.2064 99.697C63.8683 103.652 60.7082 107.07 58.224 110.933C47.5473 127.528 50.2507 150.238 39.1265 166.541C36.6606 170.15 33.5553 173.376 31.7469 177.35C29.0527 183.246 29.5184 190.126 31.0711 196.423C32.6237 202.72 35.1993 208.735 36.624 215.059C37.583 219.297 38.0214 223.644 37.9301 227.991C43.547 227.107 48.7894 224.008 52.2691 219.507C52.8628 218.741 53.4291 217.866 53.4291 216.9C53.4291 215.634 52.5066 214.595 51.6846 213.629C44.853 205.637 42.177 193.416 47.6112 184.421C49.4196 181.432 51.986 178.963 53.9314 176.065C56.4704 172.283 57.8952 167.872 59.1738 163.498C61.8955 154.157 64.0875 144.661 65.7314 135.065C65.9415 133.862 66.252 132.495 67.348 131.948C68.0969 131.575 69.0011 131.72 69.8048 131.976C76.5908 134.126 79.349 142.055 80.9838 148.971C85.0298 166.095 88.0437 183.464 89.98 200.943C90.6558 206.985 90.0622 214.877 84.2443 216.672C83.121 217.019 81.8149 217.137 81.066 218.039C79.3307 220.163 82.6643 222.733 85.3312 223.407C89.642 224.501 93.9894 225.43 98.3733 226.196C99.0857 226.323 99.8255 226.442 100.511 226.214C102.063 225.704 102.529 223.781 102.739 222.168C105.15 203.13 103.99 183.656 99.3415 165.038C96.1631 152.316 91.3773 139.968 89.3133 127.018C86.5824 109.84 88.8566 91.9054 95.7795 75.9484C96.9303 73.3056 99.2775 70.2345 101.99 71.2187C104.365 72.0753 104.63 75.2649 104.529 77.7801C103.926 93.3088 105.689 109.867 115.151 122.215C118.393 126.453 122.476 130.08 125.088 134.737C128.495 140.806 129.088 148.005 129.6 154.941C130.303 164.5 131.006 174.196 129.061 183.583C128.339 187.064 127.262 190.5 127.198 194.054C127.134 197.608 128.312 201.417 131.207 203.477C134.111 205.536 138.897 204.926 140.395 201.7C141.272 199.795 140.879 197.581 140.532 195.512C138.632 184.203 138.906 172.547 141.317 161.338C142.368 156.453 143.829 151.605 143.984 146.611C144.185 139.858 141.993 133.279 139.5 127C137.235 121.286 134.669 115.636 131.161 110.596C131.143 109.867 131.061 109.138 130.942 108.4C130.997 108.127 131.034 107.853 131.107 107.589C132.175 103.725 134.696 100.426 137.472 97.5372C138.833 96.1156 140.395 94.2565 139.664 92.4248C138.788 90.2103 135.646 90.3926 133.426 89.5177C130.184 88.2419 128.768 84.223 129.344 80.7965C129.928 77.37 132.029 74.4265 134.093 71.6379C135.947 69.1409 137.929 66.1609 137.116 63.1627C136.778 61.9233 135.993 60.8662 135.153 59.8911C130.403 54.3595 123.48 50.769 116.229 49.967C115.434 49.6207 114.594 49.3838 113.708 49.2926C110.931 48.9919 108.164 50.0308 105.378 49.8576C102.593 49.6936 99.4967 47.388 100.227 44.6996C100.629 43.2324 101.999 42.2847 103.141 41.2822C103.406 41.0544 103.643 40.7992 103.89 40.5532C106.502 39.2956 109.461 38.6212 112.365 38.4845C117.891 38.2202 123.353 39.5325 128.796 40.5076C141.345 42.7586 154.213 43.2324 166.89 41.911C167.575 41.8381 168.333 41.7197 168.735 41.1638C169.155 40.5805 169 39.7786 168.827 39.0769L168.817 39.1042ZM118.311 85.7085C118.338 87.3306 118.393 88.9436 118.475 90.5566C118.22 88.9436 118.174 87.3306 118.311 85.7085Z" fill="black"/>
</g>
<defs>
<clipPath id="clip0_1189_955">
<rect width="169" height="228" fill="white"/>
</clipPath>
</defs>
</svg>
