<svg width="140" height="185" viewBox="0 0 140 185" fill="none" xmlns="http://www.w3.org/2000/svg">
<path d="M79.6035 19.6015C70.9765 19.1189 62.2821 18.6362 53.7677 20.9071C49.7768 21.9674 45.7484 23.7161 42.4776 27.5695C38.6443 32.0875 36.1687 39.2879 35.3435 46.8444C34.5109 54.4009 35.246 62.2817 36.9639 69.4426C37.9091 73.3988 39.1619 77.2127 39.6495 81.3905C40.7222 90.6165 37.9241 99.7001 36.6563 108.855C34.8034 122.314 36.2963 136.462 39.0344 149.525C39.8596 153.458 40.8498 157.469 42.7327 160.286C45.1707 163.926 48.659 164.947 51.9598 165.406C63.1298 166.965 74.5323 163.871 84.7796 156.504C86.9101 154.969 89.0781 153.133 90.3834 150C90.9085 148.742 91.2761 147.246 91.2086 145.727C91.0735 142.602 89.0931 140.378 87.1652 140.094C85.2372 139.809 83.3543 140.932 81.5164 141.929C77.578 144.058 73.5271 145.624 69.4237 146.606C68.1784 146.906 66.8881 147.144 65.6728 146.629C64.4501 146.115 63.3023 144.691 63.0248 142.705C62.8147 141.233 63.1073 139.674 63.5649 138.353C64.8252 134.697 67.2632 132.466 69.7463 131.319C72.2293 130.171 74.8399 129.926 77.383 129.206C79.0258 128.739 80.6837 128.051 82.0715 126.547C83.4593 125.044 84.5471 122.615 84.6146 119.917C84.6296 119.252 84.5771 118.54 84.322 118.026C84.082 117.535 83.6994 117.29 83.3318 117.092C77.4805 113.958 71.1641 118.184 65.0052 118.097C62.7922 118.065 60.1816 116.957 59.4464 113.579C59.1239 112.083 59.2514 110.422 59.5515 108.91C60.9318 101.931 65.5003 97.9198 69.9113 96.3135C74.3223 94.7073 78.9583 94.7627 83.2418 92.3968C83.977 91.9933 84.7571 91.4236 85.0797 90.2842C85.7549 87.9262 83.9845 85.6553 82.4316 84.9828C76.4378 82.3954 70.2639 86.8343 64.18 88.7966C62.7697 89.2476 61.3069 89.5721 59.9116 89.0656C58.5087 88.5592 57.1659 87.0796 56.6933 84.8878C56.2057 82.6169 56.7383 80.0216 57.7061 78.2017C58.6738 76.3819 60.0166 75.195 61.3594 74.1822C66.3405 70.4 71.7417 68.3111 77.0904 66.238C79.626 65.2568 82.4016 63.9988 83.8119 60.4539C84.2095 59.4411 84.4646 58.0723 84.052 57.0753C83.7144 56.2524 83.0617 55.9754 82.4616 55.8093C72.837 53.1428 63.6324 63.16 53.9102 64.5605C52.6124 64.7504 51.1571 64.6871 50.2194 63.2312C48.8016 61.0236 49.4392 57.1069 50.542 54.4721C51.7872 51.489 53.4826 49.052 55.2905 46.9472C60.5717 40.7992 67.0081 37.2623 73.5046 36.9458C77.8706 36.7322 82.7392 37.6896 86.1449 33.2665C87.0001 32.1587 87.7353 30.6474 87.8478 28.8829C88.0579 25.6072 86.0924 23.0118 84.1495 22.0307C82.2141 21.0495 80.0761 20.9546 78.3132 19.3246" fill="black"/>
<path d="M96.7748 31.4229C92.4313 35.3871 87.9528 38.9556 83.3618 42.1048C84.6746 44.083 86.6775 43.9247 88.4629 44.1937C91.8612 44.6922 95.5295 48.0788 95.9646 53.5622C96.3472 58.373 94.1192 62.7328 91.6512 65.4864C89.1831 68.2399 86.31 70.131 84.2395 73.6284C84.0895 73.8816 83.9319 74.1822 83.9394 74.5304C83.9394 75.0289 84.2545 75.3454 84.5321 75.559C85.9274 76.6272 87.4427 77.2919 88.9731 77.5055C90.5259 77.7191 92.3038 77.6242 93.354 79.4757C93.7891 80.2353 94.0292 81.2402 94.1642 82.2609C94.7719 86.8739 93.3165 91.6373 91.2911 95.0318C89.2656 98.4262 86.7076 100.824 84.412 103.728C84.202 103.989 83.9844 104.297 83.9469 104.725C83.9019 105.255 84.1645 105.722 84.427 106.03C85.6048 107.407 87.1877 107.423 88.628 107.083C90.0683 106.742 91.5086 106.109 92.949 106.386C94.3893 106.663 95.8821 108.174 96.1147 110.501C96.2347 111.719 96.0021 112.946 95.7246 114.093C94.1042 120.811 90.901 126.484 86.9251 129.712C89.8508 131.002 92.934 130.955 95.9646 130.899C97.78 130.868 99.708 130.773 101.208 129.127C102.484 127.726 103.256 125.384 103.714 123.003C104.352 119.687 104.479 116.174 104.472 112.708C104.434 99.352 102.431 86.2488 101.351 73.0112C100.308 60.2324 100.128 47.3034 99.1904 34.5009C99.0778 32.9342 98.8753 31.1618 98.0501 30.3152C97.2249 29.4685 95.7921 30.8216 96.2422 32.2221" fill="black"/>
</svg>
