<svg width="138" height="225" viewBox="0 0 138 225" fill="none" xmlns="http://www.w3.org/2000/svg">
<g clip-path="url(#clip0_1189_965)">
<path d="M41.3507 62.5918C44.9431 67.6884 47.0303 78.9829 45.8033 88.7212C44.1209 102.098 37.8152 107.44 32.648 113.352C27.5693 119.162 22.8257 127.461 19.733 138.929C16.6402 150.397 15.3816 165.335 17.298 178.266C19.2144 191.197 24.6473 201.109 30.2193 199.776C35.4182 198.532 39.5355 188.682 42.818 178.707C44.336 174.101 45.7906 169.263 46.6698 163.743C48.6304 151.427 47.492 137.351 49.0289 124.656C49.4969 120.799 50.4393 117.33 51.818 115.141C55.6002 109.103 59.0724 116.822 59.8757 125.142C60.4828 131.398 59.9579 137.935 59.5088 144.271C58.1174 164.131 57.5292 184.334 57.7696 204.48C57.7949 206.469 57.8075 208.609 57.3458 210.25C56.96 211.619 56.3149 212.377 55.7014 213.072C52.7667 216.39 49.8384 219.707 46.9038 223.025C51.4006 228.005 56.5805 222.623 61.0204 217.304C61.9628 216.171 62.9495 214.958 63.5693 212.867C64.2207 210.66 64.3599 207.806 64.4421 205.086C64.6382 198.407 64.5686 191.678 64.246 185.026C63.6895 173.602 62.3676 162.423 62.083 150.937C61.7288 136.7 63.2214 121.08 68.7302 113.624C71.6332 109.696 75.2573 110.013 77.8377 115.123C81.8223 123.011 81.038 136.909 80.9811 148.921C80.8862 167.551 83.1442 185.708 84.2699 204.132C84.4028 206.335 84.5103 208.734 84.0549 210.656C83.4794 213.086 82.2397 213.879 81.2025 215.092C80.1652 216.305 79.147 219.043 79.6087 221.616C84.2699 222.342 90.2594 221.25 90.778 207.387C90.8729 204.783 90.7211 202.166 90.4238 199.66C87.4892 175.069 85.3831 148.578 87.8813 123.559C88.147 120.906 88.5138 118.101 89.3993 116.451C90.2025 114.953 91.2777 114.712 92.2833 114.619C97.5581 114.11 103.623 117.076 106.255 128.317C107.355 133.025 107.69 138.559 107.956 143.954C108.81 161.335 109.214 178.828 109.613 196.307C109.803 204.649 109.923 213.665 108.025 220.595C109.879 224.706 113.085 221.807 114.35 216.519C115.615 211.231 115.501 204.698 115.356 198.576C114.761 174.204 114.167 149.831 113.566 125.458C113.458 121.013 113.357 116.429 113.952 112.229C115.628 100.43 121.586 97.1442 126.025 91.0533C130.712 84.6279 134.241 73.3156 135.55 60.5318C136.309 53.1299 136.347 45.416 136.379 37.7822C136.398 33.3946 136.398 28.7886 135.544 24.936C135.297 23.8302 134.956 22.8225 134.557 21.9887C133.4 19.5719 133.381 15.1932 134.513 12.6918L137.492 6.08806C137.77 5.46827 137.973 4.62998 137.998 3.70698C138.042 1.68708 137.328 1.0227 136.695 0.683818C132.053 -1.83549 126.886 2.74831 124.014 12.0943C123.799 12.8032 123.609 13.5702 123.483 14.3995C122.528 20.5841 125.096 24.8513 126.544 29.6625C128.694 36.828 128.391 47.097 126.721 54.9938C125.051 62.8906 122.237 68.9146 119.441 74.5775C113.869 85.8675 107.893 96.7875 100.904 101.282C94.225 105.581 87.1666 103.645 80.336 101.193C73.5053 98.7405 66.5735 95.7931 59.7365 98.143C52.8996 100.493 46.012 109.166 42.9256 124.344C40.5538 136.031 40.6929 149.987 38.4667 161.852C37.1132 169.071 34.8932 175.296 32.161 179.537C29.3844 183.839 25.2607 185.534 23.161 179.34C22.4146 177.147 22.0668 174.302 21.8707 171.488C20.9853 158.713 23.0218 145.506 26.2917 135.344C29.5615 125.178 33.9698 117.624 38.4414 110.748C42.3627 104.72 46.4737 98.8966 49.3641 90.0188C52.2481 81.141 53.6395 68.2279 51.4069 58.28C48.4533 45.1217 41.0598 43.3425 35.0007 45.4739C32.9579 46.1963 30.9213 47.1772 28.9164 48.4079C25.9501 50.2361 23.882 56.5856 23.5025 64.0454C23.3507 67.0106 22.8953 69.6949 21.9466 71.6167C20.9347 73.6723 19.5812 74.3144 18.291 74.8896C12.194 77.6096 5.70486 76.5439 0 83.045C7.57696 101.478 8.78497 91.2405 10.8784 85.0917C11.7386 82.5724 13.3387 82.3048 14.2115 84.7929C15.3247 87.9588 14.2052 92.4757 13.1237 95.5345C9.44906 105.933 5.77443 116.331 2.09979 126.729C13.1427 115.319 16.4125 99.2399 22.2628 82.1309C24.1033 76.7534 25.5454 70.5555 27.6072 65.6908C29.669 60.8261 32.6227 57.3749 35.3676 59.3011" fill="black"/>
</g>
<defs>
<clipPath id="clip0_1189_965">
<rect width="138" height="225" fill="white"/>
</clipPath>
</defs>
</svg>
