<svg width="165" height="273" viewBox="0 0 165 273" fill="none" xmlns="http://www.w3.org/2000/svg">
<g clip-path="url(#clip0_1189_968)">
<path d="M62.38 56.57C55.32 60.14 46.01 56.33 42.09 49.46C38.17 42.59 39.01 33.73 42.7 26.73C39.39 24.03 34.66 27.73 32.49 31.4C28.67 37.86 26.45 45.26 26.09 52.76C25.93 56.07 26.25 59.7 28.47 62.16C31.97 66.04 38.74 65.52 42.03 69.57C44.76 72.92 43.57 78.5 39.99 80.91C36.41 83.33 31.25 82.66 27.97 79.84C26.18 78.3 24.02 76.03 21.93 77.14C20.93 77.67 20.45 78.82 20.07 79.89C18.81 83.48 17.89 87.18 17.31 90.94C16.74 94.69 16.6 98.81 18.73 101.94C20.86 105.07 26.06 106.23 28.41 103.26C29.31 102.12 29.63 100.64 30.28 99.34C35.02 89.84 52.76 95.17 57.68 85.75C62.93 88.51 63.65 96.24 60.71 101.4C57.77 106.56 52.38 109.73 47.23 112.67C39.18 117.26 30.29 122.02 21.14 120.53C16.76 119.81 12.6 117.68 8.17 117.79C3.74 117.9 -1.12 121.84 0.260001 126.06C1.55 130.01 6.69 130.66 10.65 131.94C19.7 134.88 25.57 145.34 23.37 154.6C22.37 158.8 19.95 162.72 20 167.04C20.09 175.15 28.57 180.72 30.66 188.56C33.59 199.52 23.3 210.35 24.84 221.58C25.41 225.78 27.61 229.58 28.52 233.72C29.43 237.86 28.52 243 24.71 244.86C28.92 244.04 33.25 243.17 36.84 240.81C40.43 238.46 43.14 234.23 42.4 230C41.95 227.39 40.29 225.17 39.38 222.69C36.1 213.79 42.69 204.56 44.5 195.25C45.79 188.63 44.6 181.8 43.41 175.16C41.9 166.73 40.39 158.3 38.88 149.88C38.42 147.29 37.99 144.46 39.25 142.16C41.56 137.93 48.3 138.35 51.7 141.78C55.1 145.2 56.03 150.29 56.8 155.05C58.47 165.32 60.14 175.59 61.8 185.86C63.19 194.4 64.58 203.06 63.77 211.67C62.26 227.68 53.3 243.95 58.99 258.98C53.82 259.83 48.91 262.13 44.95 265.56C52.03 271.71 62.24 274.05 71.29 271.59C73.27 271.05 75.26 270.26 76.68 268.79C80.33 265.03 78.9 258.81 76.73 254.04C74.56 249.28 71.8 244.03 73.55 239.09C74.96 235.1 79.09 232.58 83.26 231.87C87.43 231.16 91.7 231.94 95.86 232.72C97.66 233.06 99.54 233.43 100.96 234.58C103.18 236.37 103.7 239.52 103.75 242.37C103.83 247.44 102.91 252.53 101.06 257.25C100.3 259.18 99.38 261.29 100.07 263.24C100.48 264.42 101.43 265.33 102.42 266.09C110.89 272.62 124.89 269.79 130.17 260.49C130.85 259.3 131.4 257.9 131.04 256.58C130.35 254.11 127.19 253.57 124.89 252.42C119.88 249.91 118.4 243.38 118.86 237.8C119.31 232.22 121.1 226.65 120.25 221.11C119.7 217.48 118.05 214.13 116.62 210.75C107 188.06 106.71 161.58 115.82 138.68C117.2 135.21 120.66 131.16 123.85 133.1C125.57 134.15 125.97 136.44 126.2 138.45C127.83 152.9 129.47 167.36 131.1 181.81C131.86 188.52 132.64 195.32 135.05 201.62C136.72 205.97 139.16 210.06 140.08 214.63C140.86 218.5 140.55 222.65 142.24 226.21C145.16 232.37 154.38 234.33 159.56 229.88C149.34 221.17 151.76 205.15 148.67 192.09C146.94 184.79 143.24 177.86 143.09 170.36C142.91 161.37 147.87 152.93 147.98 143.94C148.04 139.15 146.72 134.44 146.48 129.65C146.25 124.86 147.39 119.57 151.22 116.68C154.17 114.46 158.14 114.08 161.28 112.15C164.42 110.22 166.21 105.06 163.11 103.07C161.34 101.93 159.03 102.52 157.01 103.08C141.49 107.39 124.93 107.86 109.19 104.44C102.81 103.05 96.14 100.75 92.21 95.54C88.28 90.33 88.7 81.48 94.5 78.48C95.06 82.93 101.29 83.51 105.69 82.6C110.09 81.69 116.05 81.3 117.64 85.49C118.18 86.91 118.02 88.61 118.92 89.83C121.11 92.81 125.68 89.71 127.81 86.69C131.6 81.32 135.32 75.55 136.05 69.02C136.78 62.49 133.57 55.05 127.3 53.08C125.13 57.49 122.01 61.93 117.29 63.32C112.58 64.72 106.42 61.25 106.92 56.36C107.56 50.05 116.67 49 120.52 43.97C124.31 39.02 121.66 31.34 116.63 27.64C111.61 23.94 105.08 23.17 98.88 22.52C102.48 26.85 102.3 33.42 99.74 38.43C97.19 43.44 92.69 47.17 88.05 50.36C84.94 52.5 80.55 54.42 77.69 51.95C74.85 49.5 76.08 44.88 77.79 41.54C79.5 38.2 81.49 34.15 79.53 30.94C78.68 29.54 77.22 28.64 76.01 27.54C69.32 21.47 70.82 10.85 69.19 1.97C69.08 1.37 68.93 0.73 68.47 0.32C67.57 -0.49 66.12 0.11 65.22 0.92C60.32 5.34 61.84 13.14 61.33 19.71C60.73 27.46 56.53 34.86 50.19 39.36C55.11 40.13 60.36 41.73 63.16 45.85C65.96 49.96 64.4 57.02 59.49 57.85" fill="black"/>
</g>
<defs>
<clipPath id="clip0_1189_968">
<rect width="164.73" height="272.55" fill="white"/>
</clipPath>
</defs>
</svg>
