<svg width="233" height="128" viewBox="0 0 233 128" fill="none" xmlns="http://www.w3.org/2000/svg">
<g clip-path="url(#clip0_1243_733)">
<path d="M50.66 67.95C49.85 67.64 49.01 67.59 48.17 67.74C47.97 67.84 47.77 67.94 47.59 68.08L50.66 67.95Z" fill="black"/>
<path d="M232.11 36.4C231.47 35.07 229.82 34.65 228.37 34.44C224.04 33.82 218.86 34.12 216.36 37.71C215.22 39.34 214.85 41.41 213.81 43.1C211.62 46.65 207.09 47.82 203.01 48.69C194.28 50.54 185.26 52.4 176.51 50.63C174.39 50.2 172.27 49.54 170.52 48.27C169.03 47.19 167.88 45.7 166.41 44.59C166.3 44.5 166.18 44.42 166.06 44.34C165.35 43.87 164.89 43.12 164.84 42.27C164.65 39.01 164.27 35.77 163.64 32.54C163.52 31.93 163.37 31.28 162.92 30.86C162.39 30.36 161.6 30.29 160.87 30.26C155.98 30.02 150.26 30.28 147.38 34.25C145.99 36.16 145.57 38.59 144.53 40.7C142.62 44.59 138.72 47.22 134.6 48.55C130.47 49.88 126.08 50.09 121.75 50.28C112.4 50.7 103.04 51.11 93.69 51.53C91.83 51.61 89.97 50.98 88.65 49.66C85.39 46.4 88.3 42.34 88.52 38.47C88.64 36.32 87.91 34.23 87.09 32.24C85.91 29.37 84.46 26.5 81.75 24.78C80.57 24.04 79.2 23.6 77.81 23.67C73.41 23.88 71.44 28.42 71.16 32.41C70.83 37.07 71.95 41.94 68.7 46.07C65.45 50.2 60.06 51.51 55.47 49.38C50.11 46.89 47.71 40.52 47.28 34.63C47.05 31.4 47.32 27.96 49.15 25.29C50.31 23.61 52.04 22.31 52.84 20.43C53.34 19.26 53.43 17.95 53.47 16.67C53.61 11.81 53.06 6.93002 51.85 2.23002C51.61 1.28002 51.27 0.250016 50.09 0.0200162C49.24 -0.139984 48.4 0.290016 47.88 0.970016C46.73 2.47002 46.99 4.34002 46.67 6.07002C45.79 10.71 41.08 13.41 37.01 15.79C31.44 19.05 26.19 22.86 21.36 27.13C17.89 30.2 14.42 33.96 14.19 38.59L23.03 34.38C24.15 37.18 22.54 40.33 20.58 42.63C18.62 44.93 16.19 47 15.26 49.87C14.22 53.1 15.3 56.71 14.29 59.95C13.71 61.82 12.47 63.41 11.53 65.13C6.53 74.33 10.41 86.48 5.28 95.6C3.24 99.24 -0.220004 102.51 0.00999642 106.65C7.33 105.8 14.06 100.98 17.22 94.33C19.29 89.99 19.87 85.1 21.32 80.52C22.78 75.93 25.49 71.3 30.01 69.63C28.91 75.47 27.81 81.32 26.71 87.16C32.29 85.48 37.19 81.64 40.14 76.61C41.41 74.46 42.35 72.08 44 70.21C45.08 68.99 46.6 68.02 48.18 67.74C50.32 66.72 53.23 68.1 54.32 70.31C55.51 72.73 55.05 75.63 54.19 78.19C51.26 86.87 44.14 93.69 41.44 102.45C39.57 108.51 39.35 116.09 33.9 119.33C31.1 120.99 27.33 121.12 25.24 123.61C24.61 124.36 24.16 125.37 25.07 126.41C25.57 126.98 26.28 127.32 27.03 127.44C35.1 128.68 45.3 127.38 49.03 119.98C50.62 116.82 50.69 113.12 51.69 109.72C54.7 99.51 65.71 93.11 67.66 82.39C67.92 80.95 68.93 79.71 70.36 79.38C72.46 78.9 73.51 80.72 74.03 82.37C76.97 91.63 72.42 102.47 76.89 111.1C77.99 113.23 79.63 115.17 79.98 117.54C80.5 121.01 78.16 124.2 75.95 126.93C80.77 128.37 85.91 126.6 90.63 124.84C91.85 124.39 93.11 123.9 94 122.96C95.59 121.27 95.54 118.55 94.67 116.4C93.8 114.25 92.26 112.44 91.09 110.44C87.35 104.08 87.41 96.27 87.58 88.9C87.64 86.48 87.8 83.79 89.53 82.09C90.57 81.07 92.01 80.59 93.4 80.19C102.73 77.49 112.63 76.8 122.24 78.16C123.56 78.35 124.96 78.61 125.93 79.52C127.66 81.14 127.3 83.94 126.74 86.24C124.81 94.15 122.11 101.87 118.71 109.26C117.88 111.06 116.98 112.88 115.53 114.22C111.98 117.5 105.3 118.02 104.43 122.78C109.26 125.09 114.93 124.26 120.22 123.38C122.6 122.98 125.07 122.55 127.03 121.15C128.87 119.84 130.07 117.82 130.98 115.76C133.36 110.38 134.11 104.44 135.77 98.79C137.43 93.14 140.34 87.43 145.5 84.61C144.94 91.17 146.83 97.91 150.7 103.23C152.22 105.32 154.11 107.38 154.34 109.95C154.75 114.62 149.74 117.7 145.47 119.61C147.66 122.64 151.54 124.36 155.26 123.94C158.98 123.52 162.38 120.97 163.83 117.53C165.71 113.08 164.38 108.01 163.54 103.25C162.27 95.98 162.25 88.63 162.68 81.24C163.67 79.21 165.8 77.54 167.87 76.41C172.7 73.76 178.1 72.15 183.6 71.73C185.47 71.59 187.37 72.15 188.76 73.41C192.43 76.72 189.96 81.55 188.22 85.55C185.82 91.09 184.93 97.16 183.18 102.95C181.43 108.74 178.56 114.56 173.45 117.78C171.48 119.03 169.02 120.08 168.34 122.32C171.87 123.35 175.58 123.97 179.23 123.49C182.88 123.01 186.46 121.34 188.72 118.43C190.51 116.12 191.35 113.23 192.14 110.42C193.62 105.19 195.11 99.97 196.59 94.74C197.9 90.12 199.28 85.36 203.62 82.32C205.06 81.32 206.82 80.83 208.56 81.02C208.76 81.04 208.96 81.09 209.13 81.21C209.57 81.53 209.57 82.17 209.51 82.71C208.77 89.73 205.33 97 208.04 103.51C208.91 105.59 210.35 107.39 211.25 109.47C212.14 111.54 212.38 114.16 210.93 115.89C210.32 116.62 209.48 117.11 208.79 117.75C206.94 119.46 206.26 122.33 207.14 124.69C210.96 122.71 214.79 120.72 218.61 118.74C220.19 117.92 221.62 116.81 222.7 115.4C227.02 109.76 222.74 104.97 220.43 100.09C216.08 90.9 218.87 79.46 225.32 71.6C226.57 70.08 227.96 68.64 228.91 66.92C230.49 64.08 230.75 60.72 230.98 57.48C231.43 51.26 231.87 45.04 232.32 38.83C232.38 38.02 232.43 37.16 232.08 36.43L232.11 36.4Z" fill="black"/>
</g>
<defs>
<clipPath id="clip0_1243_733">
<rect width="232.4" height="127.84" fill="white"/>
</clipPath>
</defs>
</svg>
