<svg width="127" height="182" viewBox="0 0 127 182" fill="none" xmlns="http://www.w3.org/2000/svg">
<g clip-path="url(#clip0_1179_874)">
<path d="M15.5256 35.5403C9.08353 39.1859 6.77468 47.3044 6.517 54.6468C6.25931 61.9892 7.44466 69.5052 5.48626 76.5923C3.40417 84.1593 -2.16181 91.8489 0.899482 99.0789C2.66204 103.245 6.99114 106.003 8.49601 110.271C10.1143 114.887 8.02187 119.86 6.46546 124.507C4.90905 129.153 4.10507 134.882 7.56835 138.374C8.86708 139.682 10.5987 140.468 12.0727 141.591C16.8656 145.227 18.2571 152.048 16.8656 157.869C15.4741 163.69 11.8047 168.694 7.96003 173.289C6.94991 174.494 5.87794 175.801 5.77487 177.353C5.60995 179.998 8.4857 182.02 11.1553 182C13.8249 181.979 16.2471 180.54 18.5148 179.151C23.7303 175.954 29.0901 172.625 32.6359 167.673C35.2849 163.966 36.8619 159.421 40.2942 156.409C43.7266 153.396 50.2099 153.029 52.0756 157.175C54.3123 162.148 48.3031 169.306 52.5703 172.727C54.941 174.627 58.7547 173.075 60.2493 170.45C61.7439 167.826 61.579 164.619 61.3728 161.607C61.1357 158.124 60.8987 154.652 60.6616 151.17C60.4967 148.709 60.4348 145.942 62.1252 144.134C63.9909 142.143 67.2789 142.214 69.763 143.368C72.2471 144.512 74.2158 146.493 76.4422 148.076C79.2046 150.036 82.6781 151.425 85.9868 150.649C89.2955 149.873 91.996 146.258 90.8003 143.103C89.1099 138.64 81.7917 138.385 80.2868 133.861C79.153 130.46 82.4411 126.927 85.9868 126.232C89.5325 125.538 93.1298 126.763 96.6137 127.703C101.994 129.153 107.55 129.96 113.116 130.103C115.383 130.164 117.754 130.082 119.743 129.01C121.733 127.938 123.176 125.558 122.475 123.424C121.465 120.35 117.362 119.962 114.126 119.564C104.396 118.369 96.0777 112.303 88.2544 106.442C87.2443 105.686 86.1517 104.808 85.925 103.562C85.4302 100.876 88.9965 99.4466 91.7383 99.1504C98.4793 98.4152 105.272 98.1599 112.044 98.3947C116.857 98.5581 122.547 98.5888 125.361 94.7184C126.618 92.9926 127.01 90.7766 127 88.6423C126.979 83.6487 124.341 78.1751 119.475 76.8476C114.868 75.5915 110.261 78.3385 105.921 80.3196C100.18 82.9339 93.8719 84.3023 87.5535 84.3125C84.9664 84.3125 82.2555 84.0572 80.0498 82.7194C76.3391 80.4626 74.9682 75.7242 75.0404 71.4148C75.1125 67.1054 76.2773 62.8674 76.2773 58.558C76.2773 56.6688 76.0093 54.6774 74.8342 53.1967C73.2675 51.2258 70.5567 50.6642 68.0932 50.1127C59.2598 48.152 49.272 42.7703 49.138 33.8042C49.0658 28.9944 51.9313 23.7251 49.2926 19.6914C47.3548 16.7197 43.3143 15.9844 40.5416 13.748C37.9339 11.6443 36.6557 8.38674 34.9344 5.5274C33.2028 2.66806 30.4713 -0.0993779 27.1111 0.00274146C22.411 0.15592 19.8857 5.66015 19.628 10.3066C19.3394 15.627 20.5659 20.9781 19.9784 26.278C19.3909 31.578 16.2265 37.2457 10.9286 38.1852" fill="black"/>
</g>
<defs>
<clipPath id="clip0_1179_874">
<rect width="127" height="182" fill="white"/>
</clipPath>
</defs>
</svg>
