<svg width="191" height="278" viewBox="0 0 191 278" fill="none" xmlns="http://www.w3.org/2000/svg">
<g clip-path="url(#clip0_1243_737)">
<path d="M160.862 84.8298C159.701 93.0666 158.531 101.312 157.361 109.549C156.887 112.88 156.369 116.371 155.083 119.021C153.77 121.698 151.867 123.113 150.045 124.42C142.167 130.078 134.28 135.728 126.401 141.386C122.489 144.197 118.434 147.053 114.343 146.811C106.643 146.364 100.498 133.069 101.605 119.263C102.266 111.053 105.035 103.559 106.161 95.4481C107.545 85.5013 106.375 75.4023 106.545 65.3301C106.714 55.249 108.894 43.628 114.155 39.2411C103.168 37.7459 94.37 19.8488 94.8613 0C91.6813 17.5479 86.7864 34.3258 80.4713 49.2863C87.7065 46.7705 94.3878 56.6636 96.3708 68.8576C98.72 83.3257 95.8795 99.835 92.5835 114.061C91.9404 116.855 91.0918 119.505 90.0467 121.904C88.1084 118.618 85.7503 115.422 85.1965 111.948C84.5087 107.642 87.1437 103.64 91.333 102.619C84.2675 100.507 75.6568 96.8984 74.1204 90.2195C73.6827 95.9315 71.3067 101.178 67.3943 105.055C70.9941 103.989 75.9158 106.326 77.8005 109.925C77.9077 110.131 77.9792 110.346 78.0238 110.57C78.4526 112.566 80.7392 123.283 81.7486 131.556C77.4789 132.719 73.5398 128.646 70.0204 124.724C67.2425 121.627 64.4645 118.538 61.6955 115.44C55.2285 108.242 48.3596 100.13 46.0461 86.9964C44.34 77.3272 45.5459 65.8136 49.1724 57.1829C43.0359 66.5298 32.7905 63.9066 29.2712 52.0886C31.7454 66.2523 31.5668 82.1886 28.762 96.9074C30.5038 90.6761 35.8632 91.2491 38.4357 95.8241C41.0082 100.399 41.9283 107.203 43.8577 112.718C47.0108 121.698 52.6381 126.694 58.1137 130.947C64.9647 136.265 72.2714 141.377 75.755 154.099C76.0676 155.245 76.3088 156.454 76.5143 157.68C75.8979 158.468 75.2369 159.211 74.5045 159.91C67.1442 167.009 55.2464 168.567 46.0193 173.599C39.7309 177.028 34.7556 182.042 28.6816 185.748C26.6361 186.993 24.3763 188.112 21.7591 188.183C16.1585 188.327 10.8616 183.841 6.44013 179.723C10.3614 184.96 9.25382 192.266 4.15346 194.818C2.14368 195.82 -0.723596 196.975 0.151772 199.267C6.39547 196.349 15.7119 198.73 21.0802 204.621C20.3656 197.888 26.5111 193.609 32.0938 190.386C41.1869 185.13 50.3783 179.839 60.847 176.777C64.5985 175.676 69.3773 175.058 72.5572 179.033C72.7627 179.293 72.9413 179.571 73.111 179.848C68.4484 187.369 61.1328 187.44 55.0141 191.039C49.9138 194.039 45.26 200.073 42.0176 207.889C39.0878 214.935 37.1584 223.566 33.2014 228.741C29.0747 234.139 23.1704 234.256 19.4545 229.018C21.6787 241.749 23.2776 258.303 17.1679 267.391C23.5009 262.252 30.5485 260.488 37.1227 262.413C33.7284 258.097 33.1031 248.357 35.7292 241.884C35.8811 241.508 36.0687 241.185 36.2652 240.89C38.4893 237.658 52.5399 217.379 60.9363 208.498C64.0358 205.221 67.314 202.392 70.6814 200.198C70.6457 200.395 70.6011 200.592 70.5653 200.789C69.5202 206.895 71.2888 213.574 71.4586 219.958C71.6283 226.341 69.547 233.172 63.4463 235.097C67.8678 237.801 72.4054 240.594 75.7729 244.462C79.1404 248.321 81.1323 253.549 79.453 257.507C82.9813 249.798 87.0723 241.552 95.5044 238.607C92.119 235.491 88.7247 232.375 85.3394 229.26C83.9638 227.997 82.5436 226.663 81.8737 225.043C81.1948 223.405 81.3913 221.721 81.6057 220.128C82.5078 213.225 83.41 206.322 84.3122 199.419C84.4908 198.032 84.6873 196.635 84.9732 195.274C86.9115 195.256 88.8409 195.516 90.7345 196.116C102.891 199.939 112.038 216.188 123.186 224.909C130.778 230.844 139.228 233.217 146.981 238.562C149.59 240.362 152.198 242.609 153.922 246.467C157.602 254.704 156.191 267.203 154.619 278C157.7 266.809 166.132 261.052 172.054 266.11C174.377 268.098 177.414 271.232 179.29 267.597C172.26 261.204 168.919 244.829 171.778 230.809C165.096 238.705 156.691 233.844 149.759 228.749C139.049 220.889 128.259 212.929 118.782 201.407C122.203 203.672 126.044 205.382 129.545 207.585C134.262 210.548 138.799 215.302 138.487 220.092C144.203 213.126 156.727 212.267 165.945 218.212C159.049 211.112 153.297 203.063 149.054 194.585C146.955 200.162 139.201 201.864 132.502 199.742C124.543 197.226 117.987 190.645 112.726 184.396C112.351 183.949 112.002 183.483 111.672 183.009C111.77 181.925 111.958 180.806 112.253 179.642C112.94 176.912 114.146 174.637 115.513 172.865C121.765 164.78 129.563 165.111 136.566 160.572C136.772 160.438 136.968 160.286 137.174 160.151C140.309 159.713 143.525 159.775 146.812 160.742C152.189 162.327 157.12 166.401 159.567 171.28C157.915 164.512 163.837 158.352 171.063 159.328C163.328 157.027 155.958 152.497 150.268 146.588C152.251 144.206 154.243 141.86 156.307 139.774C162.961 133.042 171.51 129.237 177.387 136.417C177.467 127.043 177.566 117.41 179.54 108.448C181.514 99.4859 185.792 91.1954 191.036 89.7002C180.647 92.2429 169.33 94.4722 160.898 84.8208L160.862 84.8298ZM146.044 153.114C145.579 153.177 145.106 153.195 144.623 153.195C146.49 151.109 148.321 148.871 150.17 146.659C151.867 149.506 149.259 152.694 146.044 153.114Z" fill="black"/>
</g>
<defs>
<clipPath id="clip0_1243_737">
<rect width="191" height="278" fill="white"/>
</clipPath>
</defs>
</svg>
