<svg width="128" height="189" viewBox="0 0 128 189" fill="none" xmlns="http://www.w3.org/2000/svg">
<path d="M45.8315 95.8165C42.8333 98.3265 39.0291 94.7803 35.4132 93.8899C31.8124 92.9995 27.9856 95.0182 25.6955 97.9887C23.4054 100.959 22.3809 104.72 21.5975 108.405C20.8291 112.012 20.3319 116.126 23.1719 118.897C24.6861 120.371 27.0665 120.655 28.7087 119.327C32.0082 116.671 27.413 112.074 34.3962 110.124C36.2343 109.61 38.2682 110.017 39.6317 111.375C42.4341 114.177 42.0875 119.197 39.6167 122.298C38.3134 123.94 36.5432 125.153 35.3228 126.857C32.3322 131.033 34.6147 138.378 39.6694 138.87C44.0913 139.3 48.0989 134.84 52.7544 137.626C54.5624 138.708 55.8354 140.558 56.2648 142.646C57.2592 147.467 54.0953 151.926 50.0124 154.014C46.7957 155.657 43.0216 156.063 40.2344 158.558C39.1722 159.51 38.4114 160.792 38.1477 162.212C37.5827 165.274 39.4434 166.802 41.387 167.8C46.6074 170.478 53.1687 169.949 58.1481 166.832C63.5945 163.417 67.105 157.138 67.6624 150.66C67.7604 149.562 68.2651 148.518 69.1163 147.835C71.2858 146.1 73.5307 148.342 73.8923 150.552C74.1936 152.387 73.6738 154.26 73.6814 156.125C73.6964 160.047 76.1221 163.67 79.3011 165.888C82.4725 168.107 86.3144 169.112 90.1261 169.695C93.4784 170.21 97.2073 170.348 99.7836 167.83C101.396 166.257 101.938 163.747 100.725 161.835C99.6028 160.062 97.599 159.917 95.776 159.563C90.435 158.535 85.5686 155.165 82.6608 150.483C81.8548 149.178 81.1768 147.689 81.335 146.162C81.335 146.162 81.335 146.146 81.335 146.139C81.4631 145.018 82.3896 144.174 83.4819 144.005C88.8304 143.153 93.6366 139.123 95.3466 133.865C95.6554 132.921 95.8362 131.777 95.2035 131.01C94.6912 130.388 93.8324 130.25 93.064 130.058C89.6591 129.198 86.7061 126.266 86.2692 122.712C85.8323 119.166 88.3031 115.344 91.7684 114.799C95.2411 114.254 98.8871 117.608 98.3297 121.139C99.5124 123.557 103.332 123.204 105.027 121.131C106.722 119.059 106.887 116.142 106.978 113.44C107.015 112.197 107.053 110.915 106.661 109.733C105.094 105.043 98.2393 104.736 94.0208 105.242C91.9266 105.496 89.7871 105.219 87.8813 104.306C81.3425 101.166 83.7456 93.8438 87.934 90.2976C91.2561 87.4883 95.5123 86.0146 98.8419 83.2129C103.851 78.999 106.277 72.0754 106.187 65.5434C106.164 63.5554 104.996 61.6978 103.151 61.0608C99.5124 59.8096 97.3353 64.1157 97.3353 67.5621C97.3353 71.1697 98.3674 75.1381 95.6102 77.9244C93.4482 80.1043 90.0809 80.3269 87.4293 78.8071C82.3444 75.8903 81.2069 69.9646 80.7776 64.5225C80.4084 59.871 80.3934 55.1888 80.7776 50.5373C81.0864 46.6764 81.7644 42.662 84.1449 39.6531C86.578 36.5828 91.3088 35.0784 94.4351 37.4118C93.1996 41.764 96.5142 46.8376 100.936 47.3442C102.857 42.1247 104.808 36.698 104.334 31.1484C103.859 25.5989 100.19 19.9111 94.7816 19.1052C92.2128 18.7214 89.6214 19.4583 87.128 20.1798C80.6043 22.0757 73.0863 24.9464 71.2557 31.609C70.6681 33.7428 70.751 36.1069 69.621 38.0028C67.1954 42.071 61.2894 41.3571 56.7771 40.1137C55.8354 34.9172 54.8863 29.7131 53.9446 24.5166C53.809 23.7567 53.6508 22.9584 53.1838 22.3443C52.5359 21.5 51.4361 21.193 50.4116 20.932C42.4943 18.9517 33.1683 17.286 27.0665 22.7512C24.2642 25.2611 22.6747 28.9608 22.0721 32.7143C21.2208 38.0335 23.1493 44.7038 28.4601 45.7937C29.3717 45.9779 30.3359 45.9472 31.1871 45.5788C36.2418 43.4296 32.6184 34.2264 37.9971 31.7548C39.9557 30.8567 42.2307 31.4401 43.7975 32.9292C46.9464 35.915 47.0217 40.2749 47.0142 44.3277C47.0066 48.3421 46.9991 52.3565 46.9916 56.3786C46.984 61.8053 46.8334 67.7003 42.3135 71.4614C40.2495 73.1731 37.3718 73.649 35.0139 72.4055C29.9065 69.7036 32.5431 62.8569 28.6409 59.3874C27.7144 58.5585 26.4413 58.167 25.2586 58.5201C23.2924 59.1111 22.7953 61.1989 22.4563 63.0411C21.6954 67.1937 20.9647 71.6763 22.7501 75.4988C26.027 82.5144 35.5262 83.3588 42.9915 82.8522C43.5866 82.8138 44.1817 82.8138 44.7618 82.9289C49.7186 83.9421 48.2496 90.0597 47.3381 93.3296C47.0744 94.289 46.5773 95.1871 45.824 95.8165H45.8315Z" fill="black"/>
</svg>
