<svg width="107" height="201" viewBox="0 0 107 201" fill="none" xmlns="http://www.w3.org/2000/svg">
<g clip-path="url(#clip0_1243_743)">
<path d="M88.0905 3.84724L88.4141 2.87775C88.1059 2.93161 87.9595 3.73183 88.1598 4.20118C89.0537 3.92419 89.9706 3.65488 90.8799 4.06268C91.7891 4.47049 92.6907 5.73236 92.8987 7.44821C90.5871 8.67931 88.0519 8.08684 85.5938 7.53284C78.7744 6.01705 71.3462 5.24762 66.037 12.4957C65.2587 13.5652 64.519 14.9964 64.049 16.6199C63.9719 15.1964 63.6329 13.8653 62.9933 12.942C62.2073 11.8109 61.1902 11.6032 60.2347 11.4339C55.1336 10.5567 50.0325 9.80268 44.9391 9.17175C43.8526 9.04094 42.689 8.94091 41.7875 9.95657C43.6214 12.5804 46.0102 13.0189 48.2063 12.8112C50.4024 12.5957 52.5907 11.8494 54.8023 12.5111C57.0138 13.1805 59.3331 15.6966 60.0806 19.7438C51.5351 19.9054 42.9587 20.0747 34.6136 22.4907C32.1786 23.1909 29.759 24.0911 27.5013 25.7608C27.2547 25.9455 27.0081 26.1378 26.8309 26.5072C26.4919 27.2227 26.5458 28.3769 26.7461 29.331C27.6631 33.6244 30.6452 34.5324 33.0262 34.5478C40.8551 34.6016 48.8458 33.1474 56.4667 37.9025C57.2064 38.3642 58.0232 39.0413 58.4008 40.2955C58.3314 40.5879 58.2775 40.8956 58.2389 41.2188C57.2218 42.8192 55.8117 43.3732 54.4632 43.8041C43.4057 47.3281 31.9012 47.0665 20.913 51.1291C18.6321 51.9678 16.2742 53.1066 14.6638 56.1074C16.0739 58.2003 17.9232 58.5388 19.6493 58.6619C31.8318 59.516 44.0992 54.153 56.0274 60.8087C56.7672 61.2241 57.584 61.8089 57.9384 63.1247C58.0001 63.3401 58.0386 63.5709 58.0617 63.7941C57.8999 64.2711 57.7843 64.8097 57.7458 65.4022C57.7304 65.6946 57.7304 65.987 57.7458 66.2717C57.6071 66.6487 57.4222 66.9872 57.2218 67.2334C56.536 68.0798 55.6576 68.226 54.8177 68.3568C44.3457 69.9265 33.8738 71.4961 23.3942 73.0658C22.1613 73.2504 20.6048 74.0584 20.6125 76.4205C20.6202 78.7211 22.1228 79.9984 23.3326 80.4755C28.688 82.5914 34.1127 82.1067 39.5066 82.2836C44.9006 82.4606 50.4794 83.3993 55.4726 88.039C48.214 97.3107 38.397 96.7183 29.2967 94.5485C26.9696 93.9945 24.4422 93.4328 22.5466 95.6872C22.3231 95.9565 22.0997 96.2797 22.0226 96.7644C21.9456 97.2492 22.0226 97.7955 22.1228 98.2956C22.9319 102.566 24.9816 106.075 27.2932 107.167C28.819 107.883 30.414 107.513 31.7548 106.267C32.3558 106.336 32.9646 106.329 33.5502 106.267C35.7463 106.052 37.9347 105.305 40.1462 105.967C42.3577 106.636 44.6771 109.152 45.4245 113.2C36.879 113.361 28.3027 113.53 19.9575 115.946C17.5225 116.647 15.103 117.547 12.8452 119.217C12.5987 119.401 12.3521 119.594 12.1749 119.963C11.8358 120.679 11.8897 121.833 12.0901 122.787C13.0148 127.08 15.9891 127.988 18.3702 128.004C26.1991 128.057 34.1898 126.603 41.8106 131.358C42.5503 131.82 43.3671 132.497 43.7447 133.751C43.6754 134.044 43.6214 134.351 43.5829 134.675C42.5658 136.275 41.1556 136.829 39.8071 137.26C28.7496 140.784 17.2451 140.522 6.25695 144.585C3.97609 145.424 1.61818 146.562 0.00770569 149.563C1.41783 151.656 3.26718 151.995 4.99323 152.118C17.1758 152.972 29.4431 147.609 41.3714 154.264C42.1111 154.68 42.9279 155.272 43.2824 156.58C43.344 156.796 43.3825 157.027 43.4057 157.25C43.2438 157.727 43.1206 158.266 43.0897 158.85C43.0743 159.143 43.0743 159.435 43.0897 159.72C42.951 160.097 42.7661 160.435 42.5658 160.682C41.88 161.528 41.0015 161.674 40.1616 161.805C29.6897 163.375 19.2178 164.944 8.73815 166.514C7.50526 166.699 5.94873 167.506 5.95643 169.869C5.96414 172.169 7.46673 173.446 8.67651 173.924C14.0319 176.04 19.4566 175.555 24.8506 175.732C30.2445 175.909 35.8234 176.847 40.8166 181.487C33.5579 190.759 23.741 190.166 14.6406 187.997C12.3136 187.443 9.78612 186.881 7.89054 189.135C7.66707 189.397 7.44361 189.728 7.36656 190.213C7.2895 190.697 7.36656 191.244 7.45902 191.744C8.26811 196.014 10.3178 199.523 12.6295 200.615C14.9412 201.7 17.4301 200.331 18.9096 197.137L18.5859 198.107C18.8941 198.053 19.0405 197.253 18.8402 196.784C17.9464 197.061 17.0294 197.33 16.1201 196.922C15.2109 196.514 14.3093 195.252 14.1013 193.536C16.4129 192.305 18.9481 192.898 21.4062 193.452C28.2256 194.968 35.6538 195.737 40.963 188.489C41.7413 187.419 42.481 185.988 42.951 184.365C43.0281 185.788 43.3671 187.119 44.0067 188.043C44.7927 189.174 45.8098 189.382 46.7653 189.551C51.8664 190.428 56.9675 191.182 62.0609 191.813C63.1474 191.944 64.311 192.044 65.2125 191.028C63.3786 188.404 60.9899 187.966 58.7938 188.174C56.5977 188.389 54.4093 189.135 52.1978 188.474C49.9862 187.804 47.6669 185.288 46.9194 181.241C55.4649 181.079 64.0413 180.91 72.3864 178.494C74.8214 177.794 77.241 176.894 79.4987 175.224C79.7453 175.039 79.9919 174.847 80.1691 174.478C80.5081 173.762 80.4542 172.608 80.2539 171.654C79.3292 167.36 76.3548 166.452 73.9738 166.437C66.1449 166.383 58.1542 167.837 50.5333 163.082C49.7936 162.621 48.9768 161.943 48.5992 160.689C48.6686 160.397 48.7225 160.089 48.7611 159.766C49.7782 158.165 51.1883 157.611 52.5368 157.181C63.5943 153.657 75.0988 153.918 86.087 149.856C88.3679 149.009 90.7258 147.878 92.3362 144.877C90.9261 142.784 89.0768 142.446 87.3507 142.323C75.1682 141.469 62.9008 146.832 50.9726 140.176C50.2328 139.761 49.416 139.168 49.0616 137.86C48.9999 137.645 48.9614 137.414 48.9383 137.191C49.1001 136.714 49.2157 136.175 49.2542 135.583C49.2696 135.29 49.2696 134.998 49.2542 134.713C49.3929 134.328 49.5778 133.997 49.7782 133.751C50.464 132.905 51.3424 132.759 52.1823 132.628C62.6543 131.058 73.1262 129.489 83.6058 127.919C84.8387 127.734 86.3952 126.926 86.3875 124.564C86.3798 122.264 84.8772 120.986 83.6674 120.509C78.312 118.393 72.8873 118.878 67.4934 118.701C62.0995 118.524 56.5206 117.585 51.5274 112.946C58.786 103.674 68.603 104.266 77.7033 106.436C80.0304 106.99 82.5578 107.552 84.4534 105.297C84.6769 105.028 84.9003 104.705 84.9774 104.22C85.0544 103.736 84.9774 103.189 84.8849 102.689C84.0758 98.4187 82.0261 94.9101 79.7145 93.8175C78.1888 93.1019 76.5937 93.4712 75.2529 94.7177C74.6519 94.6485 74.0431 94.6562 73.4575 94.7177C71.2614 94.9332 69.073 95.6795 66.8615 95.0178C64.65 94.3484 62.3306 91.8323 61.5832 87.7851C70.1287 87.6235 78.705 87.4542 87.0502 85.0382C89.4852 84.338 91.9047 83.4378 94.1625 81.7681C94.409 81.5911 94.6556 81.3911 94.8329 81.0218C95.1719 80.3062 95.118 79.152 94.9176 78.1979C93.9929 73.9045 91.0186 72.9965 88.6376 72.9811C80.8087 72.9273 72.8179 74.3815 65.1971 69.6264C64.4574 69.1647 63.6406 68.4876 63.263 67.2334C63.3324 66.9411 63.3863 66.6333 63.4248 66.3101C64.442 64.7097 65.8521 64.1557 67.2006 63.7248C78.2581 60.2008 89.7626 60.4624 100.751 56.3998C103.032 55.5611 105.39 54.4223 107 51.4215C105.59 49.3287 103.741 48.9901 102.014 48.867C89.8319 48.0129 77.5646 53.3759 65.6363 46.7203C64.8966 46.3048 64.0798 45.72 63.7253 44.4043C63.6637 44.1888 63.6252 43.958 63.602 43.7348C63.7639 43.2578 63.8794 42.7192 63.918 42.1267C63.9334 41.8343 63.9334 41.542 63.918 41.2573C64.0567 40.8725 64.2416 40.5417 64.442 40.2955C65.1278 39.4491 66.0062 39.3029 66.8461 39.1721C77.318 37.6024 87.7899 36.0328 98.2696 34.4631C99.5025 34.2785 101.059 33.4706 101.051 31.1161C101.044 28.8155 99.541 27.5382 98.3312 27.0612C92.9758 24.9452 87.5511 25.4299 82.1571 25.253C76.7632 25.076 71.1844 24.1373 66.1911 19.4976C73.4498 10.2259 83.2667 10.8183 92.3671 12.9882C94.6942 13.5421 97.2216 14.1038 99.1172 11.8494C99.3406 11.5801 99.5641 11.2569 99.6412 10.7722C99.7182 10.2874 99.6412 9.74113 99.5487 9.24099C98.7396 4.97062 96.6899 1.46199 94.3782 0.369388C92.0665 -0.715518 89.5776 0.661774 88.0982 3.84724H88.0905ZM52.5522 168.299C58.2467 168.707 63.9411 169.122 69.6432 169.53C71.7315 169.684 73.8505 169.838 75.9002 170.907C74.8214 172.908 73.1339 173.208 71.5773 173.408C64.3187 174.316 57.0446 175.078 49.7628 175.693C47.7979 175.863 45.6942 176.109 44.2148 178.363C43.9065 178.84 43.6445 179.433 43.4442 180.102C43.4057 179.571 43.3363 179.04 43.213 178.509C42.4656 175.247 40.4005 173.847 38.582 173.231C31.7702 170.915 24.8814 173.739 18.0928 171C24.4422 168.738 30.938 167.553 37.4878 167.468C40.2464 167.43 43.1976 167.468 45.5941 165.514C47.6129 167.737 50.2097 168.13 52.5522 168.299ZM46.9271 143.438C49.3082 145.401 51.8972 145.762 54.4247 145.978C63.0704 146.716 71.6698 146.116 80.223 144.993C80.7393 146.07 79.7684 147.209 79.0364 147.278C70.1287 148.14 61.2518 149.44 52.4212 151.187C50.6258 151.541 48.7842 151.948 47.0966 152.972C46.5804 152.179 45.9947 151.518 45.4168 151.033C43.0358 149.071 40.4467 148.709 37.9193 148.494C29.2736 147.755 20.6741 148.355 12.1209 149.479C11.6046 148.401 12.5755 147.263 13.3076 147.193C22.2153 146.332 31.0921 145.024 39.9227 143.285C41.7181 142.931 43.5598 142.523 45.2473 141.499C45.7636 142.292 46.3492 142.954 46.9271 143.438ZM49.1309 115.946C49.8784 119.209 51.9435 120.609 53.762 121.225C60.5737 123.541 67.4626 120.717 74.2512 123.456C67.9018 125.718 61.406 126.903 54.8562 126.988C52.0976 127.026 49.1463 126.988 46.7499 128.942C44.731 126.719 42.1342 126.326 39.7917 126.157C34.0973 125.749 28.4029 125.334 22.7007 124.926C20.6125 124.772 18.4934 124.618 16.4438 123.541C17.5225 121.54 19.2101 121.24 20.7666 121.04C28.0253 120.132 35.2994 119.37 42.5812 118.755C44.5461 118.586 46.6497 118.339 48.1292 116.085C48.4374 115.616 48.6994 115.015 48.8998 114.346C48.9383 114.877 49.0076 115.408 49.1309 115.939V115.946ZM58.6628 94.5946C59.4487 95.7257 60.4659 95.9334 61.4214 96.1027C66.5225 96.9799 71.6236 97.7339 76.717 98.3649C76.9019 98.3879 77.0791 98.4033 77.2641 98.4187C77.7341 99.0343 78.104 99.8883 78.235 100.912C75.9233 102.143 73.3882 101.55 70.9301 100.996C64.1106 99.4805 56.6824 98.7111 51.3733 105.959C50.595 107.029 49.8552 108.46 49.3852 110.083C49.3082 108.66 48.9691 107.329 48.3295 106.405C47.5436 105.274 46.5264 105.067 45.5709 104.897C40.4698 104.02 35.3687 103.266 30.2753 102.635C30.0904 102.612 29.9132 102.597 29.7282 102.581C29.2582 101.966 28.8883 101.112 28.7573 100.088C31.069 98.8573 33.6041 99.4498 36.0622 100.004C42.8817 101.52 50.3099 102.289 55.619 95.0409C56.3973 93.9714 57.137 92.5402 57.6071 90.9167C57.6841 92.3402 58.0232 93.6713 58.6628 94.5946ZM67.216 74.8355C72.9104 75.2433 78.6049 75.6588 84.307 76.0666C86.3952 76.2205 88.5143 76.3744 90.564 77.4516C89.4852 79.4521 87.7976 79.7522 86.2411 79.9522C78.9824 80.8602 71.7083 81.6219 64.4265 82.2375C62.4616 82.4067 60.358 82.653 58.8785 84.9074C58.5703 85.3768 58.3083 85.9769 58.108 86.6463C58.0694 86.1154 58.0001 85.5845 57.8768 85.0536C57.1293 81.7912 55.0642 80.3908 53.2457 79.7753C46.434 77.4593 39.5452 80.2831 32.7565 77.5439C39.1059 75.2818 45.6018 74.0968 52.1515 74.0122C54.9101 73.9737 57.8614 74.0122 60.2578 72.0578C62.2767 74.2815 64.8735 74.6739 67.216 74.8432V74.8355ZM61.5832 49.9673C63.9642 51.9294 66.5533 52.291 69.0807 52.4987C77.7264 53.2374 86.3259 52.6372 94.8791 51.5139C95.3954 52.5911 94.4245 53.7298 93.6924 53.7991C84.7847 54.6609 75.9079 55.9612 67.0773 57.7078C65.2819 58.0618 63.4402 58.4696 61.7527 59.4929C61.2364 58.7004 60.6508 58.0387 60.0729 57.5539C57.6918 55.5919 55.1028 55.2302 52.5753 55.0148C43.9296 54.2761 35.3302 54.8763 26.777 55.9997C26.2607 54.9225 27.2316 53.7837 27.9636 53.7144C36.8713 52.8527 45.7482 51.5523 54.5788 49.8057C56.3742 49.4518 58.2158 49.044 59.9034 48.0206C60.4196 48.8131 61.0053 49.4748 61.5832 49.9596V49.9673ZM63.787 22.483C64.5344 25.7454 66.5995 27.1458 68.4181 27.7613C75.2298 30.0773 82.1186 27.2535 88.9072 29.9927C82.5578 32.2549 76.062 33.4398 69.5122 33.5244C66.7536 33.5629 63.8024 33.5244 61.406 35.4788C59.3871 33.2551 56.7903 32.8627 54.4478 32.6934C48.7534 32.2856 43.0589 31.8701 37.3568 31.4623C35.2685 31.3084 33.1495 31.1546 31.0998 30.0773C32.1786 28.0768 33.8661 27.7767 35.4304 27.5767C42.689 26.6687 49.9631 25.907 57.2449 25.2914C59.2099 25.1222 61.3135 24.876 62.793 22.6215C63.1012 22.1521 63.3632 21.552 63.5635 20.8826C63.602 21.4135 63.6714 21.9444 63.7947 22.4753L63.787 22.483Z" fill="black"/>
</g>
<defs>
<clipPath id="clip0_1243_743">
<rect width="107" height="201" fill="white"/>
</clipPath>
</defs>
</svg>
