<svg width="125" height="217" viewBox="0 0 125 217" fill="none" xmlns="http://www.w3.org/2000/svg">
<g clip-path="url(#clip0_1243_746)">
<path d="M72.2364 176.029C72.3691 175.706 72.5207 175.383 72.685 175.066C72.4133 175.351 72.2743 175.687 72.2364 176.029Z" fill="black"/>
<path d="M121.986 194.639C121.474 197.579 117.254 199.018 113.621 199.22C109.988 199.423 106.064 199.024 102.956 200.57C101.111 201.489 99.2974 203.104 97.225 202.61C96.1383 202.35 95.3864 201.552 94.7167 200.804C91.0268 196.679 87.1854 192.219 86.9642 187.118C86.7747 182.835 89.1819 178.786 90.673 174.661C96.6122 175.44 103.019 174.224 107.947 171.34C115.156 167.127 119.194 159.827 119.339 152.591C119.484 145.355 116.003 138.259 110.607 132.512C110.575 135.477 110.538 138.442 110.506 141.401C110.5 142.181 110.474 142.992 110.007 143.67C109.438 144.494 108.326 144.95 107.277 145.355C103.537 146.806 99.607 148.289 95.4686 148.175C91.3301 148.061 86.9579 145.786 86.5219 142.422C86.0354 138.658 90.2434 135.787 93.2256 132.898C100.548 125.808 101.37 114.744 95.1463 106.989C94.7988 108.997 94.4134 111.095 92.9729 112.749C91.5323 114.402 88.6954 115.435 86.4903 114.504C85.4289 114.054 84.6644 113.224 84.1905 112.324C82.6489 109.422 83.8367 106.108 84.7023 103.029C85.5679 99.9492 85.9091 96.2994 83.2112 94.0374C81.9349 92.9665 80.1784 92.3963 78.5673 91.6866C71.5098 88.6008 66.9228 82.2455 66.5563 75.7507C68.2433 73.3239 70.6126 71.3914 73.8855 70.7134C76.5644 70.1621 79.376 70.574 82.1118 70.8591C87.0716 71.3787 92.2842 71.4611 96.8712 69.8453C104.005 67.3298 108.332 61.0315 109.192 54.7205C110.051 48.4159 107.979 42.0859 105.325 36.1234C106.033 39.9315 102.829 43.9551 98.2802 44.9752C93.7374 45.9954 88.4616 43.8727 86.6862 40.3054C85.2457 37.4033 86.0102 34.0958 87.1917 31.1177C88.3732 28.1396 89.9654 25.2059 90.1423 22.0758C90.2939 19.4335 89.4157 16.823 88.2847 14.3454C86.5219 10.512 84.0515 6.80523 80.3427 4.04259C76.6402 1.27995 71.573 -0.443525 66.6005 0.0697167C70.4863 3.54836 74.6373 7.62895 74.094 12.3178C73.538 17.1144 68.0348 20.6564 62.342 21.9364C57.1105 23.1086 50.786 22.589 47.3426 19.1674C44.7458 16.5885 44.3603 12.8818 45.3902 9.6439C46.4201 6.41238 48.6757 3.54202 50.9566 0.766712C43.2357 1.63479 35.6412 4.63187 31.0668 9.7833C26.4924 14.9347 25.5004 22.3609 29.7147 27.7151C30.9025 29.2168 32.4441 30.5348 33.4614 32.1188C35.3505 35.0716 35.142 38.7973 33.1897 41.7184C31.2374 44.6457 27.6612 46.7621 23.7187 47.6238C21.5199 48.1054 18.8283 48.1054 17.3499 46.686C15.8525 45.254 16.2884 43.1124 16.8065 41.2748C12.7628 43.0807 12.1689 47.5668 12.289 51.3306C12.4343 55.88 12.9334 60.5309 15.2333 64.6812C17.5268 68.8315 21.9243 72.4369 27.4022 73.2606C30.7951 73.7738 34.6303 73.2796 37.4103 74.9397C38.6992 75.7127 39.4827 76.7646 39.9313 77.9685C38.4717 80.0848 36.9301 82.1694 35.7233 84.3935C31.4395 92.2569 31.6101 101.273 33.3161 109.764C33.7647 112.001 34.3017 114.352 33.3477 116.481C32.3936 118.61 29.2787 120.27 26.8083 119.237C25.096 118.527 24.3568 116.873 23.9082 115.346C22.2844 109.846 22.4929 103.985 24.5084 98.5678C18.9673 106.59 13.2557 115.948 17.1287 124.604C18.2913 127.208 20.2563 129.508 21.8801 131.941C25.4309 137.283 27.0989 144.373 22.455 149.125C21.2925 150.317 19.7192 151.311 17.8869 151.603C14.2034 152.198 10.602 149.753 9.32572 146.863C8.04943 143.98 8.50435 140.799 8.9719 137.758C4.87768 143.505 0.657097 149.67 1.01092 156.317C1.33947 162.457 5.85069 168.261 12.3206 171.398C17.3499 173.837 23.4217 174.673 29.2155 173.983C31.806 180.921 33.1076 188.182 33.0254 195.438C32.9875 198.834 32.5642 202.433 30.0811 205.157C29.6325 205.645 29.1018 206.114 28.4131 206.361C27.6739 206.621 26.8399 206.602 26.0375 206.577C23.8324 206.507 21.6273 206.431 19.4223 206.361C16.7939 206.273 14.0518 206.165 11.7709 205.094C7.46184 203.073 6.33719 198.498 5.64219 194.481C4.56177 200.393 2.6663 206.203 0 211.766C2.52098 212.793 5.45264 213.135 8.23266 212.729C9.75536 212.508 11.2591 212.064 12.8071 212.102C15.8525 212.172 18.3229 214.016 20.9702 215.251C25.0708 217.152 30.2833 217.615 34.5671 216.012C38.8508 214.408 41.9215 210.588 41.454 206.754C41.018 203.18 37.8083 199.645 39.4384 196.312C40.2282 194.696 42.0036 193.575 43.4316 192.288C47.153 188.93 48.6188 183.994 47.1972 179.616C46.5275 180.845 45.8199 182.119 44.5752 183.006C43.3305 183.893 41.3908 184.279 40.0134 183.532C39.4574 183.234 39.053 182.784 38.6992 182.328C36.393 179.369 35.875 175.909 36.1466 172.367C37.9473 171.702 39.6343 170.834 41.0117 169.68C43.0335 167.995 44.2908 165.796 45.2196 163.566C46.4327 160.664 47.1593 157.572 46.7486 154.524C45.9652 148.694 41.1065 143.245 42.3322 137.473C43.1978 133.399 46.9508 130.129 48.4988 126.188C51.2851 119.085 46.477 111.367 47.7848 103.985C48.3787 100.633 50.8365 97.0725 54.9244 96.4832C57.0221 96.1854 59.1766 96.7303 61.0784 97.5097C67.6115 100.19 72.0911 105.652 73.538 111.5C74.9848 117.355 73.6011 123.52 70.5684 128.951C68.6161 132.442 65.9118 136.123 67.0365 139.855C67.643 141.864 69.2921 143.524 70.6632 145.26C73.5506 148.923 75.3323 153.162 75.8062 157.496C76.1727 160.879 75.7936 164.447 77.588 167.513C78.4472 168.983 79.7677 170.238 81.3157 171.271C81.2399 171.847 81.1514 172.43 81.0314 173.001C80.7281 174.464 80.2669 175.953 79.1422 177.119C78.0176 178.279 76.0779 179.026 74.3467 178.577C73.0388 178.234 72.129 177.056 72.2427 175.998C71.3013 178.279 71.1307 180.769 71.7625 183.12C72.1795 184.666 72.9567 186.174 74.2456 187.352C75.3197 188.334 76.7034 189.057 77.847 189.982C82.2887 193.581 82.2319 199.505 80.4943 204.41C79.9573 205.93 79.2812 207.508 79.6982 209.054C80.5007 212.045 85.0372 213.376 88.746 212.919C92.4548 212.463 95.7845 210.822 99.4111 210.036C102.393 209.396 105.565 209.352 108.566 209.916C110.765 210.328 112.901 211.063 115.156 211.076C119.528 211.101 123.433 208.205 124.583 204.765C125.733 201.324 124.469 197.554 121.999 194.607L121.986 194.639Z" fill="black"/>
</g>
<defs>
<clipPath id="clip0_1243_746">
<rect width="125" height="217" fill="white"/>
</clipPath>
</defs>
</svg>
