<svg width="185" height="266" viewBox="0 0 185 266" fill="none" xmlns="http://www.w3.org/2000/svg">
<g clip-path="url(#clip0_1243_750)">
<path d="M183.69 93.24C185.02 88.95 185.14 82.84 182.39 80.51C180.21 78.65 177.5 80.24 174.99 80.21C170.93 80.16 167.53 75.86 164.38 72.01C161.23 68.16 157.43 64.32 153.44 65.42C150.31 66.28 147.89 70 144.96 71.85C139.09 75.56 131.86 71.45 126.2 75.85C124.48 77.19 123.05 79.22 121.49 80.94C119.76 82.85 117.89 84.35 115.93 85.54C117.07 83.77 118.07 81.91 118.91 79.98C122.7 71.22 123.19 61.09 120.27 52.01C119.23 48.79 117.78 45.69 117.09 42.38C115.05 32.54 119.99 22.65 125.5 14.25C128.91 9.05005 132.66 3.98004 137.46 0.0200447C129.79 -0.0399553 121.94 2.97004 116.98 8.83004C113.2 13.3 111.26 19.15 110.28 24.81C109.85 27.28 108.75 29.61 106.94 31.34C101.13 36.88 94.48 31.39 92.43 25.54C90.77 20.79 90.84 15.53 88.82 10.92C85.51 3.38004 76.25 -0.979955 68.33 1.27004C72.34 4.81004 75.97 8.80005 79.12 13.13C81.64 16.59 83.92 20.44 84.34 24.71C84.91 30.43 82.03 36.01 78.21 40.3C74.39 44.59 69.64 47.94 65.4 51.83C62.94 54.08 60.6 56.59 59.31 59.66C58.15 62.41 57.9 65.46 58.01 68.44C58.14 72.03 58.88 75.65 60.18 79.03L37.09 71.67C34.2 71.24 31.25 70.82 28.42 71.81C25.59 72.81 22.87 75.5 21.87 79.59C21.33 81.81 21.33 84.26 20.83 86.5C19.81 91.07 16.93 94.03 14.24 96.66C9.48999 101.28 4.73999 105.91 -0.0100098 110.53C1.77999 113.37 4.86999 111.75 7.35999 110.59C9.84999 109.43 13.56 110.16 13.69 114.06C13.73 115.41 13.27 116.69 13.21 118.04C13.03 122.64 17.24 124.7 18.42 128.95C19.55 119.87 22.53 111.33 26.87 104.78C27.61 103.66 28.5 102.53 29.55 102.49C31.09 102.44 32.17 104.65 33.36 106.13C37.02 110.68 43.6 107.26 44.6 100.29C44.95 97.85 44.98 94.66 46.79 94.12C47.25 93.98 47.72 94.07 48.16 94.29C52.71 96.48 57.17 99.68 60.56 104.74C63.14 108.59 65.03 113.63 65.57 118.98C64.9 118.73 64.24 118.49 63.58 118.27C60.63 117.29 56.75 117.26 54.64 119.16L55.82 117.43C52.76 122.24 46.77 125 41.13 124.22C43.06 127.51 45.43 130.69 48.73 132.58C52.03 134.48 56.45 134.84 59.55 132.63C61.21 131.45 62.74 129.53 64.74 129.74C63.47 134.7 61.13 139.13 58.56 142.89C54.91 148.23 50.67 152.71 47.38 158.55C45.19 162.44 43.39 167.29 43.72 172.36C44.03 176.96 46.01 180.84 47.62 184.78C50.85 192.68 52.71 201.77 53.13 211.01C49.88 213.84 45.4 215.29 41.12 214.7C43.05 217.99 45.42 221.17 48.72 223.06C49.93 223.76 51.3 224.24 52.69 224.47C52.4 227.09 52 229.68 51.46 232.21C51.13 233.77 50.75 235.31 50.38 236.85C47.57 238.38 44.29 239.06 41.12 238.62C42.97 241.78 45.24 244.82 48.34 246.74C48.26 247.35 48.19 247.96 48.14 248.58C47.67 254.25 48.79 260.74 52.06 263.68C52.64 264.2 53.29 264.6 53.96 264.5C55.44 264.28 56.26 261.85 56.76 259.75C57.76 255.59 58.65 251.37 59.42 247.11C59.46 247.08 59.5 247.06 59.53 247.04C61.23 245.83 62.79 243.84 64.85 244.15C65.81 244.29 66.61 244.94 67.41 245.49C71.46 248.32 76.53 249.13 81.41 248.32C82.21 252.49 83.06 256.63 83.91 260.75C84.22 262.28 84.84 263.66 85.73 264.53C87.47 266.24 88.77 264.92 89.69 263.35C92.72 258.2 92.48 250.66 91.77 243.72C92.32 243.28 92.85 242.82 93.35 242.33C95.06 240.63 97.18 238.48 99.46 239.28C100.35 239.59 101.03 240.32 101.68 241.01C104.45 243.94 107.56 246.7 111.23 248.3C111.26 250.02 111.41 251.73 111.78 253.36C112.65 257.19 115.14 260.54 117.81 259.92C118.96 259.65 120 258.69 120.84 257.47C122.56 254.96 123.39 251.61 123.71 248.02C124.27 247.68 124.8 247.3 125.29 246.85C126.5 245.74 127.44 244.32 128.81 243.42C131.33 241.75 135.27 241.72 136.38 238.91C132.08 239.4 127.68 238.94 123.55 237.62C123.18 233.38 122.66 229.12 122.18 224.86C123.32 224.41 124.37 223.77 125.29 222.93C126.5 221.82 127.44 220.4 128.81 219.5C131.33 217.83 135.27 217.8 136.38 214.99C131.21 215.58 125.91 214.8 121.11 212.8C120.84 207.31 120.96 201.87 121.95 196.54C122.8 191.96 124.26 187.68 125.13 183.11C127.15 172.52 125.82 160.87 122.4 151.12C120.54 145.82 118.08 140.96 116.83 135.25C119.92 135.38 123.03 134.53 125.29 132.46C126.5 131.35 127.44 129.93 128.81 129.03C131.33 127.36 135.27 127.33 136.38 124.52C129.41 125.32 122.18 123.62 116.3 119.8C116.84 116.62 117.77 113.45 119.09 110.21C121.48 104.31 126.08 101.29 130.59 102.7L139.63 105.53C140.52 105.81 141.25 106.44 141.67 107.28C143.26 110.43 145.74 113.08 148.51 113.66C149.78 113.93 151.15 113.77 152.21 112.69C152.64 112.25 153.01 111.67 153.35 111.08C154.05 109.89 154.98 108.85 156.07 108C159.05 105.69 165.26 101.79 170 105.06C175.1 108.59 178.68 115.56 182.02 122.31C183.82 113.86 183.11 104.29 180.13 96.64C179.41 94.78 178.52 92.69 178.96 90.65L183.66 93.29L183.69 93.24ZM87.79 205.99C87.69 202.12 87.93 198.29 88.85 194.68C91.24 185.24 98.47 179.19 105.07 181.1C106.88 181.62 108.73 182.8 109.73 185.12C110.42 186.72 110.63 188.66 110.81 190.55C111.34 196.23 111.71 201.94 111.93 207.66C110.92 207.23 109.87 206.97 108.76 207C105.67 207.08 103.07 209.46 100.01 209.9C95.79 210.51 91.78 207.36 87.78 205.99H87.79ZM63.4 188.87C64.96 182.11 70.92 181 75.69 181.08C76.76 181.1 77.99 181.22 78.65 182.49C79.15 183.45 79.16 184.79 79.14 186.01C78.96 193.61 78.17 201.16 77.83 208.74C76.89 209.5 75.93 210.21 74.81 210.63C71.18 211.99 67.27 209.96 63.59 208.74C63.46 208.7 63.33 208.66 63.2 208.62C63.27 204.36 63.24 200.1 63.08 195.85C63 193.51 62.88 191.09 63.4 188.87ZM74.82 234.56C71.19 235.92 67.28 233.89 63.6 232.67C62.99 232.47 62.33 232.31 61.66 232.19C62.1 228.38 62.45 224.54 62.7 220.68C63.38 220.3 64.09 220.08 64.88 220.19C65.84 220.33 66.64 220.98 67.44 221.53C70.56 223.71 74.28 224.68 78.05 224.65C78.23 227.07 78.48 229.48 78.78 231.88C77.54 232.91 76.31 233.99 74.82 234.55V234.56ZM100.02 233.83C96.69 234.31 93.49 232.46 90.33 230.98C89.96 227.84 89.6 224.7 89.23 221.56C90.73 220.67 92.13 219.62 93.37 218.39C95.08 216.69 97.2 214.54 99.48 215.34C100.37 215.65 101.05 216.38 101.7 217.07C104.69 220.24 108.09 223.2 112.16 224.73C112.13 227.03 112.07 229.33 111.99 231.63C110.96 231.19 109.9 230.91 108.77 230.94C105.68 231.02 103.08 233.4 100.02 233.84V233.83Z" fill="black"/>
</g>
<defs>
<clipPath id="clip0_1243_750">
<rect width="184.6" height="265.31" fill="white"/>
</clipPath>
</defs>
</svg>
