<svg width="238" height="203" viewBox="0 0 238 203" fill="none" xmlns="http://www.w3.org/2000/svg">
<g clip-path="url(#clip0_1243_753)">
<path d="M235.954 122.125C235.358 120.793 234.754 119.453 234.158 118.121C235.293 118.145 236.437 117.717 237.275 116.942C233.569 113.98 229.622 111.308 225.498 108.959C229.389 108.999 233.279 108.426 236.985 107.256C232.699 103.478 227.971 100.2 222.928 97.5043C225.393 96.6325 227.608 95.0584 229.252 93.0242C219.948 97.3832 210.861 102.21 202.048 107.498C201.227 106.077 199.785 105.036 198.182 104.697C202.975 103.163 207.486 100.765 211.441 97.6577C210.458 97.2621 209.483 96.8746 208.501 96.4791C211.747 94.0817 214.985 91.6842 218.232 89.2868C219.931 88.0275 221.704 86.6956 222.606 84.7744C223.508 82.8613 223.218 80.1975 221.398 79.1077C223.307 78.0583 225.079 76.7748 226.666 75.2815C227.053 74.9182 227.447 74.5227 227.616 74.0141C228.277 72.0607 225.546 70.8337 223.5 70.5996C227.528 67.8954 230.661 63.8754 232.313 59.3066C231.04 59.129 229.775 58.9433 228.503 58.7657C228.857 57.4257 229.969 56.4409 230.798 55.327C231.628 54.213 232.176 52.5905 231.346 51.4846C230.404 50.2253 228.478 50.5159 226.964 50.9357C227.463 47.9409 227.415 44.8654 226.819 41.8867C225.184 42.0401 223.589 42.5971 222.211 43.485C222.461 41.3217 222.211 39.1018 221.486 37.0434C220.471 37.891 219.456 38.7386 218.441 39.5862C217.7 35.8084 216.572 32.1113 215.082 28.5676C213.382 29.7058 211.924 31.1911 210.813 32.9024C209.999 30.739 209.185 28.5757 208.372 26.4204C207.51 27.6877 206.64 28.9551 205.778 30.2224C204.634 27.9299 202.902 25.928 200.808 24.4588C199.978 26.9531 199.148 29.4475 198.327 31.9498C195.612 29.5443 192.422 27.6877 188.99 26.5172C188.974 29.286 190.271 32.0386 192.414 33.7903C187.355 35.0899 182.409 36.8174 177.64 38.9485C176.826 39.3117 175.868 40.0059 176.142 40.8535C176.327 41.4186 176.963 41.6607 177.535 41.8383C179.243 42.363 180.951 42.8796 182.667 43.4043C179.614 46.27 176.553 49.1356 173.5 52.0012C172.299 53.1233 170.994 54.7458 171.711 56.2311C174.515 56.3521 177.31 56.4732 180.113 56.6024C177.986 60.1461 176.335 63.9804 175.231 67.96C176.633 67.3546 178.027 66.7491 179.428 66.1518L181.499 76.4762C182.248 75.6044 183.005 74.7406 183.754 73.8688C185.534 75.4833 187.323 77.0977 189.103 78.7041C191.141 73.6025 192.527 68.2344 193.203 62.7776C191.431 62.9794 189.667 63.1893 187.895 63.3911C190.553 59.8878 193.211 56.3764 195.87 52.873C194.299 52.5582 192.728 52.2434 191.165 51.9205C192.962 50.0397 194.71 48.1185 196.417 46.165C201.621 46.2296 206.817 46.9965 211.803 48.4575C213.237 48.8773 214.824 49.5069 215.348 50.9034C215.872 52.2999 214.164 54.1807 213.012 53.2363C214.373 56.2633 215.735 59.2985 217.096 62.3256C215.992 61.8735 214.889 61.4134 213.793 60.9614C214.115 65.3849 214.099 69.8247 213.761 74.2402C212.537 73.4329 211.312 72.6176 210.08 71.8104C209.757 71.5925 209.355 71.3745 208.992 71.5198C208.678 71.649 208.533 72.0122 208.42 72.3351C207.244 75.8062 206.068 79.2853 204.884 82.7563C203.917 81.9249 202.959 81.0935 201.992 80.2701C200.405 84.169 198.447 87.9226 196.168 91.4663C194.774 89.6258 193.912 87.3979 193.687 85.0973C190.311 89.0365 186.944 92.9677 183.569 96.9069C183.48 94.905 183.4 92.9031 183.311 90.8931C179.299 94.7032 175.288 98.5133 171.276 102.331C170.656 99.3286 170.495 96.2208 170.817 93.1695C169.101 100.007 162.375 104.156 156.229 107.578L156.1 107.885C155.222 105.262 153.723 102.848 151.79 100.87C153.506 101.54 155.23 102.21 156.945 102.872C154.48 95.2764 151.282 88.4715 147.537 82.8532C149.881 84.169 152.289 85.1538 154.714 85.7754C151.975 82.046 149.228 78.3086 146.489 74.5792C146.03 73.9496 145.539 73.2634 145.346 72.2867C145.152 71.31 145.386 69.9538 145.95 69.7439C146.401 67.4595 143.863 67.1205 143.388 64.8522C143.009 63.0359 144.153 61.4699 144.629 59.7263C145.273 57.3612 144.524 54.5197 143.316 52.9537C145.241 52.5421 146.828 51.0083 148.213 49.5311C150.823 46.7462 153.353 43.8967 155.818 40.9827C153.755 43.2913 150.727 44.6959 147.633 44.7847C150.34 41.7011 152.547 38.1735 154.118 34.3796C152.902 35.2837 151.532 35.994 150.09 36.4622C151.234 32.5472 152.088 28.5514 152.644 24.5073C152.056 25.3306 151.282 26.0329 150.404 26.5334C150.775 23.579 151.145 20.6245 151.524 17.6701C150.67 18.9455 149.526 20.0272 148.213 20.8183C148.334 16.8548 148.455 12.8914 148.576 8.9279C147.174 10.8894 145.627 12.738 143.944 14.4574C143.952 10.9863 143.501 7.51526 142.582 4.16529C142.139 5.37612 141.688 6.58696 141.245 7.80586C140.15 5.14203 138.933 2.53471 137.604 -0.0161133C137.354 1.45303 136.984 2.89796 136.501 4.30252C135.292 3.43072 134.092 2.56699 132.884 1.6952C132.199 2.47013 132.9 4.35903 131.869 4.34288C131.659 4.34288 131.466 4.2218 131.289 4.10879C130.451 3.56795 129.613 3.02711 128.783 2.48627C128.735 3.72939 128.928 4.98866 129.339 6.15913C127.728 5.86853 126.149 5.39227 124.643 4.75456C125.859 6.93406 127.205 9.04898 128.663 11.0832C128.155 11.2123 127.607 11.1881 127.116 11.0186C128.107 12.738 129.098 14.4574 130.088 16.1767C129.525 16.2898 128.969 16.4028 128.405 16.5158C128.969 18.5661 129.871 20.5196 131.063 22.2713C129.678 22.2713 128.292 22.4327 126.947 22.7395C127.962 24.5638 129.106 26.3235 130.37 27.9864C129.815 27.4859 128.848 28.059 128.703 28.7936C128.558 29.5282 128.928 30.2547 129.291 30.9166C130.105 32.3857 130.918 33.8468 131.74 35.2998C130.531 35.5743 129.315 35.8407 128.107 36.1151C129.057 37.6085 130.33 38.8919 131.812 39.8525C130.838 40.3692 129.863 40.8858 128.888 41.4024C130.258 41.8302 131.603 42.3469 132.908 42.9603C131.546 44.4053 130.185 45.8502 128.824 47.2951C129.331 47.4485 129.839 47.5938 130.346 47.7472C129.702 49.3051 129.001 50.8469 128.042 51.7106C126.979 52.6631 125.513 52.4936 124.828 50.742C124.627 50.2253 124.474 49.5553 124.143 49.3374C123.136 48.6835 123.008 52.5986 121.96 52.9618C121.582 53.091 121.219 52.6874 120.897 52.2918C119.415 50.4836 117.933 48.6755 116.45 46.8673C116.072 47.9651 115.685 49.071 115.307 50.1688C113.784 48.7966 111.972 47.4889 110.344 47.6019C110.691 47.4969 111.037 47.4001 111.384 47.2951C110.022 45.8502 108.661 44.4053 107.299 42.9603C108.596 42.3469 109.942 41.8222 111.319 41.4024C110.344 40.8858 109.37 40.3692 108.395 39.8525C109.885 38.8919 111.158 37.6085 112.1 36.1151C110.892 35.8407 109.676 35.5743 108.467 35.2998C109.289 33.8387 110.111 32.3777 110.916 30.9166C111.279 30.2628 111.657 29.5282 111.504 28.7936C111.351 28.059 110.393 27.4859 109.837 27.9864C111.094 26.3154 112.237 24.5638 113.26 22.7395C111.907 22.4327 110.522 22.2793 109.144 22.2713C110.336 20.5196 111.239 18.5661 111.802 16.5158C111.239 16.4028 110.683 16.2898 110.119 16.1767C111.11 14.4574 112.1 12.738 113.091 11.0186C112.6 11.1881 112.052 11.2123 111.545 11.0832C113.003 9.05705 114.348 6.94213 115.564 4.75456C114.058 5.40034 112.479 5.86853 110.868 6.15913C111.279 4.98059 111.472 3.72939 111.424 2.48627C110.586 3.02711 109.748 3.56795 108.919 4.10879C108.741 4.2218 108.548 4.34288 108.339 4.34288C107.307 4.35903 108.008 2.46206 107.324 1.6952C106.115 2.56699 104.915 3.43072 103.707 4.30252C103.223 2.89796 102.853 1.45303 102.603 -0.0161133C101.274 2.53471 100.057 5.1501 98.9619 7.80586C98.5189 6.59503 98.0678 5.3842 97.6247 4.16529C96.7144 7.51526 96.2553 10.9863 96.2633 14.4574C94.5797 12.738 93.0331 10.8814 91.6314 8.9279C91.7522 12.8914 91.8731 16.8548 91.9939 20.8183C90.6728 20.0272 89.537 18.9455 88.6831 17.6701C89.0536 20.6245 89.4242 23.579 89.8028 26.5334C88.9248 26.0329 88.1514 25.3306 87.5634 24.5073C88.1192 28.5434 88.9731 32.5472 90.117 36.4622C88.675 35.994 87.3056 35.2837 86.0892 34.3796C87.6681 38.1735 89.8672 41.7011 92.5739 44.7847C89.4806 44.6959 86.4517 43.2913 84.3895 40.9827C86.8464 43.8967 89.3839 46.7462 91.9939 49.5311C93.5325 51.1698 95.3208 52.8811 97.5441 53.0425C97.5764 53.1555 97.6167 53.2605 97.6569 53.3654C97.3267 53.4461 97.0044 53.5269 96.6742 53.6076C96.9883 55.6579 97.3025 57.7163 97.6166 59.7667C94.9664 61.3327 92.445 63.6091 90.1572 66.4908C91.3334 68.0246 92.7592 68.9206 94.2092 69.0417C93.5889 71.6006 92.0664 72.9567 90.6406 74.0061C89.2148 75.0555 87.6681 76.1614 86.8464 78.5265C86.0328 80.8917 86.5484 84.8632 88.0789 85.1699C85.0742 90.4653 82.6576 96.8585 81.0142 103.857C83.3584 103.413 85.63 101.734 87.4748 99.0864C87.3781 99.3609 87.2895 99.6434 87.2009 99.9259C84.7762 102.049 82.9234 104.818 81.9004 107.885L81.7715 107.578C75.6251 104.156 68.8988 100.007 67.1829 93.1695C67.5052 96.2208 67.3521 99.3286 66.7238 102.331C62.7121 98.5214 58.7005 94.7113 54.6888 90.8931C54.6002 92.895 54.5197 94.897 54.4311 96.9069C51.0558 92.9677 47.6886 89.0365 44.3133 85.0973C44.0958 87.3979 43.2259 89.6258 41.8323 91.4663C39.5445 87.9306 37.5951 84.1771 36.0081 80.2701C35.0415 81.1015 34.0829 81.933 33.1162 82.7563C31.9401 79.2853 30.764 75.8062 29.5798 72.3351C29.467 72.0122 29.3301 71.649 29.0079 71.5198C28.6454 71.3745 28.2507 71.5925 27.9204 71.8104C26.696 72.6176 25.4715 73.4329 24.239 74.2402C23.9007 69.8247 23.8846 65.3769 24.2068 60.9614C23.1032 61.4215 21.9996 61.8735 20.904 62.3256C22.2654 59.2985 23.6268 56.2633 24.9882 53.2363C23.8362 54.1807 22.1285 52.308 22.6521 50.9034C23.1757 49.5069 24.7626 48.8773 26.1965 48.4575C31.1909 46.9965 36.3867 46.2296 41.5825 46.165C43.2984 48.1185 45.0383 50.0397 46.8347 51.9205C45.2639 52.2353 43.6931 52.5501 42.1303 52.873C44.7886 56.3764 47.4469 59.8878 50.1053 63.3911C48.333 63.1893 46.5689 62.9794 44.7967 62.7776C45.4814 68.2344 46.8589 73.6025 48.8969 78.7041C50.6772 77.0897 52.4655 75.4752 54.2458 73.8688C54.995 74.7406 55.7522 75.6044 56.5013 76.4762C57.1941 73.0374 57.8788 69.5906 58.5716 66.1518C59.9733 66.7572 61.3669 67.3626 62.7685 67.96C61.6649 63.9723 60.0216 60.1461 57.8869 56.6024C60.6902 56.4813 63.4855 56.3602 66.2888 56.2311C67.0057 54.7458 65.7007 53.1233 64.5005 52.0012C61.4474 49.1356 58.3863 46.27 55.3333 43.4043C57.0411 42.8796 58.7488 42.363 60.4646 41.8383C61.0285 41.6688 61.673 41.4186 61.8582 40.8535C62.1321 40.0059 61.1735 39.3117 60.3599 38.9485C55.5911 36.8174 50.645 35.0899 45.5861 33.7903C47.7369 32.0467 49.0339 29.2941 49.0097 26.5172C45.5781 27.6796 42.3881 29.5443 39.6734 31.9498C38.8437 29.4555 38.0139 26.9612 37.1923 24.4588C35.0898 25.928 33.3659 27.9299 32.222 30.2224C31.3601 28.9551 30.4901 27.6877 29.6282 26.4204C28.8145 28.5837 28.0009 30.7471 27.1873 32.9024C26.0757 31.183 24.6176 29.6977 22.9179 28.5676C21.4196 32.1113 20.2918 35.8164 19.5588 39.5862C18.5438 38.7386 17.5288 37.891 16.5138 37.0434C15.7888 39.1018 15.5391 41.3217 15.7888 43.485C14.4113 42.5971 12.8163 42.0482 11.181 41.8867C10.593 44.8573 10.5447 47.9409 11.036 50.9357C9.52161 50.5159 7.59634 50.2253 6.65385 51.4846C5.82413 52.5986 6.37191 54.213 7.20162 55.327C8.03134 56.4409 9.143 57.4257 9.49744 58.7657C8.22467 58.9433 6.95996 59.129 5.68719 59.3066C7.33857 63.8754 10.4722 67.8873 14.4999 70.5996C12.4538 70.8337 9.723 72.0607 10.3835 74.0141C10.5527 74.5227 10.9474 74.9182 11.3341 75.2815C12.921 76.7748 14.6932 78.0583 16.6024 79.1077C14.7819 80.1894 14.4919 82.8532 15.3941 84.7744C16.2963 86.6875 18.0685 88.0275 19.7682 89.2868C23.0146 91.6842 26.2529 94.0817 29.4993 96.4791C28.5165 96.8746 27.5418 97.2621 26.559 97.6577C30.5143 100.765 35.0253 103.163 39.8184 104.697C38.2153 105.036 36.7734 106.077 35.9517 107.498C27.139 102.21 18.0524 97.3832 8.74828 93.0242C10.3916 95.0665 12.6069 96.6325 15.0719 97.5043C10.0291 100.192 5.30858 103.47 1.01499 107.256C4.72053 108.426 8.61939 109.007 12.5021 108.959C8.37773 111.308 4.43858 113.98 0.724995 116.942C1.56277 117.709 2.70665 118.145 3.84248 118.121C3.23831 119.453 2.64221 120.793 2.03804 122.125C2.40054 126.782 1.69971 131.513 -0.00805664 135.855C2.44082 135.654 4.8333 134.79 6.84718 133.377C7.43523 137.163 7.69301 141.005 7.6044 144.832C10.0694 144.711 12.4538 143.411 13.8877 141.393C15.0477 144.267 16.2157 147.132 17.3757 150.006C17.6577 148.844 18.9466 148.149 20.1388 148.157C21.331 148.157 22.4588 148.698 23.5301 149.223C26.5832 150.708 29.6362 152.194 32.6812 153.679C32.6973 151.669 31.779 149.667 30.2484 148.359C29.9665 146.737 33.6801 147.229 33.7929 145.582C33.8815 144.331 31.5856 143.863 31.7709 142.628C33.237 141.57 34.6951 140.521 36.1612 139.464C34.7192 138.543 33.1565 137.809 31.5293 137.292C33.084 135.993 34.7676 134.846 36.5398 133.886C31.9481 132.78 27.3646 131.674 22.7729 130.568C23.7799 130.891 23.6912 129.059 23.0146 128.251C21.4196 126.354 19.8246 124.457 18.2296 122.569C19.0754 122.536 19.9213 122.496 20.7671 122.464C21.4679 120.179 22.4185 117.975 23.5946 115.901C25.3668 117.063 27.719 116.684 29.749 117.273C31.787 117.862 33.4545 120.752 31.7145 121.971C35.702 121.842 39.6653 121.091 43.4192 119.751C48.5103 119.356 53.69 120.034 58.5072 121.745C61.6085 124.118 65.2496 125.789 69.0679 126.58C67.7952 127.073 66.5143 127.565 65.2416 128.066C66.8849 128.687 68.649 129.018 70.4051 129.018C69.3257 129.987 68.2463 130.956 67.1668 131.924C71.9357 132.037 76.7287 131.238 81.2076 129.591C81.2076 129.591 81.2076 129.599 81.2076 129.607C80.2731 129.979 79.3306 130.342 78.3962 130.713C79.3387 130.512 80.2731 130.237 81.1834 129.914C81.1754 130.035 81.1592 130.148 81.1512 130.269C79.7818 131.819 78.0901 133.07 76.1809 133.862C77.7518 133.805 79.3306 133.757 80.9015 133.7C80.8209 135.032 80.7645 136.372 80.7242 137.712C79.6126 139.399 78.3479 140.981 76.9462 142.434C78.3801 141.99 80.0798 142.604 80.9015 143.863C79.1293 145.574 77.357 147.286 75.5929 149.005C77.6632 148.94 77.937 152.25 76.5757 153.824C75.2223 155.398 73.0635 156.343 72.2901 158.272C73.2246 158.522 74.159 158.764 75.0854 159.015C73.1762 161.291 71.2751 163.567 69.366 165.852C71.4282 166.207 72.2901 168.984 71.4121 170.881C70.534 172.778 68.5524 173.9 66.6191 174.691C64.6857 175.482 62.6155 176.095 61.0366 177.468C62.0032 177.484 62.9296 178.113 63.3163 179.001C61.5682 179.599 59.8202 180.188 58.0802 180.785C58.7649 181.447 59.2483 182.327 59.4416 183.263C55.1077 184.418 50.7094 185.306 46.2789 185.927C47.0039 186.226 46.8508 187.421 46.1822 187.816C45.5136 188.212 44.6517 188.034 43.9186 187.768C40.2373 186.444 37.3453 183.102 36.5639 179.26C36.2901 180.018 36.0162 180.777 35.7423 181.536C34.1392 179.429 32.0287 177.71 29.6282 176.596C29.5959 178.969 29.9182 181.35 30.5948 183.627C28.0815 184.337 25.5762 185.039 23.0629 185.75C26.2771 186.718 29.1126 188.914 30.8445 191.796C33.8815 192.232 36.9184 192.668 39.9553 193.095C40.785 193.217 41.6792 193.362 42.2753 193.951C42.8714 194.54 42.9197 195.735 42.1625 196.098C45.5136 194.992 49.4044 195.719 52.1272 197.955C53.8108 196.599 55.7522 195.574 57.8144 194.952C57.9513 197.761 58.7166 200.538 60.0458 203.024C63.7593 198.108 67.3843 193.128 70.9126 188.075C71.4443 189.237 71.9679 190.399 72.4996 191.562C72.1774 186.048 76.624 180.672 82.0856 179.97C82.6495 179.897 83.2456 179.857 83.7048 179.526C84.3976 179.026 84.5264 178.057 84.5748 177.209C84.7198 174.739 84.7117 172.261 84.5506 169.791C85.4689 169.5 86.4839 169.5 87.4023 169.791C87.8131 167.708 88.2239 165.626 88.6348 163.543C89.4242 159.547 90.2136 155.552 91.0031 151.548C92.0986 145.994 93.2586 140.287 96.36 135.565C96.948 136.711 97.5441 137.857 98.1322 138.995C99.4452 136.663 101.089 134.112 103.715 133.603C106.341 133.095 109.2 136.566 107.267 138.414C108.862 136.977 110.65 135.75 112.576 134.79C112.487 136.8 112.399 138.81 112.302 140.828C112.245 142.111 112.189 143.403 112.092 144.686C111.569 151.725 109.885 158.684 107.146 165.19C108.451 165.044 109.748 164.907 111.053 164.762C111.118 169.008 109.974 173.262 107.799 176.903C111.319 178.17 112.56 183.409 109.982 186.129C113.091 185.766 115.54 189.261 115.347 192.393C115.153 195.525 113.188 198.229 111.303 200.74C112.543 201.208 113.567 199.763 114.469 198.794C115.371 197.826 117.651 197.85 117.385 199.15C118.384 197.769 119.938 196.792 121.614 196.502C122.444 197.906 122.863 199.545 122.822 201.176C123.644 199.004 126.085 197.567 128.381 197.906C127.003 193.725 126.165 189.366 125.891 184.967C127.503 185.596 129.106 186.234 130.717 186.864C128.236 184.159 126.085 181.149 124.337 177.92C125.755 177.33 127.341 177.145 128.856 177.379C127.116 173.956 126.592 170.073 126.101 166.263C125.964 165.238 125.835 164.221 125.698 163.196C125.416 161.016 125.126 158.829 124.973 156.633C124.498 149.651 125.408 142.66 126.318 135.718C127.849 137.155 129.38 138.592 130.918 140.037C130.258 136.671 133.117 133.07 136.541 132.933C139.964 132.804 143.082 136.146 142.752 139.561C143.501 138.495 144.242 137.421 144.991 136.356C146.038 143.274 147.077 150.192 148.125 157.11C148.987 155.987 150.485 157.747 150.751 159.136C151.87 165.061 152.99 170.994 154.11 176.919C155.294 175.635 156.833 174.675 158.508 174.166C159.588 182.497 159.797 190.932 159.137 199.303C161.046 198.794 163.035 198.609 165.001 198.738C165.5 197.228 166 195.719 166.499 194.209C168.046 194.863 169.44 195.888 170.511 197.188C170.124 196.203 170.97 195.089 171.985 194.783C173 194.484 174.08 194.758 175.095 195.033C178.389 195.921 181.676 196.809 184.971 197.689C184.068 195.735 182.852 193.935 181.37 192.377C184.318 192.845 187.266 193.313 190.215 193.782C192.011 195.073 193.751 196.494 195.781 197.341C198.786 198.593 202.33 198.439 205.214 196.938C205.528 196.776 205.875 196.518 205.834 196.171C205.818 196.009 205.722 195.872 205.617 195.751C204.916 194.831 204.11 193.991 203.232 193.233C204.006 193.031 204.787 192.829 205.56 192.627C205.609 192.207 205.649 191.788 205.697 191.368C208.799 190.311 211.707 188.696 214.212 186.589C212.287 185.314 209.83 185.249 207.518 185.217C211.046 183.167 214.349 180.729 217.346 177.944C213.978 177.904 210.611 177.863 207.244 177.823C208.726 175.829 210.063 173.722 211.223 171.518C208.34 172.422 205.52 173.553 202.805 174.876C203.184 173.109 203.563 171.333 203.941 169.565C201.106 171.551 198.27 173.545 195.435 175.53C195.088 175.022 194.903 174.4 194.903 173.787C193.413 176.394 191.568 178.808 189.433 180.923L188.982 181.415C188.571 181.576 188.161 181.738 187.758 181.899C187.935 181.641 187.983 181.245 187.782 180.987C187.436 180.527 186.775 180.446 186.203 180.414C181.08 180.099 175.965 179.792 170.841 179.478C172.75 177.734 175.304 176.725 177.882 176.693C175.006 174.545 172.122 172.39 169.238 170.243C171.953 169.944 174.66 169.646 177.374 169.347C174.104 165.166 170.591 161.17 166.862 157.392C167.756 156.779 168.795 156.367 169.866 156.205C168.199 152.315 166.532 148.416 164.864 144.525C166.507 145.066 168.159 145.607 169.802 146.147C165.267 142.047 163.108 136.081 160.152 130.673C163.607 131.577 167.192 132.013 170.769 131.924C169.689 130.956 168.61 129.987 167.53 129.018C169.295 129.018 171.051 128.687 172.694 128.066C171.421 127.573 170.14 127.081 168.868 126.58C172.694 125.789 176.327 124.118 179.428 121.745C184.246 120.034 189.417 119.348 194.516 119.751C198.27 121.091 202.234 121.842 206.221 121.971C204.489 120.752 206.157 117.862 208.187 117.273C210.225 116.684 212.569 117.063 214.341 115.901C215.517 117.983 216.46 120.187 217.168 122.464C218.014 122.496 218.86 122.536 219.706 122.569C218.111 124.465 216.516 126.362 214.921 128.251C214.236 129.059 214.156 130.891 215.163 130.568L201.396 133.886C203.176 134.846 204.86 135.993 206.406 137.292C204.779 137.809 203.216 138.543 201.774 139.464C203.24 140.521 204.699 141.57 206.165 142.628C206.358 143.871 204.062 144.331 204.143 145.582C204.255 147.229 207.969 146.737 207.687 148.359C206.157 149.667 205.246 151.661 205.254 153.679C208.307 152.194 211.36 150.708 214.405 149.223C215.485 148.698 216.605 148.165 217.797 148.157C218.989 148.157 220.286 148.835 220.56 150.006C221.72 147.132 222.888 144.267 224.048 141.393C225.482 143.411 227.866 144.711 230.331 144.832C230.251 140.997 230.5 137.163 231.088 133.377C233.102 134.79 235.495 135.654 237.944 135.855C236.236 131.513 235.527 126.774 235.898 122.125H235.954ZM131.828 48.1992C132.151 48.2961 132.521 48.4333 132.618 48.7562C132.69 48.9984 132.578 49.2486 132.465 49.4746C132.352 49.7006 132.247 49.9267 132.134 50.1608C131.474 49.7571 130.918 48.9741 130.668 47.8521C131.055 47.9651 131.442 48.0862 131.836 48.1992H131.828ZM127.382 118.04C127.382 118.04 127.325 118.072 127.293 118.08C127.301 118.04 127.317 118 127.325 117.951C127.341 117.975 127.358 118.008 127.374 118.032L127.382 118.04ZM111.738 117.54C111.601 117.483 111.472 117.435 111.335 117.378C111.432 117.128 111.529 116.878 111.625 116.627C111.665 116.934 111.698 117.233 111.738 117.54ZM107.597 48.7562C107.694 48.4333 108.065 48.2961 108.387 48.1992C108.669 48.1185 108.951 48.0297 109.233 47.949C108.782 48.2073 108.355 48.619 107.976 49.2325C107.912 49.3374 107.847 49.4504 107.791 49.5553C107.775 49.5311 107.767 49.5069 107.759 49.4827C107.646 49.2567 107.533 49.0064 107.605 48.7643L107.597 48.7562Z" fill="black"/>
</g>
<defs>
<clipPath id="clip0_1243_753">
<rect width="238" height="203" fill="white"/>
</clipPath>
</defs>
</svg>
