<svg width="201" height="249" viewBox="0 0 201 249" fill="none" xmlns="http://www.w3.org/2000/svg">
<g clip-path="url(#clip0_1243_756)">
<path d="M186.981 67.5747C190.065 72.8895 195.159 77.0066 201.007 78.9113C199.252 74.3688 197.012 70.0226 194.321 65.9645C196.338 66.0496 198.368 65.7158 200.247 65.0023C194.714 60.8329 189.188 56.6635 183.655 52.4941C184.821 51.7806 185.993 51.0606 187.158 50.3472C181.01 46.5312 174.489 43.3174 167.712 40.7582C168.412 40.1822 168.812 39.2724 168.766 38.3691C162.611 38.14 156.443 38.2971 150.315 38.8338C150.982 38.8142 151.146 37.7538 150.648 37.3022C150.157 36.844 149.404 36.8506 148.737 36.8964C143.315 37.2433 137.933 38.2513 132.754 39.9007C133.507 39.0629 133.867 37.8913 133.723 36.7786C127.313 40.3131 121.721 45.3268 117.504 51.3159C117.504 49.313 117.491 47.3101 117.491 45.3072C113.078 52.3173 109.392 59.7856 106.504 67.5485C106.275 66.8219 106.046 66.0888 105.817 65.3623C105.804 68.4976 105.79 71.6263 105.771 74.7615L105.489 73.9368C105.921 76.9673 104.468 80.3055 101.731 81.752C100.199 73.0401 98.6601 64.3281 97.1279 55.6162C97.0166 54.9879 96.8922 54.3202 96.4732 53.8359C95.3077 52.4744 93.1142 53.4628 91.6606 54.51C92.2958 51.2242 92.9374 47.9319 93.5726 44.6461C93.7101 43.9392 93.841 43.1734 93.5071 42.532C93.1731 41.8971 92.1714 41.596 91.7327 42.1654C94.5809 37.9044 97.0821 33.4077 99.2035 28.7408C98.1886 28.6688 97.1803 28.5968 96.1654 28.5183C103.054 22.6274 109.595 16.3242 115.73 9.65443C114.145 9.23553 112.561 8.81662 110.97 8.40426C113.779 6.16573 116.227 3.47558 118.192 0.471239C114.224 1.3156 110.328 2.53304 106.583 4.09739C107.84 3.13522 108.632 1.59705 108.691 0.0130615C100.847 3.12213 93.2845 6.95118 86.1344 11.4348C86.4945 10.6166 86.4422 9.62825 86.0035 8.84935C77.557 13.6602 71.3891 22.2936 69.5688 31.8368C68.7766 29.9975 67.9908 28.1583 67.1986 26.319C64.1801 36.7916 62.4057 47.6243 61.9408 58.5158C60.6509 57.5602 59.3545 56.6046 58.0646 55.6489C59.1253 66.0758 60.7622 76.4502 62.9557 86.7003C62.1503 86.0589 61.345 85.4239 60.5396 84.7825C64.2587 91.0923 67.9712 97.4086 71.6903 103.718C70.0992 103.443 68.495 103.273 66.8777 103.208C60.8539 100.982 54.3193 100.151 47.9354 100.806C48.7997 101.244 49.6705 101.689 50.5348 102.128C42.9461 101.781 35.2722 103.254 28.3513 106.389C29.2353 107.043 30.1127 107.698 30.9966 108.346C27.9126 110.427 25.0186 112.797 22.3668 115.408C21.7906 115.971 21.1882 116.659 21.2471 117.457C21.2995 118.157 22.2293 118.681 22.74 118.347C19.859 121.384 16.9584 124.48 14.9745 128.165C12.9447 131.936 11.956 136.458 13.2393 140.543C13.9923 140.49 14.7453 140.431 15.4983 140.379C14.7126 144.175 14.3852 148.063 14.5227 151.938C14.5685 153.241 14.7322 154.674 15.6882 155.564C16.6441 156.448 18.6215 156.154 18.7721 154.858C18.9947 157.469 19.4924 160.061 20.265 162.568C20.4549 163.177 20.7037 163.838 21.2668 164.139C21.9281 164.492 22.7334 164.204 23.4144 163.89C25.4442 162.948 27.3692 161.789 29.1436 160.434C30.7347 162.293 32.4502 164.231 34.7811 164.97C37.1121 165.71 40.1895 164.656 40.7068 162.267C43.3193 165.199 48.1253 165.854 51.4253 163.733C54.3193 162.764 56.9973 161.141 59.2039 159.027C60.4414 160.716 61.0765 162.836 60.9652 164.924C62.8575 163.648 65.5289 165.828 65.5551 168.105C65.5748 170.383 63.964 172.321 62.3468 173.924C60.7295 175.528 58.9289 177.171 58.4051 179.39C59.2235 180.332 60.0354 181.275 60.8539 182.224C59.9569 182.08 58.9485 181.962 58.2086 182.492C57.4688 183.022 57.4622 184.462 58.3527 184.639C51.3925 184.888 44.4324 185.313 37.4919 185.922C36.3722 186.02 34.9317 187.342 35.9335 187.853C32.4174 186.668 28.9079 185.483 25.3918 184.299C24.8287 184.109 24.2001 183.919 23.6632 184.174C23.218 184.384 23.0346 185.045 23.29 185.398C20.4418 182.983 17.4429 180.751 14.3066 178.729C14.2084 179.632 14.1102 180.535 14.012 181.445C10.928 176.13 5.83394 172.013 -0.0131226 170.108C1.74165 174.651 3.98095 178.997 6.67204 183.055C4.65536 182.97 2.62558 183.304 0.739858 184.017C6.27263 188.187 11.7989 192.356 17.3316 196.526C16.1661 197.239 14.9941 197.959 13.8286 198.672C19.9769 202.488 26.4983 205.702 33.2752 208.261C32.5746 208.837 32.1752 209.747 32.221 210.65C38.3758 210.88 44.5437 210.722 50.6723 210.186C50.0044 210.205 49.8407 211.266 50.3384 211.717C50.8294 212.176 51.5824 212.169 52.2503 212.123C57.6717 211.776 63.0539 210.768 68.2331 209.119C67.4801 209.957 67.12 211.128 67.2641 212.241C73.6742 208.707 79.2659 203.693 83.4826 197.704C83.4826 199.707 83.4892 201.709 83.4957 203.712C87.9088 196.702 91.5952 189.234 94.4827 181.471C94.7118 182.198 94.941 182.931 95.1702 183.657C95.1833 180.522 95.1964 177.393 95.216 174.258L95.4976 175.083C95.0654 172.052 96.519 168.714 99.2559 167.268C100.788 175.98 102.327 184.691 103.859 193.403C103.97 194.032 104.095 194.699 104.514 195.184C105.679 196.545 107.873 195.557 109.326 194.51C108.691 197.795 108.049 201.088 107.414 204.373C107.277 205.08 107.146 205.846 107.48 206.488C107.814 207.123 108.816 207.424 109.254 206.854C106.406 211.115 103.905 215.612 101.783 220.279C102.798 220.351 103.807 220.423 104.821 220.501C97.9333 226.392 91.3922 232.695 85.257 239.365C86.8416 239.784 88.4261 240.203 90.0172 240.615C87.2082 242.854 84.7594 245.544 82.7951 248.548C86.763 247.704 90.6588 246.487 94.4041 244.922C93.147 245.884 92.3547 247.423 92.2958 249.007C100.14 245.897 107.702 242.068 114.852 237.585C114.492 238.403 114.545 239.391 114.983 240.17C123.43 235.359 129.598 226.726 131.418 217.183C132.21 219.022 132.996 220.861 133.788 222.701C136.807 212.228 138.581 201.395 139.046 190.504C140.336 191.459 141.632 192.415 142.922 193.371C141.862 182.944 140.225 172.569 138.031 162.319C138.837 162.954 139.642 163.596 140.447 164.231C136.728 157.921 133.016 151.604 129.297 145.295C130.888 145.57 132.492 145.74 134.109 145.805C140.133 148.031 146.668 148.862 153.051 148.207C152.187 147.769 151.316 147.324 150.452 146.885C158.047 147.232 165.715 145.759 172.636 142.624C171.752 141.97 170.874 141.315 169.99 140.667C173.074 138.586 175.968 136.216 178.62 133.605C179.196 133.042 179.799 132.354 179.74 131.556C179.687 130.856 178.758 130.332 178.247 130.666C181.128 127.629 184.028 124.533 186.012 120.848C188.042 117.077 189.031 112.555 187.748 108.47C186.995 108.523 186.242 108.582 185.489 108.634C186.274 104.838 186.602 100.95 186.464 97.0747C186.418 95.7722 186.255 94.3388 185.299 93.4486C184.343 92.565 182.365 92.8595 182.215 94.1555C181.992 91.5439 181.494 88.9519 180.722 86.445C180.532 85.8363 180.283 85.1752 179.72 84.8741C179.059 84.5207 178.253 84.8087 177.572 85.1229C175.543 86.0654 173.618 87.2239 171.843 88.5788C170.252 86.7199 168.537 84.7825 166.206 84.0429C163.875 83.3032 160.797 84.357 160.28 86.7461C157.668 83.8138 152.862 83.1592 149.562 85.2799C146.668 86.2487 143.99 87.8719 141.783 89.9861C140.545 88.2974 139.91 86.1767 140.022 84.0887C138.129 85.365 135.458 83.1854 135.432 80.9076C135.412 78.6298 137.023 76.6924 138.64 75.0888C140.257 73.4851 142.058 71.8423 142.582 69.6234C141.763 68.6808 140.951 67.7383 140.133 66.7892C141.03 66.9332 142.038 67.051 142.778 66.5208C143.518 65.9907 143.525 64.5507 142.634 64.374C149.594 64.1252 156.554 63.6998 163.495 63.0911C164.615 62.9929 166.055 61.6707 165.053 61.1602C168.569 62.3449 172.086 63.5296 175.595 64.7143C176.158 64.9041 176.787 65.0939 177.324 64.8387C177.769 64.6292 177.952 63.9681 177.697 63.6147C180.545 66.0299 183.544 68.2619 186.68 70.2844C186.778 69.3812 186.877 68.4779 186.975 67.5747H186.981ZM136.912 108.248C138.254 106.651 139.387 104.883 140.27 102.998C141.384 106.062 142.497 109.125 143.61 112.195C144.062 111.39 144.513 110.578 144.972 109.773C147.132 115.264 146.013 121.901 142.182 126.385C138.352 130.869 131.968 133.002 126.206 131.733C125.172 131.504 124.091 131.176 123.089 131.51C122.088 131.837 121.374 133.199 122.088 133.978C118.067 132.538 113.936 131.418 109.745 130.633C108.095 130.194 106.426 129.848 104.736 129.599C105.345 131.916 105.954 134.233 106.563 136.55C104.487 136.393 102.418 136.236 100.343 136.085C100.127 137.061 99.9107 138.042 99.6946 139.018C97.7958 137.728 94.9803 138.055 93.422 139.738C90.5213 135.634 83.4106 135.699 80.582 139.849C79.7439 141.079 79.1284 142.663 77.7338 143.187C76.2671 143.737 74.6956 142.834 73.1373 142.69C70.7998 142.474 68.4426 144.267 68.0367 146.584C67.0087 144.463 65.673 142.493 64.0819 140.752C62.7396 142.349 61.6069 144.117 60.7229 146.002C59.6098 142.938 58.4967 139.875 57.3836 136.805C56.9319 137.61 56.4735 138.415 56.0217 139.227C53.861 133.736 54.9807 127.098 58.811 122.615C62.6414 118.131 69.0254 115.997 74.7873 117.267C75.8218 117.496 76.9022 117.824 77.904 117.49C78.9058 117.156 79.6195 115.801 78.9058 115.022C82.9261 116.462 87.0576 117.581 91.2481 118.367C92.8981 118.805 94.5678 119.152 96.2571 119.401C95.6482 117.084 95.0392 114.767 94.4303 112.45C96.5059 112.607 98.575 112.764 100.651 112.915C100.867 111.939 101.083 110.958 101.299 109.982C103.198 111.272 106.013 110.944 107.571 109.262C110.472 113.366 117.583 113.301 120.411 109.151C121.249 107.92 121.865 106.336 123.26 105.813C124.726 105.263 126.298 106.166 127.856 106.31C130.194 106.526 132.551 104.733 132.957 102.416C133.985 104.537 135.32 106.507 136.912 108.248Z" fill="black"/>
<path d="M105.496 73.9237C105.371 73.0532 105.096 72.2088 104.645 71.443L105.496 73.9237Z" fill="black"/>
<path d="M95.5042 175.076C95.6286 175.947 95.9036 176.791 96.3553 177.557L95.5042 175.076Z" fill="black"/>
</g>
<defs>
<clipPath id="clip0_1243_756">
<rect width="201" height="249" fill="white"/>
</clipPath>
</defs>
</svg>
