<svg width="148" height="178" viewBox="0 0 148 178" fill="none" xmlns="http://www.w3.org/2000/svg">
<path d="M136.795 156.03C134.263 152.614 128.761 155.733 125.677 153.272C124.579 152.393 124.072 151.001 123.564 149.698C122.491 146.928 120.88 143.936 118.005 143.17C116.723 142.829 115.111 142.86 114.591 141.5C114.274 140.672 114.604 139.742 115.289 139.179C117.491 137.389 120.429 138.793 122.574 136.895C123.291 136.256 123.526 135.181 123.018 134.365C122.339 133.277 120.918 133.441 119.801 133.808C118.417 134.27 117.104 134.941 115.93 135.801C114.547 136.813 113.258 138.122 111.564 138.432C111.564 138.432 110.079 138.616 108.911 137.566C106.373 135.289 107.078 130.943 109.781 128.868C112.49 126.793 116.089 126.445 119.401 125.61C125.76 124.004 131.674 120.164 135.075 114.572C138.477 108.98 139.086 101.605 135.976 95.8419C133.844 91.8948 130.214 88.9407 126.432 86.5559C121.425 83.3994 115.93 81.0906 110.225 79.4902C107.902 78.8387 105.529 78.282 103.13 77.8455C104.412 76.4919 105.593 75.0496 106.64 73.4998C107.947 71.5642 109.07 69.0593 108.004 66.9845C106.951 64.9413 104.158 64.3656 101.944 64.9919C99.7227 65.6181 97.8951 67.1363 95.9787 68.4204C94.0623 69.7045 91.8222 70.8178 89.5441 70.4699C88.9349 70.375 88.2622 70.0967 88.0972 69.5084C87.9766 69.0846 88.167 68.6481 88.3701 68.2622C91.4161 62.5628 98.7011 60.6082 103.016 55.7944C103.841 54.8772 104.571 53.8019 104.736 52.581C104.901 51.3602 104.349 49.9812 103.207 49.4941C102.534 49.2095 101.772 49.2664 101.049 49.3739C92.6472 50.6201 85.9079 57.4897 77.4997 58.7232C75.9196 58.9572 74.0793 58.8877 73.0386 57.6858C72.0169 56.5092 72.1819 54.7191 72.6896 53.2515C75.3485 45.6165 84.5626 42.6688 89.9058 36.5898C91.4922 34.7807 92.6916 31.8962 91.0607 30.1314C89.8994 28.8726 87.9386 28.9232 86.2252 29.0181C82.754 29.2078 79.2765 29.2142 75.8054 29.0307C75.1708 28.9991 74.4664 28.9295 74.0412 28.4551C73.7303 28.1072 73.6415 27.6138 73.6351 27.1457C73.5843 23.6793 89.2775 17.7142 86.6313 15.4623C83.6171 12.9004 76.7065 17.1259 77.0238 12.7169C77.322 8.63692 83.9407 1.92544 78.9973 0.0973324C78.5023 -0.0861106 78.0772 0.249147 77.0809 0.17324C76.6494 0.141612 76.2559 -0.0418313 75.8308 0.00877369C74.403 0.166914 72.918 0.344032 71.706 1.10943C70.4939 1.87483 69.6436 3.41828 70.1386 4.75932C70.4305 5.54369 71.1031 6.10667 71.5727 6.79617C72.8927 8.71283 72.4992 11.4139 71.2174 13.3558C69.9355 15.2978 67.9239 16.6262 65.9376 17.8344C64.3068 18.8212 62.403 20.2508 62.7394 22.1231C63.1074 24.1853 65.7727 24.742 67.3464 26.1336C69.9926 28.4614 69.0407 33.0348 66.5151 35.4955C63.9958 37.9562 60.4612 39.0062 57.2502 40.4738C55.943 41.0747 54.4517 42.1817 54.7754 43.5797C54.8706 44.0098 55.1371 44.383 55.4226 44.7183C57.5993 47.2738 61.4512 48.7034 62.1238 51.9927C62.6315 54.485 60.9118 56.9773 58.7352 58.2994C56.5585 59.6214 53.9821 60.0769 51.52 60.7411C49.0578 61.4053 46.5258 62.3984 44.9838 64.4226C42.731 67.3893 43.2831 71.5452 43.9812 75.2014C44.1652 76.1756 44.3619 77.1561 44.6094 78.1175C42.2995 78.5477 40.015 79.0917 37.775 79.7179C32.0701 81.3183 26.5746 83.6208 21.5678 86.7773C17.7857 89.1621 14.1495 92.1162 12.0237 96.0633C8.91422 101.826 9.52342 109.202 12.9248 114.794C16.3261 120.385 22.2404 124.225 28.5989 125.832C31.9114 126.667 35.5095 127.015 38.2192 129.089C40.9288 131.164 41.6332 135.51 39.0885 137.787C37.9209 138.837 36.436 138.654 36.436 138.654C34.748 138.344 33.4598 137.034 32.0701 136.022C30.8961 135.162 29.5825 134.485 28.1991 134.03C27.0823 133.657 25.6608 133.498 24.9818 134.586C24.4741 135.402 24.7089 136.478 25.426 137.117C27.5709 139.021 30.5153 137.616 32.711 139.4C33.3963 139.957 33.72 140.893 33.409 141.722C32.8887 143.082 31.2768 143.05 29.995 143.392C27.1203 144.157 25.5085 147.149 24.4361 149.92C23.9284 151.229 23.4207 152.621 22.3229 153.494C19.2388 155.961 13.737 152.836 11.2051 156.252C10.8878 156.675 10.6784 157.175 10.5641 157.694C9.7709 161.375 13.1342 164.494 16.6371 164.779C19.6767 165.025 22.6465 163.501 24.8295 161.382C27.0125 159.256 28.5355 156.568 30.0331 153.917C31.0992 152.026 32.1716 150.128 33.2377 148.237C33.8025 147.231 34.3926 146.2 35.3191 145.511C36.5692 144.575 38.6126 144.435 39.3741 146.27C39.6279 146.883 39.6406 147.573 39.4756 148.218C39.0378 149.951 37.6734 151.134 36.7914 152.614C34.2086 156.947 36.2456 162.52 35.3699 167.486C35.0272 169.422 34.234 171.281 34.1705 173.249C34.0944 175.614 35.5285 178.36 38.2953 177.961C39.7104 177.752 40.8209 176.683 41.3159 175.342C42.401 172.401 41.0938 169.592 40.3196 166.784C38.6507 160.749 39.482 154.069 42.5787 148.623C43.0293 147.826 43.575 147.004 44.7871 147.067C45.4343 147.098 46.0562 147.408 46.5004 147.883C47.4713 148.927 47.611 150.388 47.6363 151.76C47.7125 155.562 47.281 159.8 49.6987 162.742C50.3777 163.564 51.2408 164.228 51.8119 165.126C52.7764 166.638 52.7384 168.555 53.1699 170.295C53.6585 172.268 55.3338 174.381 57.485 173.483C58.4623 173.078 59.1096 172.129 59.2682 171.085C60.1883 165.12 53.8552 161.755 51.19 156.796C49.5655 153.772 49.3687 150.166 49.8383 146.776C49.9272 146.137 50.0731 145.435 50.7902 145.169C51.3867 144.948 52.053 145.182 52.4972 145.637C53.4618 146.624 53.4364 148.06 54.09 149.186C55.1752 151.039 57.65 151.438 59.8012 151.564C64.0339 151.805 68.5712 151.685 72.074 149.312C72.8355 148.8 73.5019 148.142 74.0666 147.396C74.5933 148.047 75.2025 148.629 75.8879 149.091C79.3971 151.463 83.928 151.59 88.1607 151.343C90.3119 151.216 92.7931 150.824 93.8719 148.965C94.5319 147.839 94.5001 146.403 95.4647 145.416C95.9089 144.96 96.5752 144.726 97.1717 144.948C97.8888 145.213 98.0347 145.916 98.1236 146.554C98.5995 149.951 98.3965 153.557 96.7719 156.574C94.1067 161.534 87.7736 164.899 88.6937 170.864C88.8524 171.908 89.4996 172.85 90.4769 173.261C92.6281 174.159 94.3034 172.047 94.792 170.073C95.2235 168.334 95.1855 166.417 96.15 164.905C96.7212 164.007 97.5905 163.343 98.2632 162.52C100.687 159.579 100.249 155.341 100.326 151.539C100.351 150.16 100.497 148.705 101.461 147.661C101.906 147.187 102.521 146.877 103.175 146.845C104.381 146.782 104.926 147.605 105.383 148.402C108.48 153.848 109.311 160.528 107.642 166.562C106.868 169.371 105.561 172.18 106.646 175.121C107.141 176.456 108.251 177.531 109.667 177.74C112.433 178.145 113.868 175.399 113.791 173.027C113.728 171.066 112.935 169.2 112.592 167.265C111.716 162.299 113.753 156.726 111.171 152.393C110.288 150.913 108.924 149.73 108.486 147.997C108.321 147.351 108.334 146.662 108.588 146.048C109.349 144.214 111.393 144.353 112.643 145.289C113.569 145.979 114.159 147.016 114.724 148.016L117.929 153.696C119.426 156.347 120.949 159.035 123.132 161.16C125.315 163.286 128.285 164.804 131.325 164.557C134.828 164.273 138.191 161.154 137.398 157.472C137.284 156.954 137.074 156.454 136.757 156.03H136.795ZM89.0491 146.592C87.0882 148.446 84.1057 149.142 81.523 148.351C78.9402 147.56 76.8651 145.308 76.2877 142.677C76.0782 141.715 76.0529 140.703 75.6785 139.792C75.4437 139.217 75.0122 138.673 74.4791 138.369C73.9461 138.065 73.3369 138.243 73.0196 138.723C72.8482 138.989 72.7086 139.261 72.5817 139.546C72.4865 139.697 72.404 139.849 72.3406 140.007C71.9725 140.918 71.9471 141.93 71.7314 142.892C71.1539 145.523 69.0788 147.775 66.4961 148.566C63.9133 149.357 60.9245 148.661 58.9699 146.807C56.768 144.726 55.9938 141.5 56.1524 138.477C56.3428 134.839 57.7642 131.272 60.1312 128.495C63.4564 124.592 68.2983 122.46 72.8863 120.018C73.7113 119.582 74.7012 119.582 75.5325 120.018C79.9936 122.372 84.6578 124.491 87.8814 128.28C90.2484 131.057 91.6699 134.624 91.8603 138.262C92.0189 141.279 91.2447 144.511 89.0427 146.592H89.0491Z" fill="black"/>
</svg>
