<svg width="165" height="176" viewBox="0 0 165 176" fill="none" xmlns="http://www.w3.org/2000/svg">
<g clip-path="url(#clip0_1179_841)">
<mask id="mask0_1179_841" style="mask-type:luminance" maskUnits="userSpaceOnUse" x="0" y="0" width="165" height="176">
<path d="M165 0H0V176H165V0Z" fill="white"/>
</mask>
<g mask="url(#mask0_1179_841)">
<path d="M89.8388 87.5134C91.5325 89.5711 93.2448 91.6644 94.3327 94.066C95.2167 96.017 95.6679 98.128 96.5642 100.067C98.7896 104.888 103.889 108.369 109.366 108.802C107.975 106.964 106.757 105.001 105.744 102.949C105.064 101.579 104.464 100.061 104.792 98.5787C108.525 99.3793 111.288 102.38 113.44 105.416C115.591 108.452 117.507 111.791 120.598 113.949C123.305 115.835 126.649 116.635 129.907 117.377C127.434 114.88 125.215 112.158 123.287 109.247C122.829 108.553 122.415 107.563 123.039 106.999C123.342 106.726 123.794 106.679 124.208 106.697C125.66 106.774 126.965 107.551 128.127 108.387C129.833 109.614 131.391 111.02 132.837 112.514C134.29 114.014 135.668 115.633 137.516 116.659C140.65 118.403 144.526 118.136 148.136 117.815C143.797 115.948 139.939 113.066 136.991 109.49C136.719 109.164 136.447 108.808 136.391 108.393C136.292 107.705 136.836 107.047 137.51 106.78C138.178 106.519 138.938 106.572 139.649 106.703C141.775 107.082 143.772 108.084 145.311 109.537C144.409 106.442 143.271 103.05 140.391 101.407C138.598 100.387 136.422 100.233 134.339 100.239C132.256 100.245 130.129 100.387 128.121 99.8596C126.112 99.3377 124.177 97.9739 123.713 96.0229C123.658 95.7916 123.627 95.5367 123.732 95.3232C123.923 94.9259 124.461 94.8369 124.919 94.8251C128.164 94.7124 131.44 95.6197 134.117 97.3749C133.61 94.8784 132.392 92.4887 130.476 90.7275C128.566 88.9663 125.938 87.8811 123.293 87.9641C120.579 88.0531 118.076 89.3043 115.529 90.2234C112.982 91.1366 110.027 91.7059 107.629 90.4725C107.19 90.2472 106.77 89.9507 106.541 89.5296C105.941 88.397 106.999 87.0924 108.117 86.4105C110.769 84.7975 114.262 84.5366 117.148 85.7345C114.608 83.5878 111.975 81.3878 108.773 80.3204C105.571 79.253 101.614 79.5851 99.3273 81.9927C98.6536 82.6983 98.1591 83.5404 97.4791 84.2401C95.4825 86.28 92.3238 86.701 89.4308 86.9975" fill="black"/>
<path d="M89.777 87.721C88.2131 90.0277 86.6245 92.3641 84.5042 94.2143C82.7796 95.7086 80.7521 96.8531 79.0398 98.3593C74.7993 102.107 72.9078 108.138 74.3048 113.504C75.7389 111.559 77.3585 109.739 79.1449 108.078C80.3379 106.97 81.704 105.89 83.3483 105.701C83.7748 109.531 81.5989 113.172 79.182 116.244C76.765 119.322 73.9525 122.263 72.7595 125.945C71.7148 129.159 72.0177 132.617 72.3453 135.973C74.0947 132.777 76.1716 129.741 78.5329 126.93C79.0955 126.26 79.9856 125.536 80.7768 125.939C81.1601 126.135 81.364 126.55 81.4815 126.953C81.8956 128.365 81.5248 129.871 81.055 131.259C80.3565 133.293 79.4292 135.255 78.366 137.141C77.3028 139.027 76.0913 140.895 75.6462 142.994C74.8921 146.57 76.4745 150.175 78.0261 153.502C78.4959 148.74 80.1834 144.091 82.897 140.076C83.1443 139.709 83.4225 139.329 83.8304 139.134C84.5104 138.807 85.3758 139.104 85.8765 139.655C86.3772 140.207 86.575 140.948 86.6801 141.666C87.0015 143.818 86.6368 146.06 85.654 148.017C88.5531 146.113 91.6809 143.889 92.4165 140.592C92.8739 138.541 92.299 136.412 91.5882 134.431C90.8773 132.445 90.0181 130.47 89.8883 128.377C89.7523 126.283 90.5126 123.983 92.3732 122.886C92.5957 122.755 92.843 122.642 93.1026 122.666C93.5786 122.714 93.8506 123.2 94.0175 123.627C95.229 126.681 95.3897 130.108 94.4749 133.251C96.8857 131.929 98.9503 129.96 100.131 127.546C101.312 125.133 101.553 122.263 100.57 119.772C99.5622 117.211 97.4234 115.254 95.6185 113.137C93.8135 111.02 92.231 108.393 92.6946 105.695C92.7812 105.202 92.9419 104.698 93.3066 104.343C94.2771 103.388 95.9832 103.957 97.0649 104.793C99.6302 106.78 101.077 110.023 100.811 113.172C102.177 110.023 103.574 106.774 103.599 103.364C103.623 99.9545 101.948 96.2957 98.6906 94.9259C97.7325 94.5226 96.694 94.3329 95.7421 93.9178C92.9604 92.7021 91.4583 89.8321 90.1726 87.1754" fill="black"/>
<path d="M91.4212 87.3119C88.5901 86.873 85.7219 86.4283 83.101 85.3135C80.9746 84.4121 79.0645 83.0897 76.9319 82.2003C71.6468 79.9943 65.1315 80.783 60.582 84.1808C63.0175 84.6493 65.4097 85.3372 67.7092 86.2267C69.2484 86.8197 70.8308 87.5846 71.6777 88.9485C68.1975 90.8758 63.852 90.4369 59.9391 89.5652C56.0263 88.6876 52.0825 87.4186 48.0955 87.8574C44.6091 88.2429 41.4319 89.9092 38.3659 91.5518C42.1242 91.789 45.8578 92.382 49.4925 93.313C50.3579 93.5324 51.4087 94.0186 51.3469 94.8785C51.316 95.2936 51.0007 95.6434 50.6669 95.9103C49.4925 96.8413 47.91 97.1318 46.3894 97.2801C44.1641 97.4936 41.9202 97.4698 39.6949 97.3038C37.4634 97.1378 35.1948 96.8294 33.0127 97.2919C29.3039 98.0806 26.5037 100.927 23.9569 103.637C28.6857 102.119 33.7978 101.716 38.7244 102.469C39.1756 102.54 39.6454 102.623 39.9978 102.902C40.585 103.364 40.653 104.248 40.3316 104.906C40.0101 105.564 39.3796 106.039 38.7368 106.424C36.8143 107.58 34.5334 108.167 32.271 108.096C35.2628 109.869 38.6502 111.714 42.0871 111.02C44.2259 110.587 46.0247 109.223 47.6257 107.8C49.2267 106.377 50.7658 104.817 52.7068 103.856C54.6478 102.89 57.1451 102.623 58.9501 103.809C59.1664 103.951 59.3766 104.123 59.457 104.36C59.5991 104.799 59.253 105.232 58.913 105.552C56.496 107.853 53.2941 109.383 49.9252 109.852C52.1629 111.435 54.8765 112.449 57.652 112.502C60.4275 112.556 63.2586 111.607 65.2428 109.739C67.2765 107.818 68.2779 105.149 69.5636 102.706C70.8494 100.263 72.7162 97.8138 75.4731 97.1259C75.98 97.0014 76.5239 96.9421 77.0123 97.114C78.3166 97.5766 78.4649 99.3081 78.1002 100.595C77.2472 103.649 74.7437 106.234 71.6282 107.272C75.1826 107.201 78.842 107.1 82.1058 105.742C85.3696 104.384 88.176 101.431 88.1574 98.0213C88.1574 97.0192 87.9102 96.0289 87.9225 95.0267C87.9534 92.0914 90.0799 89.6186 92.095 87.4127" fill="black"/>
<path d="M93.1211 89.239C92.6637 86.5231 92.2063 83.7716 92.4845 81.032C92.707 78.8142 93.4179 76.6557 93.628 74.4379C94.1473 68.929 91.3223 63.2422 86.5317 60.1705C86.8346 62.5365 86.9026 64.9263 86.7481 67.3101C86.643 68.8934 86.3895 70.5835 85.3016 71.7813C82.3036 69.2196 81.364 65.122 81.0055 61.2853C80.647 57.4486 80.6655 53.4578 78.9718 49.9591C77.4944 46.9052 74.8488 44.5392 72.2588 42.2621C73.2045 45.7607 73.7918 49.3424 74.0081 52.9478C74.0637 53.8077 73.9092 54.9166 73.0438 55.1241C72.6235 55.2249 72.1784 55.0529 71.8137 54.8276C70.5218 54.0508 69.7367 52.6988 69.1124 51.3586C68.2037 49.4017 67.5176 47.35 66.986 45.2686C66.4482 43.1871 66.0464 41.0227 64.9028 39.1785C62.9557 36.0475 59.2592 34.399 55.779 32.9283C58.7647 36.7591 60.7736 41.2896 61.571 46.0098C61.6452 46.4427 61.707 46.8993 61.5401 47.3084C61.2681 47.9845 60.4151 48.3284 59.661 48.2394C58.9068 48.1505 58.2392 47.7295 57.6582 47.2669C55.915 45.8793 54.6107 43.9877 53.9679 41.9003C53.1519 45.1796 52.3916 48.8443 54.1595 51.7618C55.2598 53.5764 57.176 54.7802 59.0861 55.7942C61.0023 56.8082 63.0237 57.7155 64.5876 59.1802C66.1515 60.6449 67.2023 62.833 66.5904 64.8492C66.5162 65.0864 66.4173 65.3355 66.2071 65.4837C65.8239 65.7506 65.2799 65.5727 64.8534 65.3651C61.8183 63.8826 59.2963 61.4514 57.7756 58.5279C56.9102 61.06 56.7619 63.853 57.584 66.3969C58.4 68.9468 60.2297 71.2239 62.7022 72.4395C65.2428 73.6848 68.1975 73.7619 71.0225 74.1651C73.8412 74.5684 76.8516 75.4994 78.3969 77.7943C78.6813 78.2153 78.91 78.6897 78.8914 79.1878C78.842 80.522 77.1792 81.1981 75.7884 81.2751C72.4998 81.459 69.1557 79.9883 67.1467 77.48C68.3397 80.694 69.5822 83.997 71.9497 86.5409C74.3172 89.0849 78.125 90.7097 81.4938 89.6245C82.4829 89.3043 83.3854 88.7765 84.3806 88.4682C87.292 87.5727 90.4137 88.735 93.2262 89.8736" fill="black"/>
<path d="M91.1925 88.9841C93.8011 87.8455 96.4529 86.701 99.2779 86.2385C101.571 85.8649 103.92 85.9539 106.213 85.5625C111.888 84.5959 116.864 80.4865 118.7 75.2444C116.4 76.1458 114.008 76.8396 111.579 77.3199C109.953 77.6401 108.192 77.8476 106.702 77.1538C108.488 73.7026 112.364 71.7576 116.128 70.4174C119.893 69.0773 123.911 68.0395 126.983 65.5608C129.666 63.3905 131.353 60.3187 132.961 57.3241C129.691 59.115 126.241 60.6034 122.668 61.7538C121.822 62.0266 120.659 62.1807 120.221 61.4336C120.004 61.0718 120.066 60.6152 120.196 60.2179C120.641 58.8185 121.791 57.7392 122.971 56.8082C124.702 55.4503 126.581 54.2821 128.535 53.2384C130.488 52.1947 132.559 51.2519 134.11 49.7101C136.75 47.0831 137.436 43.2287 138.005 39.6233C134.932 43.3947 130.908 46.4427 126.371 48.4233C125.957 48.6071 125.512 48.7791 125.061 48.7376C124.307 48.6605 123.744 47.9608 123.633 47.2432C123.522 46.5257 123.769 45.7963 124.084 45.1322C125.017 43.1516 126.581 41.4497 128.51 40.3111C124.999 40.4179 121.111 40.6788 118.644 43.0804C117.111 44.5748 116.4 46.6621 115.887 48.702C115.374 50.7419 114.991 52.853 113.928 54.6853C112.865 56.5177 110.936 58.0654 108.748 58.0298C108.488 58.0298 108.216 57.9942 108.012 57.84C107.641 57.5554 107.678 57.0039 107.777 56.5592C108.47 53.3629 110.256 50.3861 112.797 48.2098C110.021 48.0794 107.178 48.6723 104.829 50.1015C102.48 51.5306 100.669 53.8195 100.094 56.4287C99.5066 59.1031 100.211 61.8605 100.545 64.5824C100.879 67.2983 100.737 70.3285 98.8328 72.3625C98.4866 72.736 98.0663 73.074 97.5594 73.1867C96.2057 73.4891 95.0868 72.1312 94.648 70.8622C93.6033 67.8616 94.1967 64.3867 96.1933 61.8665C93.2757 63.8115 90.2777 65.8336 88.3429 68.6978C86.4081 71.5619 85.7714 75.5053 87.7495 78.3458C88.3305 79.176 89.1032 79.8757 89.6719 80.7177C91.3347 83.1787 90.9885 86.369 90.5806 89.2746" fill="black"/>
<path d="M61.2867 38.9946C62.0965 37.6841 62.9124 36.3618 64.0436 35.2884C64.9585 34.4227 66.0526 33.7467 66.9613 32.8749C69.2113 30.7105 70.1076 27.3364 69.2051 24.4011C68.4634 25.51 67.6103 26.5477 66.6646 27.5084C66.0341 28.1488 65.3047 28.7774 64.4022 28.9197C64.0745 26.8146 65.1872 24.7569 66.4482 23.0016C67.7092 21.2463 69.1866 19.5563 69.7615 17.4986C70.2622 15.6959 70.0087 13.7983 69.7429 11.9482C68.8528 13.7568 67.7834 15.4765 66.5471 17.0835C66.2504 17.463 65.7806 17.89 65.3356 17.6824C65.1192 17.5816 64.9956 17.3563 64.9214 17.1369C64.6618 16.366 64.8225 15.5299 65.0512 14.7471C65.385 13.6086 65.8548 12.5056 66.3926 11.4382C66.9366 10.3708 67.5609 9.3153 67.7525 8.14117C68.0801 6.14871 67.1158 4.19183 66.1824 2.38913C66.0402 5.02795 65.2243 7.63713 63.8211 9.91422C63.6913 10.1218 63.5491 10.3352 63.3328 10.4538C62.9681 10.6495 62.4797 10.5072 62.1892 10.2107C61.8987 9.92015 61.775 9.51099 61.6947 9.11961C61.466 7.93955 61.6081 6.69427 62.1027 5.58537C60.5449 6.70613 58.8759 7.99885 58.5483 9.84306C58.3443 10.9875 58.7152 12.1498 59.1603 13.2291C59.5992 14.3083 60.1246 15.3816 60.2482 16.532C60.3719 17.6884 60.0133 18.9752 59.0119 19.6215C58.8945 19.6986 58.7585 19.7698 58.6163 19.7579C58.3505 19.7401 58.1898 19.4792 58.0847 19.2479C57.3429 17.5876 57.1637 15.7018 57.5964 13.9407C56.2921 14.7234 55.2042 15.862 54.6107 17.2199C54.0173 18.5779 53.9555 20.1671 54.5613 21.525C55.1794 22.9186 56.4095 23.9504 57.4604 25.0771C58.5112 26.2038 59.4508 27.621 59.2592 29.1213C59.2221 29.3941 59.1479 29.6787 58.9563 29.8803C58.4432 30.4318 57.4851 30.1531 56.867 29.7143C55.402 28.6766 54.5242 26.9154 54.5922 25.172C53.9122 26.945 53.2261 28.7655 53.2941 30.6512C53.3621 32.5369 54.382 34.5175 56.2117 35.1995C56.7495 35.4011 57.3306 35.4841 57.8622 35.6917C59.4261 36.3025 60.3286 37.8502 61.1074 39.2911" fill="black"/>
<path d="M89.9377 141.713C89.8944 143.231 89.8449 144.773 89.3999 146.232C89.0352 147.412 88.4232 148.515 88.0709 149.701C87.1931 152.642 88.1203 156.01 90.3889 158.151C90.4816 156.834 90.698 155.53 91.0441 154.255C91.2728 153.407 91.5943 152.511 92.3113 151.972C93.6651 153.662 93.7331 155.98 93.5167 158.097C93.3004 160.22 92.8615 162.385 93.4054 164.448C93.8814 166.251 95.0621 167.799 96.2242 169.293C96.0882 167.301 96.1562 165.296 96.422 163.316C96.4838 162.847 96.6878 162.254 97.1823 162.231C97.4234 162.219 97.6459 162.355 97.819 162.515C98.4371 163.067 98.7153 163.879 98.9131 164.668C99.1975 165.818 99.3458 167.004 99.4138 168.184C99.4818 169.37 99.4694 170.586 99.8898 171.701C100.607 173.592 102.437 174.855 104.174 176C102.962 173.622 102.362 170.965 102.437 168.321C102.443 168.078 102.461 167.823 102.591 167.621C102.814 167.277 103.314 167.182 103.71 167.301C104.112 167.419 104.427 167.716 104.693 168.024C105.49 168.949 105.997 170.106 106.121 171.303C106.918 169.602 107.728 167.686 107.079 165.931C106.677 164.834 105.768 163.992 104.835 163.251C103.902 162.509 102.906 161.816 102.214 160.867C101.522 159.918 101.188 158.625 101.738 157.587C101.8 157.463 101.886 157.338 102.016 157.279C102.257 157.172 102.529 157.327 102.739 157.481C104.229 158.584 105.336 160.155 105.849 161.893C106.59 160.6 106.974 159.1 106.801 157.635C106.628 156.17 105.88 154.753 104.668 153.846C103.426 152.915 101.825 152.583 100.335 152.085C98.8451 151.586 97.3121 150.786 96.7187 149.38C96.6074 149.125 96.5394 148.841 96.6013 148.574C96.7682 147.856 97.751 147.649 98.5113 147.75C100.316 147.975 101.973 149.108 102.795 150.667C102.492 148.805 102.177 146.884 101.163 145.271C100.149 143.652 98.2579 142.395 96.3107 142.65C95.7359 142.727 95.1919 142.923 94.617 142.994C92.9418 143.19 91.3717 142.253 89.9624 141.351" fill="black"/>
<path d="M116.265 77.646C117.544 78.3042 118.848 78.9743 119.949 79.8519C120.845 80.5635 121.587 81.3878 122.483 82.0935C124.708 83.8428 127.873 84.6908 130.426 84.2282C129.332 83.6234 128.287 82.9474 127.311 82.2121C126.656 81.7199 126 81.1565 125.765 80.4983C127.638 80.3916 129.635 81.3166 131.372 82.3307C133.109 83.3447 134.815 84.5069 136.75 85.0466C138.437 85.515 140.137 85.4498 141.775 85.3786C140.032 84.6315 138.345 83.7538 136.744 82.7695C136.36 82.5382 135.922 82.1705 136.058 81.8622C136.126 81.7139 136.311 81.6369 136.503 81.5953C137.17 81.453 137.949 81.625 138.685 81.8385C139.76 82.1468 140.811 82.5501 141.843 83.0067C142.876 83.4573 143.908 83.9732 144.99 84.1867C146.832 84.5425 148.495 83.9733 150.015 83.4158C147.604 83.149 145.144 82.4018 142.913 81.2573C142.709 81.1506 142.499 81.0379 142.363 80.8719C142.14 80.5991 142.214 80.2552 142.449 80.0654C142.678 79.8757 143.03 79.8104 143.383 79.7808C144.427 79.6859 145.571 79.8697 146.634 80.2967C145.435 79.1107 144.062 77.8298 142.356 77.4859C141.299 77.2724 140.286 77.4622 139.358 77.7112C138.431 77.9603 137.523 78.2686 136.49 78.2864C135.458 78.3042 134.253 77.9662 133.542 77.2072C133.455 77.1182 133.381 77.0174 133.369 76.9166C133.35 76.7269 133.566 76.6261 133.77 76.5668C135.186 76.1339 136.88 76.1279 138.524 76.543C137.659 75.5646 136.503 74.7048 135.198 74.2007C133.894 73.6907 132.448 73.5484 131.292 73.8983C130.105 74.2541 129.314 75.0783 128.411 75.7603C127.509 76.4422 126.34 77.0293 124.956 76.798C124.702 76.7565 124.436 76.6794 124.232 76.5312C123.676 76.1279 123.812 75.4579 124.133 75.0428C124.9 74.0525 126.39 73.5306 127.985 73.6907C126.297 73.0918 124.566 72.487 122.86 72.4217C121.16 72.3565 119.485 72.9614 119.083 74.2363C118.966 74.6099 118.96 75.019 118.836 75.3926C118.471 76.4778 117.173 77.0293 115.955 77.4978" fill="black"/>
<path d="M105.367 51.5365C105.713 50.5225 106.065 49.4966 106.665 48.6012C107.153 47.8777 107.796 47.2551 108.278 46.5257C109.477 44.7171 109.558 42.2799 108.476 40.406C108.142 41.2718 107.722 42.1079 107.227 42.9025C106.9 43.4303 106.498 43.9699 105.904 44.1952C105.348 42.8017 105.781 41.2303 106.368 39.8486C106.955 38.4669 107.697 37.0912 107.765 35.6027C107.821 34.2982 107.351 33.0351 106.875 31.8076C106.553 33.1715 106.09 34.5057 105.503 35.7866C105.36 36.089 105.107 36.4507 104.767 36.3736C104.606 36.3381 104.483 36.2017 104.396 36.0653C104.093 35.579 104.075 34.9801 104.106 34.4108C104.155 33.5806 104.297 32.7564 104.501 31.9499C104.699 31.1434 104.965 30.3251 104.909 29.4949C104.816 28.0836 103.852 26.8857 102.925 25.7887C103.246 27.6151 103.098 29.5186 102.498 31.2798C102.443 31.4399 102.381 31.606 102.251 31.7186C102.029 31.9084 101.676 31.8787 101.429 31.7186C101.188 31.5585 101.033 31.3035 100.916 31.0426C100.57 30.2658 100.471 29.3941 100.638 28.5639C99.7477 29.5542 98.8081 30.6868 98.8761 31.9914C98.9193 32.8038 99.3582 33.5451 99.828 34.2211C100.298 34.8971 100.829 35.5553 101.095 36.3262C101.361 37.0971 101.318 38.0281 100.737 38.6211C100.669 38.6922 100.588 38.7575 100.489 38.7753C100.304 38.8049 100.156 38.6448 100.044 38.5025C99.2717 37.4766 98.8575 36.2076 98.8699 34.9445C98.1034 35.668 97.5347 36.6049 97.3493 37.6249C97.1576 38.6389 97.3678 39.7359 97.9921 40.578C98.635 41.4378 99.6426 41.9715 100.539 42.5882C101.435 43.2049 102.301 44.0411 102.406 45.0966C102.424 45.2863 102.418 45.4939 102.319 45.6599C102.053 46.1106 101.355 46.0632 100.867 45.8497C99.6982 45.3516 98.8204 44.2782 98.5917 43.0745C98.4063 44.385 98.227 45.737 98.567 47.0119C98.9132 48.2928 99.9207 49.5025 101.281 49.6982C101.682 49.7575 102.09 49.7279 102.492 49.7931C103.661 49.9829 104.52 50.9139 105.28 51.7856" fill="black"/>
<path d="M47.9718 73.7086C46.7232 73.0681 45.4622 72.4158 44.3928 71.556C43.5274 70.8622 42.8103 70.0439 41.9387 69.35C39.7814 67.6363 36.6907 66.8239 34.1872 67.3101C35.2504 67.8972 36.2642 68.5554 37.2099 69.2789C37.8466 69.7592 38.4771 70.3107 38.6997 70.963C36.87 71.0875 34.9228 70.1862 33.2353 69.2018C31.5477 68.2115 29.8911 67.0729 27.9996 66.557C26.3491 66.1064 24.6925 66.1894 23.0853 66.2783C24.779 67.0077 26.4233 67.8557 27.981 68.8223C28.3519 69.0535 28.7784 69.4093 28.6425 69.7177C28.5745 69.8659 28.389 69.943 28.2036 69.9846C27.5483 70.1328 26.788 69.9727 26.071 69.7651C25.0263 69.4686 23.994 69.0773 22.9926 68.6385C21.9912 68.1996 20.9836 67.6956 19.9266 67.4999C18.1278 67.1619 16.4959 67.749 15 68.3242C17.3551 68.5614 19.7535 69.2789 21.9232 70.3937C22.121 70.4945 22.325 70.6072 22.4548 70.7732C22.665 71.046 22.5908 71.384 22.3621 71.5738C22.1334 71.7635 21.7872 71.8347 21.4472 71.8703C20.4273 71.9711 19.3023 71.805 18.2762 71.3959C19.4321 72.5641 20.7611 73.8212 22.4301 74.1474C23.4624 74.349 24.4576 74.1474 25.3663 73.8924C26.275 73.6374 27.1713 73.3172 28.1788 73.2875C29.1864 73.2579 30.3671 73.584 31.0532 74.3312C31.1336 74.4201 31.2078 74.521 31.2201 74.6218C31.2325 74.8115 31.0223 74.9123 30.8245 74.9716C29.4337 75.4164 27.7771 75.4401 26.1761 75.0428C27.0106 76.0094 28.1356 76.8455 29.4028 77.3377C30.67 77.8299 32.0855 77.9544 33.2229 77.5986C34.3912 77.2309 35.1762 76.4067 36.0602 75.7188C36.9503 75.0309 38.1001 74.4379 39.4538 74.6514C39.7011 74.6929 39.9607 74.7581 40.1585 74.9064C40.7025 75.2978 40.5603 75.9679 40.2388 76.383C39.4723 77.3733 38.0135 77.9069 36.4558 77.7646C38.1001 78.3398 39.7876 78.9269 41.4504 78.9743C43.1132 79.0218 44.7575 78.3991 45.1655 77.1301C45.2829 76.7565 45.2953 76.3474 45.4189 75.9797C45.7898 74.8945 47.0693 74.3371 48.2624 73.8568" fill="black"/>
<path d="M34.4221 129.207C34.4901 130.268 34.5519 131.348 34.3356 132.397C34.1563 133.245 33.7978 134.046 33.6247 134.894C33.1982 136.999 34.0574 139.294 35.782 140.658C35.7635 139.732 35.8315 138.807 35.9922 137.9C36.0973 137.295 36.2642 136.655 36.734 136.234C37.7848 137.331 37.9826 138.95 37.9641 140.438C37.9456 141.932 37.7787 143.468 38.2917 144.88C38.7368 146.113 39.664 147.121 40.5665 148.1C40.344 146.718 40.2636 145.313 40.3254 143.913C40.3378 143.581 40.4429 143.16 40.789 143.113C40.9559 143.089 41.1166 143.172 41.2526 143.273C41.7224 143.623 41.9635 144.168 42.1551 144.708C42.4271 145.496 42.6064 146.309 42.73 147.133C42.8536 147.957 42.9216 148.805 43.2863 149.558C43.9106 150.839 45.2644 151.61 46.5501 152.31C45.5549 150.721 44.9677 148.9 44.844 147.05C44.8317 146.884 44.8255 146.7 44.9059 146.552C45.0419 146.303 45.3818 146.202 45.6662 146.261C45.9505 146.321 46.1916 146.51 46.4018 146.712C47.0199 147.311 47.4403 148.088 47.6072 148.918C48.0522 147.685 48.4973 146.303 47.9348 145.111C47.5824 144.37 46.8963 143.836 46.1978 143.373C45.4993 142.911 44.7575 142.484 44.2135 141.861C43.6696 141.239 43.3543 140.355 43.6696 139.602C43.7067 139.513 43.7561 139.418 43.8427 139.371C44.0034 139.282 44.2012 139.371 44.3557 139.466C45.4684 140.148 46.34 141.179 46.8097 142.365C47.2424 141.422 47.4155 140.349 47.2054 139.341C46.9952 138.327 46.3832 137.378 45.4746 136.821C44.5473 136.246 43.41 136.103 42.3406 135.848C41.2712 135.587 40.1461 135.119 39.6454 134.17C39.5527 133.998 39.4847 133.808 39.5095 133.613C39.5836 133.103 40.2512 132.901 40.789 132.925C42.0624 132.978 43.2925 133.666 43.9663 134.71C43.6387 133.423 43.2925 132.107 42.4827 131.039C41.673 129.972 40.2698 129.201 38.9284 129.491C38.5328 129.574 38.1619 129.746 37.7663 129.829C36.6104 130.067 35.4544 129.503 34.4159 128.958" fill="black"/>
<path d="M60.2482 65.798C59.3457 66.1538 58.4247 66.5155 57.4542 66.646C56.6692 66.7468 55.8656 66.6875 55.0805 66.7943C53.1334 67.0611 51.384 68.4072 50.6917 70.1743C51.4891 69.8956 52.3112 69.6821 53.1457 69.5457C53.7021 69.4568 54.3078 69.4034 54.8085 69.6584C54.1533 70.8148 52.8119 71.4315 51.5076 71.8466C50.2095 72.2617 48.8187 72.57 47.7431 73.3824C46.8036 74.094 46.1854 75.1199 45.5982 76.128C46.7356 75.5528 47.9348 75.0843 49.1649 74.7344C49.4554 74.6514 49.8572 74.6099 49.9932 74.8708C50.0612 74.9954 50.0365 75.1495 49.9932 75.2859C49.8263 75.7603 49.4183 76.1161 49.0042 76.4185C48.3984 76.8633 47.7431 77.2369 47.0632 77.5749C46.3832 77.907 45.6662 78.2094 45.116 78.7194C44.1826 79.5851 43.8983 80.8897 43.6634 82.1172C44.7575 80.866 46.1669 79.8698 47.7431 79.2471C47.8853 79.1878 48.0399 79.1345 48.1944 79.1582C48.454 79.1938 48.6333 79.4369 48.6642 79.6859C48.6951 79.935 48.6024 80.1781 48.4849 80.4035C48.1388 81.0676 47.5886 81.631 46.9148 81.9986C48.114 81.9986 49.443 81.9571 50.3146 81.1684C50.8586 80.6762 51.1244 79.9706 51.3284 79.2827C51.5324 78.5948 51.6869 77.8773 52.0702 77.2665C52.4534 76.6557 53.1334 76.1458 53.8751 76.1813C53.9617 76.1813 54.0606 76.1991 54.1224 76.2525C54.246 76.3533 54.2275 76.5431 54.1842 76.6913C53.906 77.7765 53.2632 78.7668 52.3669 79.4843C53.3126 79.5614 54.2893 79.3895 55.1114 78.9328C55.9274 78.4703 56.5764 77.7113 56.8051 76.8277C57.04 75.9204 56.8361 74.9716 56.7557 74.0406C56.6753 73.1096 56.7557 72.0778 57.4357 71.4018C57.5593 71.2773 57.7076 71.1705 57.8807 71.135C58.3443 71.046 58.709 71.5263 58.845 71.9592C59.1665 72.997 58.9192 74.177 58.2083 75.0132C59.2283 74.3846 60.2791 73.7264 60.9714 72.7716C61.6699 71.8169 61.9358 70.4767 61.2929 69.4864C61.1074 69.1959 60.8478 68.9468 60.6686 68.6563C60.1308 67.7964 60.2915 66.7112 60.4646 65.7269" fill="black"/>
<path d="M126.754 116.772C127.033 117.673 127.311 118.586 127.342 119.523C127.366 120.282 127.224 121.041 127.249 121.806C127.317 123.692 128.535 125.501 130.29 126.349C130.08 125.56 129.95 124.753 129.901 123.941C129.864 123.401 129.876 122.82 130.191 122.37C131.322 123.111 131.823 124.463 132.12 125.75C132.417 127.036 132.59 128.388 133.319 129.503C133.956 130.476 134.957 131.17 135.94 131.834C135.464 130.689 135.105 129.497 134.864 128.288C134.809 127.997 134.809 127.618 135.093 127.511C135.229 127.457 135.39 127.499 135.526 127.558C135.996 127.766 136.323 128.193 136.595 128.62C136.991 129.248 137.312 129.912 137.59 130.594C137.862 131.276 138.097 131.994 138.567 132.569C139.364 133.548 140.694 133.957 141.936 134.313C140.755 133.138 139.871 131.686 139.389 130.12C139.346 129.978 139.303 129.824 139.34 129.681C139.402 129.438 139.674 129.29 139.933 129.29C140.193 129.29 140.44 129.403 140.656 129.539C141.312 129.936 141.837 130.523 142.146 131.205C142.276 130.061 142.369 128.786 141.639 127.873C141.188 127.303 140.483 126.977 139.791 126.71C139.099 126.449 138.369 126.224 137.776 125.791C137.182 125.358 136.725 124.659 136.842 123.953C136.855 123.87 136.88 123.781 136.948 123.722C137.065 123.615 137.257 123.656 137.411 123.704C138.505 124.077 139.47 124.801 140.119 125.726C140.298 124.831 140.224 123.882 139.828 123.052C139.439 122.221 138.715 121.528 137.825 121.213C136.91 120.893 135.903 120.994 134.932 120.97C133.962 120.952 132.899 120.763 132.268 120.045C132.157 119.915 132.052 119.76 132.039 119.594C131.996 119.144 132.528 118.841 132.998 118.758C134.104 118.563 135.303 118.918 136.095 119.689C135.544 118.652 134.976 117.584 134.061 116.819C133.146 116.054 131.786 115.663 130.692 116.167C130.37 116.315 130.086 116.535 129.765 116.677C128.819 117.098 127.712 116.837 126.705 116.564" fill="black"/>
<path d="M78.057 50.6529C78.5824 50.0658 79.114 49.4729 79.7816 49.0281C80.3194 48.6723 80.9313 48.4233 81.463 48.0675C82.792 47.172 83.5523 45.5591 83.3668 44.0114C82.8909 44.5036 82.3716 44.9542 81.8091 45.3515C81.432 45.6184 81.0117 45.8734 80.5481 45.8674C80.579 44.7823 81.3208 43.8453 82.1182 43.0744C82.9094 42.3036 83.8119 41.5801 84.2817 40.5957C84.6958 39.7359 84.7453 38.7575 84.7886 37.8146C84.1766 38.6448 83.4781 39.4157 82.7116 40.1154C82.5262 40.2814 82.2542 40.4534 82.0502 40.3111C81.9513 40.2399 81.908 40.1213 81.8895 40.0027C81.8277 39.5936 81.9884 39.1903 82.1738 38.8168C82.4458 38.2712 82.7796 37.7612 83.1505 37.269C83.5214 36.7828 83.9293 36.3025 84.1333 35.7332C84.4795 34.7607 84.1766 33.6992 83.8737 32.7148C83.5585 34.0254 82.9094 35.2647 81.9946 36.2847C81.9142 36.3795 81.8215 36.4744 81.6978 36.5159C81.4939 36.5812 81.2651 36.4685 81.1477 36.2965C81.0302 36.1246 81.0055 35.9111 80.9993 35.7095C80.9932 35.0987 81.1786 34.4879 81.5309 33.972C80.647 34.3989 79.6889 34.9089 79.3551 35.8043C79.1511 36.3618 79.2253 36.9725 79.3489 37.5537C79.4725 38.1289 79.6332 38.7159 79.59 39.303C79.5467 39.8901 79.2438 40.5068 78.6813 40.7499C78.6133 40.7796 78.5391 40.8033 78.4711 40.7855C78.3413 40.7558 78.2857 40.6135 78.2548 40.4831C78.0322 39.5876 78.1188 38.627 78.502 37.779C77.7788 38.0636 77.1236 38.538 76.7032 39.1725C76.2829 39.8071 76.1036 40.5957 76.2829 41.3251C76.4622 42.0723 76.9876 42.6949 77.4079 43.3532C77.8283 44.0054 78.1682 44.7941 77.9333 45.5354C77.8901 45.6718 77.8221 45.8022 77.7108 45.8912C77.4017 46.1224 76.9505 45.903 76.6785 45.6303C76.0418 44.9839 75.7637 44.0292 75.9553 43.1575C75.4546 43.9877 74.9353 44.8416 74.7994 45.7963C74.6634 46.7451 74.9848 47.8243 75.844 48.3224C76.0975 48.4707 76.3818 48.5596 76.6291 48.7079C77.3585 49.1467 77.6675 50.0006 77.921 50.7893" fill="black"/>
<path d="M102.554 106.738C102.492 107.509 102.424 108.292 102.158 109.021C101.942 109.614 101.596 110.16 101.386 110.753C100.86 112.223 101.237 113.961 102.331 115.111C102.412 114.447 102.56 113.789 102.77 113.149C102.913 112.722 103.098 112.277 103.481 112.022C104.124 112.917 104.093 114.097 103.92 115.165C103.753 116.238 103.469 117.329 103.685 118.391C103.877 119.322 104.433 120.14 104.983 120.923C104.971 119.909 105.057 118.889 105.249 117.887C105.292 117.649 105.41 117.353 105.663 117.353C105.787 117.353 105.892 117.43 105.979 117.513C106.275 117.809 106.399 118.23 106.473 118.634C106.584 119.227 106.628 119.832 106.628 120.436C106.628 121.041 106.59 121.658 106.77 122.233C107.085 123.212 107.981 123.905 108.828 124.528C108.278 123.289 108.049 121.919 108.161 120.579C108.173 120.454 108.185 120.33 108.259 120.223C108.383 120.057 108.637 120.015 108.841 120.087C109.038 120.158 109.193 120.318 109.323 120.484C109.706 120.976 109.928 121.575 109.959 122.186C110.411 121.344 110.874 120.389 110.596 119.482C110.423 118.912 109.984 118.462 109.533 118.064C109.082 117.667 108.593 117.288 108.266 116.784C107.938 116.285 107.808 115.615 108.111 115.105C108.148 115.046 108.191 114.981 108.259 114.957C108.383 114.91 108.519 114.993 108.618 115.076C109.341 115.675 109.86 116.505 110.077 117.4C110.491 116.76 110.726 116.013 110.676 115.26C110.633 114.512 110.287 113.771 109.7 113.279C109.094 112.775 108.29 112.567 107.549 112.271C106.807 111.98 106.047 111.53 105.787 110.806C105.737 110.676 105.713 110.528 105.75 110.391C105.855 110.029 106.362 109.952 106.745 110.018C107.66 110.178 108.47 110.794 108.841 111.607C108.742 110.652 108.63 109.668 108.161 108.82C107.691 107.972 106.764 107.284 105.768 107.361C105.478 107.385 105.193 107.474 104.897 107.491C104.038 107.551 103.265 107.029 102.579 106.537" fill="black"/>
<path d="M107.32 120.525C107.258 121.296 107.19 122.079 106.924 122.808C106.708 123.401 106.362 123.947 106.152 124.54C105.626 126.011 106.003 127.748 107.097 128.898C107.178 128.234 107.326 127.576 107.536 126.936C107.678 126.509 107.864 126.064 108.247 125.809C108.89 126.704 108.859 127.884 108.686 128.952C108.519 130.025 108.235 131.116 108.451 132.178C108.643 133.109 109.199 133.927 109.749 134.71C109.737 133.696 109.823 132.676 110.015 131.674C110.058 131.436 110.176 131.14 110.429 131.14C110.553 131.14 110.658 131.217 110.744 131.3C111.041 131.597 111.165 132.018 111.239 132.421C111.35 133.014 111.393 133.619 111.393 134.224C111.393 134.828 111.356 135.445 111.536 136.02C111.851 136.999 112.747 137.693 113.594 138.315C113.044 137.076 112.815 135.706 112.926 134.366C112.939 134.241 112.951 134.117 113.025 134.01C113.149 133.844 113.402 133.803 113.606 133.874C113.804 133.945 113.959 134.105 114.089 134.271C114.466 134.763 114.694 135.362 114.719 135.973C115.17 135.131 115.634 134.176 115.356 133.269C115.183 132.7 114.744 132.249 114.293 131.852C113.841 131.454 113.353 131.075 113.025 130.571C112.698 130.073 112.568 129.403 112.871 128.893C112.908 128.833 112.951 128.768 113.019 128.744C113.143 128.697 113.279 128.78 113.378 128.863C114.107 129.462 114.62 130.292 114.837 131.187C115.251 130.547 115.486 129.8 115.436 129.047C115.393 128.3 115.047 127.558 114.46 127.066C113.854 126.562 113.05 126.355 112.308 126.058C111.567 125.767 110.806 125.317 110.547 124.593C110.497 124.463 110.472 124.315 110.51 124.178C110.615 123.817 111.122 123.739 111.505 123.805C112.42 123.965 113.229 124.581 113.6 125.394C113.501 124.439 113.39 123.455 112.92 122.607C112.451 121.759 111.523 121.071 110.528 121.148C110.238 121.172 109.953 121.261 109.657 121.279C108.797 121.338 108.025 120.816 107.338 120.324" fill="black"/>
<path d="M74.96 106.448C74.5273 106.691 74.0885 106.94 73.563 107.005C73.1365 107.058 72.6605 106.999 72.234 107.058C71.177 107.207 70.5032 108.167 70.5403 109.466C70.9297 109.276 71.3501 109.14 71.8013 109.063C72.098 109.009 72.438 108.986 72.7842 109.187C72.6914 110.029 72.0671 110.462 71.4243 110.735C70.7752 111.014 70.0582 111.203 69.6378 111.785C69.2669 112.289 69.168 113.042 69.0815 113.771C69.5945 113.374 70.1694 113.054 70.7876 112.822C70.9359 112.769 71.1523 112.751 71.3006 112.947C71.3686 113.042 71.3933 113.16 71.3995 113.255C71.4181 113.605 71.2697 113.86 71.109 114.074C70.8679 114.388 70.5836 114.655 70.2745 114.886C69.9654 115.117 69.6254 115.319 69.4338 115.687C69.1124 116.309 69.2669 117.276 69.4338 118.183C69.7553 117.276 70.324 116.576 71.0781 116.149C71.1461 116.108 71.2203 116.072 71.313 116.09C71.4675 116.125 71.6344 116.309 71.7086 116.493C71.7828 116.677 71.7951 116.855 71.7828 117.021C71.7457 117.507 71.5664 117.91 71.2697 118.171C71.962 118.207 72.7162 118.207 73.0191 117.637C73.2107 117.282 73.1921 116.766 73.1365 116.256C73.0809 115.746 73.0005 115.218 73.0685 114.773C73.1365 114.323 73.4023 113.967 73.8412 114.014C73.8906 114.014 73.9525 114.032 74.0019 114.074C74.0946 114.151 74.1317 114.293 74.1441 114.406C74.2492 115.206 74.1255 115.93 73.7856 116.44C74.3481 116.523 74.8673 116.416 75.2258 116.096C75.5844 115.775 75.7698 115.224 75.6833 114.572C75.5967 113.902 75.2444 113.19 74.9724 112.496C74.7004 111.802 74.4964 111.032 74.719 110.551C74.7622 110.462 74.8179 110.385 74.9106 110.361C75.1578 110.308 75.4855 110.676 75.6709 111.002C76.1098 111.779 76.2581 112.656 76.0542 113.261C76.4869 112.816 76.9257 112.354 77.0926 111.66C77.2595 110.966 77.0865 109.976 76.4745 109.223C76.2952 109.003 76.0912 108.814 75.912 108.588C75.3927 107.936 75.2197 107.13 75.0775 106.4" fill="black"/>
<path d="M92.3176 66.9721C92.3546 66.2012 92.3917 65.4185 92.6328 64.6772C92.8244 64.0783 93.152 63.5209 93.3437 62.922C93.8135 61.4336 93.3808 59.7139 92.2434 58.599C92.1877 59.2691 92.0641 59.9274 91.8725 60.5737C91.7489 61.0066 91.5758 61.4573 91.2049 61.7241C90.5311 60.8524 90.5188 59.6724 90.6486 58.5931C90.7784 57.5139 91.0195 56.4168 90.766 55.3613C90.5435 54.4362 89.9562 53.6416 89.3752 52.8707C89.4246 53.8847 89.3752 54.9047 89.2207 55.9128C89.1836 56.15 89.0785 56.4524 88.825 56.4583C88.7014 56.4583 88.5901 56.3931 88.5036 56.3101C88.1945 56.0255 88.0585 55.6104 87.9658 55.2071C87.8298 54.6201 87.768 54.0152 87.7433 53.4103C87.7186 52.8055 87.7433 52.1888 87.5331 51.6195C87.187 50.6529 86.2659 49.9947 85.3943 49.3958C85.9878 50.6173 86.2721 51.9753 86.2103 53.3214C86.2103 53.4459 86.1917 53.5764 86.1237 53.6772C86.0063 53.8492 85.7529 53.8966 85.5489 53.8314C85.3449 53.7661 85.1903 53.612 85.0544 53.4519C84.6587 52.9715 84.4115 52.3785 84.362 51.7678C83.9417 52.6276 83.5152 53.5942 83.8242 54.4955C84.0159 55.0529 84.4733 55.4918 84.9431 55.8772C85.4129 56.2627 85.9136 56.6244 86.2536 57.1106C86.5997 57.6028 86.7542 58.261 86.4699 58.7829C86.4328 58.8422 86.3895 58.9074 86.3277 58.9371C86.2041 58.9904 86.0681 58.9133 85.963 58.8303C85.2151 58.2551 84.6649 57.4486 84.4238 56.5591C84.0344 57.2114 83.8242 57.9705 83.8984 58.7176C83.9726 59.4648 84.3373 60.1942 84.9493 60.6627C85.5736 61.1489 86.3834 61.3268 87.1375 61.5937C87.8916 61.8605 88.6643 62.2815 88.9548 62.9991C89.0043 63.1295 89.0414 63.2718 89.0043 63.4082C88.9116 63.77 88.4109 63.8708 88.0276 63.8115C87.1128 63.681 86.2783 63.0939 85.8765 62.2934C86.0125 63.2422 86.1547 64.2206 86.6553 65.0508C87.156 65.881 88.108 66.5392 89.1032 66.4266C89.3937 66.391 89.6781 66.2961 89.9686 66.2665C90.8216 66.1775 91.6129 66.6697 92.3237 67.1382" fill="black"/>
<path d="M130.877 29.3645C131.051 28.6114 131.23 27.8405 131.601 27.1585C131.904 26.6011 132.318 26.1089 132.614 25.5515C133.35 24.1639 133.226 22.3968 132.312 21.11C132.132 21.7563 131.891 22.3908 131.594 22.9957C131.397 23.3989 131.143 23.814 130.729 24.0216C130.222 23.0491 130.426 21.8868 130.748 20.8491C131.069 19.8113 131.508 18.7677 131.446 17.6884C131.391 16.7396 130.958 15.8561 130.525 15.0021C130.389 16.0102 130.154 17.0065 129.82 17.973C129.74 18.2043 129.579 18.4771 129.332 18.4474C129.208 18.4296 129.116 18.3407 129.042 18.2458C128.788 17.9137 128.732 17.4809 128.714 17.0717C128.689 16.4668 128.732 15.862 128.819 15.269C128.906 14.6701 129.035 14.0652 128.936 13.4663C128.77 12.4523 127.985 11.6517 127.23 10.9164C127.595 12.2151 127.626 13.6027 127.323 14.9132C127.298 15.0318 127.261 15.1563 127.175 15.2512C127.026 15.3994 126.773 15.4054 126.581 15.3046C126.396 15.2038 126.266 15.0318 126.161 14.848C125.858 14.3143 125.722 13.6857 125.778 13.0749C125.209 13.8517 124.609 14.7294 124.758 15.6722C124.844 16.2593 125.215 16.7633 125.605 17.2199C125.994 17.6765 126.427 18.1154 126.674 18.655C126.921 19.1946 126.958 19.8706 126.581 20.3391C126.538 20.3925 126.482 20.4458 126.414 20.4636C126.285 20.4933 126.161 20.3925 126.074 20.2976C125.444 19.6038 125.048 18.7202 124.968 17.8011C124.467 18.3763 124.121 19.0879 124.059 19.841C123.997 20.5881 124.226 21.365 124.739 21.9342C125.265 22.5154 126.031 22.8297 126.724 23.2151C127.416 23.6006 128.102 24.1461 128.257 24.9051C128.281 25.0415 128.294 25.1898 128.232 25.3202C128.077 25.6642 127.564 25.676 127.193 25.5574C126.316 25.2787 125.598 24.5553 125.345 23.7014C125.308 24.662 125.271 25.6464 125.617 26.5537C125.957 27.455 126.779 28.2615 127.774 28.3149C128.071 28.3326 128.362 28.2793 128.658 28.303C129.518 28.3623 130.204 28.9731 130.816 29.5542" fill="black"/>
<path d="M56.1994 110.889C55.1176 110.842 54.0235 110.783 52.9912 110.273C52.1505 109.857 51.3717 109.146 50.5248 108.743C48.4355 107.735 46.0433 108.796 44.5226 111.411C45.456 111.518 46.3832 111.767 47.2919 112.164C47.8977 112.425 48.5282 112.793 48.9114 113.623C47.7122 115.183 46.068 115.26 44.5597 115.011C43.0514 114.762 41.5184 114.252 40.0472 114.88C38.7615 115.426 37.6674 116.784 36.6042 118.124C38.0197 117.97 39.4415 118.047 40.8508 118.355C41.1846 118.426 41.605 118.657 41.6235 119.233C41.6359 119.511 41.537 119.76 41.4257 119.968C41.0363 120.68 40.4552 121 39.8989 121.225C39.0768 121.551 38.2423 121.723 37.4016 121.8C36.5609 121.877 35.6955 121.86 34.9043 122.352C33.5567 123.182 32.6604 125.287 31.8506 127.28C33.5382 125.886 35.4297 125.192 37.3027 125.275C37.4758 125.281 37.655 125.299 37.8034 125.453C38.0445 125.708 38.1186 126.283 38.0321 126.746C37.9456 127.208 37.7354 127.57 37.519 127.879C36.8638 128.798 36.0417 129.379 35.1886 129.521C36.394 130.434 37.7539 131.365 39.0026 130.624C39.7814 130.162 40.381 129.112 40.9065 128.039C41.4319 126.965 41.9264 125.815 42.6002 125.02C43.274 124.22 44.195 123.84 44.9306 124.469C45.0171 124.546 45.1037 124.641 45.1469 124.789C45.2211 125.062 45.116 125.376 45.0048 125.619C44.2197 127.333 43.1009 128.608 41.8708 129.201C42.7856 130.055 43.855 130.494 44.8935 130.298C45.932 130.102 46.9396 129.242 47.5824 127.843C48.2438 126.408 48.4787 124.57 48.8311 122.856C49.1834 121.142 49.7521 119.375 50.7535 118.693C50.9328 118.569 51.1368 118.486 51.3284 118.557C51.8415 118.752 51.9836 119.879 51.9156 120.757C51.7549 122.838 50.9513 124.748 49.8448 125.69C51.1677 125.346 52.5338 124.973 53.6773 123.811C54.8209 122.648 55.7234 120.466 55.538 118.225C55.4823 117.566 55.3401 116.932 55.2969 116.274C55.1547 114.34 55.8223 112.532 56.459 110.913" fill="black"/>
<path d="M124.48 41.3904C124.529 40.3645 124.578 39.3208 124.239 38.3068C123.96 37.4825 123.429 36.6938 123.163 35.8637C122.495 33.8119 123.596 31.6237 125.926 30.3666C125.932 31.2561 126.068 32.1574 126.322 33.041C126.489 33.634 126.748 34.2566 127.41 34.6836C128.825 33.6577 129.029 32.1041 128.949 30.6572C128.868 29.2162 128.578 27.7218 129.227 26.3757C129.796 25.1957 131.038 24.2528 132.256 23.3456C132.002 24.6739 131.947 26.0318 132.083 27.3838C132.114 27.7041 132.274 28.1192 132.75 28.1785C132.985 28.2081 133.208 28.131 133.387 28.0421C134.018 27.7218 134.339 27.2 134.58 26.6841C134.926 25.931 135.143 25.1483 135.279 24.3596C135.415 23.565 135.476 22.7466 135.959 22.035C136.774 20.8194 138.623 20.1197 140.372 19.4911C139.055 20.9914 138.307 22.7288 138.215 24.5137C138.209 24.6798 138.209 24.8518 138.326 25C138.518 25.2491 139 25.3558 139.395 25.3084C139.791 25.2609 140.112 25.089 140.391 24.8992C141.219 24.3418 141.781 23.6065 141.973 22.8119C142.641 24.0216 143.308 25.3736 142.573 26.5062C142.115 27.2119 141.182 27.7041 140.236 28.1251C139.29 28.5461 138.277 28.9316 137.547 29.5186C136.818 30.0998 136.416 30.9477 136.88 31.683C136.935 31.772 137.009 31.8609 137.133 31.9084C137.356 31.9973 137.634 31.9202 137.844 31.8313C139.358 31.2086 140.527 30.2421 141.126 29.1154C141.763 30.0464 142.041 31.0841 141.788 32.0566C141.534 33.0291 140.718 33.9246 139.488 34.4345C138.227 34.9564 136.657 35.0513 135.186 35.2647C133.715 35.4782 132.175 35.8933 131.514 36.7887C131.39 36.9548 131.304 37.1386 131.353 37.3224C131.477 37.8205 132.41 38.034 133.152 38.034C134.914 38.0281 136.589 37.4054 137.479 36.4211C137.071 37.6486 136.645 38.9176 135.563 39.9197C134.481 40.9278 132.571 41.6216 130.698 41.2895C130.148 41.1947 129.629 41.0108 129.079 40.9219C127.465 40.655 125.889 41.1591 124.467 41.6453" fill="black"/>
</g>
</g>
<defs>
<clipPath id="clip0_1179_841">
<rect width="165" height="176" fill="white"/>
</clipPath>
</defs>
</svg>
