<svg width="170" height="156" viewBox="0 0 170 156" fill="none" xmlns="http://www.w3.org/2000/svg">
<g clip-path="url(#clip0_1179_868)">
<path d="M170 42.9276C168.866 44.1841 167.104 44.8335 165.432 44.617C162.363 44.2142 160.297 41.2922 157.527 39.8974C159.258 39.2661 160.53 37.727 161.312 36.0495C163.211 32.0033 162.501 26.8568 159.587 23.4839C159.193 23.027 158.703 22.5761 158.106 22.552C159.318 25.0892 159.455 28.1314 158.464 30.7648C157.479 33.3981 155.383 35.5926 152.81 36.6929L152.021 37.0416C152.834 34.4803 152.834 31.6726 152.021 29.1114C151.305 31.2217 149.997 33.1216 148.29 34.5465C147.519 31.5464 145.364 28.937 142.581 27.6144C141.889 27.2837 140.927 27.0913 140.462 27.7105C141.984 28.9431 142.796 30.885 143.065 32.833C143.334 34.781 143.107 36.759 142.886 38.707C140.73 38.3643 139.196 36.4403 137.237 35.4724C135.446 34.5826 133.368 34.5284 131.374 34.6006C133.165 37.9614 136.216 40.6189 139.781 41.9175C138.897 44.7373 136.157 46.8656 133.219 47.0039C134.037 48.1883 135.476 48.8376 136.903 48.9579C138.33 49.0841 139.763 48.7414 141.124 48.2845C141.298 48.2244 141.471 48.1582 141.644 48.0861C140.892 49.7755 140.396 51.5792 139.978 53.2807C138.814 57.9522 136.527 60.9162 134.419 63.2189C130.323 67.692 124.549 70.3014 119.032 72.7784C115.784 74.2394 112.279 75.0931 108.72 75.1172C107.209 75.1292 105.687 75.2615 104.188 75.4298C92.0906 76.7826 86.5436 77.4199 74.5419 76.476C72.7506 76.2595 71.2041 75.0631 72.1057 74.3115C73.4433 73.2053 73.5866 72.9648 75.8734 71.7804C83.1342 68.0227 89.9709 63.0085 94.491 56.1605C96.8734 52.5532 98.7901 48.2965 99.3514 44.0098C99.9903 44.6591 100.414 45.5249 100.468 46.4387C101.071 46.0058 101.393 45.2543 101.447 44.5088C101.501 43.7633 101.316 43.0238 101.077 42.3203C100.85 41.659 100.36 40.8954 99.6798 41.0217C100.755 40.0357 102.146 39.3984 103.597 39.236C104.851 39.0917 106.111 39.2962 107.352 39.4946C106.66 38.1118 105.352 37.0596 103.865 36.6688C103.286 36.5185 102.617 36.4764 102.128 36.8251C102.289 35.7549 102.486 34.6186 103.203 33.813C103.662 33.2959 104.313 32.9592 105 32.8931C104.403 32.2979 103.471 32.1296 102.653 32.3159C101.835 32.5023 101.113 32.9893 100.492 33.5605C101.19 31.2758 100.169 28.5763 98.1333 27.3438C98.7841 27.927 99.1304 28.8348 99.0289 29.7066C98.8438 31.3059 97.3571 32.4001 96.6644 33.8491C96.33 32.9532 95.5299 32.3039 94.6641 31.9071C92.5743 30.9451 89.9411 31.348 88.2274 32.8871C87.9945 33.0975 87.7676 33.35 87.7617 33.6627C89.0574 33.0134 90.6158 32.9232 91.9712 33.4222C93.3266 33.9152 94.4671 34.9914 95.0523 36.3261L95.2374 36.7349C93.9178 36.3321 92.4788 36.3502 91.1711 36.7891C92.2578 37.1498 93.243 37.8172 93.9834 38.6949C92.4489 39.1158 91.1233 40.2521 90.4665 41.7131C90.3053 42.0738 90.2098 42.5789 90.5322 42.8133C91.1532 42.0137 92.1444 41.5748 93.1415 41.4245C93.1774 41.4245 93.2132 41.4245 93.249 41.4125C88.305 50.4609 82.5789 59.0705 74.5001 65.2932C70.6966 68.2211 66.2721 70.608 61.4893 70.9146C56.7125 71.2212 51.5715 69.0749 49.3264 64.8182C48.0845 62.4614 47.8158 59.7318 47.571 57.0804C47.2426 53.5452 46.9142 50.004 47.0097 46.4568C47.0634 44.3885 47.2784 42.3324 47.6128 40.2942C48.1919 40.4986 48.7592 40.7511 49.2906 41.0878C51.064 42.2121 52.3179 44.0038 53.321 45.8555C56.5812 51.8979 57.5962 59.1366 56.1214 65.8463C61.0594 62.4433 65.5914 58.0424 67.6872 52.3969C69.783 46.7514 68.9232 39.711 64.4509 35.7068C62.8627 34.2819 60.9221 33.308 59.2562 31.9672C56.9753 30.1395 55.0944 27.2897 56.7902 24.1453C57.4111 22.9909 58.4202 22.0951 59.5965 21.536C62.7253 20.0389 66.1288 20.6762 69.377 21.3195C62.8507 16.1309 52.6762 16.3233 46.3469 21.7584C42.3702 14.5377 44.9676 4.39502 51.9178 0.012085C42.9793 2.75367 35.6827 10.3892 33.3063 19.4918C33.6705 15.3854 31.3239 11.4113 28.1414 8.82004C24.9588 6.22876 21.0299 4.78582 17.1488 3.46913C22.457 8.18274 25.741 15.1209 26.0396 22.2394C26.0754 23.1112 25.7769 24.2956 24.9111 24.2535C24.3558 23.7906 23.8005 23.3276 23.2452 22.8587C21.3583 20.4778 17.9907 19.4858 14.9634 19.9607C11.6853 20.4718 8.78939 22.4258 6.38905 24.7285C12.0137 24.482 17.6981 26.9049 21.4419 31.1435C17.7339 33.6266 13.9961 36.1337 10.9031 39.3503C7.80417 42.5728 5.36204 46.6011 4.80674 51.0501C9.39246 44.3164 16.7009 39.5246 24.6722 38.0276C20.809 44.1 18.9102 51.6032 20.3194 58.6737C21.7285 65.7441 26.7203 72.1952 33.5033 74.5039C31.1806 67.6319 29.9983 60.3751 30.0222 53.1183C30.0342 49.7274 30.4163 46.066 32.6554 43.5408C32.8107 43.3604 32.9898 43.2041 33.157 43.0418C39.7251 51.4169 43.4749 62.0105 43.5585 72.6882C43.6301 81.3399 40.979 90.5627 34.2318 95.9196C32.2554 97.4888 29.8252 98.7153 27.3174 98.4988C24.5647 98.2644 22.2659 96.3224 20.8508 93.8814C20.8747 92.8473 20.6119 91.8192 20.2716 90.8332C20.0626 90.22 19.6984 89.5526 19.2147 89.1618C19.155 88.8191 19.0893 88.4704 19.0475 88.1217C20.5283 87.0395 22.2838 86.336 24.105 86.1316C26.0097 85.9152 27.9324 86.2218 29.8252 86.5224C28.7683 84.4242 26.7859 82.8129 24.517 82.2237C23.6333 81.9892 22.6182 81.9291 21.8718 82.4642C22.1226 80.8348 22.4152 79.1093 23.5079 77.8828C24.2065 77.0952 25.2036 76.5902 26.2426 76.482C25.335 75.5801 23.9199 75.3216 22.6719 75.6042C21.424 75.8868 20.3253 76.6323 19.3819 77.498C20.4448 74.0229 18.8863 69.9166 15.7934 68.0408C16.7845 68.9246 17.31 70.3134 17.1607 71.6361C16.8801 74.0711 14.6171 75.7364 13.5602 77.9429C13.0527 76.5782 11.8346 75.5861 10.521 74.9849C7.34441 73.5239 3.3319 74.1372 0.728553 76.482C0.376265 76.8006 0.0299473 77.1914 0.0180054 77.6664C1.98843 76.6804 4.35891 76.5421 6.42488 77.2996C8.49084 78.0512 10.2284 79.6865 11.1121 81.7126L11.3927 82.3319C9.38649 81.7186 7.18916 81.7427 5.20082 82.41C6.85479 82.9572 8.35351 83.9732 9.48202 85.308C7.14737 85.9513 5.12917 87.6768 4.13202 89.9013C3.88123 90.4544 3.7439 91.218 4.22755 91.5787C5.17694 90.3643 6.68163 89.6969 8.19826 89.4684C9.71489 89.24 11.2614 89.3963 12.7899 89.5526C12.5451 91.2661 11.0584 92.4986 10.3239 94.0558C9.64921 95.4807 9.62533 97.128 9.70295 98.7033C11.6853 97.597 13.3393 95.9136 14.4499 93.9295C15.2381 95.6971 15.9725 96.623 16.8622 98.3846C20.809 106.219 27.5025 106.333 33.6168 103.802C39.8266 101.234 42.4419 98.8115 45.5289 92.5527C46.0842 91.4224 46.8126 90.3763 47.7202 89.5105C49.7743 87.5565 51.7387 87.28 54.2465 87.1597C55.9184 87.0816 58.3844 88.6147 59.5249 89.8472C60.2115 90.5807 60.9519 92.4986 61.143 93.4846C62.7492 101.86 61.3221 106.11 57.5306 113.734C57.1305 114.54 56.6946 115.333 56.2528 116.115C54.9929 116.698 53.8584 117.552 52.8075 118.472C51.5536 119.566 50.3057 121.327 51.1834 122.746C48.0486 121.213 45.4154 118.67 43.7674 115.58C42.3463 112.91 41.6656 109.91 41.0029 106.958C38.5786 109.736 37.4024 113.584 37.8681 117.257C38.0472 118.694 38.5488 120.215 39.7549 121.003C37.2531 121.586 34.5781 122.157 32.1658 121.273C30.6253 120.708 29.3057 119.542 28.5414 118.075C27.7592 119.939 28.219 122.163 29.3535 123.828C30.488 125.5 32.2076 126.678 34.0108 127.562C28.3563 128.025 23.3168 132.709 22.4032 138.342C23.1078 136.37 24.8095 134.789 26.8158 134.242C30.5059 133.238 34.2318 135.588 38.0472 135.859C36.3694 137.404 35.6409 139.761 35.5334 142.046C35.2707 147.565 38.4951 153.096 43.4032 155.555C44.066 155.886 44.8362 156.168 45.5289 155.91C42.9554 153.595 41.3731 150.192 41.2596 146.717C41.1462 143.242 42.5016 139.743 44.9258 137.266L45.6602 136.49C45.9349 139.797 47.2545 143.002 49.3802 145.539C49.207 142.791 49.8041 140.001 51.0819 137.566C53.3748 140.621 57.0529 142.575 60.8504 142.749C61.7939 142.791 62.9821 142.557 63.2209 141.631C60.9101 140.951 59.0651 139.118 57.847 137.025C56.6289 134.933 55.9542 132.57 55.2914 130.238C57.9127 129.606 60.5638 131.061 63.2567 131.236C65.7168 131.392 68.1112 130.472 70.3503 129.438C66.9946 126.678 62.6895 125.121 58.3605 125.079C64.224 120.089 67.0304 113.596 68.965 106.183C69.5143 104.096 69.789 100.627 69.574 98.4808C69.4487 97.2242 69.383 96.0699 69.3949 94.7712C69.4009 94.1881 69.4845 93.6109 69.6517 93.0517C69.9741 91.9876 70.6369 90.2921 71.6579 89.7209C72.4282 89.2941 73.8194 88.5065 75.563 88.2479C77.4498 87.9654 79.4322 87.8572 81.2055 88.5606C82.8416 89.2099 84.1612 90.5025 85.1703 91.9515C88.7708 97.122 88.6633 103.91 89.5649 110.157C90.168 114.335 91.7025 118.856 94.479 121.814C94.5626 121.899 94.6641 122.013 94.7836 122.145C93.9835 121.868 93.255 121.406 92.6997 120.762C92.419 121.688 92.6758 122.722 93.2072 123.534C93.7386 124.346 94.5089 124.965 95.315 125.5C96.0673 125.999 97.172 126.402 97.781 125.728C97.4466 127.61 96.5032 129.372 95.1359 130.7C93.9536 131.843 92.4907 132.642 91.0517 133.424C92.8549 134.296 95.0343 134.35 96.8794 133.568C97.6019 133.262 98.3184 132.775 98.5513 132.023C99.22 133.262 99.9126 134.584 99.8052 135.991C99.7335 136.887 99.3215 137.759 98.6707 138.378C99.7574 138.516 100.85 137.945 101.549 137.104C102.253 136.262 102.612 135.18 102.809 134.091C103.877 137.007 107.06 138.985 110.129 138.637C109 138.552 107.926 137.891 107.341 136.911C106.278 135.113 106.952 132.793 106.534 130.743C107.585 131.404 108.923 131.44 110.129 131.163C113.043 130.49 115.449 127.977 116.01 125.019C116.088 124.622 116.118 124.171 115.885 123.84C115.055 125.542 113.515 126.877 111.723 127.448C109.932 128.019 107.908 127.815 106.26 126.901L105.746 126.624C107.43 125.993 108.905 124.827 109.914 123.329C108.511 123.822 106.964 123.919 105.513 123.6C106.767 121.941 107.245 119.71 106.779 117.678C106.666 117.173 106.367 116.578 105.848 116.59C105.83 117.912 105.149 119.151 104.242 120.107C103.328 121.057 102.2 121.76 101.083 122.452C100.366 121.159 100.737 119.548 100.432 118.099C100.151 116.776 99.3215 115.646 98.4557 114.612C98.0497 115.544 97.7929 116.542 97.6676 117.558C95.7509 112.261 96.0793 106.189 95.0343 100.591C94.1148 95.6731 93.3446 89.9855 98.2826 86.7449C99.6559 85.843 101.244 85.3561 102.868 85.1396C109.198 84.2919 115.216 87.0575 120.913 89.751C124.435 91.4164 137.034 106.369 143.495 113.024C142.104 113.397 140.563 113.241 139.321 112.507C139.357 113.59 139.996 114.588 140.85 115.255C141.698 115.922 142.737 116.295 143.781 116.572C144.755 116.83 146.068 116.854 146.468 115.922C146.785 118.033 146.427 120.239 145.453 122.139C144.611 123.78 143.352 125.151 142.11 126.504C144.331 126.774 146.654 126.041 148.319 124.538C148.97 123.955 149.555 123.173 149.538 122.295C150.69 123.36 151.896 124.508 152.284 126.035C152.535 127.009 152.41 128.079 151.938 128.969C153.132 128.722 154.087 127.724 154.529 126.576C154.971 125.428 154.965 124.153 154.786 122.939C156.965 125.632 161.032 126.57 164.155 125.085C162.93 125.41 161.557 125.097 160.59 124.267C158.816 122.752 158.703 120.059 157.527 118.039C158.87 118.351 160.297 117.906 161.474 117.173C164.316 115.405 165.958 111.87 165.492 108.539C165.426 108.088 165.307 107.601 164.937 107.343C164.668 109.441 163.522 111.413 161.826 112.664C160.136 113.92 157.921 114.437 155.855 114.071L155.216 113.968C156.768 112.688 157.909 110.92 158.44 108.972C157.133 110.006 155.532 110.668 153.884 110.86C154.619 108.654 154.32 106.122 153.102 104.138C152.798 103.645 152.272 103.128 151.729 103.327C152.189 104.728 151.908 106.291 151.287 107.625C150.666 108.96 149.723 110.115 148.785 111.257C147.567 110.151 147.382 108.311 146.54 106.892C145.77 105.593 144.486 104.703 143.202 103.928C143.119 104.914 143.178 105.906 143.346 106.88C139.59 101.264 135.106 95.2402 134.753 94.8314C132.174 91.8252 129.6 88.8251 127.021 85.819C126.967 85.7529 126.907 85.6867 126.854 85.6266C123.815 82.0914 124.561 76.7164 128.388 74.071C133.261 70.7042 137.524 66.4475 140.892 61.5595C140.933 61.4994 140.981 61.4273 141.029 61.3551C142.402 59.341 143.626 57.2187 144.671 55.0122C145.322 53.8218 145.997 52.5592 146.671 51.2966C146.839 51.952 146.958 52.6133 147.024 53.2867C147.269 55.7277 146.851 58.1807 146.433 60.6036C149.102 59.2809 151.168 56.7678 151.95 53.8819C152.254 52.7516 152.35 51.459 151.693 50.491C153.747 50.8397 155.921 51.2425 157.455 52.6614C158.434 53.5693 159.061 54.8499 159.181 56.1846C160.339 55.0362 160.679 53.2266 160.351 51.6273C160.017 50.022 159.091 48.6031 158.016 47.3826C162.387 48.8015 167.606 46.8716 170.024 42.9396L170 42.9276Z" fill="black"/>
</g>
<defs>
<clipPath id="clip0_1179_868">
<rect width="170" height="156" fill="white"/>
</clipPath>
</defs>
</svg>
