<svg width="181" height="170" viewBox="0 0 181 170" fill="none" xmlns="http://www.w3.org/2000/svg">
<g clip-path="url(#clip0_1179_877)">
<path d="M177.699 34.0159C176.662 33.441 175.465 33.1291 174.219 33.123C170.672 33.0985 166.856 35.1901 163.683 32.6337C160.774 30.2853 160.823 26.2611 162.431 23.2032C163.382 21.3929 165.389 18.9099 165.432 16.7878C165.506 12.6657 163.045 9.98092 158.97 10.7148C155.417 11.3508 148.569 15.2405 144.961 15.4239C140.297 15.6625 141.297 10.2867 138.769 6.37261C136.235 2.45852 131.553 -1.584 127.454 0.654369C123.336 2.90497 124.054 9.36322 120.716 12.6657C115.334 17.9926 105.283 12.6352 99.318 17.3076C89.555 24.9645 115.218 37.4468 105.442 51.6782C104.27 53.3784 101.454 54.8645 99.766 56.0571C96.0473 58.6747 86.6463 56.1244 84.1243 49.4949L82.4306 46.5349C80.3994 42.9143 76.8894 38.7862 73.0357 37.0004C70.4155 35.7833 68.2064 36.346 65.9666 37.8994C57.9217 43.4831 47.7844 48.6998 44.6916 57.9652C40.8563 69.4568 45.0352 66.9982 49.5148 65.8118C50.4353 65.5671 57.0872 62.9863 57.5658 64.1238C57.7131 64.4663 57.5167 64.8516 57.3204 65.1696C54.964 68.9858 51.5951 71.8419 49.5823 75.8967C48.9503 77.1626 47.1278 82.783 53.1414 80.8198L61.0329 76.7957C64.9786 74.539 64.4509 76.9425 64.7393 78.661C65.1811 81.4253 64.9357 85.3639 67.9548 80.3C67.9548 80.3 72.6369 73.0834 72.6798 73.0161C73.3978 71.9092 74.7294 70.9612 75.9137 70.4047C77.049 69.8726 78.6076 69.5852 79.6999 70.3191C80.5344 70.8817 81.056 71.6646 81.1174 72.6737C81.234 74.6674 79.9883 76.6183 79.0003 78.2512C78.9083 78.398 78.8224 78.5448 78.7303 78.6916C76.2696 82.7341 73.6248 86.7032 71.3114 90.8314C69.0348 94.8861 66.7582 98.9531 64.4018 102.965C59.8302 110.701 54.8106 118.285 48.3796 124.633C46.8025 126.193 45.1457 127.667 43.4152 129.049C38.4938 130.449 33.554 130.186 27.8226 127.41C19.3666 123.318 12.3035 114.187 14.4758 105.075C16.0713 98.3782 21.9623 93.7547 26.6873 88.7337C31.4308 83.6943 32.1365 80.0187 34.8058 73.6399C35.1433 72.8327 35.4563 71.8786 35.0267 71.1141C34.6647 70.4781 33.8976 70.1968 33.1797 70.05C26.0675 68.6128 23.1159 73.2118 15.9793 74.5145C15.1447 74.6674 14.2304 74.7286 13.5124 74.2882C12.9356 73.9335 12.5797 73.3097 12.2851 72.6981C10.1803 68.2764 10.2601 62.8884 12.4876 58.534C15.3411 52.9442 21.1216 49.5499 25.3803 44.9325C26.8346 43.3547 28.1846 41.4588 27.9023 39.2143C27.7305 37.8566 26.8223 36.6579 25.4846 36.3705C23.7848 36.0035 22.4286 37.2817 21.2198 38.3825C18.4952 40.8594 15.3718 42.896 11.9967 44.3882C10.8738 44.8836 9.52374 45.3056 8.47441 44.6757C7.87304 44.3148 7.50485 43.6666 7.23485 43.0122C5.57188 38.9268 7.1919 34.2605 9.35192 30.4137C11.5119 26.5669 14.2611 22.8913 15.0404 18.5491C13.1872 17.7296 11.0578 18.7815 9.4501 20.0047C3.33822 24.6343 0.368192 31.857 0.0490984 39.3549C-0.355906 48.8711 1.79184 58.3689 2.57731 67.83C3.85982 83.2539 3.36277 98.684 3.36277 114.139C3.44254 122.523 1.46048 132.963 8.89782 136.877C12.592 138.822 8.03872 145.298 11.966 146.711C13.1258 147.127 14.5556 147.732 15.0465 148.962C15.8013 150.839 14.8502 152.955 14.7581 154.863C14.6661 156.772 15.1815 158.661 16.1695 160.386C18.7345 164.869 23.5884 166.398 28.3073 167.603C32.9219 168.783 37.647 169.529 42.4027 169.835C45.968 170.067 49.5516 170.049 53.1108 169.78C57.5106 169.45 61.7999 168.593 66.0832 167.584C69.8325 166.704 73.6555 165.664 77.1594 163.976C80.9333 162.16 83.8911 159.524 86.7506 156.521C87.2109 156.038 87.665 155.555 88.1252 155.065C91.2057 151.806 94.0898 148.344 96.8205 144.797C102.521 137.391 107.86 129.312 111.622 120.627C113.548 116.181 115.07 111.558 116.064 106.818C116.985 102.427 116.715 97.2101 119.765 93.5957C120.869 92.2869 122.452 91.4429 124.164 91.3329C128.945 91.0332 128.613 95.0757 128.251 99.6258C127.994 102.879 126.748 111.252 127.251 114.426C127.994 119.141 129.374 120.835 132.455 119.545L133.228 119.056C134.836 118.04 136.069 116.53 136.701 114.738C138.456 109.766 139.358 102.531 139.659 102.121C140.352 101.173 141.488 102.934 141.911 103.84C144.028 108.335 144.501 108.91 145.304 113.808C145.501 114.995 145.648 120.585 148.741 118.572C150.398 117.496 151.011 115.343 152.147 113.729C152.656 113.001 153.202 112.243 154 111.839C156.111 110.775 158.51 112.75 159.694 114.787C160.553 116.261 161.302 117.973 162.493 119.123C163.137 119.747 164.211 119.392 164.364 118.511C166.003 109.16 166.856 99.5035 164.567 90.3115C162.137 80.5813 155.601 71.3893 146.102 68.0991C139.15 65.6894 131.608 67.2857 124.68 65.2369C122.735 64.662 120.851 63.2309 120.556 61.2311C120.219 58.9315 121.955 57.5922 123.809 56.7543C131.442 53.305 140.536 53.2377 148.219 56.5708C152.484 58.4178 155.798 64.8332 160.038 62.9374C164.284 61.0353 161.713 53.2622 164.248 49.3726C166.328 46.1801 174.673 42.7064 178.423 41.9786C180.135 41.6484 181.307 39.9849 180.926 38.2908C180.497 36.3705 179.288 34.8843 177.692 34.0037L177.699 34.0159Z" fill="black"/>
</g>
<defs>
<clipPath id="clip0_1179_877">
<rect width="181" height="170" fill="white"/>
</clipPath>
</defs>
</svg>
