<svg width="186" height="182" viewBox="0 0 186 182" fill="none" xmlns="http://www.w3.org/2000/svg">
<g clip-path="url(#clip0_1179_880)">
<path d="M185.69 69.82C184.43 68.39 182.93 67.18 181.27 66.26C181.97 66.06 182.67 65.86 183.36 65.66C182.19 64.33 180.67 63.31 178.99 62.74C179.99 62.38 180.85 61.61 181.32 60.66C177.67 59.27 173.84 58.33 169.96 57.87C170.91 57 171.86 56.13 172.81 55.26C171.54 53.69 169.08 54.39 167.06 54.4C164.01 54.42 161.31 52.54 158.44 51.5C154.42 50.04 150.01 50.23 145.74 50.44C145.38 48.42 143.07 47.34 141.02 47.25C138.97 47.16 136.91 47.72 134.87 47.46C131.7 47.05 129.01 44.71 125.82 44.41C122.44 44.09 118.16 45.8 116.17 43.04C121.83 38.15 129.89 36.2 137.16 37.97C136.71 38.32 136.27 38.67 135.82 39.02C142.68 42.22 150.17 44.08 157.73 44.45C156.83 44.54 157.43 43.03 158.25 42.66C159.86 41.93 161.48 41.2 163.09 40.46C161.66 40.11 160.24 39.76 158.81 39.42C160.97 38.3 163.13 37.18 165.29 36.05C161.84 34.11 158.1 32.68 154.23 31.84C154.66 31.31 154.86 30.61 154.79 29.94C153.26 29.83 151.73 29.72 150.2 29.61C150.2 28.2 153.01 27.64 152.43 26.35C152.19 25.81 151.49 25.7 150.9 25.67C149.09 25.56 147.28 25.45 145.47 25.35C146.21 24.6 146.61 23.54 146.54 22.49C142.49 22.8 138.44 23.1 134.38 23.41C135.27 22.4 135.83 21.1 135.95 19.76C131.73 21.78 127.68 24.14 123.83 26.8C124.27 26.12 124.16 25.14 123.58 24.58C118.26 26.91 113.28 30.02 108.86 33.79C108 34.53 106.09 34.78 106.28 33.66C103.81 37.12 100.69 40.12 97.14 42.45C97.43 41.92 97.32 41.2 96.89 40.77C95.73 40.97 94.57 41.17 93.4 41.38C94.8 40.41 95.9 39.03 96.54 37.45C95.4 37.1 94.25 36.75 93.11 36.39C98.09 33.46 103.25 30.84 108.55 28.56C107.9 27.82 106.95 27.34 105.97 27.25C110.09 26.25 114.21 25.26 118.33 24.26C117.74 23.9 117.14 23.53 116.55 23.17C127.41 19.71 137.89 15.03 147.72 9.25001C146.07 8.87001 144.42 8.49001 142.77 8.11001C144.74 7.21001 146.7 6.30001 148.67 5.40001C146.11 5.41001 143.54 5.43001 140.97 5.44001C141.73 5.20001 142.19 4.28001 141.94 3.53001C137.54 3.97001 133.13 4.40001 128.73 4.84001C130.5 3.62001 131.96 1.94001 132.91 0.0100098C128.92 0.60001 125.03 1.84001 121.44 3.66001C121.86 2.71001 122.27 1.76001 122.69 0.81001C119.34 1.14001 116.13 2.75001 113.85 5.23001C114.56 4.36001 114.71 3.09001 114.24 2.07001C108.69 4.80001 103.72 8.70001 99.75 13.44C99.65 12.71 99.56 11.98 99.46 11.24C96.58 12.94 94.12 15.35 92.38 18.21C92.26 17.56 92.15 16.91 92.03 16.27C90.95 17.83 89.88 19.39 88.8 20.95C89.01 20.16 88.7 19.25 88.04 18.77C85.8 22.12 84.17 25.87 83.24 29.8C83 28.77 82.76 27.73 82.52 26.7C82.41 30.19 82.29 33.68 82.18 37.17C81.31 36.62 80.59 35.83 80.12 34.91L80.53 47.73C79.91 47.35 79.28 46.98 78.66 46.6C78.67 50.02 79.14 53.43 80.03 56.72C77.8 56.61 75.55 56.86 73.39 57.44C73.8 58.84 75.19 59.9 76.65 59.92C73.18 60.89 69.72 61.86 66.25 62.83C66.74 63.48 67.37 64 68.08 64.4C67.87 64.74 67.66 65.08 67.49 65.44C66.68 65.68 65.9 65.99 65.13 66.33C64.44 64.44 63.76 62.54 63.07 60.65C62.89 63 62.7 65.35 62.52 67.7C62.39 67.78 62.25 67.85 62.12 67.93C62.24 68.01 62.36 68.08 62.48 68.16C62.48 68.27 62.46 68.39 62.45 68.5C60.6 67.83 58.74 67.16 56.89 66.5C56.69 68.34 56.5 70.19 56.3 72.03C55.59 71.94 54.87 71.85 54.16 71.76C54.65 73.33 55.14 74.9 55.62 76.46C53.57 76.57 51.54 76.95 49.59 77.59C49.91 78.36 50.24 79.12 50.56 79.89C49.37 80.28 48.18 80.67 46.99 81.05C47.65 81.96 48.57 82.69 49.61 83.13C48.73 84.33 47.31 84.97 46.04 85.76C44.78 86.54 43.53 87.67 43.4 89.15C43.28 90.63 45.02 92.14 46.25 91.3C44.81 93.01 43.65 94.96 42.86 97.05C44.2 97.29 45.61 97.07 46.81 96.43C44.22 97.87 42.27 100.41 41.54 103.28C42.53 103.35 43.51 103.43 44.5 103.5C42.94 104.57 42.39 106.87 43.3 108.53C45 108.61 46.71 108.42 48.36 107.99C46.53 110.6 45.59 113.82 45.73 117C47.62 116.52 49.51 116.04 51.4 115.56C49.65 117.07 48.69 119.46 48.91 121.77C50.59 121.49 52.2 120.86 53.63 119.93C52.81 121.72 52.72 123.84 53.39 125.7C55.2 125.02 56.71 123.59 57.49 121.82C58.04 123.76 58.6 125.7 59.16 127.64C60.16 126.21 60.83 124.55 61.12 122.82C62.4 125.11 63.68 127.4 64.95 129.69C65.4 128.44 65.85 127.19 66.3 125.95C68.03 127.52 69.76 129.09 71.49 130.66C71.85 129.45 72.21 128.25 72.57 127.04C73.91 128.31 75.06 129.78 75.98 131.38C75.95 130.17 75.93 128.96 75.9 127.75C79.01 129.39 82.34 130.63 85.76 131.43L78.26 126.22L85.18 130.17C85.96 131.32 87.08 132.25 88.36 132.79C88.77 134.53 86.13 135.13 84.36 134.87C77.22 133.81 70.09 132.76 62.95 131.7C59.05 131.12 55.06 130.52 51.54 128.73C46.19 126.01 41.89 120.6 35.89 120.29C36.09 121.2 35.93 122.19 35.47 123C32.65 121.08 29.82 119.15 27 117.23C25.79 116.4 23.39 116.22 23.57 117.67C20.89 114.73 18.22 111.79 15.54 108.86C15.14 109.52 14.74 110.18 14.34 110.84C12.03 108.34 9.5 106.05 6.78 104C6.8 105.43 6.55 106.86 6.04 108.19C5.33 107.54 4.27 107.3 3.34 107.57C4.08 108.48 4.55 109.61 4.69 110.77C3.05 110.66 1.38 110.98 -0.0999985 111.7C1.16 113.13 2.66 114.34 4.32 115.26C3.62 115.46 2.92 115.66 2.23 115.86C3.4 117.19 4.92 118.21 6.6 118.78C5.6 119.14 4.74 119.91 4.27 120.86C7.92 122.25 11.75 123.19 15.63 123.65L12.78 126.26C14.05 127.83 16.51 127.13 18.53 127.12C21.58 127.1 24.28 128.98 27.15 130.02C31.17 131.48 35.58 131.29 39.85 131.08C40.21 133.1 42.52 134.18 44.57 134.27C46.62 134.36 48.68 133.8 50.72 134.06C53.89 134.47 56.58 136.81 59.77 137.11C63.15 137.43 67.43 135.72 69.42 138.48C63.76 143.37 55.7 145.32 48.43 143.55C48.88 143.2 49.32 142.85 49.77 142.5C42.91 139.3 35.42 137.44 27.86 137.07C28.76 136.98 28.16 138.49 27.34 138.86C25.73 139.59 24.11 140.32 22.5 141.06C23.93 141.41 25.35 141.76 26.78 142.1C24.62 143.22 22.46 144.34 20.3 145.47C23.75 147.41 27.49 148.84 31.36 149.68C30.93 150.21 30.73 150.91 30.8 151.58C32.33 151.69 33.86 151.8 35.39 151.91C35.39 153.32 32.58 153.88 33.16 155.17C33.4 155.71 34.1 155.82 34.69 155.85C36.5 155.96 38.31 156.07 40.12 156.17C39.38 156.92 38.98 157.98 39.05 159.03C43.1 158.72 47.15 158.42 51.21 158.11C50.32 159.12 49.76 160.42 49.64 161.76C53.86 159.74 57.91 157.38 61.76 154.72C61.32 155.4 61.43 156.38 62.01 156.94C67.33 154.61 72.31 151.5 76.73 147.73C77.59 146.99 79.5 146.74 79.31 147.86C81.78 144.4 84.9 141.4 88.45 139.07C88.16 139.6 88.27 140.32 88.7 140.75C89.86 140.55 91.02 140.35 92.19 140.14C90.79 141.11 89.69 142.49 89.05 144.07C90.19 144.42 91.34 144.77 92.48 145.13C87.5 148.06 82.34 150.68 77.04 152.96C77.69 153.7 78.64 154.18 79.62 154.27C75.5 155.27 71.38 156.26 67.26 157.26C67.85 157.62 68.45 157.99 69.04 158.35C58.18 161.81 47.7 166.49 37.87 172.27C39.52 172.65 41.17 173.03 42.82 173.41C40.85 174.31 38.89 175.22 36.92 176.12C39.48 176.11 42.05 176.09 44.62 176.08C43.86 176.32 43.4 177.24 43.65 177.99C48.05 177.55 52.46 177.12 56.86 176.68C55.09 177.9 53.63 179.58 52.68 181.51C56.67 180.92 60.56 179.68 64.15 177.86C63.73 178.81 63.32 179.76 62.9 180.71C66.25 180.38 69.46 178.77 71.74 176.29C71.03 177.16 70.88 178.43 71.35 179.45C76.9 176.72 81.87 172.82 85.84 168.08C85.94 168.81 86.03 169.54 86.13 170.28C89.01 168.58 91.47 166.17 93.21 163.31C93.33 163.96 93.44 164.61 93.56 165.25C94.64 163.69 95.71 162.13 96.79 160.57C96.58 161.36 96.89 162.27 97.55 162.75C99.79 159.4 101.42 155.65 102.35 151.72C102.59 152.75 102.83 153.79 103.07 154.82C103.18 151.33 103.3 147.84 103.41 144.35C104.28 144.9 105 145.69 105.47 146.61L105.06 133.79C105.68 134.17 106.31 134.54 106.93 134.92C106.92 131.5 106.45 128.09 105.56 124.8C107.79 124.91 110.04 124.66 112.2 124.08C111.79 122.68 110.4 121.62 108.94 121.6C112.41 120.63 115.87 119.66 119.34 118.69C118.85 118.04 118.22 117.52 117.51 117.12C117.72 116.78 117.93 116.44 118.1 116.08C118.91 115.84 119.69 115.53 120.46 115.19L122.52 120.87C122.7 118.52 122.89 116.17 123.07 113.82C123.2 113.74 123.34 113.67 123.47 113.59C123.35 113.51 123.23 113.44 123.11 113.36C123.11 113.25 123.13 113.13 123.14 113.02L128.7 115.02C128.9 113.18 129.09 111.33 129.29 109.49C130 109.58 130.72 109.67 131.43 109.76L129.97 105.06C132.02 104.95 134.05 104.57 136 103.93C135.68 103.16 135.35 102.4 135.03 101.63C136.22 101.24 137.41 100.85 138.6 100.47C137.94 99.56 137.02 98.83 135.98 98.39C136.86 97.19 138.28 96.55 139.55 95.76C140.81 94.98 142.06 93.85 142.19 92.37C142.32 90.89 140.57 89.38 139.34 90.22C140.78 88.51 141.94 86.56 142.73 84.47C141.39 84.23 139.98 84.45 138.78 85.09C141.37 83.65 143.32 81.11 144.05 78.24C143.06 78.17 142.08 78.09 141.09 78.02C142.65 76.95 143.2 74.65 142.29 72.99C140.59 72.91 138.87 73.1 137.23 73.53C139.06 70.92 140 67.7 139.86 64.52C137.97 65 136.08 65.48 134.19 65.96C135.94 64.45 136.9 62.06 136.68 59.75C135 60.03 133.39 60.66 131.96 61.59C132.79 59.8 132.87 57.68 132.2 55.82C130.39 56.5 128.88 57.93 128.1 59.7C127.55 57.76 126.99 55.82 126.43 53.88C125.43 55.31 124.76 56.97 124.47 58.7C123.19 56.41 121.91 54.12 120.64 51.83L119.29 55.57C117.56 54 115.83 52.43 114.1 50.86C113.74 52.07 113.38 53.27 113.02 54.48C111.69 53.21 110.53 51.74 109.61 50.14L109.69 53.77C106.58 52.13 103.25 50.89 99.83 50.09L107.33 55.3L100.41 51.35C99.63 50.2 98.51 49.27 97.23 48.73C96.82 46.99 99.46 46.39 101.23 46.65C108.37 47.71 115.5 48.76 122.64 49.82C126.54 50.4 130.53 51 134.05 52.79C139.4 55.51 143.7 60.92 149.7 61.23C149.5 60.32 149.66 59.33 150.12 58.52C152.94 60.44 155.77 62.37 158.59 64.29C159.8 65.12 162.2 65.3 162.02 63.85C164.7 66.79 167.37 69.73 170.05 72.66C170.45 72 170.85 71.34 171.25 70.68C173.56 73.18 176.09 75.47 178.81 77.52C178.79 76.09 179.04 74.66 179.55 73.33C180.26 73.98 181.32 74.22 182.25 73.95C181.51 73.04 181.04 71.91 180.9 70.75C182.54 70.86 184.21 70.54 185.69 69.82ZM69.24 64.89C69.3 64.91 69.36 64.94 69.42 64.96C69.39 64.96 69.36 64.98 69.33 64.98C69.3 64.95 69.27 64.92 69.24 64.89ZM116.45 116.64C116.39 116.62 116.33 116.59 116.27 116.57C116.3 116.57 116.33 116.55 116.36 116.55C116.39 116.58 116.42 116.61 116.45 116.64Z" fill="black"/>
</g>
<defs>
<clipPath id="clip0_1179_880">
<rect width="185.69" height="181.53" fill="white"/>
</clipPath>
</defs>
</svg>
