<svg width="137" height="148" viewBox="0 0 137 148" fill="none" xmlns="http://www.w3.org/2000/svg">
<g clip-path="url(#clip0_1179_883)">
<path d="M1.09 24.62C0.82 24.15 0.95 23.44 1.23 22.96C1.51 22.48 1.91 22.14 2.26 21.74C2.33 21.65 2.41 21.55 2.41 21.42C2.41 21.23 2.28 21.11 2.15 21.01C1.78 20.72 1.45 20.34 1.18 19.9C0.94 19.51 0.74 19.06 0.68 18.56C0.56 17.65 0.93 16.64 1.56 16.17C0.95 15.69 0.26 15.04 0.31 14.1C0.34 13.45 0.74 12.91 1.14 12.51C1.54 12.11 2 11.74 2.25 11.17C2.28 11.1 2.31 11.02 2.29 10.95C2.27 10.86 2.21 10.81 2.15 10.77C1.88 10.58 1.6 10.38 1.33 10.19C1.15 10.07 0.97 9.92998 0.85 9.71998C0.6 9.26998 0.72 8.62998 0.92 8.11998C1.12 7.60998 1.37 7.10998 1.38 6.54998C1.4 5.41998 0.43 4.73998 0.11 3.69998C1.63913e-07 3.23998 -0.0199998 2.71998 0.0200002 2.20998C0.0600002 1.65998 0.16 1.05998 0.48 0.689982C0.79 0.329982 1.23 0.259982 1.64 0.209982C4.06 -0.0800177 6.5 -0.0700177 8.9 0.209982C9.58 0.289982 10.25 0.399982 10.89 0.669982C12.71 1.42998 14.12 3.56998 14.42 6.03998C14.49 6.60998 14.5 7.19998 14.37 7.75998C14.16 8.62998 13.6 9.29998 13.01 9.78998C12.42 10.28 11.77 10.67 11.2 11.21C10.6 11.79 10.06 12.83 10.42 13.66C10.8 14.55 11.8 14.4 12.55 14.71C13.17 14.97 13.66 15.61 13.95 16.35C14.24 17.09 14.37 17.94 14.43 18.79C14.53 20.27 14.41 21.83 13.82 23.13C13.01 24.9 11.45 25.9 9.91 26.24C8.37 26.59 6.8 26.38 5.24 26.32C4.37 26.28 3.48 26.29 2.66 25.91C1.84 25.53 1.11 24.68 1 23.56" fill="black"/>
<path d="M25.1 2.58998C25.37 3.05998 25.24 3.76998 24.96 4.24998C24.68 4.72998 24.28 5.06998 23.93 5.46998C23.86 5.55998 23.78 5.65998 23.78 5.78998C23.78 5.97998 23.91 6.09998 24.04 6.19998C24.41 6.48998 24.74 6.86998 25.01 7.30998C25.25 7.69998 25.45 8.14998 25.51 8.64998C25.63 9.55998 25.26 10.57 24.63 11.04C25.24 11.52 25.93 12.17 25.88 13.11C25.85 13.76 25.45 14.3 25.05 14.7C24.65 15.1 24.19 15.47 23.94 16.04C23.91 16.11 23.88 16.19 23.9 16.26C23.92 16.35 23.98 16.4 24.04 16.44C24.31 16.63 24.59 16.83 24.86 17.02C25.04 17.14 25.22 17.28 25.34 17.49C25.59 17.94 25.47 18.58 25.27 19.09C25.07 19.6 24.82 20.1 24.81 20.66C24.79 21.79 25.76 22.47 26.08 23.51C26.22 23.97 26.23 24.49 26.2 24.99C26.16 25.54 26.06 26.14 25.74 26.51C25.43 26.87 24.99 26.94 24.58 26.99C22.16 27.28 19.72 27.27 17.32 26.99C16.64 26.91 15.97 26.8 15.33 26.53C13.51 25.77 12.1 23.63 11.8 21.16C11.73 20.59 11.72 20 11.85 19.44C12.06 18.57 12.62 17.9 13.21 17.41C13.8 16.92 14.45 16.53 15.02 15.99C15.62 15.41 16.16 14.37 15.8 13.54C15.42 12.65 14.42 12.8 13.67 12.49C13.05 12.23 12.56 11.59 12.27 10.85C11.98 10.11 11.85 9.25998 11.79 8.40998C11.69 6.92998 11.81 5.36998 12.4 4.06998C13.21 2.29998 14.77 1.29998 16.31 0.959978C17.85 0.619978 19.42 0.819978 20.98 0.879978C21.85 0.919978 22.74 0.909978 23.56 1.28998C24.38 1.66998 25.11 2.51998 25.22 3.63998" fill="black"/>
<path d="M28.26 26.2C27.99 25.73 28.12 25.02 28.4 24.54C28.68 24.06 29.08 23.72 29.43 23.32C29.5 23.23 29.58 23.13 29.58 23C29.58 22.81 29.45 22.69 29.32 22.59C28.95 22.3 28.62 21.92 28.35 21.48C28.11 21.09 27.91 20.64 27.85 20.14C27.73 19.23 28.1 18.22 28.73 17.75C28.12 17.27 27.43 16.62 27.48 15.68C27.51 15.03 27.91 14.49 28.31 14.09C28.71 13.69 29.17 13.32 29.42 12.75C29.45 12.68 29.48 12.6 29.46 12.53C29.44 12.44 29.38 12.39 29.32 12.35C29.05 12.16 28.77 11.96 28.5 11.77C28.32 11.65 28.14 11.51 28.02 11.3C27.77 10.85 27.89 10.21 28.09 9.70001C28.29 9.19001 28.54 8.69001 28.55 8.13001C28.57 7.00001 27.6 6.32001 27.28 5.28001C27.14 4.82001 27.13 4.30001 27.16 3.80001C27.2 3.25001 27.3 2.65001 27.62 2.28001C27.93 1.92001 28.37 1.85001 28.78 1.80001C31.2 1.51001 33.64 1.52001 36.04 1.80001C36.72 1.88001 37.39 1.99001 38.03 2.26001C39.85 3.02001 41.26 5.16001 41.56 7.63001C41.63 8.20001 41.64 8.79001 41.51 9.35001C41.3 10.22 40.74 10.89 40.15 11.38C39.56 11.87 38.91 12.26 38.34 12.8C37.74 13.38 37.2 14.42 37.56 15.25C37.94 16.14 38.94 15.99 39.69 16.3C40.31 16.56 40.8 17.2 41.09 17.94C41.38 18.68 41.51 19.53 41.57 20.38C41.67 21.86 41.55 23.42 40.96 24.72C40.15 26.49 38.59 27.49 37.05 27.83C35.51 28.17 33.94 27.97 32.38 27.91C31.51 27.87 30.62 27.88 29.8 27.5C28.98 27.12 28.25 26.27 28.14 25.15" fill="black"/>
<path d="M52.26 4.16002C52.53 4.63002 52.4 5.34002 52.12 5.82002C51.84 6.30002 51.44 6.64002 51.09 7.04002C51.02 7.13002 50.94 7.23002 50.94 7.36002C50.94 7.55002 51.07 7.67002 51.2 7.77002C51.57 8.06002 51.9 8.44002 52.17 8.88002C52.41 9.27002 52.61 9.72002 52.67 10.22C52.79 11.13 52.42 12.14 51.79 12.61C52.4 13.09 53.09 13.74 53.04 14.68C53.01 15.33 52.61 15.87 52.21 16.27C51.81 16.67 51.35 17.04 51.1 17.61C51.07 17.68 51.04 17.76 51.06 17.83C51.08 17.92 51.14 17.97 51.2 18.01C51.47 18.2 51.75 18.4 52.02 18.59C52.2 18.71 52.38 18.85 52.5 19.06C52.75 19.51 52.63 20.15 52.43 20.66C52.23 21.17 51.98 21.67 51.97 22.23C51.95 23.36 52.92 24.04 53.24 25.08C53.38 25.54 53.39 26.06 53.36 26.56C53.32 27.11 53.22 27.71 52.9 28.08C52.59 28.44 52.15 28.51 51.74 28.56C49.32 28.85 46.88 28.84 44.48 28.56C43.8 28.48 43.13 28.37 42.49 28.1C40.67 27.34 39.26 25.2 38.96 22.73C38.89 22.16 38.88 21.57 39.01 21.01C39.22 20.14 39.78 19.47 40.37 18.98C40.96 18.49 41.61 18.1 42.18 17.56C42.78 16.98 43.32 15.94 42.96 15.11C42.58 14.22 41.58 14.37 40.83 14.06C40.21 13.8 39.72 13.16 39.43 12.42C39.14 11.68 39.01 10.83 38.95 9.98002C38.85 8.50002 38.97 6.94002 39.56 5.64002C40.37 3.87002 41.93 2.87002 43.47 2.53002C45.01 2.18002 46.58 2.39002 48.14 2.45002C49.01 2.49002 49.9 2.48002 50.72 2.86002C51.54 3.24002 52.27 4.09002 52.38 5.21002" fill="black"/>
<path d="M21.57 54.39C21.3 53.92 21.43 53.21 21.71 52.73C21.99 52.25 22.39 51.91 22.74 51.51C22.81 51.42 22.89 51.32 22.89 51.19C22.89 51 22.76 50.88 22.63 50.78C22.26 50.49 21.93 50.11 21.66 49.67C21.42 49.28 21.22 48.83 21.16 48.33C21.04 47.42 21.41 46.41 22.04 45.94C21.43 45.46 20.74 44.81 20.79 43.87C20.82 43.22 21.22 42.68 21.62 42.28C22.02 41.88 22.48 41.51 22.73 40.94C22.76 40.87 22.79 40.79 22.77 40.72C22.75 40.63 22.69 40.58 22.63 40.54C22.36 40.35 22.08 40.15 21.81 39.96C21.63 39.84 21.45 39.7 21.33 39.49C21.08 39.04 21.2 38.4 21.4 37.89C21.6 37.38 21.85 36.88 21.86 36.32C21.88 35.19 20.91 34.51 20.59 33.47C20.45 33.01 20.44 32.49 20.47 31.99C20.51 31.44 20.61 30.84 20.93 30.47C21.24 30.11 21.68 30.04 22.09 29.99C24.51 29.7 26.95 29.71 29.35 29.99C30.03 30.07 30.7 30.18 31.34 30.45C33.16 31.21 34.57 33.35 34.87 35.82C34.94 36.39 34.95 36.98 34.82 37.54C34.61 38.41 34.05 39.08 33.46 39.57C32.87 40.06 32.22 40.45 31.65 40.99C31.05 41.57 30.51 42.61 30.87 43.44C31.25 44.33 32.25 44.18 33 44.49C33.62 44.75 34.11 45.39 34.4 46.13C34.69 46.87 34.82 47.72 34.88 48.57C34.98 50.05 34.86 51.61 34.27 52.91C33.46 54.68 31.9 55.68 30.36 56.02C28.82 56.37 27.25 56.16 25.69 56.1C24.82 56.06 23.93 56.07 23.11 55.69C22.29 55.31 21.56 54.46 21.45 53.34" fill="black"/>
<path d="M45.57 32.35C45.84 32.82 45.71 33.53 45.43 34.01C45.15 34.49 44.75 34.83 44.4 35.23C44.33 35.32 44.25 35.42 44.25 35.55C44.25 35.74 44.38 35.86 44.51 35.96C44.88 36.25 45.21 36.63 45.48 37.07C45.72 37.46 45.92 37.91 45.98 38.41C46.1 39.32 45.73 40.33 45.1 40.8C45.71 41.28 46.4 41.93 46.35 42.87C46.32 43.52 45.92 44.06 45.52 44.46C45.12 44.86 44.66 45.23 44.41 45.8C44.38 45.87 44.35 45.95 44.37 46.02C44.39 46.11 44.45 46.16 44.51 46.2C44.78 46.39 45.06 46.59 45.33 46.78C45.51 46.9 45.69 47.04 45.81 47.25C46.06 47.7 45.94 48.34 45.74 48.85C45.54 49.36 45.29 49.86 45.28 50.42C45.26 51.55 46.23 52.23 46.55 53.27C46.69 53.73 46.7 54.25 46.67 54.75C46.63 55.3 46.53 55.9 46.21 56.27C45.9 56.63 45.46 56.7 45.05 56.75C42.63 57.04 40.19 57.03 37.79 56.75C37.11 56.67 36.44 56.56 35.8 56.29C33.98 55.53 32.57 53.39 32.27 50.92C32.2 50.35 32.19 49.76 32.32 49.2C32.53 48.33 33.09 47.66 33.68 47.17C34.27 46.68 34.92 46.29 35.49 45.75C36.09 45.17 36.63 44.13 36.27 43.3C35.89 42.41 34.89 42.56 34.14 42.25C33.52 41.99 33.03 41.35 32.74 40.61C32.45 39.87 32.32 39.02 32.26 38.17C32.16 36.69 32.28 35.13 32.87 33.83C33.68 32.06 35.24 31.06 36.78 30.72C38.32 30.37 39.89 30.58 41.45 30.64C42.32 30.68 43.21 30.67 44.03 31.05C44.85 31.43 45.58 32.28 45.69 33.4" fill="black"/>
<path d="M48.74 55.96C48.47 55.49 48.6 54.78 48.88 54.3C49.16 53.82 49.56 53.48 49.91 53.08C49.98 52.99 50.06 52.89 50.06 52.76C50.06 52.57 49.93 52.45 49.8 52.35C49.43 52.06 49.1 51.68 48.83 51.24C48.59 50.85 48.39 50.4 48.33 49.9C48.21 48.99 48.58 47.98 49.21 47.51C48.6 47.03 47.91 46.38 47.96 45.44C47.99 44.79 48.39 44.25 48.79 43.85C49.19 43.45 49.65 43.08 49.9 42.51C49.93 42.44 49.96 42.36 49.94 42.29C49.92 42.2 49.86 42.15 49.8 42.11C49.53 41.92 49.25 41.72 48.98 41.53C48.8 41.41 48.62 41.27 48.5 41.06C48.25 40.61 48.37 39.97 48.57 39.46C48.77 38.95 49.02 38.45 49.03 37.89C49.05 36.76 48.08 36.08 47.76 35.04C47.62 34.58 47.61 34.06 47.64 33.56C47.68 33.01 47.78 32.41 48.1 32.04C48.41 31.68 48.85 31.61 49.26 31.56C51.68 31.27 54.12 31.28 56.52 31.56C57.2 31.64 57.87 31.75 58.51 32.02C60.33 32.78 61.74 34.92 62.04 37.39C62.11 37.96 62.12 38.55 61.99 39.11C61.78 39.98 61.22 40.65 60.63 41.14C60.04 41.63 59.39 42.02 58.82 42.56C58.22 43.14 57.68 44.18 58.04 45.01C58.42 45.9 59.42 45.75 60.17 46.06C60.79 46.32 61.28 46.96 61.57 47.7C61.87 48.45 61.99 49.29 62.05 50.14C62.15 51.62 62.03 53.18 61.44 54.48C60.63 56.25 59.07 57.25 57.53 57.59C55.99 57.94 54.42 57.73 52.86 57.67C51.99 57.63 51.1 57.64 50.28 57.26C49.46 56.88 48.73 56.03 48.62 54.91" fill="black"/>
<path d="M72.74 33.93C73.01 34.4 72.88 35.11 72.6 35.59C72.32 36.07 71.92 36.41 71.57 36.81C71.5 36.9 71.42 37 71.42 37.13C71.42 37.32 71.55 37.44 71.68 37.54C72.05 37.83 72.38 38.21 72.65 38.65C72.89 39.04 73.09 39.49 73.15 39.99C73.27 40.9 72.9 41.91 72.27 42.38C72.88 42.86 73.57 43.51 73.52 44.45C73.49 45.1 73.09 45.64 72.69 46.04C72.29 46.44 71.83 46.81 71.58 47.38C71.55 47.45 71.52 47.53 71.54 47.6C71.56 47.69 71.62 47.74 71.68 47.78C71.95 47.97 72.23 48.17 72.5 48.36C72.68 48.48 72.86 48.62 72.98 48.83C73.23 49.28 73.11 49.92 72.91 50.43C72.71 50.94 72.46 51.44 72.45 52C72.43 53.13 73.4 53.81 73.72 54.85C73.86 55.31 73.87 55.83 73.84 56.33C73.8 56.88 73.7 57.48 73.38 57.85C73.07 58.21 72.63 58.28 72.22 58.33C69.8 58.62 67.36 58.61 64.96 58.33C64.28 58.25 63.61 58.14 62.97 57.87C61.15 57.11 59.74 54.97 59.44 52.5C59.37 51.93 59.36 51.34 59.49 50.78C59.7 49.91 60.26 49.24 60.85 48.75C61.44 48.26 62.09 47.87 62.66 47.33C63.26 46.75 63.8 45.71 63.44 44.88C63.06 43.99 62.06 44.14 61.31 43.83C60.69 43.57 60.2 42.93 59.91 42.19C59.62 41.45 59.49 40.6 59.43 39.75C59.33 38.27 59.45 36.71 60.04 35.41C60.85 33.64 62.41 32.64 63.95 32.3C65.49 31.96 67.06 32.16 68.62 32.22C69.49 32.26 70.38 32.25 71.2 32.63C72.02 33.01 72.75 33.86 72.86 34.98" fill="black"/>
<path d="M42.39 84.18C42.12 83.71 42.25 83 42.53 82.52C42.81 82.04 43.21 81.7 43.56 81.3C43.63 81.21 43.71 81.11 43.71 80.98C43.71 80.79 43.58 80.67 43.45 80.57C43.08 80.28 42.75 79.9 42.48 79.46C42.24 79.07 42.04 78.62 41.98 78.12C41.86 77.21 42.23 76.2 42.86 75.73C42.25 75.25 41.56 74.6 41.61 73.66C41.64 73.01 42.04 72.47 42.44 72.07C42.84 71.67 43.3 71.3 43.55 70.73C43.58 70.66 43.61 70.58 43.59 70.51C43.57 70.42 43.51 70.37 43.45 70.33C43.18 70.14 42.9 69.94 42.63 69.75C42.45 69.63 42.27 69.49 42.15 69.28C41.9 68.83 42.02 68.19 42.22 67.68C42.42 67.17 42.67 66.67 42.68 66.11C42.7 64.98 41.73 64.3 41.41 63.26C41.27 62.8 41.26 62.28 41.29 61.78C41.33 61.23 41.43 60.63 41.75 60.26C42.06 59.9 42.5 59.83 42.91 59.78C45.33 59.49 47.77 59.5 50.17 59.78C50.85 59.86 51.52 59.97 52.16 60.24C53.98 61 55.39 63.14 55.69 65.61C55.76 66.18 55.77 66.77 55.64 67.33C55.43 68.2 54.87 68.87 54.28 69.36C53.69 69.85 53.04 70.24 52.47 70.78C51.87 71.36 51.33 72.4 51.69 73.23C52.07 74.12 53.07 73.97 53.82 74.28C54.44 74.54 54.93 75.18 55.22 75.92C55.51 76.66 55.64 77.51 55.7 78.36C55.8 79.84 55.68 81.4 55.09 82.7C54.28 84.47 52.72 85.47 51.18 85.81C49.64 86.16 48.07 85.95 46.51 85.89C45.64 85.85 44.75 85.86 43.93 85.48C43.11 85.1 42.38 84.25 42.27 83.13" fill="black"/>
<path d="M66.39 62.14C66.66 62.61 66.53 63.32 66.25 63.8C65.97 64.28 65.57 64.62 65.22 65.02C65.15 65.11 65.07 65.21 65.07 65.34C65.07 65.53 65.2 65.65 65.33 65.75C65.7 66.04 66.03 66.42 66.3 66.86C66.54 67.25 66.74 67.7 66.8 68.2C66.92 69.11 66.55 70.12 65.92 70.59C66.53 71.07 67.22 71.72 67.17 72.66C67.14 73.31 66.74 73.85 66.34 74.25C65.94 74.65 65.48 75.02 65.23 75.59C65.2 75.66 65.17 75.74 65.19 75.81C65.21 75.9 65.27 75.95 65.33 75.99C65.6 76.18 65.88 76.38 66.15 76.57C66.33 76.69 66.51 76.83 66.63 77.04C66.88 77.49 66.76 78.13 66.56 78.64C66.36 79.15 66.11 79.65 66.1 80.21C66.08 81.34 67.05 82.02 67.37 83.06C67.51 83.52 67.52 84.04 67.49 84.54C67.45 85.09 67.35 85.69 67.03 86.06C66.72 86.42 66.28 86.49 65.87 86.54C63.45 86.83 61.01 86.82 58.61 86.54C57.93 86.46 57.26 86.35 56.62 86.08C54.8 85.32 53.39 83.18 53.09 80.71C53.02 80.14 53.01 79.55 53.14 78.99C53.35 78.12 53.91 77.45 54.5 76.96C55.09 76.47 55.74 76.08 56.31 75.54C56.91 74.96 57.45 73.92 57.09 73.09C56.71 72.2 55.71 72.35 54.96 72.04C54.34 71.78 53.85 71.14 53.56 70.4C53.27 69.66 53.14 68.81 53.08 67.96C52.98 66.48 53.1 64.92 53.69 63.62C54.5 61.85 56.06 60.85 57.6 60.51C59.14 60.16 60.71 60.37 62.27 60.43C63.14 60.47 64.03 60.46 64.85 60.84C65.67 61.22 66.4 62.07 66.51 63.19" fill="black"/>
<path d="M69.56 85.75C69.29 85.28 69.42 84.57 69.7 84.09C69.98 83.61 70.38 83.27 70.73 82.87C70.8 82.78 70.88 82.68 70.88 82.55C70.88 82.36 70.75 82.24 70.62 82.14C70.25 81.85 69.92 81.47 69.65 81.03C69.41 80.64 69.21 80.19 69.15 79.69C69.03 78.78 69.4 77.77 70.03 77.3C69.42 76.82 68.73 76.17 68.78 75.23C68.81 74.58 69.21 74.04 69.61 73.64C70.01 73.24 70.47 72.87 70.72 72.3C70.75 72.23 70.78 72.15 70.76 72.08C70.74 71.99 70.68 71.94 70.62 71.9C70.35 71.71 70.07 71.51 69.8 71.32C69.62 71.2 69.44 71.06 69.32 70.85C69.07 70.4 69.19 69.76 69.39 69.25C69.59 68.74 69.84 68.24 69.85 67.68C69.87 66.55 68.9 65.87 68.58 64.83C68.44 64.37 68.43 63.85 68.46 63.35C68.5 62.8 68.6 62.2 68.92 61.83C69.23 61.47 69.67 61.4 70.08 61.35C72.5 61.06 74.94 61.07 77.34 61.35C78.02 61.43 78.69 61.54 79.33 61.81C81.15 62.57 82.56 64.71 82.86 67.18C82.93 67.75 82.94 68.34 82.81 68.9C82.6 69.77 82.04 70.44 81.45 70.93C80.86 71.42 80.21 71.81 79.64 72.35C79.04 72.93 78.5 73.97 78.86 74.8C79.24 75.69 80.24 75.54 80.99 75.85C81.61 76.11 82.1 76.75 82.39 77.49C82.68 78.23 82.81 79.08 82.87 79.93C82.97 81.41 82.85 82.97 82.26 84.27C81.45 86.04 79.89 87.04 78.35 87.38C76.81 87.73 75.24 87.52 73.68 87.46C72.81 87.42 71.92 87.43 71.1 87.05C70.28 86.67 69.55 85.82 69.44 84.7" fill="black"/>
<path d="M93.56 63.72C93.83 64.19 93.7 64.9 93.42 65.38C93.14 65.86 92.74 66.2 92.39 66.6C92.32 66.69 92.24 66.79 92.24 66.92C92.24 67.11 92.37 67.23 92.5 67.33C92.87 67.62 93.2 68 93.47 68.44C93.71 68.83 93.91 69.28 93.97 69.78C94.09 70.69 93.72 71.7 93.09 72.17C93.7 72.65 94.39 73.3 94.34 74.24C94.31 74.89 93.91 75.43 93.51 75.83C93.11 76.23 92.65 76.6 92.4 77.17C92.37 77.24 92.34 77.32 92.36 77.39C92.38 77.48 92.44 77.53 92.5 77.57C92.77 77.76 93.05 77.96 93.32 78.15C93.5 78.27 93.68 78.41 93.8 78.62C94.05 79.07 93.93 79.71 93.73 80.22C93.53 80.73 93.28 81.23 93.27 81.79C93.25 82.92 94.22 83.6 94.54 84.64C94.68 85.1 94.69 85.62 94.66 86.12C94.62 86.67 94.52 87.27 94.2 87.64C93.89 88 93.45 88.07 93.04 88.12C90.62 88.41 88.18 88.4 85.78 88.12C85.1 88.04 84.43 87.93 83.79 87.66C81.97 86.9 80.56 84.76 80.26 82.29C80.19 81.72 80.18 81.13 80.31 80.57C80.52 79.7 81.08 79.03 81.67 78.54C82.26 78.05 82.91 77.66 83.48 77.12C84.08 76.54 84.62 75.5 84.26 74.67C83.88 73.78 82.88 73.93 82.13 73.62C81.51 73.36 81.02 72.72 80.73 71.98C80.44 71.24 80.31 70.39 80.25 69.54C80.15 68.06 80.27 66.5 80.86 65.2C81.67 63.43 83.23 62.43 84.77 62.09C86.31 61.74 87.88 61.95 89.44 62.01C90.31 62.05 91.2 62.04 92.02 62.42C92.84 62.8 93.57 63.65 93.68 64.77" fill="black"/>
<path d="M63.21 113.97C62.94 113.5 63.07 112.79 63.35 112.31C63.63 111.83 64.03 111.49 64.38 111.09C64.45 111 64.53 110.9 64.53 110.77C64.53 110.58 64.4 110.46 64.27 110.36C63.9 110.07 63.57 109.69 63.3 109.25C63.06 108.86 62.86 108.41 62.8 107.91C62.68 107 63.05 105.99 63.68 105.52C63.07 105.04 62.38 104.39 62.43 103.45C62.46 102.8 62.86 102.26 63.26 101.86C63.66 101.46 64.12 101.09 64.37 100.52C64.4 100.45 64.43 100.37 64.41 100.3C64.39 100.21 64.33 100.16 64.27 100.12C64 99.93 63.72 99.73 63.45 99.54C63.27 99.42 63.09 99.28 62.97 99.07C62.72 98.62 62.84 97.98 63.04 97.47C63.24 96.96 63.49 96.46 63.5 95.9C63.52 94.77 62.55 94.09 62.23 93.05C62.09 92.59 62.08 92.07 62.11 91.57C62.15 91.02 62.25 90.42 62.57 90.05C62.88 89.69 63.32 89.62 63.73 89.57C66.15 89.28 68.59 89.29 70.99 89.57C71.67 89.65 72.34 89.76 72.98 90.03C74.8 90.79 76.21 92.93 76.51 95.4C76.58 95.97 76.59 96.56 76.46 97.12C76.25 97.99 75.69 98.66 75.1 99.15C74.51 99.65 73.86 100.03 73.29 100.57C72.69 101.15 72.15 102.19 72.51 103.02C72.89 103.91 73.89 103.76 74.64 104.07C75.26 104.33 75.75 104.97 76.04 105.71C76.33 106.45 76.46 107.3 76.52 108.15C76.62 109.63 76.5 111.19 75.91 112.49C75.1 114.26 73.54 115.26 72 115.6C70.46 115.94 68.89 115.74 67.33 115.68C66.46 115.64 65.57 115.65 64.75 115.27C63.93 114.89 63.2 114.04 63.09 112.92" fill="black"/>
<path d="M87.21 91.93C87.48 92.4 87.35 93.11 87.07 93.59C86.79 94.07 86.39 94.41 86.04 94.81C85.97 94.9 85.89 95 85.89 95.13C85.89 95.32 86.02 95.44 86.15 95.54C86.52 95.83 86.85 96.21 87.12 96.65C87.36 97.04 87.56 97.49 87.62 97.99C87.74 98.9 87.37 99.91 86.74 100.38C87.35 100.86 88.04 101.51 87.99 102.45C87.96 103.1 87.56 103.64 87.16 104.04C86.76 104.44 86.3 104.81 86.05 105.38C86.02 105.45 85.99 105.53 86.01 105.6C86.03 105.69 86.09 105.74 86.15 105.78C86.42 105.97 86.7 106.17 86.97 106.36C87.15 106.48 87.33 106.62 87.45 106.83C87.7 107.28 87.58 107.92 87.38 108.43C87.18 108.94 86.93 109.44 86.92 110C86.9 111.13 87.87 111.81 88.19 112.85C88.33 113.31 88.34 113.83 88.31 114.33C88.27 114.88 88.17 115.48 87.85 115.85C87.54 116.21 87.1 116.28 86.69 116.33C84.27 116.62 81.83 116.61 79.43 116.33C78.75 116.25 78.08 116.14 77.44 115.87C75.62 115.11 74.21 112.97 73.91 110.5C73.84 109.93 73.83 109.34 73.96 108.78C74.17 107.91 74.73 107.24 75.32 106.75C75.91 106.26 76.56 105.87 77.13 105.33C77.73 104.75 78.27 103.71 77.91 102.88C77.53 101.99 76.53 102.14 75.78 101.83C75.16 101.57 74.67 100.93 74.38 100.19C74.09 99.45 73.96 98.6 73.9 97.75C73.8 96.27 73.92 94.71 74.51 93.41C75.32 91.64 76.88 90.64 78.42 90.3C79.96 89.95 81.53 90.16 83.09 90.22C83.96 90.26 84.85 90.25 85.67 90.63C86.48 91.01 87.22 91.86 87.33 92.98" fill="black"/>
<path d="M90.38 115.54C90.11 115.07 90.24 114.36 90.52 113.88C90.8 113.4 91.2 113.06 91.55 112.66C91.62 112.57 91.7 112.47 91.7 112.34C91.7 112.15 91.57 112.03 91.44 111.93C91.07 111.64 90.74 111.26 90.47 110.82C90.23 110.43 90.03 109.98 89.97 109.48C89.85 108.57 90.22 107.56 90.85 107.09C90.24 106.61 89.55 105.96 89.6 105.02C89.63 104.37 90.03 103.83 90.43 103.43C90.83 103.03 91.29 102.66 91.54 102.09C91.57 102.02 91.6 101.94 91.58 101.87C91.56 101.78 91.5 101.73 91.44 101.69C91.17 101.5 90.89 101.3 90.62 101.11C90.44 100.99 90.26 100.85 90.14 100.64C89.89 100.19 90.01 99.55 90.21 99.04C90.41 98.53 90.66 98.03 90.67 97.47C90.69 96.34 89.72 95.66 89.4 94.62C89.26 94.16 89.25 93.64 89.28 93.14C89.32 92.59 89.42 91.99 89.74 91.62C90.05 91.26 90.49 91.19 90.9 91.14C93.32 90.85 95.76 90.86 98.16 91.14C98.84 91.22 99.51 91.33 100.15 91.6C101.97 92.36 103.38 94.5 103.68 96.97C103.75 97.54 103.76 98.13 103.63 98.69C103.42 99.56 102.86 100.23 102.27 100.72C101.68 101.21 101.03 101.6 100.46 102.14C99.86 102.72 99.32 103.76 99.68 104.59C100.06 105.48 101.06 105.33 101.81 105.64C102.43 105.9 102.92 106.54 103.21 107.28C103.5 108.02 103.63 108.87 103.69 109.72C103.79 111.2 103.67 112.76 103.08 114.06C102.27 115.83 100.71 116.83 99.17 117.17C97.63 117.52 96.06 117.31 94.5 117.25C93.63 117.21 92.74 117.22 91.92 116.84C91.1 116.46 90.37 115.61 90.26 114.49" fill="black"/>
<path d="M114.38 93.5C114.65 93.97 114.52 94.68 114.24 95.16C113.96 95.64 113.56 95.98 113.21 96.38C113.14 96.47 113.06 96.57 113.06 96.7C113.06 96.89 113.19 97.01 113.32 97.11C113.69 97.4 114.02 97.78 114.29 98.22C114.53 98.61 114.73 99.06 114.79 99.56C114.91 100.47 114.54 101.48 113.91 101.95C114.52 102.43 115.21 103.08 115.16 104.02C115.13 104.67 114.73 105.21 114.33 105.61C113.93 106.01 113.47 106.38 113.22 106.95C113.19 107.02 113.16 107.1 113.18 107.17C113.2 107.26 113.26 107.31 113.32 107.35C113.59 107.54 113.87 107.74 114.14 107.93C114.32 108.05 114.5 108.19 114.62 108.4C114.87 108.85 114.75 109.49 114.55 110C114.35 110.51 114.1 111.01 114.09 111.57C114.07 112.7 115.04 113.38 115.36 114.42C115.5 114.88 115.51 115.4 115.48 115.9C115.44 116.45 115.34 117.05 115.02 117.42C114.71 117.78 114.27 117.85 113.86 117.9C111.44 118.19 109 118.18 106.6 117.9C105.92 117.82 105.25 117.71 104.61 117.44C102.79 116.68 101.38 114.54 101.08 112.07C101.01 111.5 101 110.91 101.13 110.35C101.34 109.48 101.9 108.81 102.49 108.32C103.08 107.83 103.73 107.44 104.3 106.9C104.9 106.32 105.44 105.28 105.08 104.45C104.7 103.56 103.7 103.71 102.95 103.4C102.33 103.14 101.84 102.5 101.55 101.76C101.25 101.01 101.13 100.17 101.07 99.32C100.97 97.84 101.09 96.28 101.68 94.98C102.49 93.21 104.05 92.21 105.59 91.87C107.13 91.52 108.7 91.73 110.26 91.79C111.13 91.83 112.02 91.82 112.84 92.2C113.66 92.58 114.39 93.43 114.5 94.55" fill="black"/>
<path d="M84.03 143.75C83.76 143.28 83.89 142.57 84.17 142.09C84.45 141.61 84.85 141.27 85.2 140.87C85.27 140.78 85.35 140.68 85.35 140.55C85.35 140.36 85.22 140.24 85.09 140.14C84.72 139.85 84.39 139.47 84.12 139.03C83.88 138.64 83.68 138.19 83.62 137.69C83.5 136.78 83.87 135.77 84.5 135.3C83.89 134.82 83.2 134.17 83.25 133.23C83.28 132.58 83.68 132.04 84.08 131.64C84.48 131.24 84.94 130.87 85.19 130.3C85.22 130.23 85.25 130.15 85.23 130.08C85.21 129.99 85.15 129.94 85.09 129.9C84.82 129.71 84.54 129.51 84.27 129.32C84.09 129.2 83.91 129.06 83.79 128.85C83.54 128.4 83.66 127.76 83.86 127.25C84.06 126.74 84.31 126.24 84.32 125.68C84.34 124.55 83.37 123.87 83.05 122.83C82.91 122.37 82.9 121.85 82.93 121.35C82.97 120.8 83.07 120.2 83.39 119.83C83.7 119.47 84.14 119.4 84.55 119.35C86.97 119.06 89.41 119.07 91.81 119.35C92.49 119.43 93.16 119.54 93.8 119.81C95.62 120.57 97.03 122.71 97.33 125.18C97.4 125.75 97.41 126.34 97.28 126.9C97.07 127.77 96.51 128.44 95.92 128.93C95.33 129.42 94.68 129.81 94.11 130.35C93.51 130.93 92.97 131.97 93.33 132.8C93.71 133.69 94.71 133.54 95.46 133.85C96.08 134.11 96.57 134.75 96.86 135.49C97.15 136.23 97.28 137.08 97.34 137.93C97.44 139.41 97.32 140.97 96.73 142.27C95.92 144.04 94.36 145.04 92.82 145.38C91.28 145.73 89.71 145.52 88.15 145.46C87.28 145.42 86.39 145.43 85.57 145.05C84.75 144.67 84.02 143.82 83.91 142.7" fill="black"/>
<path d="M108.03 121.72C108.3 122.19 108.17 122.9 107.89 123.38C107.61 123.86 107.21 124.2 106.86 124.6C106.79 124.69 106.71 124.79 106.71 124.92C106.71 125.11 106.84 125.23 106.97 125.33C107.34 125.62 107.67 126 107.94 126.44C108.18 126.83 108.38 127.28 108.44 127.78C108.56 128.69 108.19 129.7 107.56 130.17C108.17 130.65 108.86 131.3 108.81 132.24C108.78 132.89 108.38 133.43 107.98 133.83C107.58 134.23 107.12 134.6 106.87 135.17C106.84 135.24 106.81 135.32 106.83 135.39C106.85 135.48 106.91 135.53 106.97 135.57C107.24 135.76 107.52 135.96 107.79 136.15C107.97 136.27 108.15 136.41 108.27 136.62C108.52 137.07 108.4 137.71 108.2 138.22C108 138.73 107.75 139.23 107.74 139.79C107.72 140.92 108.69 141.6 109.01 142.64C109.15 143.1 109.16 143.62 109.13 144.12C109.09 144.67 108.99 145.27 108.67 145.64C108.36 146 107.92 146.07 107.51 146.12C105.09 146.41 102.65 146.4 100.25 146.12C99.57 146.04 98.9 145.93 98.26 145.66C96.44 144.9 95.03 142.76 94.73 140.29C94.66 139.72 94.65 139.13 94.78 138.57C94.99 137.7 95.55 137.03 96.14 136.54C96.73 136.04 97.38 135.66 97.95 135.12C98.55 134.54 99.09 133.5 98.73 132.67C98.35 131.78 97.35 131.93 96.6 131.62C95.98 131.36 95.49 130.72 95.2 129.98C94.91 129.24 94.78 128.39 94.72 127.54C94.62 126.06 94.74 124.5 95.33 123.2C96.14 121.43 97.7 120.43 99.24 120.09C100.78 119.74 102.35 119.95 103.91 120.01C104.78 120.05 105.67 120.04 106.49 120.42C107.31 120.8 108.04 121.65 108.15 122.77" fill="black"/>
<path d="M111.2 145.33C110.93 144.86 111.06 144.15 111.34 143.67C111.62 143.19 112.02 142.85 112.37 142.45C112.44 142.36 112.52 142.26 112.52 142.13C112.52 141.94 112.39 141.82 112.26 141.72C111.89 141.43 111.56 141.05 111.29 140.61C111.05 140.22 110.85 139.77 110.79 139.27C110.67 138.36 111.04 137.35 111.67 136.88C111.06 136.4 110.37 135.75 110.42 134.81C110.45 134.16 110.85 133.62 111.25 133.22C111.65 132.82 112.11 132.45 112.36 131.88C112.39 131.81 112.42 131.73 112.4 131.66C112.38 131.57 112.32 131.52 112.26 131.48C111.99 131.29 111.71 131.09 111.44 130.9C111.26 130.78 111.08 130.64 110.96 130.43C110.71 129.98 110.83 129.34 111.03 128.83C111.23 128.32 111.48 127.82 111.49 127.26C111.51 126.13 110.54 125.45 110.22 124.41C110.08 123.95 110.07 123.43 110.1 122.93C110.14 122.38 110.24 121.78 110.56 121.41C110.87 121.05 111.31 120.98 111.72 120.93C114.14 120.64 116.58 120.65 118.98 120.93C119.66 121.01 120.33 121.12 120.97 121.39C122.79 122.15 124.2 124.29 124.5 126.76C124.57 127.33 124.58 127.92 124.45 128.48C124.24 129.35 123.68 130.02 123.09 130.51C122.5 131 121.85 131.39 121.28 131.93C120.68 132.51 120.14 133.55 120.5 134.38C120.88 135.27 121.88 135.12 122.63 135.43C123.25 135.69 123.74 136.33 124.03 137.07C124.32 137.81 124.45 138.66 124.51 139.51C124.61 140.99 124.49 142.55 123.9 143.85C123.09 145.62 121.53 146.62 119.99 146.96C118.45 147.3 116.88 147.1 115.32 147.04C114.45 147 113.56 147.01 112.74 146.63C111.92 146.25 111.19 145.4 111.08 144.28" fill="black"/>
<path d="M135.2 123.29C135.47 123.76 135.34 124.47 135.06 124.95C134.78 125.43 134.38 125.77 134.03 126.17C133.96 126.26 133.88 126.36 133.88 126.49C133.88 126.68 134.01 126.8 134.14 126.9C134.51 127.19 134.84 127.57 135.11 128.01C135.35 128.4 135.55 128.85 135.61 129.35C135.73 130.26 135.36 131.27 134.73 131.74C135.34 132.22 136.03 132.87 135.98 133.81C135.95 134.46 135.55 135 135.15 135.4C134.75 135.8 134.29 136.17 134.04 136.74C134.01 136.81 133.98 136.89 134 136.96C134.02 137.05 134.08 137.1 134.14 137.14C134.41 137.33 134.69 137.53 134.96 137.72C135.14 137.84 135.32 137.98 135.44 138.19C135.69 138.64 135.57 139.28 135.37 139.79C135.17 140.3 134.92 140.8 134.91 141.36C134.89 142.49 135.86 143.17 136.18 144.21C136.32 144.67 136.33 145.19 136.3 145.69C136.26 146.24 136.16 146.84 135.84 147.21C135.53 147.57 135.09 147.64 134.68 147.69C132.26 147.98 129.82 147.97 127.42 147.69C126.74 147.61 126.07 147.5 125.43 147.23C123.61 146.47 122.2 144.33 121.9 141.86C121.83 141.29 121.82 140.7 121.95 140.14C122.16 139.27 122.72 138.6 123.31 138.11C123.9 137.62 124.55 137.23 125.12 136.69C125.72 136.11 126.26 135.07 125.9 134.24C125.52 133.35 124.52 133.5 123.77 133.19C123.15 132.93 122.66 132.29 122.37 131.55C122.08 130.81 121.95 129.96 121.89 129.11C121.79 127.63 121.91 126.07 122.5 124.77C123.31 123 124.87 122 126.41 121.66C127.95 121.31 129.52 121.52 131.08 121.58C131.95 121.62 132.84 121.61 133.66 121.99C134.48 122.37 135.21 123.22 135.32 124.34" fill="black"/>
</g>
<defs>
<clipPath id="clip0_1179_883">
<rect width="136.29" height="147.91" fill="white"/>
</clipPath>
</defs>
</svg>
