<svg width="460" height="133" viewBox="0 0 460 133" fill="none" xmlns="http://www.w3.org/2000/svg">
<g clip-path="url(#clip0_1178_806)">
<mask id="mask0_1178_806" style="mask-type:luminance" maskUnits="userSpaceOnUse" x="0" y="0" width="460" height="133">
<path d="M459.45 132.3L459.45 1.52588e-05L0 -4.82441e-06L-5.78302e-06 132.3L459.45 132.3Z" fill="white"/>
</mask>
<g mask="url(#mask0_1178_806)">
<path d="M175.35 81.14C175.31 80.88 175.3 80.62 175.28 80.37C175.24 80.09 175.21 79.81 175.16 79.53L175.35 81.14Z" fill="black"/>
<path d="M391.79 75.95C392.58 76.41 393.39 76.83 394.22 77.21C393.93 77.74 393.66 78.28 393.36 78.8C392.84 77.85 392.32 76.9 391.79 75.95ZM259.3 58.24C258.95 57.96 258.6 57.69 258.26 57.42C257.2 59.83 256.67 62.46 256.71 65.09C256.4 64.28 256.08 63.46 255.77 62.65C254.97 66.17 254.61 69.79 254.71 73.39C254.42 72.79 254.12 72.2 253.83 71.6C253.26 76.2 253.1 80.85 253.29 85.48C252.91 85.93 252.54 86.37 252.16 86.81C252.08 86.61 251.97 86.42 251.9 86.22C251.95 86.45 252.04 86.67 252.09 86.89C247.49 92.34 242.88 97.8 238.28 103.25C238.55 101.52 238.81 99.71 238.19 98.08C237.07 98.39 235.95 98.7 234.82 99.01C239.04 94 242.28 88.21 244.33 82.04C243.48 82.05 242.62 82.06 241.77 82.08C243.99 78.19 245.53 73.94 246.31 69.57C245.31 69.47 244.31 69.36 243.31 69.26C246 64.98 248 60.28 249.21 55.4C249.49 54.26 249.54 52.71 248.42 52.28C248.35 52.25 248.27 52.25 248.2 52.23C250.89 52.26 253.58 52.28 256.28 52.31C256.94 52.31 257.63 52.33 258.18 52.67C259.89 53.72 258.76 56.34 259.31 58.24M248.7 52.05C247.93 52.1 247.16 52.16 246.39 52.21C246.74 52.21 247.08 52.21 247.43 52.22C247.23 52.25 247.03 52.29 246.83 52.34C245.38 52.7 243.93 53.06 242.48 53.42C243.13 52.48 243.61 51.43 243.94 50.34C245.44 51.12 247.04 51.71 248.7 52.05ZM30.19 17.14L38.03 15.84C35.59 16.94 32.86 17.43 30.19 17.14ZM453.71 86.95C456.08 83.89 458.02 80.51 459.45 76.94C457.5 77.66 455.55 78.38 453.6 79.1C453.91 77.28 454.21 75.47 454.52 73.65C449.81 79.77 445.1 85.89 440.38 92C439.32 90.25 436.62 90.77 434.67 91.53C436.07 88.72 436.78 85.58 436.71 82.46C435.93 82.38 435.14 82.29 434.36 82.2C436.79 77.47 439.04 72.65 441.1 67.76C441.4 67.06 441.69 66.32 441.61 65.57C441.42 63.87 438.89 62.99 437.63 64.18C439.44 61.17 441.26 58.16 443.07 55.14C444.27 53.15 445.51 50.9 444.93 48.67C444.45 48.72 443.97 48.77 443.48 48.81C446.46 44.27 448.83 39.33 450.48 34.19C447.8 34.76 445.3 36.14 443.43 38.11C444.55 36.04 445.03 33.65 444.79 31.33C440.46 34.35 436.55 37.95 433.21 42C433.24 40.74 433.03 39.49 432.58 38.31C430.32 40.38 429.03 43.43 429.12 46.45L428.97 47.61C426.3 48.13 423.42 47.53 421.21 45.99C420.29 45.35 418.95 44.56 418.19 45.38C418.92 45.39 418.37 46.53 417.71 46.83C413.86 48.55 410.02 50.27 406.18 51.98C407.36 52.38 408.53 52.77 409.7 53.17C405.99 57.48 402.28 61.8 398.57 66.11C398.31 65.91 398.06 65.69 397.8 65.5C398.62 65.05 399.38 64.52 400.09 63.91C397.63 62.57 394.91 61.67 392.12 61.25C393.04 60.81 393.73 59.93 393.91 58.94C390.09 59.03 386.3 60.02 382.93 61.79C383.51 60.3 383.79 58.7 383.74 57.11C380.74 58.38 378.22 60.69 376.72 63.52C377.36 62.65 377.5 61.45 377.08 60.46C374.42 62.65 371.74 64.88 369.68 67.61C367.62 70.35 366.2 73.68 366.42 77.07C366.27 74.02 366.12 70.97 365.96 67.92L365.28 68.96C366.42 66.16 366.39 62.92 365.19 60.14C364.5 60.23 363.81 60.33 363.12 60.42C363.42 58.9 363.23 57.29 362.6 55.87C359.21 56.66 356.1 58.53 353.86 61.13C354.53 59.32 354.87 57.4 354.87 55.48C354.87 54.87 354.7 54.09 354.08 53.98C353.73 53.92 353.38 54.12 353.09 54.32C350.3 56.2 347.95 58.7 346.26 61.56C346.41 60.97 346.3 60.32 345.97 59.8C343.83 61.66 342.2 64.09 341.31 66.75C341.04 67.55 341.04 68.73 341.88 68.92C342.72 69.11 343.97 68.2 344.22 69C341.34 73.49 338.7 78.14 336.3 82.89C336.49 81.79 336.59 80.68 336.6 79.57C330.99 84.94 325.62 90.55 320.49 96.37C321.59 93.42 322.69 90.48 323.79 87.53C323.16 87.43 322.53 87.34 321.9 87.24C324.39 82.92 326.88 78.6 329.37 74.27C330.05 73.09 330.75 71.77 330.44 70.45C330.13 69.13 328.2 68.24 327.31 69.28C329.07 65.39 330.82 61.49 332.58 57.6C333.05 56.56 333.47 55.2 332.64 54.4C331.35 53.16 329.09 54.97 327.41 54.31C329.28 51.66 330.83 48.8 332.02 45.8C332.41 44.81 332.77 43.75 332.52 42.72C332.27 41.69 331.18 40.79 330.15 41.11C331.36 39.52 332.56 37.93 333.77 36.34C334.23 35.73 334.71 35.09 334.86 34.34C335.22 32.48 332.82 30.75 331.1 31.64C331.27 30.22 332.4 29.11 333.47 28.14C334.55 27.17 335.7 26.11 335.97 24.71C336.24 23.3 335.02 21.6 333.6 21.95C335.22 21.57 335.98 19.39 335.06 18.04C334.14 16.69 331.98 16.44 330.65 17.41C330.85 16.37 330.8 15.28 330.51 14.26C328.11 15.17 325.71 16.08 323.3 16.99C322.45 17.31 321.12 17.4 320.97 16.52C320.89 16.08 321.21 15.65 321.16 15.21C321.08 14.63 320.35 14.31 319.76 14.44C319.17 14.57 318.71 15 318.28 15.41C317.22 16.42 316.17 17.42 315.11 18.43C314.7 16.56 314.29 14.69 313.88 12.82C311.26 15.94 309.34 19.62 308.29 23.52C307.51 22.54 306.74 21.56 305.96 20.58C307.14 26.84 308.76 33.02 310.82 39.06C310 38.36 309.04 37.82 308 37.48C309.65 40.2 311.78 42.64 314.26 44.66L314.39 44.53C316.45 45.83 315.97 49.5 313.63 50.26C314 50.46 314.28 50.81 314.38 51.21C311.29 52.81 308.2 54.41 305.12 56.02C305.76 56.07 306.08 56.88 305.86 57.47C305.63 58.06 305.07 58.45 304.54 58.8C302.4 60.22 300.27 61.63 298.13 63.05C298.47 61.67 298.72 60.27 298.81 58.85C296.09 61.92 293.35 64.99 290.6 68.04C290.6 68.04 290.6 68.04 290.59 68.04C286.05 73.08 281.46 78.08 276.7 82.92C277.06 80.99 277.42 79.05 277.78 77.12C275.77 77.27 273.79 77.9 272.09 78.96C273.64 75.9 275.19 72.85 276.74 69.79C277.25 68.78 277.69 67.38 276.78 66.69C276.24 67.04 275.69 67.39 275.15 67.73C278.57 62.79 281.43 57.48 283.66 51.92C282.25 52.2 280.81 52.31 279.38 52.25C283.04 48.66 287.27 45.62 291.87 43.27C291.1 43.18 290.33 43.1 289.56 43.01C293.82 41.07 297.92 38.78 301.8 36.18C301.2 35.67 300.4 35.4 299.61 35.44C299.77 34.77 299.92 34.1 300.08 33.43C295.07 35.14 290.05 36.85 285.04 38.56C286.42 36.45 287.25 34.01 287.45 31.52C284.09 32.19 280.79 33.18 277.62 34.48C278.99 31.36 279.92 28.06 280.4 24.7C279.65 24.92 278.97 25.38 278.5 26C280.02 22.85 281.07 19.49 281.6 16.04C280.23 16.97 278.95 18.02 277.77 19.17C278.29 17.62 278.17 15.88 277.45 14.41C274.2 17.84 271.69 21.93 270.13 26.34C270.55 23.9 270.58 21.4 270.22 18.95C267.59 23.27 265.09 27.67 262.73 32.14C262.81 31.49 262.55 30.8 262.05 30.36C261.12 33.37 260.9 36.58 261.42 39.68L260.56 40.51C259.8 39.47 258.98 38.39 257.78 37.87C256.58 37.35 254.9 37.66 254.39 38.84C254.01 39.72 254.33 40.89 253.63 41.56C252.39 40.21 250.65 39.31 248.82 39.05C249.23 41.33 250 43.56 251.09 45.62C246.9 45.2 242.65 45.33 238.49 46.02C238.99 46.62 239.54 47.17 240.11 47.69C237.76 48.44 235.5 49.47 233.45 50.83C234.29 49.45 234.38 47.66 233.67 46.21C229.3 49.7 225.67 54.06 223.07 58.95C222.88 57.86 222.68 56.77 222.49 55.68C216.79 62.13 211.91 69.28 208.01 76.89C210.06 70 212.11 63.1 214.16 56.21C210.92 56.76 207.81 58.03 205.12 59.88C206.47 57.29 207.2 54.4 207.24 51.5C204.6 52.03 202.08 53.09 199.88 54.6C200.39 53.3 200.52 51.87 200.26 50.51C199.08 50.95 198.02 51.71 197.24 52.68C197.94 51.44 198.17 49.96 197.88 48.58C192.69 53.17 188 58.3 183.91 63.85C184.26 62.89 184.34 61.83 184.16 60.82C181.95 62.51 180.21 64.79 179.18 67.35C179.09 66.2 179.01 65.05 178.92 63.91C175.92 68.82 174.63 74.69 175.25 80.37C175.34 80.92 175.41 81.47 175.48 82.02C174.41 82.97 173.31 83.89 172.19 84.79C169.91 86.62 167.63 88.46 165.34 90.29C163.8 91.53 162.25 92.78 160.52 93.75C157.57 95.42 154.13 96.25 150.73 96.13C151.27 95.71 151.69 95.15 151.93 94.52C147.62 93.1 144.11 90.07 140.72 87.11C139.64 86.16 138.56 85.22 137.48 84.27C143.49 83.99 149.49 83.71 155.5 83.44C153.91 82.01 152.15 80.75 150.27 79.72C155.16 78.68 159.93 77.08 164.45 74.96C163.41 73.9 162.16 73.03 160.78 72.43C165.1 69.68 169.19 66.6 173.03 63.23C172.42 63.09 171.8 62.95 171.19 62.81C174.47 58.26 177.2 53.34 179.3 48.17C176.95 48.72 174.68 49.59 172.57 50.73C172.21 46.59 172.27 42.4 172.77 38.27C171.78 38.79 170.96 39.61 170.46 40.59C169.97 39.36 169.3 38.19 168.47 37.14C168.09 36.65 167.56 36.14 166.93 36.22C166.34 36.3 165.97 36.86 165.66 37.36C163.02 41.74 159.74 45.74 155.94 49.21C155.23 47.48 154.53 45.74 153.82 44.01C151.92 47.54 149.53 50.82 146.72 53.72C146.39 51.2 145.54 48.75 144.25 46.55C142.4 50.06 140.08 53.34 137.38 56.27C136.8 54.97 136.22 53.67 135.64 52.36C133.66 58.3 131.36 64.14 128.76 69.85C128.11 69.06 127.13 68.53 126.1 68.41C124.52 72.51 123.36 76.76 122.61 81.08C121.58 79.32 120.6 77.53 119.67 75.71C119.76 75.7 119.84 75.66 119.92 75.59C120.55 75.05 120.27 74.05 119.95 73.29C117.78 68.13 116.27 62.7 115.47 57.17C116.73 57.8 117.98 58.44 119.24 59.07C119.3 53.31 118.84 47.55 117.86 41.87C119.37 41.97 120.81 42.72 121.73 43.88C121.64 40.24 121.55 36.6 121.46 32.96C121.8 33.56 122.13 34.15 122.47 34.75C122.53 29.04 122.59 23.34 122.65 17.64C121.94 19.66 121.22 21.69 120.51 23.71C118.8 22.97 118.59 20.49 119.65 18.97C120.7 17.45 122.54 16.68 124.27 15.97C129.76 13.75 135.26 11.53 140.75 9.3C137.04 8.77 133.38 7.87 129.85 6.63C131.56 5.77 133.27 4.9 134.97 4.04C129.58 3.79 124.17 4.02 118.83 4.75C118.43 3.68 118.69 2.39 119.5 1.54C114.74 4.71 109.98 7.87 105.22 11.04C105.49 8.45 105.76 5.87 106.03 3.28C102.37 6.86 98.7 10.45 95.04 14.04C94.45 12.97 93.87 11.91 93.28 10.84C92.01 17.31 90.52 23.73 88.83 30.11C87.09 28.09 85.34 26.08 83.59 24.06C81.91 29.38 80.23 34.7 78.56 40.02C77.6 45.54 76.64 51.06 75.67 56.58C75.21 55.07 74.75 53.55 74.29 52.03C73.6 57.1 72.6 62.14 71.3 67.1C70.13 65.79 69.34 64.15 69.04 62.44C67.39 65.18 65.73 67.92 64.08 70.66C62.94 61.71 62.87 52.62 63.88 43.65C60.77 48.01 57.66 52.37 54.55 56.74C53.5 49.61 53.57 42.31 54.76 35.19C53.93 29.19 53.89 23.09 54.64 17.08C52.14 20.47 49.64 23.86 47.14 27.25C47.36 18.82 47.57 10.39 47.79 1.96C47.81 0.979995 47.12 -0.440005 46.28 0.119995C47.15 4.52 45.76 9.3 42.64 12.6C41.79 13.5 40.8 14.28 39.74 14.93C33.64 15.21 27.54 15.48 21.44 15.75C23.37 17.18 24.98 19.01 26.13 21.08C22.47 21.56 18.88 22.54 15.49 23.98C16.59 23.68 17.87 24.15 18.49 25.09C16.75 27.17 14.53 28.87 12.05 30.04C15.23 29.86 18.43 30.13 21.53 30.82C22.27 30.99 23.16 31.33 23.23 32.08C23.28 32.55 22.96 32.97 22.65 33.34C21.63 34.58 20.6 35.83 19.58 37.08C21.51 37.48 23.33 38.33 24.85 39.55C21.47 43.49 18.09 47.43 14.71 51.36C18.2 53.33 18.2 58.34 16.66 61.97C15.11 65.6 12.46 68.89 12.01 72.8C14.08 78.21 14.9 84.08 14.4 89.84C15.45 89.54 16.51 89.23 17.57 88.92C15.91 100.95 9.51 112.31 -5.25265e-06 120.16C1.01 119.59 2.01998 119.03 3.02999 118.46C3.27999 120.31 2.86001 122.24 1.85 123.83C7.20001 121.76 12.56 119.69 17.91 117.62C18.9 120.85 19.43 124.21 19.5 127.58C21.88 124.36 24.27 121.14 26.65 117.92C27.19 117.2 27.85 116.4 28.76 116.35C31.03 116.22 31.1 120.27 33.29 120.86C34.63 119.18 36.54 117.95 38.64 117.39C38.49 116.62 38.34 115.79 38.68 115.08C39.02 114.37 40.07 113.94 40.65 114.48C38.37 108.99 35.52 103.64 34.42 97.81C33.32 91.98 34.3 85.35 38.71 81.26C40.02 85.25 40.91 89.37 41.35 93.53C41.78 92.48 42.21 91.43 42.65 90.38C43.9 93.14 44.93 96 45.71 98.92C45.46 97.08 48.34 96.14 49.84 97.27C51.34 98.41 51.62 100.49 51.59 102.34C51.56 104.19 51.35 106.16 52.25 107.79C52.75 107.25 53.5 106.94 54.24 106.97C54.8 108.68 55.36 110.4 55.92 112.11C56.59 110.96 57.31 109.74 58.51 109.12C59.71 108.5 61.5 108.79 61.97 110.04C62.57 107.79 63.16 105.54 63.76 103.28C63.95 102.57 64.19 101.78 64.85 101.41C65.51 101.05 66.6 101.6 66.35 102.3C67.91 97.01 70.64 92.06 74.32 87.89C74.89 88.87 75.45 89.86 76.01 90.84C77.68 83.92 79.81 77.09 82.37 70.43C83.02 72.47 83.22 74.65 82.96 76.77C84.31 75.7 85.66 74.63 87.01 73.56C87.45 77.04 86.12 80.48 84.82 83.75C81.67 91.68 78.51 99.61 75.36 107.54C79.25 104.78 83.77 102.88 88.49 102.02C89.19 105.06 88.99 108.3 87.9 111.23C90.03 108.79 92.51 106.63 95.24 104.84C95.59 105.66 95.94 106.48 96.3 107.29C99.75 104.26 104.78 103.04 109.28 104.12C108.74 103.02 108.2 101.92 107.66 100.83C112.78 100.74 117.89 100.65 123.01 100.56C122.99 100.61 122.97 100.66 122.94 100.71C124.76 100.88 126.57 101.04 128.39 101.2C129.79 101.33 131.51 101.7 131.86 103.03C132.09 103.89 131.6 104.76 131.12 105.52C129.63 107.85 128 110.09 126.23 112.22C134.04 111.61 141.85 111 149.66 110.4C148.72 110.97 147.77 111.53 146.83 112.09C155.68 107.54 164.07 102.16 171.86 96.04C170.19 96.31 168.51 96.59 166.84 96.86C171.72 92.88 176.4 88.67 180.88 84.27C184.13 81.99 186.74 78.65 189.11 75.42C189.25 77.55 189.38 79.68 189.52 81.81C190.82 79.95 192.26 78.19 193.82 76.53C191.43 82.62 189.31 88.8 187.46 95.07C188.7 94.48 190.11 94.23 191.47 94.38C189.45 99.48 187.76 104.7 186.44 110C187.24 109.71 188.04 109.41 188.83 109.12C185.57 114.13 182.81 119.46 180.61 124.99C180.31 125.74 180.05 126.67 180.56 127.29C181.29 128.18 182.75 127.63 183.73 127.02C185.74 125.78 187.75 124.54 189.76 123.3C190.27 122.98 190.99 122.68 191.43 123.08C191.66 123.29 191.72 123.62 191.76 123.93C192.11 126.47 192.46 129 192.81 131.54C195.4 129.31 197.69 126.76 199.62 123.96C200.33 125.86 201.03 127.75 201.74 129.65C204.11 127.26 202.78 123.31 203.5 120.06C203.86 118.43 204.76 116.97 205.58 115.51C207.48 112.13 209.05 108.58 210.27 104.91C209.05 105.27 207.77 105.44 206.49 105.42C210.73 95.36 216.32 85.83 223.07 77.16C221.77 82.42 220.47 87.68 219.16 92.94C220.05 92.88 220.9 92.35 221.33 91.59C219.92 95.79 219.06 100.17 218.78 104.58C219.41 104.17 219.91 103.6 220.28 102.95C218.56 106.92 217.9 111.33 218.43 115.61C218.53 116.44 218.69 117.3 219.2 117.98C220.72 120.02 223.99 119.15 226.34 118.08C225.99 117.52 225.64 116.96 225.29 116.4C229.88 116.29 234.46 115.55 238.84 114.21C240.28 113.77 241.91 113.02 242.17 111.57C241.16 111.02 240.16 110.47 239.15 109.92C243.46 107.83 247.76 105.74 252.07 103.65C250.75 103.41 249.43 103.18 248.11 102.94C249.86 101.7 251.61 100.45 253.36 99.21C254.1 98.68 254.91 97.68 254.28 97.03C253.81 96.54 252.72 96.59 252.7 95.92C252.69 95.68 252.85 95.47 253 95.29C253.49 94.69 253.99 94.08 254.48 93.48C255.51 95.6 256.75 97.62 258.2 99.49C258.77 100.22 259.5 100.99 260.43 100.97C260.86 100.97 261.26 100.79 261.65 100.61C266.09 98.69 270.82 97.48 275.52 96.27C274.09 96.55 272.74 97.2 271.65 98.14C276.08 96.31 280.35 94.12 284.41 91.6C285.04 91.21 285.68 90.79 286.16 90.23C286.65 89.66 286.95 88.96 287.31 88.29C289.11 84.94 292.28 82.54 295.01 79.86C295.43 79.45 295.86 78.84 295.54 78.36C295.03 77.59 293.51 78.43 292.94 77.69C293.3 77.3 293.61 76.88 293.96 76.49C295.29 76.17 296.62 75.85 297.94 75.53C298.77 75.33 299.63 75.12 300.34 74.64C302.6 73.12 302.61 69.52 304.95 68.14C303.2 72.78 302.34 77.74 302.44 82.69C303.08 81.85 304.1 81.3 305.17 81.23C303.31 86.8 302.59 92.73 303.08 98.57C303.96 97.99 305.08 97.78 306.12 97.99C303.54 101.7 301.18 105.56 299.06 109.54C298.7 110.21 298.35 111.03 298.74 111.69C298.99 112.12 299.49 112.34 299.96 112.51C302.25 113.36 304.67 113.86 307.11 113.99C306.3 114.25 305.49 114.5 304.68 114.76C309.76 114.14 314.79 113.11 319.7 111.68C319.14 111.55 318.96 110.79 319.23 110.29C319.5 109.79 320.04 109.5 320.54 109.22C325.51 106.54 330.1 103.17 334.12 99.25C332.51 99.31 330.9 99.36 329.29 99.42C331.73 96.33 334.17 93.24 336.61 90.15C338.27 89.47 339.83 88.57 341.24 87.46C340.35 87.91 339.6 88.65 339.15 89.53C342.84 86.34 346.75 83.39 350.83 80.7C350.19 84.41 349.56 88.12 348.92 91.82C349.85 90.47 350.79 89.13 351.72 87.78C350.7 92.14 349.77 96.52 348.93 100.91C349.57 100.53 350.21 100.16 350.85 99.78C349.79 104.45 348.72 109.12 347.66 113.79C348.26 113.51 348.86 113.23 349.46 112.95C347.71 116.71 346.5 120.72 345.89 124.81C347.48 123.42 349.5 122.51 351.61 122.25C349.99 125.33 349.56 128.98 350.43 132.32C353.23 130.75 356.03 129.18 358.83 127.61C358.75 128.17 358.85 128.74 359.11 129.25C361.71 125.99 363.71 122.28 364.98 118.34C364.17 118.4 363.35 118.46 362.54 118.53C364.98 114.39 367.12 110.08 368.92 105.64C366.96 106.12 364.99 106.6 363.03 107.08C365.47 102.61 367.92 98.14 370.36 93.67C369.19 94.05 368.02 94.44 366.84 94.82C369.76 90.47 372.69 86.12 375.61 81.76C375.04 81.89 374.48 82.01 373.91 82.14C377.2 79.93 380.96 78.37 384.87 77.61C384.76 77.51 384.62 77.45 384.49 77.38C387.27 78.24 390.1 78.95 392.95 79.52C391.72 81.65 390.44 83.75 389.11 85.81C390.69 85.33 392.2 87.09 392.09 88.7C391.98 90.31 390.85 91.65 389.77 92.87C388.15 94.71 386.53 96.55 384.9 98.39C384.5 98.85 384.07 99.42 384.26 99.99C384.48 100.63 385.31 100.8 386 100.87C388.11 101.06 390.23 101.26 392.34 101.45C390.98 103.67 389.62 105.89 388.26 108.1C390.99 106.96 394.01 106.49 396.97 106.75C396.62 107.58 396.64 108.56 397.04 109.37C398.77 107.72 401.57 107.27 403.74 108.29C406.36 105.58 408.98 102.87 411.6 100.16C412.07 100.98 412.55 101.81 413.02 102.63C416.87 96.87 419.9 90.58 421.98 84.01C421.82 89.58 421.94 95.15 422.35 100.71C423.28 99.87 424.55 99.4 425.82 99.43C425.39 101.08 424.96 102.73 424.53 104.38C424.44 104.74 424.35 105.15 424.57 105.46C424.86 105.88 425.5 105.83 426 105.72C429.01 105.1 431.95 104.18 434.77 102.99C435.66 102.61 436.64 101.48 435.85 100.94C440.09 99.69 444.3 98.3 448.44 96.77C447.43 96.44 446.41 96.12 445.4 95.79C448.9 93.17 452.35 90.49 455.75 87.74C454.99 87.82 454.2 87.52 453.69 86.97" fill="black"/>
</g>
</g>
<defs>
<clipPath id="clip0_1178_806">
<rect width="132.3" height="459.45" fill="white" transform="translate(459.45 1.52588e-05) rotate(90)"/>
</clipPath>
</defs>
</svg>
