<svg width="355" height="372" viewBox="0 0 355 372" fill="none" xmlns="http://www.w3.org/2000/svg">
<g clip-path="url(#clip0_1178_802)">
<path d="M337.57 205.07C345.79 196.66 351.81 186.12 354.87 174.77C351.74 173.34 348.14 172.98 344.79 173.75C345.61 162.65 346.44 151.56 347.26 140.46C345.12 141.88 342.98 143.29 340.85 144.71C339.81 126.97 337.11 109.34 332.82 92.1C331.73 94.1 330.64 96.1 329.55 98.1C325.77 88.54 321.99 78.98 318.21 69.43C318.13 72.66 316.77 75.85 314.5 78.15C300.27 58.24 283.23 40.34 264.05 25.15C252.14 18.06 240.22 10.97 228.31 3.88C230.84 10.56 233.36 17.25 235.89 23.93C224.83 18.35 213.77 12.77 202.71 7.19C204.65 8.93 200.56 10.93 198.02 10.36C182.83 6.91 167.64 3.47 152.45 0.0200043C153.65 7.27 157.64 14.02 163.4 18.58C144.63 14.36 125.5 11.78 106.29 10.87C109.13 12.69 111.97 14.52 114.81 16.34C99.99 15.98 85.15 16.11 70.33 16.72C74.17 18.57 78.01 20.42 81.85 22.27C71.97 23.45 62.59 28.37 56 35.82C58.8 36.46 61.6 37.1 64.39 37.73C61.51 39.7 59.16 42.44 57.65 45.59C60.64 45.49 64.93 48.19 62.68 50.15L60.38 48.6C60.36 50.49 60.34 52.37 60.32 54.26C54.42 55.4 48.31 55.49 42.38 54.53C39.34 60.5 36.3 66.48 33.27 72.45C32.07 74.8 30.86 77.18 29.07 79.12C26.88 81.5 23.77 83.32 22.86 86.42C21.86 89.79 23.87 93.46 23.06 96.88C21.53 103.32 11.42 104.86 10.28 111.38C9.51 115.76 13.44 119.98 12.63 124.35C11.47 130.63 1.81 132.35 0.600003 138.62C-0.509997 144.39 6.41 148.9 6.67 154.77C6.82 158.15 4.74 161.15 3.22 164.17C-1.05 172.65 -1.04 183.15 3.24 191.62C7.06 199.19 14.11 207.96 9.14 214.83C7.32 217.35 4.02 219.05 3.58 222.13C3.24 224.49 4.77 226.67 6.29 228.51C6.77 229.1 7.28 229.68 7.77 230.25C7.77 237.86 7.77 245.47 7.77 253.08C7.74 249.49 8.42 245.9 9.75 242.57C15.5 259.8 22.7 276.55 31.25 292.58C31.92 291.39 32.6 290.2 33.27 289.01C38.37 295.64 43.47 302.26 48.58 308.89C49.5 310.09 52.3 310.25 51.56 308.93C56.58 315.66 62.33 321.84 68.67 327.33C68.75 323.02 69.68 318.73 71.4 314.78C76.18 323.9 81.24 332.88 86.54 341.71C86.23 340.47 87.53 338.86 88.98 338.82C90.75 338.77 92.22 340.07 93.5 341.29C97.2 344.83 100.91 348.36 104.61 351.9C102.9 348.72 107.32 345.13 110.83 346C114.33 346.87 116.63 350.1 118.85 352.96C121.07 355.81 124.04 358.73 127.64 358.5C126.98 356.59 129 355.49 131.22 355.24C131.75 355.43 132.28 355.62 132.81 355.79C136.94 357.14 141.2 358.03 145.51 358.51C148.55 359.48 151.56 360.56 154.52 361.75C154.71 360.79 154.9 359.82 155.09 358.86C157.07 358.79 159.05 358.62 161.01 358.37C168.11 361.24 175.13 364.3 182.05 367.56C182.47 365.75 182.9 363.93 183.32 362.12C192.55 365.37 201.78 368.62 211 371.88C211.83 367.63 211.09 363.1 208.95 359.33C215.71 359.17 222.46 359.02 229.22 358.86C229.26 357.14 228.83 355.42 227.99 353.92C237.98 354.36 248 353.92 257.91 352.57C256.54 350.88 255.16 349.2 253.79 347.51C260.26 345.83 266.32 342.58 271.3 338.12C266.5 335.8 261.12 334.7 255.8 334.95C256.35 334.76 256.86 334.43 257.25 333.99C256.87 333.83 256.48 333.67 256.1 333.51C260.28 332.46 264.96 332.81 269.17 331.55C274.7 329.9 279.04 321.88 274.2 318.73C282.03 319.57 290.06 318.5 297.4 315.64C293.23 313.83 291.87 308.24 293.27 303.92C294.67 299.59 298.06 296.26 301.33 293.1C306.47 288.15 311.6 283.19 316.74 278.24C319.12 275.95 321.66 273.32 321.84 270.02C322.02 266.72 318.15 263.36 315.46 265.27C326.35 249.43 334.8 231.92 340.43 213.54C341.46 210.19 341.08 204.97 337.58 205.09L337.57 205.07Z" fill="black"/>
<path d="M86.53 341.7C86.6 341.97 86.73 342.22 86.96 342.43C86.81 342.19 86.67 341.94 86.53 341.7Z" fill="black"/>
</g>
<defs>
<clipPath id="clip0_1178_802">
<rect width="354.87" height="371.86" fill="white"/>
</clipPath>
</defs>
</svg>
